<svg width="16" height="12" viewBox="0 0 16 12" fill="none" xmlns="http://www.w3.org/2000/svg">
<path d="M15.8638 5.5101L11.0641 0.177057C10.9617 0.0639964 10.8188 0 10.6673 0H7.4675C7.25738 0 7.06645 0.123727 6.98006 0.315716C6.89473 0.508772 6.92993 0.733827 7.07072 0.889552L11.5494 5.86635L7.07072 10.8421C6.92993 10.9989 6.89366 11.2239 6.98006 11.4159C7.06645 11.609 7.25738 11.7327 7.4675 11.7327H10.6673C10.8188 11.7327 10.9617 11.6676 11.0641 11.5567L15.8638 6.22366C16.0462 6.02101 16.0462 5.71169 15.8638 5.5101Z" fill="white"/>
<path d="M8.93023 5.5101L4.1305 0.177057C4.02811 0.0639964 3.88518 0 3.73372 0H0.533903C0.323782 0 0.132859 0.123727 0.0464638 0.315716C-0.0388647 0.508772 -0.0036667 0.733827 0.137125 0.889552L4.61581 5.86635L0.137125 10.8421C-0.0036667 10.9989 -0.0399313 11.2239 0.0464638 11.4159C0.132859 11.609 0.323782 11.7327 0.533903 11.7327H3.73372C3.88518 11.7327 4.02811 11.6676 4.1305 11.5567L8.93023 6.22366C9.11262 6.02101 9.11262 5.71169 8.93023 5.5101Z" fill="white"/>
</svg>
