<svg width="14" height="12" viewBox="0 0 14 12" fill="none" xmlns="http://www.w3.org/2000/svg">
<path d="M13.8804 5.57134L9.68059 0.904925C9.591 0.805997 9.46594 0.75 9.33341 0.75H6.53357C6.34972 0.75 6.18266 0.858261 6.10706 1.02625C6.0324 1.19518 6.0632 1.3921 6.18639 1.52836L10.1052 5.88306L6.18639 10.2368C6.0632 10.374 6.03147 10.5709 6.10706 10.7389C6.18266 10.9079 6.34972 11.0161 6.53357 11.0161H9.33341C9.46594 11.0161 9.591 10.9592 9.68059 10.8621L13.8804 6.1957C14.04 6.01838 14.04 5.74773 13.8804 5.57134Z" fill="#17191F"/>
<path d="M7.81395 5.57134L3.61419 0.904925C3.52459 0.805997 3.39953 0.75 3.26701 0.75H0.467165C0.283309 0.75 0.116252 0.858261 0.0406558 1.02625C-0.0340066 1.19518 -0.00320837 1.3921 0.119985 1.52836L4.03883 5.88306L0.119985 10.2368C-0.00320837 10.374 -0.0349399 10.5709 0.0406558 10.7389C0.116252 10.9079 0.283309 11.0161 0.467165 11.0161H3.26701C3.39953 11.0161 3.52459 10.9592 3.61419 10.8621L7.81395 6.1957C7.97354 6.01838 7.97354 5.74773 7.81395 5.57134Z" fill="#17191F"/>
</svg>
