<svg width="25" height="24" viewBox="0 0 25 24" fill="none" xmlns="http://www.w3.org/2000/svg">
<path d="M22.3425 14.2854C22.9476 13.6788 23.2875 12.8569 23.2875 12C23.2875 11.1431 22.9476 10.3212 22.3425 9.71457L14.0826 1.45389C13.9264 1.29209 13.8399 1.07538 13.8418 0.850441C13.8438 0.625504 13.934 0.410333 14.0931 0.251272C14.2521 0.0922111 14.4673 0.00198708 14.6923 3.24307e-05C14.9172 -0.00192222 15.1339 0.0845488 15.2957 0.240821L23.5529 8.5015C24.4796 9.43001 25 10.6882 25 12C25 13.3118 24.4796 14.57 23.5529 15.4985L15.2923 23.7592C15.1305 23.9155 14.9138 24.0019 14.6888 24C14.4639 23.998 14.2487 23.9078 14.0897 23.7487C13.9306 23.5897 13.8404 23.3745 13.8384 23.1496C13.8365 22.9246 13.9229 22.7079 14.0792 22.5461L22.3425 14.2854Z" fill="#17191F"/>
<path d="M1.81722 11.1421H20.6909C20.9185 11.1421 21.1367 11.2325 21.2976 11.3934C21.4584 11.5542 21.5488 11.7725 21.5488 12C21.5488 12.2275 21.4584 12.4457 21.2976 12.6066C21.1367 12.7675 20.9185 12.8579 20.6909 12.8579H1.81722C1.58969 12.8579 1.37148 12.7675 1.2106 12.6066C1.04971 12.4457 0.959328 12.2275 0.959328 12C0.959328 11.7725 1.04971 11.5542 1.2106 11.3934C1.37148 11.2325 1.58969 11.1421 1.81722 11.1421Z" fill="#17191F"/>
</svg>
