<svg width="22" height="22" viewBox="0 0 22 22" fill="none" xmlns="http://www.w3.org/2000/svg">
<path d="M19.1746 12.9998C19.7042 12.4689 20.0016 11.7498 20.0016 11C20.0016 10.2502 19.7042 9.53105 19.1746 9.00025L11.9473 1.77215C11.8106 1.63057 11.7349 1.44096 11.7366 1.24414C11.7383 1.04732 11.8173 0.859041 11.9564 0.719863C12.0956 0.580685 12.2839 0.501739 12.4807 0.500028C12.6775 0.498318 12.8672 0.57398 13.0087 0.710719L20.2338 7.93881C21.0446 8.75126 21.5 9.85219 21.5 11C21.5 12.1478 21.0446 13.2487 20.2338 14.0612L13.0057 21.2893C12.8642 21.426 12.6745 21.5017 12.4777 21.5C12.2809 21.4983 12.0926 21.4193 11.9534 21.2801C11.8143 21.141 11.7353 20.9527 11.7336 20.7559C11.7319 20.559 11.8076 20.3694 11.9443 20.2278L19.1746 12.9998Z" fill="#17191F"/>
<path d="M1.21532 10.2495H17.7298C17.9289 10.2495 18.1198 10.3286 18.2606 10.4694C18.4014 10.6102 18.4805 10.8011 18.4805 11.0002C18.4805 11.1993 18.4014 11.3902 18.2606 11.531C18.1198 11.6717 17.9289 11.7508 17.7298 11.7508H1.21532C1.01623 11.7508 0.825295 11.6717 0.68452 11.531C0.543744 11.3902 0.464657 11.1993 0.464657 11.0002C0.464657 10.8011 0.543744 10.6102 0.68452 10.4694C0.825295 10.3286 1.01623 10.2495 1.21532 10.2495Z" fill="#17191F"/>
</svg>
