<svg width="24" height="24" viewBox="0 0 24 24" fill="none" xmlns="http://www.w3.org/2000/svg">
<path fill-rule="evenodd" clip-rule="evenodd" d="M10.404 22.4033C4.66517 22.4033 0 17.7381 0 11.9993C0 6.26044 4.66517 1.59521 10.404 1.59521C13.0356 1.59521 15.5052 2.55102 17.4292 4.31471C16.7892 4.69313 16.1716 5.11229 15.5776 5.566C14.1198 4.3899 12.3071 3.74235 10.404 3.74235C5.85589 3.74235 2.14714 7.45116 2.14714 11.9993C2.14714 16.5474 5.85589 20.2562 10.404 20.2562C16.7323 20.2562 20.4895 13.4917 17.7676 8.23229C18.1801 7.84867 18.6047 7.47685 19.0405 7.11742C19.1692 7.01129 19.299 6.90615 19.4297 6.80206C20.3402 8.37469 20.8082 10.1578 20.8082 11.9992C20.8081 17.7381 16.1429 22.4033 10.404 22.4033Z" fill="#FDB52A"/>
<path fill-rule="evenodd" clip-rule="evenodd" d="M10.6775 17.3478C10.5604 17.3478 10.4627 17.2697 10.4237 17.1721C10.4042 17.1331 8.72547 12.7997 6.12933 11.16C5.6218 10.8477 5.23148 10.5158 5.38761 9.77405C5.54374 9.05183 6.03177 8.64191 6.91013 8.44669C8.47168 8.11484 10.1504 10.5353 10.7751 11.5309C12.9612 8.34914 17.3337 3.35201 23.6972 2.76642C24.0041 2.73044 24.1176 3.18548 23.8338 3.31298C23.7362 3.35201 14.6399 7.50982 10.9507 17.1917C10.8922 17.2892 10.7945 17.3478 10.6775 17.3478Z" fill="#FDB52A"/>
</svg>
