<svg width="24" height="24" viewBox="0 0 24 24" fill="none" xmlns="http://www.w3.org/2000/svg">
<path fill-rule="evenodd" clip-rule="evenodd" d="M10.404 22.4033C4.66517 22.4033 0 17.7381 0 11.9993C0 6.26044 4.66517 1.59521 10.404 1.59521C13.0356 1.59521 15.5052 2.55102 17.4292 4.31471C16.7892 4.69313 16.1716 5.11229 15.5776 5.566C14.1198 4.3899 12.3071 3.74235 10.404 3.74235C5.85589 3.74235 2.14714 7.45116 2.14714 11.9993C2.14714 16.5474 5.85589 20.2562 10.404 20.2562C16.7323 20.2562 20.4895 13.4917 17.7676 8.23229C18.1801 7.84867 18.6047 7.47685 19.0405 7.11742C19.1692 7.01129 19.299 6.90615 19.4297 6.80206C20.3402 8.37469 20.8082 10.1578 20.8082 11.9992C20.8081 17.7381 16.1429 22.4033 10.404 22.4033Z" fill="#17191F"/>
<path fill-rule="evenodd" clip-rule="evenodd" d="M10.6782 17.3478C10.5611 17.3478 10.4635 17.2697 10.4244 17.1721C10.405 17.1331 8.7262 12.7997 6.13006 11.16C5.62253 10.8477 5.23221 10.5158 5.38834 9.77405C5.54447 9.05183 6.03251 8.64191 6.91086 8.44669C8.47241 8.11484 10.1511 10.5353 10.7758 11.5309C12.962 8.34914 17.3344 3.35201 23.6979 2.76642C24.0049 2.73044 24.1184 3.18548 23.8345 3.31298C23.7369 3.35201 14.6406 7.50982 10.9514 17.1917C10.8929 17.2892 10.7953 17.3478 10.6782 17.3478Z" fill="#17191F"/>
</svg>
