<svg width="16" height="16" viewBox="0 0 16 16" fill="none" xmlns="http://www.w3.org/2000/svg">
<path fill-rule="evenodd" clip-rule="evenodd" d="M6.93601 14.9356C3.11011 14.9356 0 11.8254 0 7.99952C0 4.17362 3.11011 1.06348 6.93601 1.06348C8.69043 1.06348 10.3368 1.70068 11.6195 2.87647C11.1928 3.12875 10.7811 3.40819 10.3851 3.71067C9.41319 2.9266 8.20474 2.4949 6.93601 2.4949C3.90392 2.4949 1.43143 4.96744 1.43143 7.99952C1.43143 11.0316 3.90392 13.5041 6.93601 13.5041C11.1549 13.5041 13.6596 8.99449 11.8451 5.48819C12.1201 5.23245 12.4031 4.98456 12.6937 4.74495C12.7795 4.67419 12.866 4.6041 12.9531 4.53471C13.5601 5.58313 13.8722 6.77184 13.8722 7.99948C13.8721 11.8254 10.7619 14.9356 6.93601 14.9356Z" fill="#17191F"/>
<path fill-rule="evenodd" clip-rule="evenodd" d="M7.11814 11.565C7.04007 11.565 6.975 11.513 6.94898 11.4479C6.93599 11.4219 5.81682 8.53295 4.08605 7.43983C3.7477 7.23162 3.48749 7.01039 3.59158 6.51587C3.69566 6.03439 4.02102 5.76111 4.60659 5.63097C5.64762 5.40973 6.76676 7.02338 7.18321 7.68709C8.64066 5.56593 11.5556 2.23451 15.7979 1.84412C16.0026 1.82013 16.0783 2.12349 15.889 2.20849C15.824 2.23451 9.75976 5.00638 7.30029 11.4609C7.26127 11.526 7.1962 11.565 7.11814 11.565Z" fill="#17191F"/>
</svg>
