<svg width="43" height="41" viewBox="0 0 43 41" fill="none" xmlns="http://www.w3.org/2000/svg">
<path d="M41.3523 7.92485C39.7023 5.68031 36.8129 3.65439 33.2162 2.22047C29.6389 0.794352 25.4854 0.00573715 21.5205 9.11358e-05C17.5554 -0.00970635 13.3967 0.770771 9.81431 2.18584C6.21138 3.60905 3.31502 5.62617 1.6591 7.8654C0.0686025 10.0161 -0.389784 12.3342 0.333405 14.5691C0.802541 16.019 2.17107 16.9945 3.73964 16.9967L9.11052 17.0017C9.11228 17.0017 9.11405 17.0017 9.1159 17.0017C10.1869 17.0016 11.1931 16.5382 11.8769 15.7295C12.5535 14.9296 12.8337 13.884 12.6458 12.861C12.6404 12.831 12.6337 12.8011 12.626 12.7714L12.3434 11.6853C13.9084 10.947 17.4542 9.52076 21.504 9.54342C25.5509 9.56393 29.0943 10.9894 30.6611 11.7279L30.374 12.808C30.3659 12.8385 30.359 12.8693 30.3531 12.9003C30.1624 13.9228 30.4395 14.9691 31.1137 15.771C31.7964 16.583 32.8033 17.0495 33.8771 17.051L39.248 17.056C39.2497 17.056 39.2516 17.056 39.2533 17.056C40.8189 17.0559 42.1878 16.0849 42.6606 14.6381C43.3905 12.4037 42.9381 10.0823 41.3523 7.92485ZM40.2184 13.8581C40.0912 14.2474 39.6945 14.5189 39.2524 14.5189L33.88 14.5139C33.5706 14.5135 33.2816 14.3806 33.0871 14.1492C32.9814 14.0234 32.8164 13.7617 32.8704 13.3979L33.4047 11.3883C33.551 10.8376 33.3084 10.2581 32.8111 9.97061C32.604 9.85088 27.6654 7.03734 21.5171 7.00604C21.4829 7.00588 21.4497 7.00579 21.4157 7.00579C15.3069 7.00579 10.4035 9.80704 10.1967 9.92694C9.70261 10.2134 9.4604 10.7888 9.60309 11.3373L10.1268 13.3501C10.1803 13.7147 10.0143 13.9763 9.90804 14.102C9.71328 14.3323 9.42454 14.4643 9.11514 14.4643L3.74266 14.4594C3.30065 14.4587 2.90383 14.1859 2.77768 13.7958C2.30804 12.3443 2.6287 10.8527 3.73074 9.3625C6.65818 5.40399 14.116 2.53689 21.4768 2.53689C21.4899 2.53689 21.5039 2.53689 21.517 2.53689C28.8851 2.54735 36.3541 5.44052 39.2765 9.41614C40.3758 10.9121 40.6928 12.4065 40.2184 13.8581Z" fill="white"/>
<path d="M33.6437 22.4767L29.6384 18.319C29.3961 18.0676 29.0604 17.9253 28.7093 17.9253H26.1209V16.1964C26.1209 15.4958 25.5464 14.9279 24.8378 14.9279C24.1292 14.9279 23.5546 15.4958 23.5546 16.1964V17.9253H19.446V16.1964C19.446 15.4958 18.8715 14.9279 18.1629 14.9279C17.4542 14.9279 16.8797 15.4958 16.8797 16.1964V17.9253H14.2914C13.9403 17.9253 13.6044 18.0677 13.3623 18.319L9.3571 22.4767C6.21676 25.7366 4.48727 30.0111 4.48727 34.5128V39.7315C4.48727 40.4321 5.06172 41 5.77038 41H37.2302C37.9389 41 38.5133 40.4321 38.5133 39.7315V34.5128C38.5135 30.011 36.784 25.7366 33.6437 22.4767ZM7.05349 38.4629V34.5128C7.05349 30.6655 8.53153 27.0124 11.2155 24.2263L14.8414 20.4622H28.1593L31.7853 24.2263C34.4691 27.0123 35.9471 30.6655 35.9471 34.5128V38.4629H7.05349Z" fill="white"/>
<path d="M21.5004 23.0851C17.7975 23.0851 14.7851 26.0634 14.7851 29.7241C14.7851 33.3849 17.7976 36.3631 21.5004 36.3631C25.2032 36.3631 28.2157 33.3849 28.2157 29.7241C28.2157 26.0633 25.2033 23.0851 21.5004 23.0851ZM21.5004 33.826C19.2125 33.826 17.3513 31.9859 17.3513 29.724C17.3513 27.4622 19.2126 25.6221 21.5004 25.6221C23.7882 25.6221 25.6495 27.4622 25.6495 29.724C25.6495 31.9859 23.7882 33.826 21.5004 33.826Z" fill="white"/>
</svg>
