<svg width="37" height="37" viewBox="0 0 37 37" fill="none" xmlns="http://www.w3.org/2000/svg">
<path d="M29.4683 21.8842C28.6981 21.114 27.7316 20.6075 26.6814 20.4093C26.6339 19.6123 26.3015 18.8695 25.7315 18.2996L25.7215 18.2896C25.4618 18.0299 25.1685 17.8242 24.8559 17.6705C26.2716 16.6161 27.9965 16.0603 29.7344 16.1231C31.3756 16.1824 32.8961 15.7523 34.2555 14.8447C34.2705 14.8347 34.2852 14.8243 34.2997 14.8135C36.5451 13.1465 37.4516 10.4126 36.7868 7.31275C36.5668 6.28706 36.3224 5.40025 36.0605 4.67698C35.9343 4.32838 35.6387 4.06852 35.2768 3.98795C34.9149 3.90738 34.537 4.01744 34.2749 4.27953L30.3856 8.16892L28.8311 6.61455L32.7207 2.72509C32.9828 2.46292 33.0928 2.08499 33.0122 1.7231C32.9317 1.36121 32.6717 1.06558 32.3232 0.939413C31.5998 0.677533 30.7131 0.433214 29.6874 0.213247C26.5875 -0.451641 23.8536 0.454893 22.1866 2.70031C22.1759 2.71476 22.1655 2.7295 22.1555 2.74446C21.2477 4.10393 20.8175 5.62513 20.877 7.26564C20.9536 9.38213 20.1126 11.4809 18.5698 13.0237L18.1476 13.4459L10.7453 6.0436L9.65158 3.23353C9.55974 2.99745 9.38804 2.80097 9.16626 2.67827L4.57388 0.137082C4.15093 -0.0969763 3.62435 -0.0226181 3.28261 0.319039L0.317521 3.28404C-0.0242105 3.62577 -0.0984246 4.15249 0.135491 4.5753L2.67676 9.16766C2.79946 9.38936 2.99595 9.56106 3.2321 9.65297L6.04219 10.7467L13.4445 18.149L6.66163 24.9319C6.14712 25.4464 5.47009 25.7824 4.70374 25.9036C3.53329 26.0886 2.47168 26.6295 1.63379 27.4674C-0.543854 29.6451 -0.543926 33.1884 1.63379 35.3661C2.72258 36.455 4.15288 36.9994 5.58318 36.9994C7.01348 36.9994 8.44378 36.455 9.53256 35.3661C10.3707 34.5281 10.9113 33.4665 11.0963 32.2963C11.2176 31.5299 11.5536 30.8528 12.0681 30.3384L17.6291 24.7774C17.7888 25.1248 18.0102 25.4449 18.2888 25.7236L18.2989 25.7336C18.8682 26.3028 19.6109 26.6352 20.4079 26.6829C20.6062 27.7329 21.1126 28.6995 21.8829 29.4697L27.8422 35.429C28.8553 36.4421 30.2022 37 31.6349 37C33.0675 37 34.4146 36.442 35.4276 35.429C37.5189 33.3377 37.5189 29.9348 35.4276 27.8435L29.4683 21.8842ZM20.1028 14.5567C22.07 12.5895 23.1418 9.90351 23.0435 7.1873C23.0012 6.02034 23.3039 4.93842 23.9432 3.97119C24.6214 3.06913 26.1994 1.68234 29.2328 2.33292C29.4625 2.38221 29.6836 2.4325 29.8961 2.48381L26.5318 5.84799C26.3286 6.05126 26.2143 6.32695 26.2143 6.61448C26.2143 6.90201 26.3285 7.17769 26.5318 7.38097L29.6192 10.4682C30.0425 10.8916 30.7288 10.8916 31.1521 10.4682L34.5163 7.10406C34.5676 7.31644 34.618 7.5377 34.6673 7.76735C35.3179 10.8006 33.9311 12.3788 33.029 13.0569C32.0619 13.6962 30.9811 13.9993 29.8128 13.9567C27.0973 13.8586 24.4104 14.9303 22.4434 16.8974L22.0213 17.3196L19.6806 14.9789L20.1028 14.5567ZM2.42753 4.23986L4.23844 2.42903L7.77354 4.38525L8.55109 6.3828L6.38147 8.55241L4.38383 7.77494L2.42753 4.23986ZM9.81779 8.18192L20.5158 18.8799L18.8785 20.5172L8.18053 9.81918L9.81779 8.18192ZM10.5352 28.8054C9.69472 29.6458 9.14842 30.7359 8.95511 31.9577C8.84216 32.6727 8.51171 33.3213 7.99972 33.8332C7.33339 34.4996 6.45843 34.8327 5.58325 34.8326C4.70822 34.8325 3.8329 34.4994 3.16678 33.8332C1.83439 32.5008 1.83439 30.3328 3.16678 29.0003C3.67876 28.4883 4.32739 28.158 5.04243 28.0449C6.26411 27.8516 7.35413 27.3053 8.19462 26.4648L14.9775 19.6819L17.3182 22.0226L10.5352 28.8054ZM19.8211 24.19C19.6143 23.983 19.5002 23.7079 19.5002 23.4152C19.5002 23.1226 19.6143 22.8474 19.8211 22.6405L22.6395 19.8223C22.853 19.6089 23.1332 19.5022 23.4137 19.5022C23.6944 19.5022 23.9753 19.6092 24.1893 19.8232L24.1993 19.8332C24.4062 20.0401 24.5202 20.3152 24.5202 20.6079C24.5202 20.9006 24.4062 21.1757 24.1993 21.3826L21.3814 24.2006C20.9542 24.6277 20.2591 24.6279 19.8312 24.1999L19.8211 24.19ZM33.8947 33.896C33.291 34.4996 32.4886 34.8321 31.6349 34.8321C30.7813 34.8321 29.9787 34.4996 29.3751 33.896L23.4158 27.9367C22.9226 27.4435 22.6101 26.8152 22.5129 26.1348L26.1336 22.5143C26.814 22.6114 27.4423 22.9239 27.9356 23.4171L33.8949 29.3764C35.1408 30.6225 35.1408 32.6499 33.8947 33.896Z" fill="white"/>
<path d="M5.63225 32.5319C6.23089 32.5319 6.71619 32.0466 6.71619 31.448C6.71619 30.8494 6.23089 30.3641 5.63225 30.3641C5.0336 30.3641 4.5483 30.8494 4.5483 31.448C4.5483 32.0466 5.0336 32.5319 5.63225 32.5319Z" fill="white"/>
</svg>
