<svg width="18" height="16" viewBox="0 0 18 16" fill="none" xmlns="http://www.w3.org/2000/svg">
<path d="M16.6086 10.0706C16.4422 10.0706 16.2826 10.1367 16.165 10.2543C16.0473 10.372 15.9812 10.5316 15.9812 10.698V12.8408C15.9812 13.3458 15.7805 13.8302 15.4234 14.1873C15.0663 14.5444 14.5819 14.7451 14.0769 14.7451H3.15922C2.65416 14.7451 2.16979 14.5444 1.81266 14.1873C1.45553 13.8302 1.2549 13.3458 1.2549 12.8408V10.698C1.2549 10.5316 1.1888 10.372 1.07113 10.2543C0.953456 10.1367 0.793861 10.0706 0.627451 10.0706C0.461041 10.0706 0.301446 10.1367 0.183776 10.2543C0.0661062 10.372 0 10.5316 0 10.698V12.8408C0.000830562 13.6784 0.333942 14.4815 0.92623 15.0737C1.51852 15.666 2.32159 15.9991 3.15922 16H14.0769C14.9145 15.9991 15.7176 15.666 16.3098 15.0737C16.9021 14.4815 17.2352 13.6784 17.2361 12.8408V10.698C17.2361 10.5316 17.17 10.372 17.0523 10.2543C16.9346 10.1367 16.775 10.0706 16.6086 10.0706Z" fill="white"/>
<path d="M8.17364 11.9028C8.23197 11.9616 8.30137 12.0083 8.37783 12.0401C8.45429 12.072 8.5363 12.0884 8.61913 12.0884C8.70196 12.0884 8.78398 12.072 8.86044 12.0401C8.9369 12.0083 9.00629 11.9616 9.06462 11.9028L12.6348 8.33257C12.7344 8.2127 12.7859 8.06005 12.7791 7.90434C12.7724 7.74864 12.7079 7.60101 12.5983 7.49022C12.4887 7.37943 12.3417 7.3134 12.1861 7.30499C12.0305 7.29658 11.8773 7.34639 11.7564 7.44472L9.24658 9.95453V0.627452C9.24658 0.461042 9.18048 0.301447 9.06281 0.183776C8.94514 0.0661064 8.78554 0 8.61913 0C8.45272 0 8.29313 0.0661064 8.17546 0.183776C8.05779 0.301447 7.99168 0.461042 7.99168 0.627452V9.94512L5.48188 7.43531C5.36414 7.31757 5.20446 7.25143 5.03796 7.25143C4.87145 7.25143 4.71177 7.31757 4.59403 7.43531C4.4763 7.55304 4.41016 7.71273 4.41016 7.87923C4.41016 8.04573 4.4763 8.20542 4.59403 8.32315L8.17364 11.9028Z" fill="white"/>
</svg>
