<svg width="50" height="50" viewBox="0 0 50 50" fill="none" xmlns="http://www.w3.org/2000/svg">
<path d="M2.05078 20.3281C1.72754 20.3281 1.46484 20.0654 1.46484 19.7422C1.46484 19.4189 1.72754 19.1562 2.05078 19.1562H10.9014C11.2246 19.1562 11.4873 19.4189 11.4873 19.7422C11.4873 20.0654 11.2246 20.3281 10.9014 20.3281H2.05078ZM9.04395 27.9922C9.04395 27.6689 8.78125 27.4062 8.45801 27.4062H2.24805C1.9248 27.4062 1.66211 27.6689 1.66211 27.9922C1.66211 28.3154 1.9248 28.5781 2.24805 28.5781H8.45801C8.78223 28.5781 9.04395 28.3164 9.04395 27.9922ZM11.3418 37.3779C11.3418 37.0547 11.0791 36.792 10.7559 36.792H5.95312C5.62988 36.792 5.36719 37.0547 5.36719 37.3779C5.36719 37.7012 5.62988 37.9639 5.95312 37.9639H10.7559C11.0791 37.9639 11.3418 37.7012 11.3418 37.3779ZM48.5352 28.9648C48.5352 38.8906 40.46 46.9648 30.5352 46.9648C26.0732 46.9648 21.9863 45.332 18.8379 42.6348C18.7861 42.6494 18.7324 42.6582 18.6768 42.6582H11.6143C11.291 42.6582 11.0283 42.3955 11.0283 42.0723C11.0283 41.749 11.291 41.4863 11.6143 41.4863H17.6172C15.4307 39.2314 13.8291 36.4082 13.0547 33.2627H5.73145C5.4082 33.2627 5.14551 33 5.14551 32.6768C5.14551 32.3535 5.4082 32.0908 5.73145 32.0908H12.8066C12.6279 31.0752 12.5342 30.0312 12.5342 28.9648C12.5342 27.2119 12.7871 25.5166 13.2568 23.9131H9.05371C8.73047 23.9131 8.46777 23.6504 8.46777 23.3271C8.46777 23.0039 8.73047 22.7412 9.05371 22.7412H13.6436C14.2158 21.1934 14.9951 19.7451 15.9482 18.4297L14.3945 16.876L14.1172 17.1533C13.79 17.4814 13.3525 17.6611 12.8867 17.6611C12.4209 17.6611 11.9844 17.4805 11.6562 17.1533L9.89453 15.3916C9.21582 14.7129 9.21582 13.6094 9.89453 12.9316L14.4795 8.34668C14.8076 8.01855 15.2441 7.83887 15.71 7.83887C16.1758 7.83887 16.6123 8.01953 16.9404 8.34668L18.7012 10.1074C19.0293 10.4355 19.209 10.8721 19.209 11.3379C19.209 11.8037 19.0283 12.2402 18.7012 12.5684L18.4453 12.8242L19.999 14.3779C22.2275 12.7637 24.8389 11.6475 27.6689 11.1924V9.00488H27.2764C26.3174 9.00488 25.5361 8.22461 25.5361 7.26465V4.77441C25.5361 3.81543 26.3164 3.03418 27.2764 3.03418H33.7607C34.7197 3.03418 35.501 3.81445 35.501 4.77441V7.26562C35.501 8.22461 34.7207 9.00586 33.7607 9.00586H33.3984V11.1943C41.9678 12.5703 48.5352 20.0146 48.5352 28.9648ZM33.7617 7.83301C34.0752 7.83301 34.3301 7.57812 34.3301 7.26465V4.77441C34.3301 4.46094 34.0752 4.20605 33.7617 4.20605H27.2773C26.9639 4.20605 26.709 4.46094 26.709 4.77441V7.26562C26.709 7.5791 26.9639 7.83398 27.2773 7.83398H33.7617V7.83301ZM28.8418 9.00488V11.0449C29.3994 10.9922 29.9639 10.9648 30.5342 10.9648C31.1045 10.9648 31.6699 10.9932 32.2266 11.0449V9.00488H28.8418ZM17.874 11.7402C17.9805 11.6338 18.0391 11.4912 18.0391 11.3389C18.0391 11.1865 17.9805 11.0439 17.874 10.9375L16.1133 9.17578C16.0068 9.06934 15.8643 9.01074 15.7119 9.01074C15.5596 9.01074 15.417 9.06934 15.3105 9.17578L10.7256 13.7607C10.5039 13.9824 10.5039 14.3428 10.7256 14.5645L12.4863 16.3252C12.5928 16.4316 12.7354 16.4902 12.8877 16.4902C13.04 16.4902 13.1826 16.4316 13.2891 16.3252L17.874 11.7402ZM16.6719 17.4961C17.3936 16.625 18.1953 15.8232 19.0664 15.1016L17.6182 13.6533L15.2236 16.0479L16.6719 17.4961ZM47.3633 28.9648C47.3633 19.6855 39.8145 12.1367 30.5352 12.1367C21.2559 12.1367 13.7061 19.6855 13.7061 28.9648C13.7061 38.2441 21.2549 45.793 30.5352 45.793C39.8145 45.7939 47.3633 38.2441 47.3633 28.9648ZM44.4375 28.9648C44.4375 36.6309 38.2012 42.8672 30.5352 42.8672C22.8691 42.8672 16.6318 36.6309 16.6318 28.9648C16.6318 21.2988 22.8682 15.0625 30.5342 15.0625C38.2002 15.0625 44.4375 21.2988 44.4375 28.9648ZM43.251 29.5508H40.8027C40.4795 29.5508 40.2168 29.2881 40.2168 28.9648C40.2168 28.6416 40.4795 28.3789 40.8027 28.3789H43.251C43.1113 25.3096 41.8799 22.5205 39.9365 20.3916L38.209 22.1191C38.0947 22.2334 37.9443 22.291 37.7949 22.291C37.6455 22.291 37.4951 22.2334 37.3809 22.1191C37.1523 21.8906 37.1523 21.5195 37.3809 21.29L39.1084 19.5625C36.9795 17.6191 34.1895 16.3877 31.1211 16.248V18.6963C31.1211 19.0195 30.8584 19.2822 30.5352 19.2822C30.2119 19.2822 29.9492 19.0195 29.9492 18.6963V16.248C26.8799 16.3877 24.0908 17.6191 21.9619 19.5625L23.6895 21.29C23.918 21.5186 23.918 21.8896 23.6895 22.1191C23.5752 22.2334 23.4248 22.291 23.2754 22.291C23.126 22.291 22.9756 22.2334 22.8613 22.1191L21.1338 20.3916C19.1904 22.5205 17.959 25.3105 17.8193 28.3789H20.2676C20.5908 28.3789 20.8535 28.6416 20.8535 28.9648C20.8535 29.2881 20.5908 29.5508 20.2676 29.5508H17.8193C17.959 32.6201 19.1904 35.4092 21.1338 37.5381L22.8613 35.8105C23.0898 35.582 23.4609 35.582 23.6895 35.8105C23.918 36.0391 23.918 36.4102 23.6895 36.6396L21.9619 38.3672C24.0908 40.3105 26.8809 41.542 29.9492 41.6816V39.2334C29.9492 38.9102 30.2119 38.6475 30.5352 38.6475C30.8584 38.6475 31.1211 38.9102 31.1211 39.2334V41.6816C34.1904 41.542 36.9795 40.3105 39.1084 38.3672L37.3809 36.6406C37.1523 36.4121 37.1523 36.041 37.3809 35.8115C37.6094 35.583 37.9805 35.583 38.209 35.8115L39.9365 37.5391C41.8799 35.4092 43.1113 32.6201 43.251 29.5508ZM34.9053 26.5791C35.001 26.7871 34.9668 27.0312 34.8184 27.2051L27.2178 36.0996C27.1025 36.2344 26.9385 36.3047 26.7725 36.3047C26.668 36.3047 26.5625 36.2764 26.4678 36.2188C26.2227 36.0693 26.1221 35.7627 26.2305 35.4971L28.5508 29.8281H26.6963C26.4932 29.8281 26.3047 29.7227 26.1982 29.5508C26.0918 29.3779 26.082 29.1621 26.1719 28.9814L29.6768 21.9521C29.7764 21.7529 29.9795 21.6279 30.2012 21.6279H30.207L34.0654 21.668C34.2773 21.6699 34.4727 21.7871 34.5742 21.9736C34.6758 22.1602 34.6689 22.3867 34.5557 22.5664L32.2422 26.2402H34.374C34.6025 26.2383 34.8096 26.3711 34.9053 26.5791ZM33.1016 27.4102H31.1797C30.9668 27.4102 30.7695 27.2939 30.667 27.1074C30.5635 26.9209 30.5703 26.6924 30.6846 26.5117L33.0059 22.8271L30.5625 22.8018L27.6436 28.6553H29.4238C29.6191 28.6553 29.8018 28.7529 29.9102 28.915C30.0186 29.0771 30.04 29.2832 29.9658 29.4639L28.6963 32.5664L33.1016 27.4102Z" fill="#0052DA"/>
</svg>
