<svg width="50" height="50" viewBox="0 0 50 50" fill="none" xmlns="http://www.w3.org/2000/svg">
<g clip-path="url(#clip0_658_24656)">
<path d="M29.2968 21.0312C28.9927 20.9347 28.6608 21.046 28.4768 21.3068L23.6097 28.1979C23.4518 28.4214 23.4318 28.7143 23.5577 28.9573C23.6835 29.2002 23.9344 29.3528 24.208 29.3528H28.3427V30.9584C28.3427 31.3629 28.6705 31.6909 29.0751 31.6909C29.4797 31.6909 29.8075 31.3629 29.8075 30.9584V29.3528H29.838C30.2426 29.3528 30.5704 29.0248 30.5704 28.6204C30.5704 28.2159 30.2426 27.8879 29.838 27.8879H29.8075V21.7292C29.8076 21.4102 29.601 21.1278 29.2968 21.0312ZM28.3428 27.888H25.6221L28.3428 24.0359V27.888Z" fill="#0052DA"/>
<path d="M20.2119 20.9968C18.4662 20.9968 17.0459 22.3851 17.0459 24.0915V24.4392C17.0459 24.8437 17.3737 25.1716 17.7783 25.1716C18.1829 25.1716 18.5108 24.8437 18.5108 24.4392V24.0915C18.5108 23.1928 19.2738 22.4617 20.2119 22.4617C21.1498 22.4617 21.913 23.1928 21.913 24.0915V24.9546C21.913 25.3641 21.7537 25.7558 21.4644 26.0574L17.2497 30.4515C17.0466 30.6632 16.9895 30.9759 17.1047 31.2458C17.2198 31.5158 17.485 31.691 17.7783 31.691H22.6454C23.05 31.691 23.3778 31.363 23.3778 30.9585C23.3778 30.5541 23.05 30.2261 22.6454 30.2261H19.4957L22.5216 27.0714C23.0736 26.4958 23.3778 25.744 23.3778 24.9547V24.0916C23.3778 22.3851 21.9576 20.9968 20.2119 20.9968Z" fill="#0052DA"/>
<path d="M23.8081 12.4878C23.4035 12.4878 23.0757 12.8157 23.0757 13.2202V14.2634C23.0757 14.6679 23.4035 14.9958 23.8081 14.9958C24.2127 14.9958 24.5405 14.6679 24.5405 14.2634V13.2202C24.5405 12.8157 24.2127 12.4878 23.8081 12.4878Z" fill="#0052DA"/>
<path d="M23.0757 38.3571V39.4675C23.0757 39.872 23.4035 40.1999 23.8081 40.1999C24.2127 40.1999 24.5405 39.872 24.5405 39.4675V38.3571C24.5405 37.9526 24.2127 37.6246 23.8081 37.6246C23.4035 37.6246 23.0757 37.9526 23.0757 38.3571Z" fill="#0052DA"/>
<path d="M11.7276 27.0763C12.1322 27.0763 12.46 26.7484 12.46 26.3439C12.46 25.9394 12.1322 25.6115 11.7276 25.6115H10.6844C10.2799 25.6115 9.95203 25.9394 9.95203 26.3439C9.95203 26.7484 10.2799 27.0763 10.6844 27.0763H11.7276Z" fill="#0052DA"/>
<path d="M36.9317 27.0763C37.3363 27.0763 37.6642 26.7484 37.6642 26.3439C37.6642 25.9394 37.3363 25.6115 36.9317 25.6115H35.8213C35.4167 25.6115 35.0889 25.9394 35.0889 26.3439C35.0889 26.7484 35.4167 27.0763 35.8213 27.0763H36.9317Z" fill="#0052DA"/>
<path d="M14.7481 18.3196C14.8911 18.4626 15.0786 18.5341 15.266 18.5341C15.4534 18.5341 15.6409 18.4626 15.7839 18.3195C16.07 18.0335 16.07 17.5697 15.7839 17.2837L15.0462 16.5461C14.7602 16.26 14.2964 16.2601 14.0104 16.5461C13.7244 16.8321 13.7244 17.2959 14.0105 17.5819L14.7481 18.3196Z" fill="#0052DA"/>
<path d="M33.088 36.3561C33.2754 36.3561 33.4629 36.2846 33.6059 36.1415C33.892 35.8555 33.892 35.3917 33.6058 35.1057L32.8206 34.3205C32.5346 34.0344 32.0709 34.0345 31.7848 34.3205C31.4988 34.6066 31.4988 35.0703 31.7849 35.3563L32.5702 36.1415C32.713 36.2846 32.9005 36.3561 33.088 36.3561Z" fill="#0052DA"/>
<path d="M14.0104 36.1415C14.1535 36.2844 14.3409 36.356 14.5284 36.356C14.7158 36.356 14.9033 36.2845 15.0462 36.1416L15.7839 35.404C16.0701 35.1179 16.0701 34.6542 15.784 34.3681C15.4979 34.0821 15.0341 34.082 14.7483 34.3681L14.0106 35.1057C13.7244 35.3918 13.7244 35.8554 14.0104 36.1415Z" fill="#0052DA"/>
<path d="M38.9563 42.5586C34.8326 46.4126 29.4531 48.5352 23.8081 48.5352C17.8807 48.5352 12.3078 46.2269 8.11643 42.0354C3.92502 37.844 1.61672 32.2713 1.61672 26.3438C1.61672 22.8195 2.41838 19.4502 3.99934 16.3293C5.27913 13.803 7.06184 11.5172 9.19885 9.64307V11.8965C9.19885 12.301 9.52668 12.6289 9.93127 12.6289C10.3359 12.6289 10.6637 12.301 10.6637 11.8965V8.0957C10.6637 7.69121 10.3359 7.36328 9.93127 7.36328H6.13049C5.7259 7.36328 5.39807 7.69121 5.39807 8.0957C5.39807 8.5002 5.7259 8.82812 6.13049 8.82812H7.91028C5.7759 10.7698 3.99182 13.1028 2.6927 15.6673C1.00686 18.9953 0.151978 22.5874 0.151978 26.3438C0.151978 32.6627 2.61262 38.6032 7.08069 43.0713C11.5488 47.5394 17.4894 50 23.8081 50C29.8257 50 35.5607 47.7374 39.9565 43.6288C40.252 43.3525 40.2677 42.8891 39.9914 42.5936C39.7155 42.2982 39.252 42.2824 38.9563 42.5586Z" fill="#0052DA"/>
<path d="M48.2888 8.96729H46.6374C46.5976 8.96729 46.5623 8.94268 46.5499 8.90625C46.4305 8.55986 46.2878 8.21621 46.1258 7.88477C46.1084 7.84932 46.1158 7.80664 46.144 7.77852L47.3124 6.61016C47.607 6.31563 47.7692 5.92402 47.7692 5.50742C47.7692 5.09092 47.607 4.69932 47.3125 4.40479L45.4436 2.53594C44.8356 1.92813 43.8464 1.92793 43.2382 2.53594L42.07 3.7043C42.0417 3.73252 41.9989 3.73984 41.9635 3.72256C41.633 3.56084 41.2895 3.41816 40.9422 3.29854C40.9056 3.28594 40.881 3.25068 40.881 3.21094V1.55957C40.8809 0.699512 40.1814 0 39.3214 0H36.6787C35.8187 0 35.1192 0.699512 35.1192 1.55938V3.21074C35.1192 3.25059 35.0946 3.28584 35.0581 3.29834C34.7109 3.41797 34.3673 3.56055 34.0368 3.72227C34.0014 3.73975 33.9586 3.73242 33.9304 3.7042L32.7619 2.53574C32.1539 1.92793 31.1647 1.92773 30.5565 2.53574L29.6742 3.41816C27.7801 2.93672 25.8134 2.6876 23.8082 2.6876C23.4036 2.6876 23.0757 3.01553 23.0757 3.42002C23.0757 3.82451 23.4036 4.15244 23.8082 4.15244C25.4011 4.15244 26.9679 4.32129 28.4897 4.64668C28.3215 4.89971 28.2311 5.19648 28.2311 5.50723C28.2311 5.92373 28.3933 6.31533 28.6878 6.60986L29.8563 7.77822C29.8844 7.80645 29.8918 7.84912 29.8745 7.88467C29.7127 8.21533 29.5702 8.55889 29.4505 8.90586C29.4379 8.94248 29.4027 8.96719 29.3629 8.96719H27.7116C27.3502 8.96719 27.0182 9.0918 26.7536 9.29873C25.796 9.13369 24.8122 9.04697 23.8084 9.04697C19.5222 9.04697 15.4103 10.6264 12.23 13.4943C9.07329 16.3408 7.07993 20.225 6.61704 24.4316C6.5728 24.8337 6.86294 25.1955 7.26499 25.2397C7.6689 25.2841 8.02886 24.9938 8.0731 24.5918C8.49673 20.7427 10.3212 17.1879 13.2107 14.5822C16.1214 11.9574 19.885 10.5118 23.8082 10.5118C24.6044 10.5118 25.387 10.5717 26.152 10.686V13.1694C26.152 14.0293 26.8515 14.7288 27.7115 14.7288H29.3628C29.4026 14.7288 29.4378 14.7534 29.4504 14.7901C29.5701 15.1372 29.7127 15.4808 29.8744 15.8113C29.8918 15.8468 29.8845 15.8896 29.8562 15.9177L28.6878 17.086C28.3932 17.3806 28.231 17.7722 28.231 18.1888C28.231 18.6054 28.3932 18.997 28.6877 19.2914L30.5566 21.1603C31.1646 21.7681 32.1538 21.7683 32.762 21.1603L33.9302 19.9919C33.9585 19.9637 34.0013 19.9563 34.0368 19.9737C34.3677 20.1355 34.7113 20.2782 35.058 20.3977C35.0946 20.4103 35.1192 20.4455 35.1192 20.4853V22.1367C35.1192 22.9966 35.8187 23.6961 36.6787 23.6961H39.3214C39.3533 23.6961 39.3844 23.6932 39.4158 23.6913C39.5623 24.5541 39.6401 25.4399 39.6401 26.3438C39.6401 35.0735 32.5378 42.1758 23.8082 42.1758C19.8437 42.1758 16.0506 40.7034 13.1277 38.0301C10.2232 35.3736 8.41948 31.7619 8.04888 27.8604C8.0105 27.4576 7.65464 27.1624 7.25044 27.2005C6.84771 27.2388 6.5523 27.5962 6.59048 27.9989C6.99556 32.2627 8.96607 36.209 12.1389 39.1109C15.3327 42.0319 19.4769 43.6406 23.8081 43.6406C33.3456 43.6406 41.1048 35.8813 41.1048 26.3438C41.1048 25.1253 40.9773 23.9363 40.7362 22.7885C40.8281 22.5898 40.8808 22.3695 40.8808 22.1366V20.4854C40.8808 20.4456 40.9054 20.4104 40.9421 20.3978C41.2887 20.2783 41.6323 20.1357 41.9634 19.9738C41.9987 19.9565 42.0416 19.9638 42.0697 19.992L43.2381 21.1604C43.833 21.7551 44.7915 21.7665 45.4022 21.1978C45.7961 22.8644 45.9994 24.5885 45.9994 26.3439C45.9994 31.4032 44.3405 36.1684 41.202 40.1243C40.9506 40.4412 41.0038 40.9019 41.3207 41.1533C41.4553 41.2602 41.6159 41.312 41.7753 41.312C41.9912 41.312 42.205 41.217 42.3497 41.0348C45.6957 36.8172 47.4642 31.7372 47.4642 26.3439C47.4642 24.1687 47.1708 22.039 46.6057 19.998L47.3121 19.2917C47.6067 18.9972 47.7689 18.6056 47.7689 18.189C47.7689 17.7724 47.6067 17.3808 47.3121 17.0862L46.1437 15.9179C46.1155 15.8896 46.1083 15.8469 46.1255 15.8114C46.2872 15.4809 46.4298 15.1373 46.5495 14.7902C46.5622 14.7536 46.5973 14.7289 46.6371 14.7289H48.2885C49.1484 14.7289 49.8479 14.0294 49.8479 13.1695V10.5267C49.8481 9.6668 49.1486 8.96729 48.2888 8.96729ZM48.3833 13.1694C48.3833 13.2216 48.3408 13.264 48.2887 13.264H46.6373C45.9726 13.264 45.3809 13.6854 45.1647 14.3129C45.0646 14.6034 44.9452 14.8909 44.8098 15.1677C44.5175 15.7651 44.6373 16.4828 45.1081 16.9535L46.2765 18.122C46.2949 18.1403 46.3041 18.1628 46.3041 18.1889C46.3041 18.2148 46.2949 18.2373 46.2764 18.2558L44.4078 20.1245C44.3708 20.1614 44.3108 20.1613 44.274 20.1245L43.1055 18.9561C42.6348 18.4855 41.9172 18.3657 41.3199 18.6578C41.0426 18.7934 40.7551 18.9128 40.4651 19.0127C39.8375 19.2288 39.4161 19.8206 39.4161 20.4854V22.1368C39.4161 22.189 39.3736 22.2313 39.3214 22.2313H36.6787C36.6265 22.2313 36.584 22.1889 36.584 22.1368V20.4854C36.584 19.8207 36.1625 19.2289 35.5351 19.0127C35.245 18.9128 34.9575 18.7934 34.6803 18.6578C34.4625 18.5514 34.2289 18.4996 33.9969 18.4996C33.5925 18.4996 33.1936 18.657 32.8945 18.9561L31.7262 20.1244C31.6892 20.1613 31.6292 20.1612 31.5924 20.1244L29.7236 18.2556C29.7052 18.2372 29.6959 18.2147 29.6959 18.1888C29.6959 18.1628 29.7052 18.1403 29.7237 18.1219L30.8921 16.9534C31.3627 16.4827 31.4826 15.7651 31.1903 15.1677C31.0549 14.8909 30.9356 14.6033 30.8354 14.3129C30.6192 13.6854 30.0275 13.264 29.3628 13.264H27.7115C27.6593 13.264 27.6168 13.2215 27.6168 13.1694V10.5266C27.6168 10.4744 27.6593 10.432 27.7115 10.432H29.3628C30.0274 10.432 30.6192 10.0105 30.8354 9.38311C30.9354 9.09268 31.0548 8.80508 31.1903 8.52832C31.4826 7.93086 31.3628 7.21328 30.8921 6.74248L29.7236 5.57402C29.7052 5.55566 29.6959 5.5332 29.6959 5.50723C29.6959 5.48125 29.7052 5.45879 29.7237 5.44033L31.5923 3.57158C31.6293 3.53467 31.6893 3.53477 31.7261 3.57158L32.8946 4.73994C33.3652 5.21064 34.0829 5.33047 34.6804 5.03818C34.9572 4.90273 35.2447 4.7834 35.5352 4.6834C36.1625 4.46729 36.584 3.87549 36.584 3.21074V1.55938C36.584 1.50723 36.6265 1.46484 36.6787 1.46484H39.3214C39.3736 1.46484 39.4161 1.50732 39.4161 1.55938V3.21074C39.4161 3.87549 39.8375 4.46729 40.465 4.6834C40.7555 4.7835 41.043 4.90283 41.3198 5.03828C41.9174 5.33037 42.6349 5.21064 43.1056 4.74004L44.2739 3.57168C44.3109 3.53477 44.3708 3.53486 44.4077 3.57168L46.2765 5.44053C46.2949 5.45889 46.3041 5.48135 46.3041 5.50732C46.3041 5.5333 46.2949 5.55586 46.2764 5.57422L45.108 6.74268C44.6374 7.21338 44.5175 7.93096 44.8098 8.52832C44.9456 8.80576 45.0649 9.09336 45.1647 9.3833C45.3809 10.0106 45.9727 10.4321 46.6373 10.4321H48.2887C48.3408 10.4321 48.3833 10.4745 48.3833 10.5267V13.1694Z" fill="#0052DA"/>
<path d="M38.2927 7.32929C36.5551 7.21923 34.9375 8.08808 34.0715 9.59618C33.8701 9.94696 33.9911 10.3946 34.342 10.5961C34.6926 10.7975 35.1403 10.6765 35.3418 10.3257C35.9279 9.30478 37.0227 8.7165 38.2003 8.7912C39.7319 8.88798 40.9599 10.116 41.0567 11.6476C41.1124 12.5297 40.7877 13.3922 40.1658 14.0141C39.544 14.6359 38.6812 14.9605 37.7996 14.9049C36.6806 14.8342 35.6595 14.1184 35.198 13.0811C35.0335 12.7115 34.6006 12.5454 34.2311 12.7097C33.8616 12.8741 33.6953 13.307 33.8596 13.6766C34.5507 15.2296 36.025 16.2603 37.7072 16.3667C37.8032 16.3727 37.8989 16.3758 37.9945 16.3758C39.1946 16.3758 40.3502 15.9012 41.2015 15.0498C42.1208 14.1306 42.6009 12.8568 42.5186 11.5552C42.3756 9.28925 40.5587 7.47245 38.2927 7.32929Z" fill="#0052DA"/>
</g>
<defs>
<clipPath id="clip0_658_24656">
<rect width="50" height="50" fill="white"/>
</clipPath>
</defs>
</svg>
