<svg width="50" height="50" viewBox="0 0 50 50" fill="none" xmlns="http://www.w3.org/2000/svg">
<g clip-path="url(#clip0_658_24588)">
<path d="M29.2735 39.7455H20.7264C20.4315 39.7455 20.1923 39.5064 20.1923 39.2113V36.2455C20.1923 35.9504 20.4315 35.7113 20.7264 35.7113H29.2735C29.5684 35.7113 29.8076 35.9504 29.8076 36.2455V39.2113C29.8076 39.5063 29.5684 39.7455 29.2735 39.7455ZM21.2606 38.6771H28.7393V36.7797H21.2606V38.6771Z" fill="#0052DA"/>
<path d="M21.5685 16.5485C21.9816 16.5485 22.3164 16.1659 22.3164 15.6938C22.3164 15.2218 21.9816 14.8391 21.5685 14.8391C21.1555 14.8391 20.8207 15.2218 20.8207 15.6938C20.8207 16.1659 21.1555 16.5485 21.5685 16.5485Z" fill="#0052DA"/>
<path d="M28.4062 16.5485C28.8192 16.5485 29.1541 16.1659 29.1541 15.6938C29.1541 15.2218 28.8192 14.8391 28.4062 14.8391C27.9932 14.8391 27.6583 15.2218 27.6583 15.6938C27.6583 16.1659 27.9932 16.5485 28.4062 16.5485Z" fill="#0052DA"/>
<path d="M24.9873 20.5973C24.3949 20.5973 23.8025 20.4013 23.3082 20.0094C23.077 19.826 23.0382 19.49 23.2214 19.2589C23.4048 19.0276 23.7407 18.989 23.9718 19.1722C24.5697 19.6463 25.4048 19.6463 26.0026 19.1722C26.2337 18.9888 26.5698 19.0276 26.753 19.2589C26.9363 19.49 26.8976 19.8261 26.6663 20.0094C26.1722 20.4013 25.5798 20.5973 24.9873 20.5973Z" fill="#0052DA"/>
<path d="M31.5705 46.1538H18.4295C18.1345 46.1538 17.8953 45.9147 17.8953 45.6196C17.8953 45.3246 18.1345 45.0854 18.4295 45.0854H31.5705C31.8655 45.0854 32.1047 45.3246 32.1047 45.6196C32.1047 45.9147 31.8655 46.1538 31.5705 46.1538Z" fill="#0052DA"/>
<path d="M36.111 48.2907C35.816 48.2907 35.5768 48.0516 35.5768 47.7565V47.1108C35.5768 46.8158 35.816 46.5767 36.111 46.5767C36.4059 46.5767 36.6452 46.8158 36.6452 47.1108V47.7565C36.6452 48.0516 36.4059 48.2907 36.111 48.2907Z" fill="#0052DA"/>
<path d="M36.111 44.6627C35.816 44.6627 35.5768 44.4236 35.5768 44.1285V43.4829C35.5768 43.1878 35.816 42.9487 36.111 42.9487C36.4059 42.9487 36.6452 43.1878 36.6452 43.4829V44.1285C36.6452 44.4236 36.4059 44.6627 36.111 44.6627Z" fill="#0052DA"/>
<path d="M34.6198 46.1538H33.9743C33.6793 46.1538 33.4401 45.9147 33.4401 45.6196C33.4401 45.3246 33.6793 45.0854 33.9743 45.0854H34.6198C34.9147 45.0854 35.154 45.3246 35.154 45.6196C35.154 45.9147 34.9148 46.1538 34.6198 46.1538Z" fill="#0052DA"/>
<path d="M38.2478 46.1538H37.6023C37.3073 46.1538 37.0681 45.9147 37.0681 45.6196C37.0681 45.3246 37.3073 45.0854 37.6023 45.0854H38.2478C38.5428 45.0854 38.782 45.3246 38.782 45.6196C38.782 45.9147 38.5428 46.1538 38.2478 46.1538Z" fill="#0052DA"/>
<path d="M13.8888 48.2907C13.5938 48.2907 13.3546 48.0516 13.3546 47.7565V47.1108C13.3546 46.8158 13.5938 46.5767 13.8888 46.5767C14.1838 46.5767 14.423 46.8158 14.423 47.1108V47.7565C14.423 48.0516 14.1838 48.2907 13.8888 48.2907Z" fill="#0052DA"/>
<path d="M13.8888 44.6627C13.5938 44.6627 13.3546 44.4236 13.3546 44.1285V43.4829C13.3546 43.1878 13.5938 42.9487 13.8888 42.9487C14.1838 42.9487 14.423 43.1878 14.423 43.4829V44.1285C14.423 44.4236 14.1838 44.6627 13.8888 44.6627Z" fill="#0052DA"/>
<path d="M12.3976 46.1538H11.7521C11.4571 46.1538 11.2179 45.9147 11.2179 45.6196C11.2179 45.3246 11.4571 45.0854 11.7521 45.0854H12.3976C12.6926 45.0854 12.9318 45.3246 12.9318 45.6196C12.9318 45.9147 12.6927 46.1538 12.3976 46.1538Z" fill="#0052DA"/>
<path d="M16.0256 46.1538H15.3801C15.0852 46.1538 14.8459 45.9147 14.8459 45.6196C14.8459 45.3246 15.0852 45.0854 15.3801 45.0854H16.0256C16.3206 45.0854 16.5598 45.3246 16.5598 45.6196C16.5598 45.9147 16.3206 46.1538 16.0256 46.1538Z" fill="#0052DA"/>
<path d="M33.0002 39.8628C33.3247 39.8628 33.5878 39.5998 33.5878 39.2752C33.5878 38.9507 33.3247 38.6876 33.0002 38.6876C32.6757 38.6876 32.4126 38.9507 32.4126 39.2752C32.4126 39.5998 32.6757 39.8628 33.0002 39.8628Z" fill="#0052DA"/>
<path d="M16.9746 39.8628C17.2991 39.8628 17.5622 39.5998 17.5622 39.2752C17.5622 38.9507 17.2991 38.6876 16.9746 38.6876C16.65 38.6876 16.387 38.9507 16.387 39.2752C16.387 39.5998 16.65 39.8628 16.9746 39.8628Z" fill="#0052DA"/>
<path d="M48.3755 20.0127C46.5176 18.141 43.4117 18.141 41.5538 20.0127L38.7816 22.8056C38.1695 22.5075 37.4018 22.6372 36.9206 23.122L36.3219 23.7252C35.8203 24.2304 35.7181 24.9865 36.012 25.5959L33.6946 27.9307C32.4053 26.6337 30.83 25.622 29.0719 24.9998V22.7382C31.2509 21.4806 32.8017 19.251 33.1252 16.645C34.3928 16.4373 35.3632 15.3346 35.3632 14.0089C35.3632 13.0746 34.8802 12.2523 34.1519 11.7749V9.08707C34.1519 9.03835 34.1432 8.99199 34.1311 8.94712C34.0556 4.00096 30.0112 0 25.0475 0H24.9523C20.1211 0 16.1599 3.79006 15.8822 8.55289H14.4556C13.368 8.55289 12.4406 9.3969 12.3994 10.4838C12.3563 11.6263 13.2731 12.5696 14.4063 12.5696H15.0596C14.7924 12.9853 14.6365 13.479 14.6365 14.009C14.6365 15.3256 15.5939 16.4221 16.8488 16.6404C17.171 19.2484 18.7224 21.4798 20.9027 22.7382V24.9985C19.1011 25.6357 17.4908 26.6811 16.1843 28.0243L13.7739 25.5959C14.0678 24.9866 13.9656 24.2306 13.4641 23.7252L12.8653 23.122C12.2429 22.495 11.1839 22.4936 10.5601 23.122L8.74334 24.9524L6.04964 22.2382C5.84109 22.0283 5.50178 22.0277 5.2927 22.237L1.81812 25.7138C0.714598 24.2314 0.831692 22.1128 2.16919 20.7654C3.61417 19.3096 6.02817 19.3084 7.47421 20.7654L8.84238 22.1438C9.03896 22.3419 9.35926 22.375 9.57507 22.1981C9.82261 21.9952 9.83693 21.6292 9.61695 21.4075L8.23255 20.0127C6.37464 18.141 3.26876 18.141 1.41086 20.0127C-0.466705 21.9044 -0.466705 24.9824 1.41086 26.874C1.61941 27.0841 1.95872 27.0846 2.1678 26.8753L5.66919 23.3716L7.99099 25.7107L4.69045 29.0358C4.48372 29.244 4.48372 29.5801 4.69045 29.7885L9.96812 35.1056C10.3303 35.4704 10.7639 35.3701 10.8828 34.87C10.9264 34.6865 10.8708 34.4983 10.7424 34.369L7.96791 31.5738L9.64932 29.8799L11.4679 31.7122C11.7882 32.0346 12.3566 31.8179 12.3805 31.3639L12.4022 30.9528C12.4183 30.6462 12.6532 30.5331 12.7247 30.5058C13.0004 30.4 13.35 30.6123 13.393 30.9047L13.5643 32.066C13.0362 33.3956 12.7355 34.8387 12.7062 36.3473L12.7048 38.4398C12.7046 38.7181 12.9078 38.9666 13.1847 38.9931C13.5022 39.0234 13.7694 38.7745 13.7694 38.4632V36.5897C13.7694 32.9266 15.5342 29.6694 18.2566 27.62V32.0474C17.2551 32.0474 16.4403 32.8622 16.4403 33.8637V37.2097C16.4403 37.4887 16.6443 37.7378 16.9221 37.7643C17.2407 37.7947 17.5087 37.545 17.5087 37.2326V33.8636C17.5087 33.4505 17.8436 33.1157 18.2566 33.1157H31.5044C32.0355 33.1157 32.466 33.5462 32.466 34.0772V37.0494C32.466 37.3283 32.6699 37.5775 32.9477 37.604C33.2663 37.6343 33.5344 37.3846 33.5344 37.0722V34.0771C33.5344 33.03 32.7374 32.1658 31.7181 32.0587V27.6196C34.4405 29.669 36.2053 32.9263 36.2053 36.5894V38.3547C36.2053 38.6497 36.4445 38.8889 36.7395 38.8889C37.0345 38.8889 37.2737 38.6497 37.2737 38.3547V36.5898C37.2737 34.8656 36.9148 33.2245 36.2709 31.7341L36.3932 30.9048C36.4364 30.6122 36.786 30.4001 37.0615 30.5059C37.1331 30.5332 37.3679 30.6462 37.384 30.9529L37.4057 31.364C37.4297 31.8181 37.998 32.0348 38.3183 31.7123L40.137 29.88L41.8184 31.5739L38.6332 34.783C38.4367 34.981 38.4058 35.3015 38.5842 35.5159C38.7887 35.762 39.155 35.7736 39.3752 35.552L45.0958 29.7886C45.3025 29.5802 45.3025 29.2441 45.0958 29.0359L41.7953 25.7108L44.1171 23.3717L47.6184 26.8754C47.8276 27.0847 48.1668 27.0842 48.3754 26.8741C50.2531 24.9824 50.2531 21.9044 48.3755 20.0127ZM33.1903 12.5694H33.3938C33.9264 12.8303 34.2948 13.3766 34.2948 14.0089C34.2948 14.7189 33.8307 15.3217 33.1903 15.5318V12.5694ZM7.21524 30.8155L7.21513 30.8154L5.82229 29.4121L11.3188 23.8747C11.5817 23.6547 11.8445 23.6547 12.1074 23.8747L12.7062 24.4779C12.9267 24.7 12.9267 25.0616 12.7062 25.2838L7.21524 30.8155ZM15.2832 29.0622C14.9477 29.4939 14.6406 29.9484 14.3641 30.4232C14.0637 29.6284 13.1454 29.2016 12.3438 29.5079C11.9751 29.6485 11.6856 29.9099 11.5128 30.2407L10.4021 29.1217L13.0853 26.4185L15.353 28.703L15.2832 29.0622ZM24.9524 1.06838H25.0476C29.2897 1.06838 32.7729 4.37938 33.0487 8.55289H16.9514C17.2271 4.37938 20.7103 1.06838 24.9524 1.06838ZM16.7845 15.5227C16.1573 15.3049 15.7051 14.7094 15.7051 14.0089C15.7051 13.3757 16.0749 12.8294 16.6088 12.5694H16.7845V15.5227ZM14.4064 11.5011C13.8881 11.5011 13.4665 11.0795 13.4665 10.5611C13.4665 10.0427 13.8881 9.62115 14.4064 9.62115H33.0835V11.5011H14.4064ZM17.8528 15.6292V12.5694H32.1221V15.6292C32.1221 19.5631 28.9214 22.7637 24.9875 22.7637C21.0535 22.7637 17.8528 19.5631 17.8528 15.6292ZM28.0035 23.2563V26.3344C28.0035 27.9974 26.6504 29.3504 24.9874 29.3504C23.3243 29.3504 21.9713 27.9974 21.9713 26.3344V23.2564C22.9053 23.6272 23.9227 23.8322 24.9874 23.8322C26.0521 23.8321 27.0695 23.6271 28.0035 23.2563ZM30.6497 32.0476H19.325V26.9076C19.8276 26.6123 20.3547 26.3541 20.903 26.1384V26.3343C20.903 28.5864 22.7352 30.4187 24.9874 30.4187C27.2395 30.4187 29.0719 28.5864 29.0719 26.3343V26.1393C29.6198 26.355 30.1473 26.6119 30.6497 26.9071V32.0476ZM38.2736 30.2407C38.1006 29.9098 37.8113 29.6485 37.4426 29.5079C36.7165 29.2309 35.8634 29.5569 35.503 30.2446C35.135 29.637 34.8731 29.1283 34.4335 28.703L36.7011 26.4185L39.3844 29.1217L38.2736 30.2407ZM43.964 29.4122L42.571 30.8156L37.0802 25.2839C36.8597 25.0618 36.8597 24.7001 37.0802 24.478L37.6789 23.8748C37.9418 23.6548 38.2047 23.6548 38.4676 23.8748L43.964 29.4122ZM47.9682 25.7139L44.4937 22.2371C44.2845 22.0278 43.9453 22.0283 43.7367 22.2384L41.0427 24.9525L39.5994 23.4985L42.3121 20.7655C43.7571 19.3097 46.1711 19.3085 47.6172 20.7655C48.9547 22.1129 49.0718 24.2315 47.9682 25.7139Z" fill="#0052DA"/>
<path d="M49.8028 44.8581L44.9324 40.8967L49.8028 36.9353C50.1849 36.6246 49.9581 35.9867 49.4657 35.9867H40.9916C40.6659 36.0173 40.488 36.1954 40.4574 36.521L40.458 40.9387H29.8076V36.2454C29.8076 35.9504 29.5684 35.7112 29.2734 35.7112H20.7264C20.4314 35.7112 20.1922 35.9504 20.1922 36.2454V40.9387H9.55686L9.54254 36.5192C9.54158 36.2249 9.30269 35.9867 9.00836 35.9867H0.534105C0.0417971 35.9867 -0.184912 36.6246 0.197032 36.9353L5.06744 40.8967L0.197032 44.8581C-0.185019 45.1688 0.0416902 45.8067 0.534105 45.8067H8.50248V49.4658C8.50248 49.7608 8.74169 50 9.03667 50H40.9928C41.2877 50 41.5269 49.7608 41.5269 49.4658V45.8067H49.4657C49.958 45.8067 50.1847 45.1688 49.8028 44.8581ZM2.03742 44.7383L6.25099 41.3111C6.51007 41.1005 6.51007 40.6928 6.25099 40.4822L2.03742 37.0551H8.47577L8.50077 44.7383H2.03742ZM21.2606 36.7796H28.7392V38.6771H21.2606V36.7796ZM21.2606 39.7455H28.7392V40.9387H21.2606V39.7455ZM40.4586 48.9316H9.57086V42.0071H40.4586V48.9316ZM41.5269 44.7383V41.4729C41.5269 41.4711 41.5264 41.4694 41.5264 41.4676L41.5258 37.0552H47.9624L43.7488 40.4823C43.4898 40.6929 43.4898 41.1005 43.7488 41.3112L47.9624 44.7384H41.5269V44.7383Z" fill="#0052DA"/>
<path d="M10.9115 1.58846L12.5 2.45726L10.9115 3.32607L10.0427 4.91453L9.17391 3.32607L7.58545 2.45726L9.17391 1.58846L10.0427 0L10.9115 1.58846Z" fill="#0052DA"/>
<path d="M3.32607 12.1654L4.91453 13.0342L3.32607 13.903L2.45726 15.4914L1.58846 13.903L0 13.0342L1.58846 12.1654L2.45726 10.5769L3.32607 12.1654Z" fill="#0052DA"/>
<path d="M39.0885 1.58846L37.5 2.45726L39.0885 3.32607L39.9573 4.91453L40.8261 3.32607L42.4145 2.45726L40.8261 1.58846L39.9573 0L39.0885 1.58846Z" fill="#0052DA"/>
<path d="M46.6739 12.1654L45.0854 13.0342L46.6739 13.903L47.5427 15.4914L48.4115 13.903L50 13.0342L48.4115 12.1654L47.5427 10.5769L46.6739 12.1654Z" fill="#0052DA"/>
</g>
<defs>
<clipPath id="clip0_658_24588">
<rect width="50" height="50" fill="white"/>
</clipPath>
</defs>
</svg>
