<svg width="16" height="12" viewBox="0 0 16 12" fill="none" xmlns="http://www.w3.org/2000/svg">
<path d="M15.8638 5.63564L11.0641 0.181091C10.9617 0.0654544 10.8188 0 10.6673 0H7.4675C7.25738 0 7.06645 0.126545 6.98006 0.322909C6.89473 0.520364 6.92993 0.750545 7.07072 0.909818L11.5494 6L7.07072 11.0891C6.92993 11.2495 6.89366 11.4796 6.98006 11.676C7.06645 11.8735 7.25738 12 7.4675 12H10.6673C10.8188 12 10.9617 11.9335 11.0641 11.82L15.8638 6.36545C16.0462 6.15818 16.0462 5.84182 15.8638 5.63564Z" fill="#010916"/>
<path d="M8.93023 5.63564L4.1305 0.181091C4.02811 0.0654544 3.88518 0 3.73372 0H0.533903C0.323782 0 0.132859 0.126545 0.0464638 0.322909C-0.0388647 0.520364 -0.0036667 0.750545 0.137125 0.909818L4.61581 6L0.137125 11.0891C-0.0036667 11.2495 -0.0399313 11.4796 0.0464638 11.676C0.132859 11.8735 0.323782 12 0.533903 12H3.73372C3.88518 12 4.02811 11.9335 4.1305 11.82L8.93023 6.36545C9.11262 6.15818 9.11262 5.84182 8.93023 5.63564Z" fill="#010916"/>
</svg>
