<svg width="80" height="80" viewBox="0 0 80 80" fill="none" xmlns="http://www.w3.org/2000/svg">
<path d="M63.2857 32.7822C63.1246 31.0403 63.2479 26.3052 67.784 19.7207C68.1271 19.2238 68.0649 18.5537 67.6387 18.1277C65.7894 16.2783 64.6444 15.1113 63.8412 14.2947C62.7852 13.2179 62.3031 12.7273 61.5975 12.0876C61.1264 11.6641 60.4135 11.6567 59.9374 12.0718C52.0309 18.9517 43.2491 33.1679 44.5199 50.5849C45.2645 60.8119 52.7242 68.2351 62.2567 68.2351C72.0394 68.2351 79.9984 60.2773 79.9984 50.4946C79.9984 41.0573 72.5912 33.3181 63.2857 32.7822ZM62.2567 65.7351C54.0706 65.7351 47.6607 59.2873 47.0126 50.4043C45.5831 30.8157 57.2274 18.0911 60.7455 14.7219C61.0885 15.0601 61.4804 15.4579 62.0577 16.0463C62.7535 16.7543 63.7057 17.7236 65.1461 19.1689C59.6395 27.6528 60.6784 33.6977 61.1336 34.5644C61.3497 34.9758 61.7929 35.2529 62.2567 35.2529C70.6612 35.2529 77.4984 42.0901 77.4984 50.4946C77.4984 58.8979 70.6612 65.7351 62.2567 65.7351Z" fill="#0052DA"/>
<path d="M18.8913 32.7821C18.7289 31.0451 18.8485 26.3136 23.3895 19.7206C23.7314 19.2237 23.6703 18.5536 23.2443 18.1276C21.3985 16.2819 20.2548 15.1161 19.4528 14.2995C18.3933 13.2204 17.9098 12.7284 17.2043 12.0875C16.733 11.664 16.0202 11.6579 15.5442 12.0705C7.63767 18.9504 -1.14533 33.1642 0.122915 50.5849C0.87004 60.8106 8.33092 68.235 17.8634 68.235C27.6462 68.235 35.6052 60.2772 35.6052 50.4945C35.6052 41.0561 28.1979 33.3156 18.8913 32.7821ZM17.8634 65.735C9.67867 65.735 3.26504 59.2872 2.61566 50.403C1.18991 30.8095 12.8342 18.0897 16.3522 14.7219C16.6964 15.06 17.0895 15.4604 17.6682 16.05C18.3627 16.758 19.3137 17.726 20.7517 19.1689C15.245 27.654 16.2839 33.6976 16.7392 34.5631C16.9553 34.9745 17.3995 35.2529 17.8634 35.2529C26.268 35.2529 33.1052 42.09 33.1052 50.4945C33.1052 58.8979 26.268 65.735 17.8634 65.735Z" fill="#0052DA"/>
</svg>
