<svg width="20" height="20" viewBox="0 0 20 20" fill="none" xmlns="http://www.w3.org/2000/svg">
<path d="M9.99944 4.67856C11.2914 4.67856 12.3387 3.63123 12.3387 2.33928C12.3387 1.04733 11.2914 0 9.99944 0C8.70749 0 7.66016 1.04733 7.66016 2.33928C7.66016 3.63123 8.70749 4.67856 9.99944 4.67856Z" fill="#17191F"/>
<path d="M10.0011 20.0002C10.7762 20.0002 11.4045 19.3719 11.4045 18.5968C11.4045 17.8217 10.7762 17.1934 10.0011 17.1934C9.22599 17.1934 8.59766 17.8217 8.59766 18.5968C8.59766 19.3719 9.22599 20.0002 10.0011 20.0002Z" fill="#17191F"/>
<path d="M4.25394 6.82527C5.41678 6.82527 6.35945 5.8826 6.35945 4.71976C6.35945 3.55692 5.41678 2.61426 4.25394 2.61426C3.0911 2.61426 2.14844 3.55692 2.14844 4.71976C2.14844 5.8826 3.0911 6.82527 4.25394 6.82527Z" fill="#17191F"/>
<path d="M15.7478 17.3847C16.3937 17.3847 16.9174 16.861 16.9174 16.2151C16.9174 15.5691 16.3937 15.0454 15.7478 15.0454C15.1018 15.0454 14.5781 15.5691 14.5781 16.2151C14.5781 16.861 15.1018 17.3847 15.7478 17.3847Z" fill="#17191F"/>
<path d="M1.87097 12.3391C2.90428 12.3391 3.74194 11.5014 3.74194 10.4681C3.74194 9.43483 2.90428 8.59717 1.87097 8.59717C0.837662 8.59717 0 9.43483 0 10.4681C0 11.5014 0.837662 12.3391 1.87097 12.3391Z" fill="#17191F"/>
<path d="M18.1304 11.4024C18.6469 11.4024 19.0655 10.9838 19.0655 10.4673C19.0655 9.95089 18.6469 9.53223 18.1304 9.53223C17.614 9.53223 17.1953 9.95089 17.1953 10.4673C17.1953 10.9838 17.614 11.4024 18.1304 11.4024Z" fill="#17191F"/>
<path d="M3.09317 15.0589C2.45332 15.6988 2.45332 16.7341 3.09317 17.3739C3.73226 18.0137 4.76907 18.0137 5.40816 17.3739C6.04801 16.7341 6.04801 15.6988 5.40816 15.0589C4.76907 14.4183 3.73302 14.4122 3.09317 15.0589Z" fill="#17191F"/>
<path d="M15.7482 5.42072C16.1355 5.42072 16.4495 5.10673 16.4495 4.7194C16.4495 4.33206 16.1355 4.01807 15.7482 4.01807C15.3609 4.01807 15.0469 4.33206 15.0469 4.7194C15.0469 5.10673 15.3609 5.42072 15.7482 5.42072Z" fill="#17191F"/>
</svg>
