<svg width="57" height="56" viewBox="0 0 57 56" fill="none" xmlns="http://www.w3.org/2000/svg">
<path d="M54.7305 42.8229C52.9812 44.849 50.3574 45.8343 47.8 45.5243L40.0834 54.4365C38.4449 56.3186 35.5996 56.54 33.6954 54.8904C31.8133 53.263 31.603 50.3956 33.2415 48.5135L40.958 39.6013C40.2938 37.0881 40.9137 34.3646 42.6519 32.3608C44.1133 30.6669 46.2279 29.6594 48.4642 29.6041C50.0695 29.5155 51.1434 31.4197 50.0806 32.7925L48.6082 34.9846C48.1875 35.6932 48.3314 36.6563 49.0067 37.2431C49.7042 37.841 50.7006 37.7856 51.3206 37.2763L53.2469 35.5271C54.4316 34.2982 56.4354 35.04 56.6458 36.6785C56.8893 38.9259 56.214 41.1069 54.7305 42.8229Z" fill="#FDB52A"/>
<path d="M43.3272 14.0049H42.5522C42.3308 8.39189 38.9098 3.58703 34.0496 1.38389C34.0385 1.59424 34.0164 1.80459 33.9721 2.01494L32.1675 10.1079C32.0236 10.7611 31.3704 11.1818 30.7172 11.0268C30.064 10.8829 29.6433 10.2297 29.7983 9.5765L31.6029 1.48353C31.7579 0.730692 31.2265 0 30.4183 0H25.7573C24.9824 0 24.3845 0.719621 24.5727 1.48353L26.3773 9.5765C26.5212 10.2297 26.1116 10.8829 25.4584 11.0268C24.7831 11.1597 24.152 10.739 24.0081 10.1079L22.2035 2.01494C22.1592 1.80459 22.126 1.59424 22.126 1.38389C17.2658 3.58703 13.8448 8.39189 13.6234 14.0049H12.8484C12.1731 14.0049 11.6306 14.5474 11.6306 15.2228C11.6306 15.887 12.1731 16.4406 12.8484 16.4406H14.8191V23.1275C14.8191 26.7035 17.6865 29.9695 20.6757 32.6597V35.7264C20.6757 37.1767 19.4468 38.2617 18.0519 38.3503C18.0186 38.3503 18.384 38.306 14.0441 38.771V46.4432H31.8354L38.3673 38.9149C38.3452 38.7378 38.323 38.5496 38.323 38.3724L38.2677 38.3613C38.2234 38.3503 38.1791 38.3503 38.1348 38.3503C36.6956 38.3503 35.511 37.1767 35.511 35.7264V32.6597C38.5002 29.9695 41.3565 26.7035 41.3565 23.1275V16.4406H43.3382C44.0136 16.4406 44.5561 15.8981 44.5561 15.2228C44.545 14.5474 44.0025 14.0049 43.3272 14.0049ZM36.0202 40.3099C30.695 43.609 25.4695 43.609 20.1554 40.2988C21.8825 39.5017 23.0892 37.7414 23.0892 35.7154V34.7522C23.6649 35.2282 23.6981 35.2614 23.9749 35.4939C24.6945 36.0918 25.6023 36.4239 26.5323 36.4239H29.6101C30.54 36.4239 31.4479 36.0918 32.1675 35.4939C33.3964 34.4754 32.9646 34.8297 33.0643 34.7522V35.7264C33.0753 37.7524 34.2821 39.5017 36.0202 40.3099ZM38.9209 23.1164C38.9209 26.9803 33.6621 31.0876 30.6286 33.6118C30.3518 33.8443 29.9865 33.9772 29.6211 33.9772H26.5434C26.178 33.9772 25.8238 33.8443 25.5359 33.6118C22.4692 31.0655 17.2437 26.9581 17.2437 23.1164V16.4295H38.9209V23.1164Z" fill="black"/>
<path d="M54.9408 55.9975H50.6563L48.752 50.5394C48.5638 49.997 48.2981 49.4988 47.9771 49.0559L48.8849 48.0152C50.6563 47.9931 52.3833 47.506 53.889 46.6313C54.1437 47.207 54.3429 47.8049 54.509 48.4249L56.1143 54.4697C56.3247 55.2114 55.749 55.9975 54.9408 55.9975Z" fill="black"/>
<path d="M31.3815 55.9977H8.14331L9.70433 51.3589C10.2357 49.8975 11.6196 48.8679 13.4796 48.8679H30.2191C29.8205 49.8422 29.6544 50.8939 29.7319 51.9789C29.8427 53.4735 30.4184 54.8685 31.3815 55.9977Z" fill="black"/>
<path d="M48.0767 55.9976H41.9543L46.2942 50.9824C46.5267 51.4917 46.3274 51.0378 48.0767 55.9976Z" fill="black"/>
<path d="M11.6085 46.6426V39.0479C6.79255 40.0221 2.91767 43.6313 1.65556 48.4029L0.0391802 54.4588C-0.1601 55.267 0.426668 55.9977 1.21272 55.9977H5.55259L7.40146 50.5397C8.09894 48.6022 9.69318 47.174 11.6085 46.6426Z" fill="black"/>
</svg>
