<svg width="56" height="56" viewBox="0 0 56 56" fill="none" xmlns="http://www.w3.org/2000/svg">
<path d="M28.9686 43.6413C29.3455 44.0041 29.3524 44.6047 28.9826 44.9747L26.4898 47.4684C25.4593 48.4989 23.9494 48.7556 22.6815 48.2403C22.0659 47.9902 21.9107 47.1877 22.3805 46.7178L26.5501 42.5473C26.9151 42.1822 27.5078 42.1834 27.8722 42.5492C28.4008 43.0798 28.7295 43.4112 28.9686 43.6413Z" fill="black"/>
<path d="M39.4488 20.3601L38.4782 21.3311C38.1137 21.6958 37.5226 21.6958 37.158 21.3312L29.4534 13.6266C28.9678 13.141 28.3881 12.7469 27.745 12.4744C26.985 12.1524 27.0029 11.0522 27.7729 10.7544C30.1289 9.84317 32.7312 11.2353 33.2525 13.6955C33.3307 14.0665 33.62 14.357 33.9899 14.4352C35.553 14.7639 36.7958 15.9918 37.1309 17.5761C37.2092 17.9462 37.4945 18.2339 37.8646 18.3119C38.4036 18.4255 38.9025 18.6479 39.3278 18.9377C39.8057 19.2637 39.8577 19.951 39.4488 20.3601Z" fill="#FDB52A"/>
<path d="M36.3742 39.6338C36.8085 39.9743 36.8553 40.6162 36.4724 41.0138C35.3711 42.1573 34.5288 43.3216 32.7425 43.3216C30.9932 43.3216 30.1577 42.2039 29.191 41.1952C28.8403 40.8292 28.8478 40.2495 29.2062 39.8911L31.9755 37.2032C32.3109 36.8806 32.8328 36.8545 33.1989 37.1419L36.3742 39.6338Z" fill="black"/>
<path d="M54.5956 19.3615L45.5526 28.4057C45.1881 28.7703 44.597 28.7703 44.2325 28.4057L39.7978 23.971C39.4333 23.6065 39.4333 23.0155 39.7977 22.651L44.4916 17.9563C44.8561 17.5918 44.856 17.0008 44.4915 16.6363L43.5879 15.7328C43.0279 15.1727 42.6463 14.468 42.483 13.6955C42.4048 13.3268 42.1166 13.0386 41.7467 12.9605C40.1632 12.6256 38.9509 11.3904 38.6127 9.85328C38.5264 9.46241 38.2347 9.16021 37.8683 9.08203C37.0609 8.91168 36.3328 8.50447 35.7622 7.90474C34.2489 6.31673 34.3049 3.73812 35.8848 2.15711L36.6373 1.40453C38.5112 -0.468176 41.5589 -0.468176 43.4328 1.40453L54.5304 12.5021C56.5059 14.4775 56.4573 17.5022 54.5956 19.3615Z" fill="black"/>
<path d="M46.8037 33.6163L28.1339 14.9464C27.3918 14.2043 26.3673 13.8356 25.3219 13.9325C24.196 14.0382 23.2138 14.6915 22.7176 15.4971L21.3606 17.7619C20.6815 18.8948 20.6407 20.3253 21.2533 21.4956L22.028 22.9739C22.4259 23.7347 22.2859 24.6518 21.6803 25.2585L2.71522 44.2224C1.41191 45.5257 0.694336 47.2596 0.694336 49.102C0.694336 52.9492 3.81108 56 7.59593 56C9.36245 56 11.1301 55.328 12.4755 53.9827L31.1302 35.3268C31.8279 34.6302 32.9375 34.5637 33.7135 35.1716L40.5089 40.5062C41.9055 41.603 43.9066 41.4828 45.1632 40.2262L46.8037 38.5856C48.1723 37.2171 48.1763 34.9889 46.8037 33.6163ZM13.8604 46.933L10.7241 50.0693C9.56699 51.2265 7.67877 51.2303 6.52014 50.0693C5.36035 48.9107 5.36035 47.0252 6.52014 45.8654L9.65649 42.729C10.8163 41.5693 12.7018 41.5693 13.8604 42.729C15.0202 43.8876 15.0202 45.7732 13.8604 46.933Z" fill="black"/>
<path d="M12.8639 44.8303C12.8639 45.1138 12.7554 45.3973 12.5407 45.612L9.40316 48.7495C8.97261 49.1813 8.2702 49.1813 7.83965 48.7495C7.40794 48.319 7.40794 47.6166 7.83965 47.186L10.9772 44.0485C11.6568 43.3653 12.8639 43.8312 12.8639 44.8303Z" fill="black"/>
</svg>
