<svg width="52" height="56" viewBox="0 0 52 56" fill="none" xmlns="http://www.w3.org/2000/svg">
<path d="M48.2686 41.1583C46.722 39.062 43.9236 36.0369 43.9236 36.0369C43.9236 36.0369 41.1252 39.062 39.5786 41.1585C37.3303 44.2058 36.2373 46.5464 36.2373 48.3137C36.2373 52.5519 39.6854 56 43.9236 56C48.1618 56 51.6099 52.5519 51.6099 48.3137C51.6099 46.5464 50.5169 44.2058 48.2686 41.1583Z" fill="#FDB52A"/>
<path d="M34.5381 16.4184L33.9823 16.4243C33.2664 16.4317 32.5932 16.159 32.0847 15.656C31.5761 15.1528 31.2961 14.4818 31.2961 13.7666V8.2353H26.355V4.94118H34.5903V1.64706H26.355V0H23.0608V1.64706H14.8255V4.94118H23.0608V8.2353H18.1196V13.3592C18.1196 15.0749 16.7239 16.4706 15.0082 16.4706H10.8418C10.9327 16.9549 10.9823 17.4536 10.9823 17.9638V26.5068C10.9823 27.017 10.9326 27.5157 10.8418 28H34.5903C36.4067 28 37.8844 29.4777 37.8844 31.2941V32.9412H49.4139V31.2941C49.4139 23.0917 42.7406 16.4184 34.5381 16.4184Z" fill="#17191F"/>
<path d="M2.9009 13.1763H0.00195312V31.2939H2.9009C5.54059 31.2939 7.68826 29.1463 7.68826 26.5066V17.9636C7.68826 15.3239 5.54059 13.1763 2.9009 13.1763Z" fill="#17191F"/>
</svg>
