<svg width="32" height="20" viewBox="0 0 32 20" fill="none" xmlns="http://www.w3.org/2000/svg">
<path d="M16 0C9.88606 0 4.34162 3.34499 0.250384 8.77815C-0.0834612 9.22328 -0.0834612 9.84515 0.250384 10.2903C4.34162 15.73 9.88606 19.075 16 19.075C22.1139 19.075 27.6584 15.73 31.7496 10.2968C32.0835 9.85169 32.0835 9.22983 31.7496 8.7847C27.6584 3.34499 22.1139 0 16 0ZM16.4386 16.2537C12.3801 16.509 9.02854 13.164 9.28383 9.09891C9.4933 5.74737 12.2099 3.03079 15.5614 2.82132C19.6199 2.56602 22.9715 5.91102 22.7162 9.97607C22.5002 13.3211 19.7836 16.0376 16.4386 16.2537ZM16.2357 13.1509C14.0493 13.2883 12.2426 11.4882 12.3866 9.30183C12.4979 7.49514 13.9642 6.03539 15.7709 5.91756C17.9572 5.7801 19.7639 7.58024 19.6199 9.7666C19.5021 11.5798 18.0358 13.0396 16.2357 13.1509Z" fill="white"/>
</svg>
