<svg width="46" height="47" viewBox="0 0 46 47" fill="none" xmlns="http://www.w3.org/2000/svg">
<path d="M31.3963 20.9961V2.18668C31.3963 1.44826 30.7977 0.849609 30.0593 0.849609L1.44596 0.849609C0.707537 0.849609 0.108887 1.44826 0.108887 2.18668L0.108887 42.2096C0.108887 42.9481 0.707537 43.5467 1.44596 43.5467H24.8852C27.0781 45.3291 29.8721 46.4883 32.9117 46.4883C39.9403 46.4883 45.7475 40.681 45.7475 33.6524C45.7475 26.0663 39.0194 20.0891 31.3963 20.9961ZM2.78303 3.52375L28.7222 3.52375V21.6138C20.7417 24.399 17.6698 33.9969 22.413 40.8726H2.78303L2.78303 3.52375ZM32.9117 43.8141C27.3576 43.8141 22.8391 39.2065 22.8391 33.6524C22.8391 28.0983 27.3576 23.5798 32.9117 23.5798C38.4658 23.5798 42.9843 28.0983 42.9843 33.6524C42.9843 39.2065 38.4658 43.8141 32.9117 43.8141Z" fill="white"/>
<path d="M24.3544 16.4488C25.0928 16.4488 25.6915 15.8501 25.6915 15.1117V7.98065C25.6915 7.24223 25.0928 6.64358 24.3544 6.64358L7.23993 6.64358C6.50151 6.64358 5.90286 7.24223 5.90286 7.98065V15.1117C5.90286 15.8501 6.50151 16.4488 7.23993 16.4488H24.3544ZM8.577 9.31772L23.0174 9.31772V13.7746L8.577 13.7746L8.577 9.31772Z" fill="white"/>
<path d="M9.37924 19.4795H7.95303C7.21461 19.4795 6.61596 20.0781 6.61596 20.8165C6.61596 21.5549 7.21461 22.1536 7.95303 22.1536H9.37924C10.1177 22.1536 10.7163 21.5549 10.7163 20.8165C10.7163 20.0781 10.1177 19.4795 9.37924 19.4795Z" fill="white"/>
<path d="M16.5103 19.4795H15.0841C14.3457 19.4795 13.747 20.0781 13.747 20.8165C13.747 21.5549 14.3457 22.1536 15.0841 22.1536H16.5103C17.2487 22.1536 17.8473 21.5549 17.8473 20.8165C17.8473 20.0781 17.2487 19.4795 16.5103 19.4795Z" fill="white"/>
<path d="M23.6413 19.4795H22.2151C21.4767 19.4795 20.878 20.0781 20.878 20.8165C20.878 21.5549 21.4767 22.1536 22.2151 22.1536H23.6413C24.3797 22.1536 24.9784 21.5549 24.9784 20.8165C24.9784 20.0781 24.3797 19.4795 23.6413 19.4795Z" fill="white"/>
<path d="M9.37924 26.6105H7.95303C7.21461 26.6105 6.61596 27.2091 6.61596 27.9476C6.61596 28.686 7.21461 29.2846 7.95303 29.2846H9.37924C10.1177 29.2846 10.7163 28.686 10.7163 27.9476C10.7163 27.2091 10.1177 26.6105 9.37924 26.6105Z" fill="white"/>
<path d="M16.5103 26.6105H15.0841C14.3457 26.6105 13.747 27.2091 13.747 27.9476C13.747 28.686 14.3457 29.2846 15.0841 29.2846H16.5103C17.2487 29.2846 17.8473 28.686 17.8473 27.9476C17.8473 27.2091 17.2487 26.6105 16.5103 26.6105Z" fill="white"/>
<path d="M9.37924 33.7415H7.95303C7.21461 33.7415 6.61596 34.3402 6.61596 35.0786C6.61596 35.817 7.21461 36.4157 7.95303 36.4157H9.37924C10.1177 36.4157 10.7163 35.817 10.7163 35.0786C10.7163 34.3402 10.1177 33.7415 9.37924 33.7415Z" fill="white"/>
<path d="M16.5103 33.7415H15.0841C14.3457 33.7415 13.747 34.3402 13.747 35.0786C13.747 35.817 14.3457 36.4157 15.0841 36.4157H16.5103C17.2487 36.4157 17.8473 35.817 17.8473 35.0786C17.8473 34.3402 17.2487 33.7415 16.5103 33.7415Z" fill="white"/>
<path d="M34.3954 32.3373C33.543 32.036 32.6038 31.6746 32.0995 31.279C32.0664 31.253 32.0045 31.0973 32.0479 30.8665C32.0688 30.7559 32.1644 30.3867 32.5204 30.2795C33.4122 30.0109 33.8241 30.3544 33.8987 30.4272C34.4165 30.9528 35.2623 30.9596 35.7886 30.4421C36.3151 29.9243 36.3222 29.0777 35.8044 28.5513C35.4399 28.1807 34.9093 27.8444 34.2505 27.6584V27.5843C34.2505 26.8459 33.6519 26.2473 32.9135 26.2473C32.175 26.2473 31.5764 26.8459 31.5764 27.5843V27.7779C29.1672 28.6534 28.6128 31.943 30.4491 33.3833C31.2556 34.0158 32.394 34.4661 33.5041 34.8586C34.1667 35.0928 34.2342 35.568 34.1741 35.9252C34.1073 36.3232 33.7645 36.9985 32.9043 37.0042C32.0132 37.0103 31.8021 36.9771 31.1503 36.5507C30.5323 36.1465 29.7037 36.3197 29.2994 36.9377C28.8952 37.5557 29.0685 38.3843 29.6864 38.7885C30.3974 39.2536 30.9604 39.4842 31.5763 39.5923V39.7206C31.5763 40.459 32.1749 41.0576 32.9134 41.0576C33.6518 41.0576 34.2504 40.459 34.2504 39.7206V39.4411C37.4902 38.2698 37.9194 33.5829 34.3954 32.3373Z" fill="white"/>
</svg>
