<svg width="46" height="46" viewBox="0 0 46 46" fill="none" xmlns="http://www.w3.org/2000/svg">
<path d="M32.687 25.1491L29.9633 22.4253L37.1616 15.2266L38.0938 16.1588C38.6974 16.7625 39.7133 16.6435 40.1564 15.9049L45.7496 6.58251C46.0609 6.06375 45.9791 5.39971 45.5513 4.97201L41.8225 1.24308C41.3948 0.815298 40.7307 0.733644 40.2121 1.04479L30.8902 6.63823C30.1545 7.07964 30.0308 8.09553 30.6362 8.70094L31.5685 9.63316L24.3701 16.8318L21.6464 14.108C22.6051 10.5255 21.6272 6.63041 18.9156 3.91851C15.5236 0.526476 10.4459 -0.0103847 6.47496 2.12871C6.1081 2.32638 5.8563 2.68578 5.79574 3.0981C5.73527 3.51041 5.87326 3.92703 6.16796 4.22174L11.1155 9.16951C11.6295 9.68361 11.6295 10.52 11.1155 11.0339C10.6014 11.548 9.76513 11.5481 9.25106 11.0339L4.30354 6.08608C4.00885 5.79137 3.59216 5.65328 3.17995 5.71384C2.76766 5.77432 2.40828 6.02622 2.21061 6.39309C0.0797135 10.3494 0.597035 15.4307 4.0005 18.8342C6.7062 21.5401 10.5991 22.5263 14.1894 21.5653L15.0485 22.4243L2.87119 34.6025C0.293726 37.18 0.292144 41.346 2.87119 43.9253C5.44137 46.4955 9.62327 46.4957 12.1935 43.9253L24.3707 31.7471L25.2299 32.6064C24.2712 36.1888 25.2491 40.0839 27.9608 42.7958C31.3527 46.1879 36.4304 46.7248 40.4014 44.5857C40.7682 44.388 41.02 44.0286 41.0806 43.6163C41.141 43.204 41.0031 42.7874 40.7084 42.4927L35.7608 37.5449C35.2468 37.0308 35.2468 36.1944 35.7608 35.6805C36.2749 35.1664 37.1113 35.1665 37.6253 35.6805L42.5728 40.6282C42.8674 40.923 43.2841 41.0608 43.6964 41.0005C44.1087 40.94 44.468 40.6881 44.6657 40.3212C46.7966 36.3649 46.2794 31.2836 42.8759 27.8801C40.1702 25.1743 36.2773 24.1882 32.687 25.1491ZM40.686 3.83545L42.959 6.10858L38.7642 13.1002L33.6946 8.03048L40.686 3.83545ZM33.4328 11.4977L35.2971 13.3621L28.0988 20.5607L26.2344 18.6963L33.4328 11.4977ZM10.3291 42.0609C8.787 43.6031 6.27773 43.6031 4.73552 42.0609C3.18821 40.5135 3.18725 38.0154 4.73552 36.467L16.9127 24.2889L22.5063 29.8828L10.3291 42.0609ZM43.0309 37.3574L39.4897 33.8161C37.9477 32.2741 35.4386 32.274 33.8965 33.8161C32.3546 35.3581 32.3546 37.8673 33.8965 39.4095L37.4377 42.9509C34.7472 43.6855 31.8554 42.9616 29.8253 40.9315C27.6766 38.7827 26.947 35.5434 27.9667 32.6788C28.1373 32.1992 28.0168 31.6643 27.6568 31.3045L15.4913 19.1383C15.1322 18.7792 14.5977 18.6575 14.1171 18.8285C11.2526 19.8482 8.01347 19.1185 5.86482 16.9698C3.83473 14.9396 3.11096 12.0477 3.84555 9.35708L7.38673 12.8984C8.92868 14.4405 11.4378 14.4404 12.9799 12.8984C14.5218 11.3564 14.5218 8.8472 12.9799 7.305L9.4387 3.76364C12.1291 3.02884 15.021 3.75283 17.0511 5.78302C19.1998 7.93178 19.9294 11.1711 18.9097 14.0357C18.7391 14.5153 18.8597 15.0502 19.2196 15.41L31.385 27.5761C31.7449 27.936 32.2798 28.0565 32.7592 27.8859C35.6236 26.8662 38.8628 27.5959 41.0115 29.7446C43.0417 31.775 43.7654 34.6668 43.0309 37.3574Z" fill="white"/>
<path d="M18.0787 28.9807C17.5639 28.4659 16.7293 28.4659 16.2144 28.9807L8.15858 37.0372C7.64381 37.5521 7.64381 38.3868 8.15858 38.9016C8.67353 39.4165 9.50805 39.4164 10.0229 38.9016L18.0787 30.8451C18.5934 30.3302 18.5934 29.4955 18.0787 28.9807Z" fill="white"/>
</svg>
