<svg width="52" height="40" viewBox="0 0 52 40" fill="none" xmlns="http://www.w3.org/2000/svg">
<path d="M7.63682 7.37068C7.05332 6.7868 6.10666 6.7868 5.52316 7.37068C4.93928 7.95417 4.93928 8.90084 5.52316 9.48433L8.91124 12.8724C9.20279 13.1644 9.58543 13.3103 9.96807 13.3103C10.3507 13.3103 10.7333 13.1644 11.0249 12.8724C11.6088 12.2889 11.6088 11.3422 11.0249 10.7588L7.63682 7.37068Z" fill="white"/>
<path d="M8.67262 16.8977C8.67262 16.0721 8.0035 15.403 7.17789 15.403L2.19542 15.403C1.36981 15.403 0.700684 16.0721 0.700684 16.8977C0.700684 17.7233 1.36981 18.3924 2.19542 18.3924H7.17789C8.0035 18.3924 8.67262 17.7233 8.67262 16.8977Z" fill="white"/>
<path d="M8.91124 20.923L5.52316 24.3111C4.93928 24.8945 4.93928 25.8412 5.52316 26.4247C5.81471 26.7167 6.19735 26.8626 6.57999 26.8626C6.96263 26.8626 7.34527 26.7167 7.63682 26.4247L11.0249 23.0366C11.6088 22.4531 11.6088 21.5065 11.0249 20.923C10.4414 20.3391 9.49473 20.3391 8.91124 20.923Z" fill="white"/>
<path d="M50.6078 10.9682L23.258 3.74555C22.7337 1.85105 20.9957 0.455566 18.9365 0.455566C16.464 0.455566 14.4523 2.46724 14.4523 4.93978L14.4523 28.8556C14.4523 31.3282 16.464 33.3398 18.9365 33.3398C20.9957 33.3398 22.7337 31.9443 23.258 30.0498L42.7527 24.9016V34.8346C42.7527 37.3071 44.7643 39.3188 47.2369 39.3188C49.7094 39.3188 51.7211 37.3071 51.7211 34.8346V12.4135C51.7211 11.735 51.2641 11.1414 50.6078 10.9682ZM18.9365 30.3503C18.1124 30.3503 17.4418 29.6797 17.4418 28.8556L17.4418 4.93978C17.4418 4.11573 18.1124 3.44504 18.9365 3.44504C19.7606 3.44504 20.4312 4.11573 20.4312 4.93978L20.4312 28.8556C20.4312 29.6797 19.7606 30.3503 18.9365 30.3503ZM23.4207 6.88061L48.7316 13.5649V20.2305L23.4207 26.9148L23.4207 6.88061ZM47.2369 36.3293C46.4128 36.3293 45.7422 35.6586 45.7422 34.8346V24.1121L48.7316 23.3227V34.8346C48.7316 35.6586 48.0609 36.3293 47.2369 36.3293Z" fill="white"/>
</svg>
