<svg width="50" height="50" viewBox="0 0 50 50" fill="none" xmlns="http://www.w3.org/2000/svg">
<path d="M21.1354 0.197914C20.8854 0.395831 20.8854 0.427082 20.8333 2.92708L20.7812 5.45833L20.2083 5.59375C18.4792 6.02083 16.1979 6.95833 14.7396 7.84375L14.1146 8.22916L12.375 6.48958C10.7708 4.88542 10.6042 4.75 10.2604 4.75C9.90625 4.75 9.71875 4.91666 7.32292 7.32291C4.91667 9.71875 4.75 9.90625 4.75 10.2604C4.75 10.6042 4.88542 10.7708 6.48958 12.375L8.22917 14.1146L7.84375 14.7396C6.95833 16.1979 6.02083 18.4792 5.59375 20.2083L5.45833 20.7812L2.92708 20.8333C0.427083 20.8854 0.395833 20.8854 0.197917 21.1354C0.0104167 21.3646 0 21.5938 0 25C0 28.4062 0.0104167 28.6354 0.197917 28.8646C0.395833 29.1146 0.427083 29.1146 2.92708 29.1667L5.45833 29.2188L5.59375 29.7917C6.02083 31.5208 6.95833 33.8021 7.84375 35.2604L8.22917 35.8854L6.48958 37.625C4.88542 39.2292 4.75 39.3958 4.75 39.7396C4.75 40.0833 4.91667 40.2812 7.19792 42.5625C8.53125 43.9062 9.77083 45.0833 9.92708 45.1667C10.0938 45.2604 10.3125 45.2917 10.4479 45.2604C10.5729 45.2187 11.4479 44.4167 12.3958 43.4792L14.1146 41.7708L14.7292 42.1458C16.2396 43.0521 18.1354 43.8438 19.875 44.3125L20.7812 44.5521L20.8333 47.0729C20.8854 49.5729 20.8854 49.6042 21.1354 49.8021C21.3646 49.9896 21.5938 50 25 50C28.4062 50 28.6354 49.9896 28.8646 49.8021C29.1146 49.6042 29.1146 49.5729 29.1667 47.0729L29.2188 44.5521L30.125 44.3125C31.8646 43.8438 33.7604 43.0521 35.2708 42.1458L35.8854 41.7708L39.5312 45.4062C43.4688 49.3333 43.6354 49.4583 44.9375 49.6979C47.6771 50.2083 50.2083 47.6771 49.6979 44.9375C49.4583 43.6354 49.3333 43.4688 45.4062 39.5312L41.7708 35.8854L42.1458 35.2708C43.0521 33.7604 43.8438 31.8646 44.3125 30.125L44.5521 29.2188L47.0729 29.1667C49.5729 29.1146 49.6042 29.1146 49.8021 28.8646C49.9896 28.6354 50 28.4062 50 25C50 21.5938 49.9896 21.3646 49.8021 21.1354C49.6042 20.8854 49.5729 20.8854 47.0729 20.8333L44.5417 20.7812L44.4062 20.2083C43.9792 18.4792 43.0417 16.1979 42.1562 14.7396L41.7708 14.1146L43.5104 12.375C45.1146 10.7708 45.25 10.6042 45.25 10.2604C45.25 9.90625 45.0833 9.71875 42.6771 7.32291C40.2813 4.91666 40.0938 4.75 39.7396 4.75C39.3958 4.75 39.2292 4.88542 37.625 6.48958L35.8854 8.21875L35.4688 7.95833C34.0521 7.07292 32.0729 6.22916 30.2604 5.72916L29.2188 5.44791L29.1667 2.92708C29.1146 0.427082 29.1146 0.395831 28.8646 0.197914C28.6354 0.0104141 28.4062 0 25 0C21.5938 0 21.3646 0.0104141 21.1354 0.197914ZM27.5 4.04166C27.5 6.26041 27.5104 6.4375 27.7083 6.63541C27.9375 6.88541 27.9062 6.875 29.375 7.22916C31.2812 7.67708 33.1771 8.48958 34.9062 9.59375C36.1354 10.3854 36.0729 10.4062 38.0625 8.4375L39.75 6.78125L41.4896 8.52083L43.2188 10.2604L41.5625 11.9375C39.5938 13.9271 39.6146 13.8646 40.4062 15.0938C41.4896 16.7812 42.3333 18.7604 42.7708 20.6042C43.125 22.0937 43.1146 22.0625 43.3646 22.2917C43.5625 22.4896 43.7396 22.5 45.9583 22.5H48.3333V25V27.5H45.9583C43.7396 27.5 43.5625 27.5104 43.3646 27.7083C43.1146 27.9375 43.125 27.9062 42.7708 29.3958C42.4375 30.7812 41.9375 32.0938 41.1771 33.5625L40.5833 34.6979L39.3646 33.4792L38.1354 32.2604L38.3958 31.7604C38.8333 30.8958 39.2604 29.7292 39.5208 28.6771C40.5729 24.5417 39.8229 20.1979 37.4375 16.6042C36.6667 15.4583 35.125 13.8333 33.9688 12.9688C32.8958 12.1562 31.0104 11.1771 29.7396 10.75C27.9479 10.1562 27.2292 10.0521 24.9479 10.0521C23.0729 10.0625 22.75 10.0833 21.7083 10.3333C18.8854 11 16.4271 12.3542 14.4375 14.3229C12.125 16.6146 10.6771 19.4271 10.1458 22.7083C9.90625 24.1667 10 26.8646 10.3438 28.3333C10.9896 31.0729 12.2083 33.3021 14.1667 35.3438C16.3229 37.6042 18.9063 39.0417 22.0104 39.7083C23.4271 40.0104 26.3542 40.0417 27.7396 39.7604C28.9167 39.5208 30.3229 39.0625 31.4062 38.5521L32.2708 38.1458L33.4792 39.3646L34.6875 40.5833L33.9375 40.9896C32.3021 41.875 30.7083 42.5 29.0938 42.8646C28.7083 42.9479 28.2812 43.0417 28.1562 43.0729C28.0312 43.1042 27.8229 43.2292 27.7083 43.3542C27.5104 43.5729 27.5 43.7187 27.5 45.9583V48.3333H25H22.5V45.9583C22.5 43.7396 22.4896 43.5625 22.2917 43.3646C22.0625 43.1146 22.0938 43.125 20.6042 42.7708C18.7604 42.3333 16.7812 41.4896 15.0938 40.4062C13.8646 39.6146 13.9271 39.5938 11.9375 41.5625L10.25 43.2188L8.51042 41.4792L6.78125 39.7396L8.4375 38.0625C10.4062 36.0729 10.3854 36.1354 9.59375 34.9062C8.52083 33.2188 7.69792 31.3229 7.23958 29.4271C6.89583 28.0104 6.79167 27.7292 6.55208 27.6042C6.44792 27.5417 5.32292 27.5 4.02083 27.5H1.66667V25V22.5H4.04167C6.26042 22.5 6.4375 22.4896 6.63542 22.2917C6.88542 22.0625 6.875 22.0937 7.22917 20.6042C7.66667 18.7604 8.51042 16.7812 9.59375 15.0938C10.3854 13.8646 10.4062 13.9271 8.4375 11.9375L6.78125 10.25L8.52083 8.51041L10.2604 6.78125L11.9375 8.4375C13.9375 10.4167 13.8542 10.3854 15.1354 9.57291C16.8021 8.5 18.8542 7.63542 20.8333 7.17708C21.9583 6.91667 22.2708 6.79167 22.3958 6.55208C22.4583 6.44792 22.5 5.32292 22.5 4.02083V1.66666H25H27.5V4.04166ZM27.0312 11.8229C28.5104 12.0625 29.4375 12.3542 30.7812 13.0104C37.2188 16.1562 40.0104 23.5521 37.2708 30.1875C37.1042 30.5938 36.9271 30.9375 36.8854 30.9375C36.7396 30.9375 32.3021 26.3854 32.125 26.0417C31.9583 25.7292 31.9271 25.4792 31.9479 24.3854C31.9792 22.8646 31.8646 22.0312 31.4688 20.8646C30.5938 18.3125 28.4167 16.3021 25.7188 15.5625C24.7917 15.3021 22.5 15.3021 21.5833 15.5521C20.6354 15.8229 19.8229 16.1979 19.6979 16.4375C19.3958 17.0104 19.4688 17.1146 21.875 19.5312L24.1667 21.8333V23V24.1667H23H21.8333L19.5312 21.875C17.1146 19.4688 17.0104 19.3958 16.4375 19.6979C16.1979 19.8229 15.8229 20.6354 15.5521 21.5833C15.3021 22.5 15.3021 24.7917 15.5625 25.7188C16.3021 28.4167 18.3125 30.5938 20.8646 31.4688C22.0313 31.8646 22.8646 31.9792 24.3854 31.9479C25.4792 31.9271 25.7292 31.9583 26.0417 32.125C26.3854 32.3021 30.9375 36.7396 30.9375 36.8854C30.9375 36.9792 29.6146 37.5312 28.7292 37.8021C26.9167 38.3542 24.25 38.4687 22.4062 38.0729C16.7188 36.8646 12.5729 32.4375 11.7604 26.6771C11.6875 26.125 11.6563 25.2604 11.6979 24.3854C11.9792 17.9792 16.7396 12.7188 23.1146 11.7812C24.0833 11.6354 26.0312 11.6562 27.0312 11.8229ZM25.0521 17.1354C26 17.3333 27.3229 18 28.0521 18.6562C28.8542 19.3646 29.6146 20.5521 29.9583 21.5938C30.2083 22.3646 30.2396 22.6146 30.2604 24.1667C30.2813 25.9687 30.3542 26.3542 30.8542 27.1771C30.9792 27.3854 34.8542 31.3437 39.4792 35.9896C48.4375 44.9896 48.125 44.6354 48.125 45.625C48.125 46.9167 46.9167 48.125 45.625 48.125C44.6354 48.125 44.9896 48.4375 35.9896 39.4792C30.8958 34.4062 27.3646 30.9583 27.0833 30.8021C26.2813 30.3333 25.5104 30.1875 24.2708 30.2604C23.4479 30.3125 22.9688 30.2917 22.3438 30.1562C19.0833 29.4896 16.8333 26.5938 17.0104 23.2812C17.0417 22.7604 17.0938 22.2604 17.1354 22.1562C17.1979 22 17.5417 22.2917 19.1562 23.8958L21.1042 25.8333H23.2188C26.0417 25.8333 25.8333 26.0417 25.8333 23.2188V21.1042L23.8854 19.1562C21.8021 17.0521 21.8958 17.2083 22.6562 17.0521C23.125 16.9479 24.375 16.9896 25.0521 17.1354Z" fill="white"/>
<path d="M29.1563 29.1567C28.8855 29.4379 28.8438 29.5421 28.8959 29.8233C28.9792 30.2608 29.7396 31.0213 30.1771 31.1046C30.4584 31.1567 30.5626 31.115 30.8438 30.8442C31.1146 30.5629 31.1563 30.4588 31.1042 30.1775C31.0209 29.74 30.2605 28.9796 29.823 28.8963C29.5417 28.8442 29.4376 28.8858 29.1563 29.1567Z" fill="white"/>
<path d="M32.0833 32.0829C31.9479 32.2184 31.875 32.4267 31.875 32.6767C31.875 33.0517 32.0729 33.26 36.9583 38.1559C39.9375 41.1454 42.1771 43.3121 42.375 43.3954C43.0625 43.6975 43.6979 43.0621 43.3958 42.3746C43.3125 42.1767 41.1458 39.9371 38.1563 36.9475C33.2604 32.0725 33.0521 31.8746 32.6771 31.8746C32.4271 31.8746 32.2188 31.9475 32.0833 32.0829Z" fill="white"/>
<path d="M44.6876 44.3026C44.3022 44.5005 44.1147 44.938 44.2709 45.3026C44.4168 45.6672 45.073 46.313 45.3959 46.4068C45.9584 46.5735 46.573 45.9589 46.4064 45.3964C46.3126 45.0943 45.7709 44.511 45.3959 44.313C45.0522 44.136 45.0209 44.136 44.6876 44.3026Z" fill="white"/>
</svg>
