<svg width="50" height="50" viewBox="0 0 50 50" fill="none" xmlns="http://www.w3.org/2000/svg">
<path d="M24.3142 0.0648451C23.6375 0.279866 23.0197 0.84674 18.4105 5.4306L13.4286 10.3859V8.9589V7.52217L13.7326 7.46353C14.1445 7.38534 14.5662 6.93575 14.7035 6.41774C14.7721 6.16363 14.8113 5.53811 14.7819 4.86373C14.7427 3.56383 14.5956 3.21197 13.9974 2.89921C13.6639 2.72329 13.3795 2.71351 10.2315 2.71351C6.96583 2.71351 6.81872 2.72329 6.46568 2.91876C5.81842 3.28039 5.73016 3.55405 5.73016 5.10807C5.73016 6.24182 5.75958 6.53503 5.90668 6.79892C6.09301 7.141 6.59317 7.50262 6.88737 7.50262C7.04428 7.50262 7.05409 7.78606 7.05409 12.1158V16.729L3.68052 20.1107C0.689418 23.1014 0.297142 23.5412 0.150039 23.9615C-0.291271 25.3005 0.257915 26.6786 1.50339 27.3139C2.12122 27.6364 3.14114 27.6657 3.76878 27.3921C4.02376 27.2846 4.80831 26.5906 5.97533 25.4276C6.97564 24.4404 7.82883 23.6292 7.86806 23.6292C7.90729 23.6292 7.93671 29.2002 7.93671 36.0125C7.93671 47.8582 7.94652 48.4251 8.12304 48.8062C8.33879 49.2851 8.92721 49.7934 9.42736 49.9204C9.65292 49.9888 15.2821 50.0084 25.2165 49.9986L40.6525 49.9693L41.0644 49.6956C41.2899 49.549 41.594 49.246 41.7411 49.0212L42.0157 48.6108L42.0451 42.5608L42.0647 36.5012L41.8489 36.2666C41.5547 35.9441 41.0644 35.9636 40.7996 36.2959C40.5937 36.55 40.5937 36.638 40.5937 42.3556C40.5937 48.0341 40.5937 48.1612 40.3975 48.3566C40.2014 48.5521 40.0739 48.5521 25.0007 48.5521C9.92751 48.5521 9.80002 48.5521 9.60388 48.3566C9.40774 48.1612 9.40774 48.0341 9.40774 35.084V22.0165L17.2042 14.2465L25.0007 6.47638L32.7972 14.2465L40.5937 22.0165V27.7048C40.5937 30.9106 40.6329 33.4909 40.6819 33.6277C40.8781 34.1261 41.7116 34.175 41.9568 33.7059C42.0255 33.5788 42.0647 31.8684 42.0647 28.5747C42.0647 25.8576 42.0941 23.6292 42.1333 23.6292C42.1726 23.6292 43.0258 24.4404 44.0261 25.4276C45.1931 26.5906 45.9776 27.2846 46.2326 27.3921C46.8603 27.6657 47.8802 27.6364 48.498 27.3139C49.8219 26.6395 50.3711 25.0366 49.7337 23.7269C49.5866 23.4044 47.9979 21.7722 44.0555 17.8334C39.6326 13.4352 38.5342 12.3895 38.3283 12.3895C37.9262 12.3895 37.5535 12.7413 37.5535 13.1029C37.5535 13.3766 38.1027 13.963 42.9375 18.7912C45.8992 21.7429 48.3705 24.2645 48.4294 24.3818C48.7334 24.9877 48.3705 25.8283 47.7135 26.0531C46.9191 26.3072 47.4683 26.8057 36.1315 15.5268C25.0007 4.44346 25.4518 4.85395 24.6869 5.01033C24.4221 5.06897 22.3234 7.11167 13.8699 15.5268C5.36731 23.9908 3.30786 25.9944 3.01365 26.0726C1.99373 26.3561 1.11111 25.2614 1.60146 24.3329C1.67991 24.1863 6.83834 19.0063 13.0559 12.8097C22.1763 3.73975 24.4221 1.55045 24.6869 1.4918C25.4322 1.33542 25.3538 1.27678 30.5906 6.48616C35.0332 10.8941 35.5823 11.4121 35.8569 11.4121C36.2198 11.4121 36.5728 11.0407 36.5728 10.64C36.5728 10.2881 26.9621 0.670814 26.2266 0.299414C25.7068 0.035524 24.7653 -0.0817603 24.3142 0.0648451ZM13.3305 5.10807V6.03657H10.2413H7.15216V5.10807V4.17957H10.2413H13.3305V5.10807ZM11.9379 9.7017L11.9575 11.8519L10.2413 13.5623L8.52512 15.2727V11.4512C8.52512 9.34985 8.55454 7.60036 8.59377 7.56126C8.633 7.53194 9.38813 7.5124 10.2806 7.52217L11.9085 7.55149L11.9379 9.7017Z" fill="white"/>
<path d="M32.5422 18.3517C30.4926 18.6644 28.7764 20.1794 28.1879 22.183C28.031 22.7401 27.9722 24.0595 28.0801 24.5677C28.1389 24.8316 28.0506 24.9489 27.0307 25.9556L25.9127 27.0698L25.5499 26.8157C25.3537 26.6886 25.0595 26.5518 24.9124 26.5127C24.5398 26.4345 23.9023 26.6104 23.6768 26.8548C23.5787 26.9623 23.4512 27.0503 23.3924 27.0503C23.3237 27.0503 23.0589 26.8255 22.7941 26.5616L22.3136 26.0729L24.0887 24.2843C25.0693 23.3069 25.9127 22.3784 25.9716 22.2318C26.1089 21.8702 26.1089 21.3229 25.9716 21.059C25.6872 20.5117 25.4714 20.4041 23.1864 19.6711C19.9894 18.6351 19.8815 18.6547 18.3124 20.1794L17.3513 21.1274L16.9296 20.7267C16.7041 20.5117 16.4197 20.2771 16.302 20.2184C16.0078 20.0718 15.233 20.0816 14.9192 20.2478C14.5269 20.453 12.8696 22.1634 12.7519 22.4859C12.4969 23.1506 12.644 23.7174 13.252 24.3625L13.6639 24.8121L12.6244 25.8579C12.0556 26.4345 11.5358 27.0014 11.477 27.1187C11.3397 27.3923 11.3397 28.0765 11.477 28.3502C11.6339 28.6531 14.7035 31.7319 15.0173 31.898C15.3213 32.0544 15.8607 32.0739 16.2235 31.9371C16.3706 31.8785 16.9689 31.3702 17.5573 30.7936L18.636 29.7478L19.5481 30.6567L20.4503 31.5559L20.362 32.1228C20.2738 32.6897 20.2444 32.719 19.1558 33.8039L18.0378 34.9181L16.9885 34.8888C15.2723 34.8399 14.115 35.2699 12.9971 36.3841C11.9477 37.4104 11.428 38.6712 11.428 40.147C11.428 41.2514 11.5947 41.7206 12.0654 41.9551C12.7029 42.2874 12.9284 42.1604 14.625 40.4695L16.1647 38.9351L16.6845 39.0621C17.6161 39.3065 17.6063 39.2869 17.7926 40.0493L17.9692 40.753L16.3804 42.3363C14.8604 43.861 14.8015 43.9392 14.8015 44.3204C14.8015 45.1218 15.3507 45.4443 16.6943 45.4443C18.1751 45.4443 19.3029 45.0143 20.3424 44.0369C21.1074 43.3234 21.5781 42.5904 21.8625 41.6228C22.0586 41.0071 22.0782 40.753 22.039 39.8538L21.99 38.7982L22.9314 37.86L23.8729 36.9315H24.6771C25.1282 36.9315 25.5401 36.9021 25.5989 36.863C25.6676 36.8239 27.4328 38.505 29.9434 41.0071C32.2676 43.3137 34.2682 45.2586 34.3859 45.3173C34.6899 45.4639 35.5529 45.4541 35.8667 45.288C36.0138 45.2098 36.5336 44.7406 37.0239 44.2324C38.0046 43.2355 38.2008 42.8543 38.0929 42.1702C38.0341 41.789 37.7398 41.4762 33.5131 37.254C29.2275 32.9633 29.0019 32.7288 28.9529 32.3378L28.894 31.9176L30.4337 30.3831L31.9832 28.8388L32.9639 28.8877C34.7389 28.9757 35.8667 28.5554 37.073 27.3532C38.2596 26.1706 38.6911 25.0369 38.6127 23.3265C38.5734 22.3296 38.4361 21.9875 37.985 21.792C37.3476 21.4988 37.2397 21.5672 35.5235 23.2581L33.925 24.8414L33.2679 24.6655C32.8952 24.5775 32.552 24.4309 32.4932 24.3527C32.4343 24.2745 32.3264 23.952 32.2578 23.6197L32.1303 23.0235L33.6013 21.5477C34.4153 20.7267 35.1312 19.9643 35.1901 19.847C35.4352 19.3681 35.1803 18.7035 34.6801 18.4983C34.2486 18.3321 33.1993 18.2539 32.5422 18.3517ZM31.993 21.1176C30.4533 22.6716 30.4631 22.6325 30.875 24.1475C31.1692 25.2323 31.3948 25.6135 31.8459 25.7894C32.503 26.0436 33.9642 26.3563 34.2486 26.2977C34.4742 26.2488 34.9253 25.8872 35.8765 24.9587L37.1907 23.6783L37.1318 24.1963C36.9945 25.3692 36.1609 26.5127 35.0135 27.0796C34.4153 27.3728 34.3074 27.3923 33.3366 27.3923C32.4049 27.3923 32.248 27.363 31.6988 27.1089C29.8355 26.2488 28.9529 23.9129 29.7963 22.0168C30.0709 21.4011 30.9731 20.4921 31.6105 20.1794C32.0813 19.9448 33.111 19.7004 33.2287 19.7884C33.2581 19.808 32.6991 20.4041 31.993 21.1176ZM22.6078 21.0101C23.6572 21.3424 24.5104 21.6454 24.5104 21.6747C24.5104 21.704 22.5097 23.7174 20.0678 26.1511L15.6351 30.5688L14.2131 29.1516L12.7911 27.7344L16.4687 24.0693C19.5481 21.0003 20.1953 20.4041 20.4209 20.4041C20.5778 20.4041 21.5585 20.6778 22.6078 21.0101ZM16.0274 21.8702L16.3118 22.1732L15.5076 22.9649L14.7133 23.7663L14.4093 23.4829C14.2523 23.3265 14.115 23.1603 14.115 23.1017C14.115 22.9649 15.5076 21.577 15.6351 21.577C15.694 21.577 15.8705 21.7138 16.0274 21.8702ZM29.1686 26.9427C29.3746 27.2066 29.7472 27.578 30.012 27.7833C30.2768 27.9788 30.4926 28.1742 30.4926 28.2133C30.4926 28.3013 28.3448 30.4222 28.3056 30.3635C27.9428 29.8749 26.9719 28.5261 26.913 28.4283C26.864 28.3404 27.1288 28.0178 27.7564 27.3826C28.2664 26.8743 28.7077 26.4638 28.7371 26.4638C28.7764 26.4638 28.9725 26.6789 29.1686 26.9427ZM21.8821 27.7051C22.1959 28.0178 22.4509 28.2915 22.4509 28.3208C22.4509 28.3599 22.1469 28.79 21.784 29.2787L21.1074 30.1681L20.3817 29.435L19.6559 28.7118L20.4405 27.9299C20.872 27.4998 21.2447 27.148 21.2643 27.148C21.2937 27.148 21.5683 27.4021 21.8821 27.7051ZM26.0304 29.7478C26.815 30.8034 27.2857 31.5462 27.374 31.8296C27.5603 32.4942 27.5113 33.1979 27.2367 33.8039C26.2069 36.0323 23.1276 36.0518 22.0586 33.843C21.7742 33.237 21.735 32.1912 21.9998 31.6048C22.245 31.0184 24.6182 27.9006 24.7261 28.0081C24.7849 28.0667 25.3636 28.8388 26.0304 29.7478ZM20.8916 34.791C20.9603 34.9669 21.3133 35.4068 21.6762 35.7586L22.3332 36.4037L21.8233 36.9119L21.3133 37.4104L21.1466 37.1269C20.9505 36.7848 19.7442 35.6511 19.5775 35.6511C19.5186 35.6511 19.7246 35.3872 20.0482 35.0647C20.3718 34.7421 20.6562 34.4783 20.6955 34.4783C20.7347 34.4783 20.823 34.6249 20.8916 34.791ZM32.6991 38.4855L36.7199 42.4927L35.9844 43.2257C35.5823 43.6264 35.1901 43.9587 35.1018 43.9587C35.0233 43.9587 33.2091 42.219 31.0712 40.0884L27.1876 36.218L27.6878 35.7097C27.9624 35.4263 28.2762 35.0354 28.3841 34.8399C28.492 34.6444 28.5998 34.4783 28.6292 34.4783C28.6587 34.4783 30.4926 36.2766 32.6991 38.4855ZM17.3513 36.345C18.587 36.5405 19.7344 37.4104 20.2738 38.5637C20.5091 39.0523 20.5386 39.238 20.5386 40.147C20.5386 41.0559 20.5091 41.2416 20.2738 41.7303C19.7344 42.8934 18.4693 43.8317 17.3219 43.9392L16.8119 43.9783L17.9986 42.7761C18.6556 42.1115 19.2441 41.4567 19.3127 41.3296C19.4892 40.9875 19.45 40.5086 19.1754 39.5313C18.9008 38.5441 18.7341 38.2509 18.3516 38.0554C17.8515 37.8013 16.1157 37.4006 15.8116 37.469C15.6449 37.5081 15.0467 38.0163 14.2425 38.808C13.5266 39.5117 12.9186 40.059 12.8892 40.0297C12.7911 39.9417 13.0363 38.9253 13.2815 38.4366C13.762 37.4397 15.0075 36.5307 16.1353 36.345C16.4001 36.2962 16.6354 36.2571 16.6648 36.2473C16.6943 36.2473 16.9983 36.2864 17.3513 36.345Z" fill="white"/>
</svg>
