<svg width="49" height="47" viewBox="0 0 49 47" fill="none" xmlns="http://www.w3.org/2000/svg">
<path d="M14.4511 26.4936H11.6079L11.6079 35.023H17.2942V32.1798H14.4511V26.4936Z" fill="white"/>
<path d="M48.7583 6.59156L43.072 6.59156V5.16999C43.072 2.81842 41.1589 0.905273 38.8073 0.905273C36.4558 0.905273 34.5426 2.81842 34.5426 5.16999V6.59156H31.6995V5.16999C31.6995 2.81842 29.7863 0.905273 27.4348 0.905273C25.0832 0.905273 23.17 2.81842 23.17 5.16999V6.59156H20.3269V5.16999C20.3269 2.81842 18.4137 0.905273 16.0622 0.905273C13.7106 0.905273 11.7975 2.81842 11.7975 5.16999V6.59156H6.11118L6.11118 22.8437C2.57876 25.1234 0.235352 29.0937 0.235352 33.6014C0.235352 40.6561 5.9748 46.3956 13.0295 46.3956C17.4561 46.3956 21.3644 44.1356 23.6623 40.7093H48.7583V6.59156ZM37.3858 5.16999C37.3858 4.38613 38.0235 3.74842 38.8073 3.74842C39.5912 3.74842 40.2289 4.38613 40.2289 5.16999V6.59156H37.3858V5.16999ZM26.0132 5.16999C26.0132 4.38613 26.6509 3.74842 27.4348 3.74842C28.2186 3.74842 28.8563 4.38613 28.8563 5.16999V6.59156H26.0132V5.16999ZM14.6406 5.16999C14.6406 4.38613 15.2783 3.74842 16.0622 3.74842C16.846 3.74842 17.4838 4.38613 17.4838 5.16999V6.59156L14.6406 6.59156V5.16999ZM11.7975 9.4347V12.2778H14.6406V9.4347H23.17V12.2778H26.0132V9.4347L34.5426 9.4347V12.2778H37.3858V9.4347H45.9152V15.121L8.95432 15.121V9.4347H11.7975ZM13.0295 43.5524C7.54251 43.5524 3.07849 39.0884 3.07849 33.6014C3.07849 28.1144 7.54251 23.6504 13.0295 23.6504C18.5165 23.6504 22.9805 28.1144 22.9805 33.6014C22.9805 39.0884 18.5165 43.5524 13.0295 43.5524ZM25.0918 37.8661C25.5651 36.5316 25.8236 35.0962 25.8236 33.6014C25.8236 26.5467 20.0842 20.8073 13.0295 20.8073C11.6054 20.8073 10.2349 21.0415 8.95432 21.4729V17.9641H45.9152V37.8661H25.0918Z" fill="white"/>
<path d="M28.8563 20.8073H34.5426V23.6504H28.8563V20.8073Z" fill="white"/>
<path d="M37.3858 20.8073H43.072V23.6504H37.3858V20.8073Z" fill="white"/>
<path d="M37.3858 26.4936H43.072V29.3367H37.3858V26.4936Z" fill="white"/>
<path d="M37.3858 32.1798H43.072V35.023H37.3858V32.1798Z" fill="white"/>
<path d="M28.8563 32.1798H34.5426V35.023H28.8563V32.1798Z" fill="white"/>
<path d="M28.8563 26.4936H34.5426V29.3367H28.8563V26.4936Z" fill="white"/>
</svg>
