<svg width="50" height="50" viewBox="0 0 50 50" fill="none" xmlns="http://www.w3.org/2000/svg">
<path d="M23.3117 0.112885C19.3121 0.869048 16.1576 4.08029 15.5581 8.01822L15.4402 8.78421L11.9909 8.83331C8.14852 8.87259 8.02077 8.89223 6.56636 9.58947C4.56164 10.5519 3.07775 12.2999 2.45865 14.4407C2.3702 14.7451 2.25228 15.4227 2.20314 15.9432C2.15401 16.4833 2.10487 21.747 2.10487 27.9633V39.0209L1.68231 39.1879C1.09268 39.4137 0.620983 39.836 0.286862 40.435C0.011704 40.9359 -0.00795011 41.0242 0.00187697 42.0456C0.0411853 45.0309 1.81006 47.7806 4.63043 49.1947C4.90559 49.342 5.52469 49.5777 6.00622 49.725L6.871 50H25.002H43.1329L44.0173 49.725C46.8377 48.8412 48.8916 46.7888 49.7269 44.0096C49.9332 43.3026 49.9922 42.9097 50.002 42.0456C50.0119 41.0242 49.9922 40.9359 49.717 40.435C49.3829 39.836 48.9112 39.4137 48.3216 39.1879L47.899 39.0209V27.9633C47.899 21.747 47.8499 16.4833 47.8008 15.9432C47.6927 14.7942 47.4961 14.0872 47.0539 13.1837C46.199 11.4848 44.9411 10.2573 43.2508 9.49127C41.934 8.89223 41.7571 8.87259 38.013 8.83331L34.5539 8.78421L34.4851 8.23427C34.377 7.39955 33.9839 6.13273 33.5908 5.33728C32.274 2.7349 30.112 0.986891 27.2818 0.250369C26.2795 -0.0147792 24.3435 -0.0835213 23.3117 0.112885ZM27.1443 1.73323C30.682 2.7349 33.0602 5.84794 33.0602 9.50109C33.0602 10.7483 32.9422 11.4553 32.559 12.4472C31.8416 14.313 30.4265 15.8548 28.6281 16.7681C27.3506 17.4064 26.5448 17.5832 25.002 17.5832C23.1839 17.5832 21.9261 17.21 20.4324 16.2182C18.7814 15.1183 17.4056 13.0462 17.0519 11.1214C16.9143 10.3653 16.9143 8.71547 17.0519 7.9593C17.2779 6.73177 17.9756 5.31764 18.8895 4.21777C19.941 2.96077 21.9163 1.85108 23.6458 1.53683C24.4615 1.39934 26.3188 1.49755 27.1443 1.73323ZM15.5876 11.1804C15.6761 11.6812 15.7842 12.1919 15.8136 12.3097L15.8824 12.5257L12.5019 12.5552L9.1214 12.5847L8.37454 12.9578C7.13633 13.5667 6.23224 14.7157 5.94726 16.0512C5.86864 16.4146 5.83916 19.9204 5.83916 27.8061V39.0504H4.75818H3.6772V27.3348C3.6772 14.3523 3.63789 15.1379 4.33562 13.7238C4.73853 12.8793 5.96691 11.5634 6.7236 11.1509C8.14852 10.3751 8.6497 10.2965 12.325 10.2867L15.4304 10.2769L15.5876 11.1804ZM42.0323 10.601C43.6046 11.1509 44.9706 12.3195 45.6585 13.714C46.366 15.1183 46.3267 14.3327 46.3267 27.3348V39.0504H45.2457H44.1647V27.8061C44.1647 19.9204 44.1353 16.4146 44.0567 16.0512C43.7717 14.7157 42.8676 13.5667 41.6294 12.9578L40.8825 12.5847L37.502 12.5552L34.1215 12.5257L34.1903 12.3097C34.2197 12.1919 34.3278 11.6812 34.4163 11.1804L34.5834 10.2671L37.9246 10.2965L41.2658 10.326L42.0323 10.601ZM16.9929 14.7648C18.2311 16.7092 20.285 18.1724 22.7221 18.8402C23.8129 19.1446 26.191 19.1446 27.2818 18.8402C29.7189 18.1724 31.7728 16.7092 33.011 14.7549L33.4925 13.9988L37.0303 14.0282L40.5779 14.0577L41.0496 14.3032C41.6195 14.588 42.1502 15.1478 42.4352 15.7664L42.6416 16.2182L42.671 27.6294L42.6907 39.0504H38.8385C35.399 39.0504 34.9764 39.07 34.8094 39.2173C34.5539 39.4432 34.5735 40.0422 34.8389 40.2877C35.0354 40.4645 35.3302 40.4743 41.4525 40.5234C46.2186 40.5627 47.899 40.602 48.0563 40.6904C48.3413 40.8573 48.5869 41.4072 48.5869 41.8786C48.5869 42.4678 48.3314 43.6757 48.0858 44.2748C47.3782 45.9442 45.9533 47.3682 44.2827 48.0752C43.0543 48.5859 43.6144 48.5761 24.9921 48.5761C5.53452 48.5761 6.91031 48.6252 5.24953 47.8199C4.4732 47.4467 4.17838 47.2307 3.47083 46.5236C2.77311 45.8264 2.54709 45.5219 2.16383 44.7461C1.49559 43.3909 1.24009 41.859 1.56438 41.1716C1.86902 40.5234 0.778216 40.5725 15.9217 40.5234C29.2964 40.4743 29.7091 40.4645 29.9057 40.2877C30.1612 40.0619 30.1808 39.4923 29.945 39.2271C29.7976 39.0602 29.316 39.0504 18.5456 39.0504H7.31322L7.33287 27.6294L7.36236 16.2182L7.63751 15.6486C7.95198 15.0201 8.56126 14.4505 9.20985 14.1854C9.57345 14.0381 10.0451 14.0184 13.0719 14.0184L16.5212 14.0086L16.9929 14.7648Z" fill="white"/>
<path d="M27.7536 5.03291C27.557 5.12129 26.5743 6.00512 25.4246 7.16391L23.4297 9.13779L23.0169 8.73516C22.2701 8.01828 21.5822 7.81205 20.737 8.05756C20.1474 8.23433 19.5578 8.74498 19.3219 9.2851C19.1057 9.80557 19.1352 10.6403 19.3809 11.1117C19.6757 11.6813 21.8082 13.7632 22.3487 13.9988C22.6238 14.1265 23.0071 14.2051 23.3707 14.2051C24.5303 14.2051 24.491 14.2345 27.5865 11.1706C29.2276 9.55025 30.5052 8.19505 30.6231 7.96918C31.1537 6.95769 30.682 5.62213 29.6011 5.06237C29.1588 4.8365 28.2449 4.81686 27.7536 5.03291ZM29.1785 6.54524C29.2768 6.65326 29.3554 6.87913 29.3554 7.04607C29.3554 7.31122 29.0311 7.68439 26.6628 10.0413L23.9603 12.732H23.4297H22.9088L21.7787 11.6125C20.796 10.6403 20.6486 10.4537 20.6486 10.1787C20.6486 9.74665 21.081 9.35384 21.4544 9.44222C21.592 9.4815 22.0244 9.81539 22.4076 10.1886C23.4984 11.2393 23.3216 11.3081 26.0338 8.6075C28.1368 6.50595 28.3137 6.34883 28.6478 6.34883C28.8739 6.34883 29.0606 6.41757 29.1785 6.54524Z" fill="white"/>
<path d="M11.0966 21.6096C10.4873 21.8944 10.0451 22.3559 9.75031 22.9942C9.53412 23.4558 9.52429 23.6129 9.52429 25.4002C9.52429 27.2955 9.52429 27.3152 9.79945 27.8749C10.0943 28.474 10.4284 28.8079 11.0868 29.1614L11.4897 29.3774L18.5554 29.4069C26.5743 29.4364 26.2303 29.4658 27.0853 28.6606C27.8714 27.9339 27.9697 27.5116 27.9304 25.2038C27.9009 23.4558 27.8813 23.2496 27.6847 22.8862C27.3408 22.2479 27.0067 21.9042 26.4563 21.6292L25.9453 21.3739H22.7319C19.5184 21.3739 19.5086 21.3739 19.3612 21.5899C19.1548 21.8846 19.1647 22.2872 19.3907 22.5622L19.5774 22.7978L22.6631 22.8469C24.8152 22.8862 25.7979 22.9353 25.9453 23.0139C26.3777 23.2594 26.476 23.6915 26.476 25.4002C26.476 27.1679 26.4072 27.4232 25.8569 27.7571C25.5523 27.9437 25.3164 27.9535 18.7814 27.9535C12.7181 27.9535 11.9712 27.9339 11.6764 27.7964C11.1065 27.5214 11.0475 27.2955 11.0475 25.3118V23.5344L11.3325 23.2201L11.6175 22.896L12.9539 22.8469C14.1528 22.7978 14.3101 22.7684 14.5066 22.5818C14.7621 22.3166 14.7818 21.8453 14.5361 21.5703C14.369 21.3935 14.2413 21.3739 12.9736 21.3739C11.7256 21.3739 11.5388 21.3935 11.0966 21.6096Z" fill="white"/>
<path d="M16.413 21.5902C16.3246 21.708 16.2559 21.9241 16.2559 22.0616C16.2559 22.4839 16.5112 22.749 16.9335 22.749C17.3852 22.749 17.6602 22.4839 17.6602 22.0616C17.6602 21.6393 17.3852 21.3741 16.9335 21.3741C16.6585 21.3741 16.521 21.433 16.413 21.5902Z" fill="white"/>
<path d="M31.7335 21.6091C31.1242 21.8939 30.682 22.3555 30.3872 22.9938L30.1611 23.4848V29.0824V34.6799L30.4363 35.2397C30.7311 35.8387 31.0652 36.1726 31.7236 36.5261C32.1167 36.7324 32.215 36.7422 35.3203 36.7422C38.4257 36.7422 38.524 36.7324 38.9171 36.5261C39.5755 36.1726 39.9096 35.8387 40.2044 35.2397L40.4796 34.6799V29.0824V23.4848L40.2535 22.9938C39.9587 22.3555 39.5165 21.8939 38.9072 21.6091C38.4257 21.3832 38.3766 21.3734 35.3203 21.3734C32.2641 21.3734 32.215 21.3832 31.7335 21.6091ZM38.6222 23.1804L38.9564 23.5142V28.9743C38.9564 35.0236 38.976 34.8567 38.3274 35.1611C37.8263 35.3968 32.8144 35.3968 32.3133 35.1611C31.6647 34.8567 31.6843 35.0236 31.6843 28.9743V23.5142L32.0184 23.1804L32.3526 22.8465H35.3203H38.2881L38.6222 23.1804Z" fill="white"/>
<path d="M9.74046 31.8619C9.50461 32.1271 9.52427 32.6967 9.77977 32.9225C9.97631 33.0993 10.2908 33.1091 18.4571 33.1386C23.1053 33.1582 27.0656 33.1386 27.2425 33.1091C27.8812 32.9913 28.1564 32.3431 27.7535 31.9012L27.5471 31.6852H18.7224C10.3006 31.6852 9.88787 31.695 9.74046 31.8619Z" fill="white"/>
<path d="M9.78968 35.5154C9.6521 35.6528 9.57349 35.8394 9.57349 36.0555C9.57349 36.2715 9.6521 36.4581 9.78968 36.5956C10.0059 36.792 10.0845 36.792 18.7323 36.792H27.4686L27.7044 36.5465C27.842 36.4188 27.9501 36.193 27.9501 36.0555C27.9501 35.918 27.842 35.6921 27.7044 35.5645L27.4686 35.3189H18.7323C10.0845 35.3189 10.0059 35.3189 9.78968 35.5154Z" fill="white"/>
<path d="M31.8513 39.2271C31.6255 39.4726 31.6353 40.0619 31.8612 40.2583C32.1067 40.4842 32.6959 40.4743 32.8923 40.2485C33.1182 40.0029 33.1084 39.4137 32.8825 39.2173C32.637 38.9914 32.0478 39.0012 31.8513 39.2271Z" fill="white"/>
</svg>
