<svg width="50" height="50" viewBox="0 0 50 50" fill="none" xmlns="http://www.w3.org/2000/svg">
<path d="M21.6761 9.32422H9.32615C8.27849 9.32422 7.42615 10.1766 7.42615 11.2242V38.7742C7.42615 39.8219 8.27849 40.6742 9.32615 40.6742H13.1261C14.4737 40.6742 14.9915 39.6123 15.0244 38.8516C15.0244 38.8516 23.5761 11.2719 23.5761 11.2242C23.5761 10.1766 22.7238 9.32422 21.6761 9.32422ZM14.0975 38.6334C14.0834 38.679 14.0761 38.7264 14.0761 38.7742C14.0761 38.7766 14.0686 39.0334 13.9482 39.2743C13.7947 39.5812 13.5335 39.7242 13.1261 39.7242H9.32615C8.80232 39.7242 8.37615 39.298 8.37615 38.7742V11.2242C8.37615 10.7004 8.80232 10.2742 9.32615 10.2742H21.6761C22.1781 10.2742 22.5904 10.6656 22.624 11.1592L14.0975 38.6334ZM40.6761 9.32422H28.3261C27.2785 9.32422 26.4261 10.1766 26.4261 11.2242V38.7742C26.4261 39.8219 27.2785 40.6742 28.3261 40.6742H32.1261C33.4737 40.6742 33.9915 39.6123 34.0244 38.8516C34.0244 38.8516 42.5761 11.2719 42.5761 11.2242C42.5761 10.1766 41.7239 9.32422 40.6761 9.32422ZM33.0975 38.6334C33.0835 38.679 33.0761 38.7264 33.0761 38.7742C33.0761 38.7766 33.0686 39.0334 32.9482 39.2743C32.7947 39.5812 32.5335 39.7242 32.1261 39.7242H28.3261C27.8023 39.7242 27.3761 39.298 27.3761 38.7742V11.2242C27.3761 10.7004 27.8023 10.2742 28.3261 10.2742H40.6761C41.1781 10.2742 41.5904 10.6656 41.624 11.1592L33.0975 38.6334Z" fill="#0052DA"/>
</svg>
