<svg width="80" height="80" viewBox="0 0 80 80" fill="none" xmlns="http://www.w3.org/2000/svg">
<path d="M34.5312 14.2188H14.2188C12.4956 14.2188 11.0938 15.6206 11.0938 17.3438V62.6562C11.0938 64.3794 12.4956 65.7812 14.2188 65.7812H20.4688C22.6852 65.7812 23.5367 64.0347 23.5909 62.7836C23.5909 62.7836 37.6562 17.4222 37.6562 17.3438C37.6562 15.6206 36.2544 14.2188 34.5312 14.2188ZM22.0664 62.4247C22.0431 62.4997 22.0312 62.5777 22.0312 62.6562C22.0312 62.6602 22.0189 63.0825 21.8208 63.4788C21.5683 63.9836 21.1388 64.2188 20.4688 64.2188H14.2188C13.3572 64.2188 12.6562 63.5178 12.6562 62.6562V17.3438C12.6562 16.4822 13.3572 15.7812 14.2188 15.7812H34.5312C35.3569 15.7812 36.035 16.425 36.0902 17.2369L22.0664 62.4247ZM65.7812 14.2188H45.4688C43.7456 14.2188 42.3438 15.6206 42.3438 17.3438V62.6562C42.3438 64.3794 43.7456 65.7812 45.4688 65.7812H51.7188C53.9352 65.7812 54.7867 64.0347 54.8409 62.7836C54.8409 62.7836 68.9062 17.4222 68.9062 17.3438C68.9062 15.6206 67.5045 14.2188 65.7812 14.2188ZM53.3164 62.4247C53.2933 62.4997 53.2812 62.5777 53.2812 62.6562C53.2812 62.6602 53.2689 63.0825 53.0708 63.4788C52.8183 63.9836 52.3887 64.2188 51.7188 64.2188H45.4688C44.6072 64.2188 43.9062 63.5178 43.9062 62.6562V17.3438C43.9062 16.4822 44.6072 15.7812 45.4688 15.7812H65.7812C66.6069 15.7812 67.285 16.425 67.3402 17.2369L53.3164 62.4247Z" fill="#010916"/>
</svg>
