<svg width="75" height="57" viewBox="0 0 75 57" fill="none" xmlns="http://www.w3.org/2000/svg">
<path d="M18.2805 25.1379C18.9335 20.187 23.31 15.7057 31.3153 11.8007L32.7568 11.0974L26.8468 0.186035L25.5126 0.862295C8.58372 9.44369 0 21.5712 0 36.9084C0 42.2002 1.67983 46.7707 4.99317 50.4931C8.35297 54.2673 12.4303 56.1811 17.1127 56.1811C21.32 56.1811 24.8876 54.6829 27.7163 51.7277C30.5266 48.7915 31.9516 45.1444 31.9516 40.8876C31.9516 36.8652 30.5123 33.2805 27.6735 30.233C25.1697 27.545 22.0148 25.8351 18.2805 25.1379ZM25.4951 49.6016C23.2377 51.96 20.4957 53.1064 17.1127 53.1064C13.2928 53.1064 10.0799 51.5828 7.29016 48.4486C4.45355 45.2621 3.07461 41.4872 3.07461 36.9082C3.07461 29.8789 5.05401 23.5326 8.9575 18.046C12.6821 12.8112 18.2684 8.18948 25.5757 4.29427L28.5365 9.7604C19.632 14.4267 15.1204 20.036 15.1204 26.4489V27.8221L16.4846 27.9766C20.1597 28.3926 23.0833 29.8161 25.4237 32.3286C27.7473 34.8231 28.8769 37.623 28.8769 40.8875C28.877 44.3738 27.7706 47.224 25.4951 49.6016Z" fill="#FDB52A"/>
<path d="M60.0031 25.1425C60.6483 20.1875 64.9887 15.7039 72.9299 11.7984L74.3493 11.1003L68.5861 0.181152L67.2386 0.861042C50.2324 9.442 41.6096 21.5701 41.6096 36.9084C41.6096 42.2036 43.3109 46.7765 46.6661 50.5C50.0631 54.2696 54.1572 56.181 58.8359 56.181C63.0484 56.181 66.5996 54.6799 69.3907 51.7193C72.1579 48.7843 73.5611 45.14 73.5611 40.8876C73.5611 36.865 72.1217 33.2803 69.2833 30.233C66.7846 27.5507 63.6677 25.8423 60.0031 25.1425ZM67.1538 49.6101C64.9354 51.9628 62.2148 53.1066 58.8359 53.1066C55.0123 53.1066 51.7786 51.5808 48.9502 48.4419C46.0794 45.2562 44.6841 41.4837 44.6841 36.9084C44.6841 29.8802 46.6725 23.535 50.5933 18.049C54.3344 12.8153 59.9449 8.19433 67.2832 4.29955L70.1637 9.75726C61.3234 14.4251 56.844 20.0356 56.844 26.4491V27.8192L58.2048 27.9763C61.8043 28.3918 64.692 29.8155 67.0336 32.3288C69.3572 34.8231 70.4865 37.6227 70.4865 40.8877C70.4866 44.3783 69.3964 47.2316 67.1538 49.6101Z" fill="#FDB52A"/>
</svg>
