<svg width="53" height="40" viewBox="0 0 53 40" fill="none" xmlns="http://www.w3.org/2000/svg">
<path d="M13.0313 17.8262C13.4968 14.2898 16.6165 11.0889 22.3232 8.29958L23.3507 7.79724L19.1378 0.00341797L18.1867 0.486461C6.11891 6.61603 0 15.2785 0 26.2337C0 30.0136 1.19747 33.2782 3.55939 35.9371C5.95443 38.6329 8.86094 39.9999 12.1988 39.9999C15.198 39.9999 17.7411 38.9298 19.7576 36.8189C21.761 34.7216 22.7768 32.1166 22.7768 29.076C22.7768 26.2029 21.7507 23.6423 19.7271 21.4656C17.9423 19.5455 15.6933 18.3242 13.0313 17.8262ZM18.1742 35.3003C16.565 36.9849 14.6104 37.8037 12.1988 37.8037C9.47582 37.8037 7.18544 36.7154 5.1968 34.4767C3.17472 32.2006 2.19174 29.5043 2.19174 26.2336C2.19174 21.2126 3.60276 16.6795 6.38536 12.7605C9.04044 9.02139 13.0227 5.72017 18.2317 2.93787L20.3423 6.84226C13.9947 10.1753 10.7786 14.182 10.7786 18.7626V19.7435L11.7511 19.8538C14.3709 20.151 16.455 21.1678 18.1233 22.9624C19.7797 24.7442 20.5849 26.7441 20.5849 29.0759C20.585 31.5661 19.7963 33.602 18.1742 35.3003Z" fill="#0052DA"/>
<path d="M42.7739 17.8295C43.2338 14.2903 46.3279 11.0877 51.9888 8.29803L53.0006 7.79943L48.8923 0L47.9318 0.485636C35.8089 6.6149 29.6621 15.2778 29.6621 26.2338C29.6621 30.0161 30.8749 33.2825 33.2666 35.942C35.6882 38.6346 38.6067 39.9999 41.9419 39.9999C44.9447 39.9999 47.4762 38.9277 49.4659 36.813C51.4385 34.7165 52.4388 32.1135 52.4388 29.076C52.4388 26.2028 51.4127 23.6422 49.3893 21.4656C47.6081 19.5497 45.3862 18.3294 42.7739 17.8295ZM47.8713 35.3064C46.2899 36.987 44.3506 37.8039 41.9419 37.8039C39.2162 37.8039 36.9111 36.7141 34.8948 34.472C32.8484 32.1965 31.8537 29.5018 31.8537 26.2338C31.8537 21.2136 33.2712 16.6813 36.0661 12.7627C38.733 9.02441 42.7324 5.7237 47.9636 2.94172L50.0169 6.84008C43.7151 10.1743 40.5219 14.1818 40.5219 18.7628V19.7415L41.492 19.8537C44.0579 20.1505 46.1164 21.1674 47.7856 22.9626C49.442 24.7443 50.247 26.744 50.247 29.0761C50.2471 31.5695 49.4699 33.6075 47.8713 35.3064Z" fill="#0052DA"/>
</svg>
