<svg width="16" height="12" viewBox="0 0 16 12" fill="none" xmlns="http://www.w3.org/2000/svg">
<path d="M15.8633 5.63564L11.0636 0.181091C10.9612 0.0654544 10.8183 0 10.6668 0H7.46701C7.25689 0 7.06596 0.126545 6.97957 0.322909C6.89424 0.520364 6.92944 0.750545 7.07023 0.909818L11.5489 6L7.07023 11.0891C6.92944 11.2495 6.89317 11.4796 6.97957 11.676C7.06596 11.8735 7.25689 12 7.46701 12H10.6668C10.8183 12 10.9612 11.9335 11.0636 11.82L15.8633 6.36545C16.0457 6.15818 16.0457 5.84182 15.8633 5.63564Z" fill="#0052DA"/>
<path d="M8.93023 5.63564L4.1305 0.181091C4.02811 0.0654544 3.88518 0 3.73372 0H0.533903C0.323782 0 0.132859 0.126545 0.0464638 0.322909C-0.0388647 0.520364 -0.0036667 0.750545 0.137125 0.909818L4.61581 6L0.137125 11.0891C-0.0036667 11.2495 -0.0399313 11.4796 0.0464638 11.676C0.132859 11.8735 0.323782 12 0.533903 12H3.73372C3.88518 12 4.02811 11.9335 4.1305 11.82L8.93023 6.36545C9.11262 6.15818 9.11262 5.84182 8.93023 5.63564Z" fill="#0052DA"/>
</svg>
