<svg width="15" height="16" viewBox="0 0 15 16" fill="none" xmlns="http://www.w3.org/2000/svg">
<path d="M13.7891 11.7595C13.3472 11.1606 12.5476 10.2963 12.5476 10.2963C12.5476 10.2963 11.7481 11.1606 11.3062 11.7596C10.6638 12.6303 10.3516 13.299 10.3516 13.8039C10.3516 15.0149 11.3367 16 12.5476 16C13.7586 16 14.7437 15.0149 14.7437 13.8039C14.7437 13.299 14.4315 12.6303 13.7891 11.7595Z" fill="#0052DA"/>
<path d="M9.86803 4.69098L9.70923 4.69264C9.50468 4.69478 9.31233 4.61685 9.16704 4.47313C9.02176 4.32938 8.94176 4.13766 8.94176 3.9333V2.35294H7.52999V1.41177H9.88294V0.470588H7.52999V0H6.58881V0.470588H4.23586V1.41177H6.58881V2.35294H5.17704V3.81691C5.17704 4.30711 4.77826 4.70588 4.28806 4.70588H3.09766C3.12363 4.84427 3.13781 4.98673 3.13781 5.13252V7.57337C3.13781 7.71916 3.1236 7.86162 3.09766 8H9.88294C10.4019 8 10.8241 8.42221 10.8241 8.94118V9.41177H14.1182V8.94118C14.1182 6.59762 12.2116 4.69098 9.86803 4.69098Z" fill="#17191F"/>
<path d="M0.82827 3.76465H0V8.94112H0.82827C1.58247 8.94112 2.19609 8.3275 2.19609 7.57331V5.13246C2.19609 4.37826 1.58247 3.76465 0.82827 3.76465Z" fill="#17191F"/>
</svg>
