<svg width="18" height="18" viewBox="0 0 18 18" fill="none" xmlns="http://www.w3.org/2000/svg">
<path d="M2.49268 10.6592V12.0259V16.471C2.49268 17.1225 3.02302 17.6538 3.66755 17.6538H14.3277C14.9748 17.6538 15.5026 17.1199 15.5026 16.471V14.0824C15.5178 13.9215 15.5584 13.7682 15.6472 13.643C15.7411 13.5102 15.9466 13.3544 16.071 13.2087C16.2892 12.9558 16.4846 12.7515 16.477 12.3887C16.4719 12.1205 16.3323 11.6811 16.241 11.4307C16.1877 11.2851 15.8502 10.4804 15.6421 10.5468C15.5761 10.5672 15.5888 10.718 15.5888 10.7742C15.5863 10.9096 15.5838 11.1727 15.5787 11.5584C15.5787 11.7041 15.5761 11.8267 15.5711 11.9263C15.5533 12.2175 15.4797 12.3248 15.2209 12.4781C15.0534 12.5778 14.2338 12.5778 14.0663 12.4781C13.8075 12.3248 13.7339 12.2175 13.7161 11.9263C13.7111 11.8267 13.7085 11.7041 13.7085 11.5584C13.7035 11.1701 13.7009 10.9096 13.6984 10.7742C13.6984 10.718 13.7111 10.5672 13.6451 10.5468C13.437 10.4804 13.0995 11.2825 13.0462 11.4307C12.9549 11.6811 12.8153 12.1205 12.8102 12.3887C12.8026 12.7515 12.9955 12.9558 13.2163 13.2087C13.3406 13.3544 13.5461 13.5076 13.64 13.643C13.7288 13.7682 13.7694 13.9215 13.7847 14.0824V15.7327C13.7847 15.8375 13.7009 15.9218 13.5969 15.9218H4.40343C4.29939 15.9218 4.21566 15.8375 4.21566 15.7327V12.2175C4.21566 12.1128 4.29939 12.0285 4.40343 12.0285H4.64957C6.33702 11.9851 6.61615 12.3708 7.40278 12.3581C7.89253 12.3504 8.61572 11.9953 8.79335 12.0259C8.95321 12.054 9.08516 12.1639 9.1892 12.3555C9.34653 12.6493 9.37952 12.9814 9.42773 13.3058C10.3793 13.1423 10.8564 13.0606 10.8564 13.0606C10.8437 12.5982 10.7371 12.1537 10.5468 11.7628C10.425 11.3643 10.1966 11.0118 9.8921 10.7435C9.14606 10.0819 8.1412 10.5136 7.98134 9.68334C7.98134 9.63225 7.9382 9.58882 7.88745 9.58882H7.66415V9.22606C7.85446 9.13409 7.99656 8.95271 8.03716 8.73557C8.36197 8.82754 9.23234 9.03446 9.55714 9.01147C9.69417 9.00125 9.81851 8.92461 9.88702 8.80454C9.92001 8.74579 9.94031 8.67937 9.94284 8.61295C9.94031 8.54653 9.92255 8.4801 9.88702 8.42135C9.81851 8.30128 9.69417 8.22464 9.55714 8.21442C9.23741 8.19143 8.35436 8.39836 8.03463 8.49032C7.97626 8.17355 7.69967 7.93341 7.3698 7.93341C7.03738 7.93341 6.76079 8.17355 6.70497 8.49032C6.38777 8.40091 5.50218 8.19143 5.18245 8.21442C5.04542 8.22464 4.92109 8.30128 4.85257 8.42135C4.81958 8.4801 4.79929 8.54653 4.79675 8.61295C4.79929 8.67937 4.81705 8.74579 4.85257 8.80454C4.92109 8.92461 5.04542 9.00381 5.18245 9.01147C5.50725 9.03446 6.38016 8.82754 6.70243 8.73557C6.74303 8.95271 6.88259 9.13409 7.07544 9.22606V9.58882H6.85214C6.80139 9.58882 6.75825 9.63225 6.75825 9.68334C6.67959 10.0895 6.33702 10.3016 5.73056 10.3169H5.57323H2.82763C2.64493 10.3169 2.49268 10.4676 2.49268 10.6516V10.6592Z" fill="#0052DA"/>
<path d="M8.99873 2.61976L4.86764 6.77872L4.45403 7.19513L4.3779 7.27177L4.21296 7.43782L2.23369 9.43044L1.66021 10.0078L1.38109 10.2888C1.02583 10.5213 0.558928 10.4727 0.262038 10.1713C-0.0373897 9.86984 -0.0856036 9.39978 0.145311 9.04469L1.37855 7.80313L2.17533 7.00097L4.99452 4.16277L5.03512 4.12189L5.09095 4.06569L5.27111 3.88431L5.28887 3.86643L8.63587 0.496855C8.73737 0.394669 8.86932 0.34613 9.00127 0.34613C9.13322 0.34613 9.26517 0.397224 9.36667 0.496855L17.8547 9.04469C18.0856 9.40234 18.0374 9.87239 17.738 10.1713C17.4385 10.4727 16.9716 10.5213 16.6189 10.2888L15.7206 9.38445C15.7206 9.38445 14.7462 8.40347 12.7999 6.44406L8.99873 2.61976Z" fill="#FDB52A"/>
</svg>
