<svg width="23" height="24" viewBox="0 0 23 24" fill="none" xmlns="http://www.w3.org/2000/svg">
<path d="M20.6858 17.6393C20.023 16.7408 18.8237 15.4443 18.8237 15.4443C18.8237 15.4443 17.6244 16.7408 16.9615 17.6393C15.998 18.9454 15.5295 19.9485 15.5295 20.706C15.5295 22.5224 17.0073 24.0002 18.8237 24.0002C20.6401 24.0002 22.1178 22.5224 22.1178 20.706C22.1178 19.9485 21.6494 18.9454 20.6858 17.6393Z" fill="#FDB52A"/>
<path d="M14.8013 7.03663L14.5631 7.03912C14.2563 7.04232 13.9678 6.92542 13.7498 6.70984C13.5319 6.49421 13.4119 6.20663 13.4119 5.90008V3.52949H11.2943V2.11769H14.8237V0.705898H11.2943V0H9.88248V0.705898H6.35305V2.11769H9.88248V3.52949H7.76483V5.72549C7.76483 6.4608 7.16666 7.05898 6.43136 7.05898H4.64575C4.68472 7.26656 4.70599 7.48026 4.70599 7.69895V11.3603C4.70599 11.579 4.68467 11.7927 4.64575 12.0003H14.8237C15.6021 12.0003 16.2355 12.6336 16.2355 13.4121V14.118H21.1767V13.4121C21.1767 9.89664 18.3167 7.03663 14.8013 7.03663Z" fill="white"/>
<path d="M1.24241 5.64746H0V13.4123H1.24241C2.37371 13.4123 3.29413 12.4919 3.29413 11.3606V7.69922C3.29413 6.5679 2.37371 5.64746 1.24241 5.64746Z" fill="white"/>
</svg>
