<svg width="15" height="16" viewBox="0 0 15 16" fill="none" xmlns="http://www.w3.org/2000/svg">
<path d="M13.918 11.7597C13.4761 11.1607 12.6766 10.2964 12.6766 10.2964C12.6766 10.2964 11.877 11.1607 11.4351 11.7597C10.7928 12.6304 10.4805 13.2991 10.4805 13.8041C10.4805 15.015 11.4656 16.0001 12.6766 16.0001C13.8875 16.0001 14.8726 15.015 14.8726 13.8041C14.8726 13.2991 14.5604 12.6304 13.918 11.7597Z" fill="#FDB52A"/>
<path d="M9.99499 4.69098L9.83618 4.69264C9.63163 4.69478 9.43928 4.61685 9.294 4.47313C9.14871 4.32938 9.06871 4.13766 9.06871 3.9333V2.35294H7.65694V1.41177H10.0099V0.470588H7.65694V0H6.71576V0.470588H4.36281V1.41177H6.71576V2.35294H5.30399V3.81691C5.30399 4.30711 4.90521 4.70588 4.41501 4.70588H3.22461C3.25059 4.84427 3.26477 4.98673 3.26477 5.13252V7.57337C3.26477 7.71916 3.25055 7.86162 3.22461 8H10.0099C10.5289 8 10.9511 8.42221 10.9511 8.94118V9.41177H14.2452V8.94118C14.2452 6.59762 12.3386 4.69098 9.99499 4.69098Z" fill="#17191F"/>
<path d="M0.955711 3.76465H0.127441V8.94112H0.955711C1.70991 8.94112 2.32353 8.3275 2.32353 7.57331V5.13246C2.32353 4.37826 1.70991 3.76465 0.955711 3.76465Z" fill="#17191F"/>
</svg>
