<svg width="15" height="17" viewBox="0 0 15 17" fill="none" xmlns="http://www.w3.org/2000/svg">
<path d="M13.7905 12.2595C13.3486 11.6606 12.5491 10.7963 12.5491 10.7963C12.5491 10.7963 11.7496 11.6606 11.3077 12.2596C10.6653 13.1303 10.353 13.799 10.353 14.3039C10.353 15.5149 11.3382 16.5 12.5491 16.5C13.76 16.5 14.7452 15.5149 14.7452 14.3039C14.7452 13.799 14.4329 13.1303 13.7905 12.2595Z" fill="#FDB52A"/>
<path d="M9.86755 5.19098L9.70874 5.19264C9.50419 5.19478 9.31184 5.11685 9.16655 4.97313C9.02127 4.82938 8.94127 4.63766 8.94127 4.4333V2.85294H7.5295V1.91177H9.88245V0.970588H7.5295V0.5H6.58832V0.970588H4.23537V1.91177H6.58832V2.85294H5.17655V4.31691C5.17655 4.80711 4.77777 5.20588 4.28757 5.20588H3.09717C3.12314 5.34427 3.13732 5.48673 3.13732 5.63252V8.07337C3.13732 8.21916 3.12311 8.36162 3.09717 8.5H9.88245C10.4014 8.5 10.8236 8.92221 10.8236 9.44118V9.91177H14.1178V9.44118C14.1178 7.09762 12.2111 5.19098 9.86755 5.19098Z" fill="white"/>
<path d="M0.82827 4.26465H0V9.44112H0.82827C1.58247 9.44112 2.19609 8.8275 2.19609 8.07331V5.63246C2.19609 4.87826 1.58247 4.26465 0.82827 4.26465Z" fill="white"/>
</svg>
