<svg width="13" height="16" viewBox="0 0 13 16" fill="none" xmlns="http://www.w3.org/2000/svg">
<path fill-rule="evenodd" clip-rule="evenodd" d="M6.43212 0C4.22298 0 2.43213 1.79086 2.43213 4C2.43213 6.20914 4.22298 8 6.43212 8C8.64124 8 10.4321 6.20914 10.4321 4C10.4321 1.79086 8.64124 0 6.43212 0Z" fill="#FDB52A"/>
<path fill-rule="evenodd" clip-rule="evenodd" d="M4.03196 8.7998C2.70176 8.7998 1.42255 9.4066 0.672884 10.3201C0.292404 10.7838 0.0249322 11.3575 0.00164419 11.9933C-0.0221398 12.6427 0.212252 13.2764 0.695628 13.8295C1.87368 15.1771 3.75458 15.9998 6.43196 15.9998C9.10932 15.9998 10.9903 15.1771 12.1683 13.8295C12.6517 13.2764 12.886 12.6427 12.8623 11.9933C12.839 11.3575 12.5716 10.7838 12.1911 10.3201C11.4414 9.4066 10.1622 8.7998 8.83196 8.7998H4.03196Z" fill="#FDB52A"/>
</svg>
