<svg width="60" height="60" viewBox="0 0 60 60" fill="none" xmlns="http://www.w3.org/2000/svg">
<path d="M31.5051 19.9795L26.202 14.6768C25.6722 14.1608 24.9605 13.8741 24.221 13.879C23.4815 13.8838 22.7736 14.1797 22.2506 14.7026C21.7277 15.2255 21.4317 15.9334 21.4268 16.6729C21.4219 17.4124 21.7085 18.1241 22.2245 18.6539L27.5281 23.9584C28.0578 24.4758 28.7701 24.7635 29.5106 24.759C30.251 24.7546 30.9598 24.4584 31.4833 23.9347C32.0067 23.411 32.3026 22.702 32.3067 21.9616C32.3107 21.2211 32.0227 20.5089 31.5051 19.9795ZM23.5506 16.0025C23.7288 15.8315 23.9662 15.7361 24.2132 15.7361C24.4602 15.7361 24.6976 15.8315 24.8758 16.0025L30.1795 21.3052C30.2673 21.3922 30.3371 21.4956 30.3849 21.6096C30.4326 21.7236 30.4574 21.8459 30.4577 21.9695C30.458 22.0931 30.4339 22.2155 30.3867 22.3298C30.3395 22.444 30.2702 22.5478 30.1828 22.6352C30.0954 22.7225 29.9916 22.7917 29.8773 22.8388C29.763 22.8859 29.6406 22.91 29.517 22.9096C29.3934 22.9092 29.2711 22.8844 29.1571 22.8365C29.0432 22.7887 28.9398 22.7188 28.8529 22.6309L23.5501 17.3282C23.3747 17.1522 23.2761 16.9138 23.2762 16.6653C23.2763 16.4167 23.375 16.1784 23.5506 16.0025Z" fill="#010916"/>
<path d="M33.1458 34.8119C33.1387 34.8125 39.1986 28.7487 39.2029 28.7465C40.0753 27.8653 40.5646 26.6753 40.5645 25.4353C40.5643 24.1953 40.0746 23.0055 39.202 22.1245L32.1779 15.0999L35.3211 11.9567C35.4973 11.7811 35.7359 11.6824 35.9846 11.6822C36.2334 11.6821 36.4721 11.7804 36.6486 11.9557L43.2578 18.5668C43.7863 19.0929 44.5017 19.3882 45.2474 19.388C45.9931 19.3878 46.7084 19.0922 47.2366 18.5658L48.5587 17.2438C49.0854 16.7157 49.3813 16.0003 49.3813 15.2544C49.3813 14.5085 49.0854 13.793 48.5587 13.2649L39.9619 4.66815C38.9065 3.61464 37.4761 3.02295 35.9849 3.02295C34.4936 3.02295 33.0633 3.61464 32.0078 4.66815L26.8772 9.79877C26.4558 9.29917 25.9357 8.89207 25.3494 8.60301C24.7632 8.31395 24.1236 8.14917 23.4707 8.119C22.8178 8.08883 22.1657 8.19393 21.5553 8.4277C20.945 8.66147 20.3895 9.01887 19.9238 9.47748L16.5203 12.8804C16.0638 13.3473 15.7082 13.9031 15.4757 14.5132C15.2432 15.1234 15.1388 15.7749 15.169 16.4272C15.1991 17.0795 15.3632 17.7185 15.651 18.3047C15.9388 18.8908 16.3442 19.4114 16.8419 19.8341L14.2237 22.4523C13.6967 22.9802 13.4008 23.6957 13.4008 24.4417C13.4008 25.1877 13.6967 25.9032 14.2237 26.4312L15.5457 27.7541C16.0741 28.2802 16.7894 28.5755 17.5351 28.5753C18.2807 28.5752 18.9959 28.2795 19.5241 27.7531L22.1427 25.1346L23.2919 26.2837L2.97368 46.6021C2.27169 47.3055 1.87744 48.2587 1.87744 49.2525C1.87744 50.2463 2.27169 51.1995 2.97368 51.903L6.86421 55.794C7.56768 56.4957 8.52077 56.8898 9.51443 56.8898C10.5081 56.8898 11.4612 56.4957 12.1647 55.794C15.9773 51.98 29.1187 38.8399 33.1458 34.8119ZM33.3335 5.99383C34.0374 5.29203 34.9908 4.89795 35.9848 4.89795C36.9788 4.89795 37.9323 5.29203 38.6362 5.99383L47.233 14.5906C47.4089 14.7668 47.5077 15.0055 47.5077 15.2544C47.5077 15.5033 47.4089 15.742 47.233 15.9181L45.911 17.2392C45.7348 17.4148 45.4962 17.5135 45.2474 17.5137C44.9987 17.5139 44.76 17.4155 44.5835 17.2402L37.9743 10.6292C37.4459 10.1029 36.7304 9.80754 35.9847 9.80771C35.2389 9.80789 34.5236 10.1036 33.9954 10.6301L30.852 13.7739L28.2028 11.1245L33.3335 5.99383ZM18.1985 26.4275C18.0221 26.603 17.7835 26.7015 17.5347 26.7015C17.286 26.7015 17.0473 26.603 16.871 26.4275L15.5494 25.1055C15.3737 24.9292 15.275 24.6906 15.275 24.4417C15.275 24.1929 15.3737 23.9542 15.5494 23.778L18.1676 21.1597L20.817 23.8089L18.1985 26.4275ZM10.839 54.4683C10.4875 54.8191 10.0111 55.0162 9.51446 55.0162C9.0178 55.0162 8.54143 54.8191 8.18993 54.4683L4.2994 50.5773C3.94851 50.2257 3.75145 49.7492 3.75145 49.2525C3.75145 48.7558 3.94851 48.2793 4.2994 47.9277L25.2805 26.9466C25.455 26.7701 25.5529 26.5319 25.5529 26.2837C25.5529 26.0356 25.455 25.7974 25.2805 25.6209L18.8314 19.1722L17.846 18.1868C17.3227 17.6565 17.0293 16.9415 17.0294 16.1965C17.0294 15.4514 17.3228 14.7364 17.846 14.2061L21.2494 10.8031C21.7773 10.2755 22.4932 9.97904 23.2395 9.97904C23.9859 9.97904 24.7018 10.2755 25.2297 10.8031L37.8763 23.4502C38.3994 23.9785 38.6929 24.692 38.6929 25.4355C38.6929 26.179 38.3994 26.8925 37.8763 27.4208L32.479 32.8194C32.1447 32.4062 31.7277 32.0674 31.2548 31.8247C30.7819 31.5819 30.2635 31.4407 29.7329 31.41C29.2022 31.3792 28.671 31.4597 28.1733 31.6462C27.6755 31.8326 27.2222 32.1211 26.8424 32.4929L15.5736 43.7621C15.2016 44.1418 14.9132 44.5952 14.727 45.0932C14.5408 45.5912 14.4609 46.1226 14.4926 46.6533C14.5243 47.184 14.6668 47.7021 14.9108 48.1744C15.1549 48.6467 15.4952 49.0626 15.9098 49.3954L10.839 54.4683ZM17.2354 48.0692C16.9979 47.9105 16.7979 47.7018 16.6493 47.4578C16.5007 47.2138 16.4072 46.9404 16.3752 46.6565C16.3432 46.3726 16.3735 46.0852 16.4641 45.8142C16.5546 45.5433 16.7031 45.2953 16.8994 45.0877L28.1708 33.8158C28.378 33.619 28.6257 33.4698 28.8965 33.3787C29.1673 33.2875 29.4547 33.2565 29.7388 33.2879C30.0228 33.3193 30.2965 33.4123 30.5409 33.5604C30.7853 33.7085 30.9944 33.9081 31.1536 34.1454L17.2354 48.0692Z" fill="#010916"/>
<path d="M56.249 35.5883V27.9155C56.249 27.7924 56.2248 27.6705 56.1777 27.5567C56.1307 27.4429 56.0616 27.3395 55.9745 27.2525C55.8875 27.1654 55.7841 27.0963 55.6703 27.0492C55.5565 27.0022 55.4346 26.978 55.3115 26.978H47.8115C47.6883 26.978 47.5664 27.0022 47.4526 27.0492C47.3388 27.0963 47.2355 27.1654 47.1484 27.2525C47.0613 27.3395 46.9923 27.4429 46.9452 27.5567C46.8981 27.6705 46.8739 27.7924 46.874 27.9155V35.5883C46.3317 35.7849 45.8632 36.1438 45.5321 36.6161C45.2009 37.0884 45.0233 37.6512 45.0233 38.228C45.0233 38.8048 45.2009 39.3676 45.5321 39.8399C45.8632 40.3122 46.3317 40.6711 46.874 40.8677V42.2032C46.8741 43.1365 46.504 44.0317 45.8449 44.6925C45.1859 45.3533 44.2916 45.7257 43.3583 45.728H41.0762C40.8796 45.1858 40.5207 44.7172 40.0484 44.3861C39.5761 44.055 39.0133 43.8774 38.4365 43.8774C37.8597 43.8774 37.2969 44.055 36.8246 44.3861C36.3523 44.7172 35.9934 45.1858 35.7967 45.728H28.1235C28.0004 45.728 27.8785 45.7522 27.7647 45.7993C27.651 45.8464 27.5476 45.9155 27.4605 46.0025C27.3735 46.0896 27.3044 46.193 27.2573 46.3067C27.2102 46.4205 27.186 46.5424 27.186 46.6655V54.1655C27.186 54.2887 27.2102 54.4106 27.2573 54.5243C27.3044 54.6381 27.3735 54.7415 27.4606 54.8285C27.5476 54.9156 27.651 54.9846 27.7647 55.0317C27.8785 55.0788 28.0004 55.1031 28.1235 55.103H35.7968C35.9934 55.6453 36.3523 56.1138 36.8246 56.4449C37.2969 56.776 37.8597 56.9537 38.4365 56.9537C39.0133 56.9537 39.5761 56.776 40.0484 56.4449C40.5207 56.1138 40.8796 55.6453 41.0762 55.103H43.3583C45.1631 55.0883 46.9451 54.6995 48.5919 53.961C50.2388 53.2225 51.7145 52.1506 52.9259 50.8128C54.1374 49.475 55.0582 47.9004 55.6301 46.1887C56.2021 44.4769 56.4128 42.6651 56.249 40.8678C56.7912 40.6711 57.2598 40.3123 57.5909 39.84C57.922 39.3677 58.0996 38.8048 58.0996 38.228C58.0996 37.6512 57.922 37.0884 57.5909 36.6161C57.2598 36.1438 56.7912 35.7849 56.249 35.5883ZM35.624 53.228H29.061V47.603H35.624V53.228ZM39.374 54.1655C39.3703 54.4118 39.2699 54.6467 39.0945 54.8195C38.9191 54.9923 38.6827 55.0892 38.4364 55.0892C38.1902 55.0892 37.9538 54.9923 37.7784 54.8195C37.603 54.6466 37.5026 54.4117 37.499 54.1655V46.6655C37.5026 46.4193 37.603 46.1844 37.7784 46.0115C37.9538 45.8387 38.1902 45.7418 38.4365 45.7418C38.6827 45.7418 38.9191 45.8387 39.0945 46.0115C39.2699 46.1844 39.3703 46.4193 39.374 46.6655V54.1655ZM48.749 28.853H54.374V35.4155H48.749V28.853ZM43.3583 53.228H41.249V47.603H43.3583C44.7887 47.6002 46.1596 47.0301 47.1702 46.0178C48.1808 45.0055 48.7486 43.6337 48.749 42.2032V41.0405H54.374C54.5166 42.5781 54.3385 44.1285 53.8509 45.5937C53.3634 47.0589 52.577 48.4069 51.5416 49.5525C50.5062 50.698 49.2442 51.6162 47.8356 52.2489C46.427 52.8816 44.9024 53.215 43.3583 53.228ZM55.3115 39.1655C55.2335 39.1638 47.7853 39.1668 47.8114 39.1655C47.5652 39.1619 47.3303 39.0615 47.1574 38.886C46.9846 38.7106 46.8878 38.4742 46.8878 38.228C46.8878 37.9817 46.9847 37.7453 47.1575 37.5699C47.3304 37.3945 47.5653 37.2942 47.8115 37.2905H55.3115C55.5577 37.2942 55.7926 37.3946 55.9654 37.57C56.1383 37.7454 56.2352 37.9818 56.2352 38.228C56.2352 38.4743 56.1383 38.7107 55.9654 38.8861C55.7926 39.0615 55.5577 39.1619 55.3115 39.1655Z" fill="#010916"/>
</svg>
