<svg width="58" height="60" viewBox="0 0 58 60" fill="none" xmlns="http://www.w3.org/2000/svg">
<path d="M55.3555 52.3711C54.9688 50.9297 54.3477 49.5938 53.5391 48.4102C54.3008 47.9648 54.9922 47.4141 55.5899 46.7344C57.0782 45.0117 57.7578 42.8203 57.5117 40.5352C57.3125 38.8594 55.2617 38.1562 54.0899 39.375L52.1446 41.1328C51.5117 41.6602 50.4805 41.7188 49.8125 41.0977C49.1446 40.5117 48.9805 39.5391 49.4141 38.8242L50.9141 36.6094C51.9688 35.2617 50.9375 33.3281 49.2852 33.3984C47.0352 33.4688 44.9024 34.4766 43.4258 36.1758C41.9024 37.9336 41.2344 40.2305 41.5274 42.4805L38.9844 42.2109C38.9375 42.2109 38.9024 42.1992 38.8555 42.1992C37.4024 42.1992 36.2188 41.0156 36.2188 39.5625V36.2344C39.3477 33.4336 42.3828 30.0352 42.3828 26.2969V19.3711H42.418H44.4571C45.1367 19.3711 45.6758 18.8203 45.6758 18.1523C45.6758 17.4844 45.125 16.9336 44.4571 16.9336H43.625C43.4024 11.1328 39.875 6.17578 34.8594 3.91406C34.9649 1.79297 33.2891 0 31.1211 0H26.3164C24.1133 0 22.4961 1.85156 22.6016 3.91406C17.586 6.17578 14.0586 11.1328 13.836 16.9336H12.9922C12.3125 16.9336 11.7735 17.4844 11.7735 18.1523C11.7735 18.8203 12.3243 19.3711 12.9922 19.3711H15.0313H15.0547V26.2969C15.0547 30.0469 18.1133 33.4453 21.2422 36.2461V39.5625C21.2422 41.0156 20.0586 42.1992 18.6055 42.1992C18.5586 42.1992 18.5235 42.1992 18.4766 42.2109C14.5157 42.6211 14.4336 42.6328 12.6993 42.8203C7.57816 43.6172 3.418 47.3555 2.09378 52.3594L0.476595 58.4531C0.300814 59.1094 0.687532 59.7773 1.34378 59.9531C2.00003 60.1289 2.668 59.7422 2.84378 59.0859L4.46097 52.9922C5.51566 49.0195 8.77347 46.0312 12.7578 45.3047V49.7812C10.9063 50.2969 9.37113 51.6914 8.70316 53.5547L6.99222 58.3594C6.76956 58.9922 7.09769 59.6953 7.7305 59.918C8.36331 60.1406 9.06644 59.8125 9.28909 59.1797L11 54.375C11.5039 52.957 12.8633 51.9961 14.3633 51.9961H34.2969L33.9102 52.4414C32.2696 54.3398 32.4688 57.2227 34.3672 58.875C36.2774 60.5273 39.1602 60.3047 40.8008 58.418L45.5 52.9922C45.8985 53.3672 46.2149 53.8359 46.4024 54.375L48.1133 59.1797C48.336 59.8125 49.0391 60.1523 49.6719 59.918C50.3047 59.6953 50.6446 58.9922 50.4102 58.3594L48.6992 53.5547C48.3594 52.6055 47.7969 51.7969 47.0938 51.1406L48.5703 49.4414C49.4375 49.5469 50.293 49.4883 51.1367 49.3125C51.9571 50.3906 52.5899 51.6328 52.9532 52.9922L54.5703 59.0859C54.7461 59.7305 55.4141 60.1289 56.0703 59.9531C56.7266 59.7773 57.1133 59.1094 56.9375 58.4531L55.3555 52.3711ZM23.0938 6.39844L24.5352 12.8789C24.6875 13.5352 25.3438 13.957 26 13.8047C26.6563 13.6523 27.0782 13.0078 26.9258 12.3398L25.0625 3.99609C24.8868 3.1875 25.4961 2.4375 26.3047 2.4375H31.1094C31.9297 2.4375 32.5508 3.22266 32.3516 3.99609L30.5235 12.3516C30.3711 13.0078 30.793 13.6641 31.4492 13.8164C32.1055 13.9688 32.7617 13.5469 32.9141 12.8906L34.3555 6.41016C38.2461 8.39062 40.9649 12.3516 41.1758 16.957C27.0078 16.957 30.418 16.957 16.2852 16.957C16.4844 12.3398 19.2032 8.37891 23.0938 6.39844ZM17.5157 26.3086V19.3828H39.9219V26.3086C39.9219 30.2695 34.5899 34.4648 31.3555 37.1484C31.0625 37.3945 30.6875 37.5352 30.3008 37.5352H27.125C26.75 37.5352 26.375 37.3945 26.0703 37.1484C22.9532 34.5586 17.5157 30.293 17.5157 26.3086ZM24.5118 39.0352C25.25 39.6445 26.1758 39.9844 27.1368 39.9844H30.3125C31.2618 39.9844 32.1992 39.6445 32.9375 39.0352C33.0196 38.9648 32.6328 39.293 33.7696 38.3438V39.5742C33.7696 41.3555 34.6953 42.9258 36.0782 43.8281C31.1563 46.7695 26.3164 46.7695 21.3946 43.8281C22.7891 42.9141 23.7032 41.3555 23.7032 39.5742V38.3555C23.7852 38.4258 23.4102 38.1094 24.5118 39.0352ZM15.2188 49.5586V45.0234L18.2774 44.707C21.7461 47.2383 25.2383 48.5156 28.7188 48.5156C32.211 48.5156 35.7032 47.2383 39.1602 44.707L40.5078 44.8477L36.4297 49.5586H15.2188ZM48.3828 46.9336C47.9492 46.8398 47.4922 46.9922 47.1992 47.332L38.9727 56.8242C37.1446 58.9336 33.9688 56.1562 35.7852 54.0586L44 44.5664C44.293 44.2266 44.375 43.7578 44.2227 43.3477C43.5313 41.4492 43.9297 39.3281 45.2539 37.793C46.086 36.832 47.1641 36.2109 48.3828 35.9648L47.3399 37.5234C46.2617 39.3047 46.625 41.5898 48.1953 42.9609C49.7422 44.2969 52.0391 44.3906 53.7383 42.9961L55.086 41.7773C55.0157 43.0195 54.5469 44.1797 53.7266 45.1406C52.4024 46.6523 50.3516 47.3555 48.3828 46.9336Z" fill="#010916"/>
</svg>
