<svg width="60" height="60" viewBox="0 0 60 60" fill="none" xmlns="http://www.w3.org/2000/svg">
<g clip-path="url(#clip0_658_23322)">
<path d="M49.8 46.7C50.5803 47.4768 51.8417 47.4768 52.622 46.7L56.164 43.169C56.9433 42.3851 56.9433 41.119 56.164 40.335L52 36.166V25C52 23.8955 51.1046 23 50 23H45C43.8954 23 43 23.8955 43 25V27.166L39.808 23.974C43.8654 19.9906 45.1106 13.9489 42.9588 8.68588C40.8071 3.42281 35.6859 -0.0161133 30 -0.0161133C24.3141 -0.0161133 19.1929 3.42281 17.0412 8.68588C14.8895 13.9489 16.1346 19.9906 20.192 23.974L3.83201 40.333C3.05209 41.1171 3.05209 42.384 3.83201 43.168L7.37301 46.7C8.15355 47.4781 9.41647 47.4781 10.197 46.7L10.997 45.9V58H7.00001C6.44773 58 6.00001 58.4478 6.00001 59C6.00001 59.5523 6.44773 60 7.00001 60H53C53.5523 60 54 59.5523 54 59C54 58.4478 53.5523 58 53 58H49V45.9L49.8 46.7ZM45 25H50V34.166L45 29.166V25ZM54.754 41.752L51.217 45.283L48.711 42.778L48.7 42.77L33.472 27.547C35.2035 27.1025 36.8331 26.3287 38.272 25.268L54.754 41.752ZM18 14C18 7.37262 23.3726 2.00004 30 2.00004C36.6274 2.00004 42 7.37262 42 14C42 20.6275 36.6274 26 30 26C23.3756 25.9929 18.0072 20.6245 18 14ZM8.78601 45.282L5.24701 41.747L21.726 25.268C23.1649 26.3288 24.7945 27.1026 26.526 27.547L11.3 42.765L11.281 42.784L8.78601 45.282ZM26 58V54C26 51.7909 27.7909 50 30 50C32.2092 50 34 51.7909 34 54V58H26ZM47 58H36V54C36 50.6863 33.3137 48 30 48C26.6863 48 24 50.6863 24 54V58H13V43.9L28.957 27.947C29.303 27.973 29.648 28 30 28C30.352 28 30.7 27.973 31.043 27.947L47 43.9V58Z" fill="#010916"/>
<path d="M1 60H3C3.55228 60 4 59.5523 4 59C4 58.4477 3.55228 58 3 58H1C0.447715 58 0 58.4477 0 59C0 59.5523 0.447715 60 1 60Z" fill="#010916"/>
<path d="M57 60H59C59.5523 60 60 59.5523 60 59C60 58.4477 59.5523 58 59 58H57C56.4477 58 56 58.4477 56 59C56 59.5523 56.4477 60 57 60Z" fill="#010916"/>
<path d="M27 17.5C27 16.9477 26.5523 16.5 26 16.5C25.4477 16.5 25 16.9477 25 17.5C25.0965 19.7416 26.7784 21.5954 29 21.909V22C29 22.5523 29.4477 23 30 23C30.5523 23 31 22.5523 31 22V21.909C33.2216 21.5954 34.9035 19.7416 35 17.5C34.9035 15.2584 33.2216 13.4046 31 13.091V8.154C32.1128 8.40646 32.9268 9.36123 33 10.5C33 11.0523 33.4477 11.5 34 11.5C34.5523 11.5 35 11.0523 35 10.5C34.9035 8.2584 33.2216 6.40463 31 6.091V6C31 5.44772 30.5523 5 30 5C29.4477 5 29 5.44772 29 6V6.091C26.7784 6.40463 25.0965 8.2584 25 10.5C25.0965 12.7416 26.7784 14.5954 29 14.909V19.846C27.8872 19.5935 27.0732 18.6388 27 17.5ZM33 17.5C32.9268 18.6388 32.1128 19.5935 31 19.846V15.154C32.1128 15.4065 32.9268 16.3612 33 17.5ZM27 10.5C27.0732 9.36123 27.8872 8.40646 29 8.154V12.846C27.8872 12.5935 27.0732 11.6388 27 10.5Z" fill="#010916"/>
<path d="M25 34C24.4477 34 24 34.4477 24 35V45C24 45.5523 24.4477 46 25 46H35C35.5523 46 36 45.5523 36 45V35C36 34.4477 35.5523 34 35 34H25ZM34 39H31V36H34V39ZM29 36V39H26V36H29ZM26 41H29V44H26V41ZM31 44V41H34V44H31Z" fill="#010916"/>
<path d="M32 56C32.5523 56 33 55.5523 33 55C33 54.4477 32.5523 54 32 54C31.4477 54 31 54.4477 31 55C31 55.5523 31.4477 56 32 56Z" fill="#010916"/>
<path d="M9 14C9 14.5523 9.44772 15 10 15H13C13.5523 15 14 14.5523 14 14C14 13.4477 13.5523 13 13 13H10C9.44772 13 9 13.4477 9 14Z" fill="#010916"/>
<path d="M46 14C46 14.5523 46.4477 15 47 15H50C50.5523 15 51 14.5523 51 14C51 13.4477 50.5523 13 50 13H47C46.4477 13 46 13.4477 46 14Z" fill="#010916"/>
<path d="M14.777 21.6339L12.177 23.1339C11.8651 23.3113 11.6721 23.6422 11.6713 24.001C11.6705 24.3599 11.862 24.6916 12.1732 24.8703C12.4844 25.0491 12.8674 25.0474 13.177 24.8659L15.777 23.3659C16.089 23.1885 16.282 22.8576 16.2828 22.4988C16.2835 22.1399 16.092 21.8082 15.7808 21.6294C15.4697 21.4507 15.0866 21.4524 14.777 21.6339Z" fill="#010916"/>
<path d="M46.82 3.1339L44.22 4.6339C43.908 4.81126 43.715 5.14217 43.7142 5.50102C43.7134 5.85986 43.905 6.19162 44.2162 6.37035C44.5273 6.54908 44.9104 6.54738 45.22 6.3659L47.82 4.8659C48.1319 4.68854 48.3249 4.35763 48.3257 3.99878C48.3265 3.63994 48.135 3.30818 47.8238 3.12945C47.5126 2.95072 47.1295 2.95241 46.82 3.1339Z" fill="#010916"/>
<path d="M15.777 4.6339L13.177 3.1339C12.8674 2.95241 12.4844 2.95072 12.1732 3.12945C11.862 3.30818 11.6705 3.63994 11.6713 3.99878C11.6721 4.35763 11.8651 4.68854 12.177 4.8659L14.777 6.3659C15.0866 6.54738 15.4697 6.54908 15.7808 6.37035C16.092 6.19162 16.2835 5.85986 16.2828 5.50102C16.282 5.14217 16.089 4.81126 15.777 4.6339Z" fill="#010916"/>
</g>
<defs>
<clipPath id="clip0_658_23322">
<rect width="60" height="60" fill="white"/>
</clipPath>
</defs>
</svg>
