<svg width="62" height="62" viewBox="0 0 62 62" fill="none" xmlns="http://www.w3.org/2000/svg">
<path d="M57.6155 53.2862C57.6155 50.3722 53.0963 44.3049 52.581 43.6229C52.3988 43.3807 52.1121 43.2383 51.8079 43.2383C51.5037 43.2383 51.2179 43.3807 51.0348 43.6229C50.5195 44.3058 45.9993 50.3731 45.9993 53.2871C45.9993 56.4898 48.6042 59.0957 51.8079 59.0957C55.0115 59.0957 57.6155 56.4898 57.6155 53.2862ZM47.9368 53.2862C47.9368 51.8078 50.07 48.3068 51.8079 45.85C53.5458 48.3068 55.678 51.8078 55.678 53.2862C55.678 55.4203 53.942 57.1573 51.8079 57.1573C49.6737 57.1573 47.9368 55.4213 47.9368 53.2862Z" fill="#010916"/>
<path d="M58.5687 35.9096H57.7569V30.7093C57.7569 25.2262 53.9497 20.6653 48.7814 19.5426L49.3772 18.9468C51.9773 19.5406 54.6995 18.7705 56.6012 16.8678C58.6937 14.7753 59.4105 11.7335 58.4728 8.92797C58.4699 8.91828 58.4621 8.91247 58.4583 8.90278C58.4369 8.84369 58.3972 8.79234 58.3633 8.73712C58.3284 8.68094 58.3003 8.62184 58.2558 8.57437C58.249 8.56662 58.2471 8.55694 58.2393 8.55016C58.2054 8.51625 58.1618 8.50172 58.124 8.47362C58.0678 8.43197 58.0146 8.38741 57.9506 8.35834C57.8925 8.33219 57.8315 8.3225 57.7704 8.30797C57.7104 8.29441 57.6542 8.276 57.5922 8.27309C57.5215 8.27019 57.4537 8.28666 57.3829 8.29925C57.3374 8.307 57.2919 8.30119 57.2463 8.31572C57.2367 8.31862 57.2299 8.32637 57.2212 8.33025C57.1611 8.35253 57.1097 8.39225 57.0545 8.42616C56.9993 8.46103 56.9402 8.48912 56.8937 8.53369C56.886 8.54047 56.8763 8.54241 56.8695 8.55016L53.1592 12.2605L50.2316 9.33291L53.9419 5.62162C53.9487 5.61484 53.9507 5.60516 53.9574 5.59741C54.002 5.54994 54.0311 5.49084 54.0659 5.43369C54.0998 5.37847 54.1386 5.32809 54.1609 5.269C54.1647 5.25931 54.1725 5.2535 54.1754 5.24381C54.1909 5.19731 54.1841 5.15178 54.1928 5.10431C54.2054 5.03553 54.2209 4.96869 54.218 4.89894C54.2151 4.835 54.1967 4.77687 54.1822 4.71584C54.1686 4.65578 54.1589 4.59669 54.1338 4.5405C54.1047 4.47656 54.0601 4.42328 54.0185 4.36612C53.9904 4.32834 53.9758 4.28475 53.9419 4.25084C53.9352 4.24406 53.9245 4.24116 53.9177 4.23437C53.8712 4.19078 53.8121 4.16172 53.7569 4.12684C53.7017 4.09294 53.6503 4.05322 53.5903 4.03094C53.5806 4.02706 53.5748 4.01931 53.5651 4.01641C50.7586 3.07575 47.7177 3.79456 45.6262 5.88803C43.7255 7.78872 42.9544 10.507 43.5472 13.1013L37.3831 19.2655H36.8232C35.9038 18.04 34.6803 17.0538 33.293 16.4135V9.299H37.4344C39.1976 9.299 40.6333 7.86428 40.6333 6.10019C40.6333 4.33609 39.1985 2.90234 37.4344 2.90234H21.389C19.6259 2.90234 18.1902 4.33706 18.1902 6.10019C18.1902 7.86331 19.6249 9.299 21.389 9.299H25.5333V16.4106C24.1364 17.0606 22.9313 18.0468 22.0177 19.2684H13.6419V18.6746C13.6419 15.4477 11.0166 12.8233 7.79069 12.8233H2.90625C2.37053 12.8233 1.9375 13.2573 1.9375 13.7921V36.7718C1.9375 37.3065 2.37053 37.7405 2.90625 37.7405H7.78875C11.0147 37.7405 13.64 35.1162 13.64 31.8893V31.2954H22.8547C23.2684 31.712 23.7102 32.1043 24.2052 32.4405L23.1337 33.5119C20.5394 32.922 17.8221 33.6902 15.9204 35.5909C13.8279 37.6834 13.1111 40.7253 14.0488 43.5308C14.0527 43.5414 14.0604 43.5492 14.0643 43.5608C14.0759 43.5937 14.0963 43.6208 14.1128 43.6528C14.1515 43.7313 14.197 43.802 14.2542 43.865C14.2668 43.8785 14.2707 43.896 14.2833 43.9086C14.2978 43.9231 14.3181 43.9289 14.3336 43.9425C14.3985 43.9996 14.4683 44.0452 14.5458 44.0829C14.5758 44.0975 14.6039 44.1159 14.6349 44.1275C14.7415 44.1672 14.8529 44.1924 14.9682 44.1924C15.0699 44.1924 15.1735 44.1759 15.2752 44.142C15.2849 44.1391 15.2907 44.1314 15.3004 44.1275C15.3605 44.1052 15.4118 44.0655 15.4671 44.0316C15.5223 43.9967 15.5814 43.9686 15.6279 43.925C15.6356 43.9182 15.6453 43.9163 15.6521 43.9086L19.3624 40.1982L22.29 43.1258L18.5797 46.8361C18.5719 46.8439 18.57 46.8536 18.5632 46.8613C18.5206 46.9068 18.4925 46.964 18.4586 47.0182C18.4237 47.0744 18.383 47.1267 18.3607 47.1878C18.3568 47.1975 18.3491 47.2033 18.3462 47.213C18.3307 47.2595 18.3375 47.306 18.3288 47.3525C18.3162 47.4212 18.3007 47.4881 18.3036 47.5578C18.3065 47.6208 18.3249 47.6789 18.3394 47.74C18.3539 47.8 18.3627 47.8591 18.3888 47.9163C18.4179 47.9802 18.4615 48.0325 18.5041 48.0897C18.5322 48.1275 18.5467 48.172 18.5816 48.2059C18.5893 48.2137 18.599 48.2156 18.6058 48.2224C18.6523 48.266 18.7104 48.2941 18.7657 48.329C18.8209 48.3629 18.8732 48.4036 18.9333 48.4249C18.9429 48.4287 18.9487 48.4365 18.9584 48.4394C19.7741 48.7126 20.6092 48.8453 21.4355 48.8453C23.4515 48.8453 25.4132 48.0529 26.8983 46.5678C28.8009 44.6661 29.5721 41.9439 28.9773 39.3438L37.0247 31.2954H45.7357V35.9048H45.0459C44.2215 35.9048 43.5521 36.5742 43.5521 37.3986V41.1089C43.5521 41.9323 44.2215 42.6027 45.0459 42.6027H58.5697C59.3941 42.6027 60.0635 41.9323 60.0635 41.1089V37.3986C60.0635 36.5751 59.3941 35.9048 58.5697 35.9048L58.5687 35.9096ZM20.1248 6.10309C20.1248 5.4085 20.6906 4.84275 21.3861 4.84275H37.4315C38.1271 4.84275 38.6928 5.4085 38.6928 6.10309C38.6928 6.79769 38.1271 7.36441 37.4315 7.36441H21.3861C20.6906 7.36441 20.1248 6.79866 20.1248 6.10309ZM27.4679 9.30191H31.3526V15.7596C30.7191 15.624 30.071 15.5474 29.4113 15.5474C28.7448 15.5474 28.0957 15.622 27.4679 15.7567V9.30094V9.30191ZM7.78875 35.8059H3.875V14.7647H7.78875C9.94712 14.7647 11.7025 16.5201 11.7025 18.6784V20.2129C11.7025 20.2226 11.6967 20.2313 11.6967 20.241C11.6967 20.2507 11.7025 20.2594 11.7025 20.2691V30.3025C11.7025 30.3122 11.6967 30.3209 11.6967 30.3306C11.6967 30.3402 11.7025 30.349 11.7025 30.3587V31.8932C11.7025 34.0515 9.94712 35.8069 7.78875 35.8069V35.8059ZM13.64 29.3618V21.2088H20.8921C20.4271 22.3103 20.1694 23.5202 20.1694 24.7893C20.1694 26.4381 20.6102 27.9968 21.3822 29.3608L13.64 29.3618ZM22.1069 24.7903C22.1069 20.7622 25.3842 17.4859 29.4113 17.4859C30.257 17.4859 31.0814 17.6273 31.8612 17.9054C31.8835 17.917 31.9077 17.9267 31.9319 17.9373C31.9397 17.9412 31.9474 17.9441 31.9552 17.948C31.9639 17.9519 31.9717 17.9557 31.9804 17.9596C33.4984 18.5225 34.8062 19.6113 35.6519 20.9976L32.3543 24.2952C32.3475 24.3011 32.3417 24.3078 32.3359 24.3137L25.6176 31.0319C23.4418 29.7106 22.1059 27.3846 22.1059 24.7912L22.1069 24.7903ZM26.971 39.3458C27.6142 41.4247 27.0611 43.6693 25.5275 45.2028C24.3718 46.3595 22.8296 46.9514 21.2563 46.9039L24.3457 43.8146C24.5278 43.6325 24.6295 43.3864 24.6295 43.1297C24.6295 42.873 24.5278 42.6259 24.3457 42.4448L20.0473 38.1474C19.6685 37.7686 19.0563 37.7686 18.6775 38.1474L15.5891 41.2358C15.5426 39.6635 16.1336 38.1213 17.2893 36.9655C18.8228 35.433 21.0635 34.8817 23.1357 35.5221C23.4806 35.6287 23.8535 35.5366 24.1073 35.2818L35.6917 23.6975C35.6975 23.6917 35.7043 23.6849 35.7101 23.6791L45.3094 14.0798C45.5642 13.826 45.6562 13.452 45.5497 13.1081C44.9083 11.034 45.4605 8.79428 46.9931 7.26172C48.1478 6.106 49.6901 5.51506 51.2624 5.56156L48.174 8.64994C47.9919 8.83206 47.8902 9.07812 47.8902 9.33484C47.8902 9.59156 47.9919 9.83859 48.174 10.0197L52.4723 14.3171C52.6613 14.506 52.9093 14.601 53.1573 14.601C53.4053 14.601 53.6532 14.506 53.8422 14.3171L56.9305 11.2287C56.977 12.801 56.3861 14.3433 55.2304 15.498C53.6968 17.0316 51.4532 17.5847 49.3733 16.9415C49.0304 16.8359 48.6574 16.9279 48.4017 17.1817L38.8052 26.7782C38.8004 26.783 38.7946 26.7888 38.7887 26.7946L27.2102 38.3741C26.9555 38.6279 26.8644 39.0018 26.971 39.3458ZM46.3159 29.3628H38.9622L47.0754 21.2495C52.0093 21.636 55.8203 25.7096 55.8203 30.7093V35.9096H47.6732V30.7093C47.6732 29.9663 47.0638 29.3628 46.3159 29.3628ZM58.125 40.67H45.4886V37.8471H46.6967C46.6967 37.8471 46.7015 37.8481 46.7034 37.8481H56.7881C56.7881 37.8481 56.793 37.8471 56.7949 37.8471H58.125V40.67Z" fill="#010916"/>
</svg>
