<svg width="1920" height="412" viewBox="0 0 1920 412" fill="none" xmlns="http://www.w3.org/2000/svg">
<rect x="1054" y="77" width="30" height="10" rx="4" fill="#141414"/>
<rect x="1054.75" y="77.75" width="28.5" height="8.5" rx="3.25" stroke="url(#paint0_linear_914_2806)" stroke-opacity="0.3" stroke-width="1.5"/>
<rect x="1054" y="107" width="30" height="10" rx="4" fill="#141414"/>
<rect x="1054.75" y="107.75" width="28.5" height="8.5" rx="3.25" stroke="url(#paint1_linear_914_2806)" stroke-opacity="0.3" stroke-width="1.5"/>
<rect x="1054" y="137" width="30" height="10" rx="4" fill="#141414"/>
<rect x="1054.75" y="137.75" width="28.5" height="8.5" rx="3.25" stroke="url(#paint2_linear_914_2806)" stroke-opacity="0.3" stroke-width="1.5"/>
<rect x="1054" y="167" width="30" height="10" rx="4" fill="#141414"/>
<rect x="1054.75" y="167.75" width="28.5" height="8.5" rx="3.25" stroke="url(#paint3_linear_914_2806)" stroke-opacity="0.3" stroke-width="1.5"/>
<rect width="30" height="10" rx="4" transform="matrix(-1 0 0 1 866 77)" fill="#141414"/>
<rect x="-0.75" y="0.75" width="28.5" height="8.5" rx="3.25" transform="matrix(-1 0 0 1 864.5 77)" stroke="url(#paint4_linear_914_2806)" stroke-opacity="0.3" stroke-width="1.5"/>
<rect width="30" height="10" rx="4" transform="matrix(-1 0 0 1 866 107)" fill="#141414"/>
<rect x="-0.75" y="0.75" width="28.5" height="8.5" rx="3.25" transform="matrix(-1 0 0 1 864.5 107)" stroke="url(#paint5_linear_914_2806)" stroke-opacity="0.3" stroke-width="1.5"/>
<rect width="30" height="10" rx="4" transform="matrix(-1 0 0 1 866 137)" fill="#141414"/>
<rect x="-0.75" y="0.75" width="28.5" height="8.5" rx="3.25" transform="matrix(-1 0 0 1 864.5 137)" stroke="url(#paint6_linear_914_2806)" stroke-opacity="0.3" stroke-width="1.5"/>
<rect width="30" height="10" rx="4" transform="matrix(-1 0 0 1 866 167)" fill="#141414"/>
<rect x="-0.75" y="0.75" width="28.5" height="8.5" rx="3.25" transform="matrix(-1 0 0 1 864.5 167)" stroke="url(#paint7_linear_914_2806)" stroke-opacity="0.3" stroke-width="1.5"/>
<rect x="1010" y="219" width="30" height="10" rx="4" transform="rotate(90 1010 219)" fill="#141414"/>
<rect x="1009.25" y="219.75" width="28.5" height="8.5" rx="3.25" transform="rotate(90 1009.25 219.75)" stroke="url(#paint8_linear_914_2806)" stroke-opacity="0.3" stroke-width="1.5"/>
<rect x="980" y="219" width="30" height="10" rx="4" transform="rotate(90 980 219)" fill="#141414"/>
<rect x="979.25" y="219.75" width="28.5" height="8.5" rx="3.25" transform="rotate(90 979.25 219.75)" stroke="url(#paint9_linear_914_2806)" stroke-opacity="0.3" stroke-width="1.5"/>
<rect x="950" y="219" width="30" height="10" rx="4" transform="rotate(90 950 219)" fill="#141414"/>
<rect x="949.25" y="219.75" width="28.5" height="8.5" rx="3.25" transform="rotate(90 949.25 219.75)" stroke="url(#paint10_linear_914_2806)" stroke-opacity="0.3" stroke-width="1.5"/>
<rect x="920" y="219" width="30" height="10" rx="4" transform="rotate(90 920 219)" fill="#141414"/>
<rect x="919.25" y="219.75" width="28.5" height="8.5" rx="3.25" transform="rotate(90 919.25 219.75)" stroke="url(#paint11_linear_914_2806)" stroke-opacity="0.3" stroke-width="1.5"/>
<path opacity="0.7" d="M915 233V412" stroke="#2F2F2F" stroke-width="2"/>
<path opacity="0.7" d="M945 233V412" stroke="#2F2F2F" stroke-width="2"/>
<path opacity="0.7" d="M975 233V412" stroke="#2F2F2F" stroke-width="2"/>
<path opacity="0.7" d="M1005 233V412" stroke="#2F2F2F" stroke-width="2"/>
<path opacity="0.7" d="M1069.5 81.5H1342.73C1354.62 81.5 1365.9 76.2112 1373.5 67.0681L1413.5 18.9319C1421.1 9.78875 1432.38 4.5 1444.27 4.5H1535.5" stroke="#2F2F2F" stroke-width="2"/>
<path opacity="0.7" d="M1069.5 142H1276.36C1286.72 142 1296.66 146.014 1304.12 153.197L1418.38 263.303C1425.84 270.486 1435.78 274.5 1446.14 274.5H1535.5" stroke="#2F2F2F" stroke-width="2"/>
<path opacity="0.7" d="M1069.5 112H1286.83C1296.9 112 1306.61 115.803 1314 122.65L1358.5 163.85C1365.89 170.697 1375.6 174.5 1385.67 174.5H1685.5" stroke="#2F2F2F" stroke-width="2"/>
<path opacity="0.7" d="M1069.5 172H1264.37C1275.89 172 1286.86 176.969 1294.45 185.634L1448.05 360.866C1455.64 369.531 1466.61 374.5 1478.13 374.5H1920" stroke="#2F2F2F" stroke-width="2"/>
<rect width="30" height="10" rx="4" transform="matrix(-1 0 0 1 1541 0)" fill="#141414"/>
<rect x="-0.75" y="0.75" width="28.5" height="8.5" rx="3.25" transform="matrix(-1 0 0 1 1539.5 0)" stroke="url(#paint12_linear_914_2806)" stroke-opacity="0.3" stroke-width="1.5"/>
<rect width="30" height="10" rx="4" transform="matrix(-1 0 0 1 1541 270)" fill="#141414"/>
<rect x="-0.75" y="0.75" width="28.5" height="8.5" rx="3.25" transform="matrix(-1 0 0 1 1539.5 270)" stroke="url(#paint13_linear_914_2806)" stroke-opacity="0.3" stroke-width="1.5"/>
<rect width="30" height="10" rx="4" transform="matrix(-1 0 0 1 1691 170)" fill="#141414"/>
<rect x="-0.75" y="0.75" width="28.5" height="8.5" rx="3.25" transform="matrix(-1 0 0 1 1689.5 170)" stroke="url(#paint14_linear_914_2806)" stroke-opacity="0.3" stroke-width="1.5"/>
<path opacity="0.7" d="M850.5 81.5H577.266C565.377 81.5 554.104 76.2112 546.505 67.0681L506.495 18.9319C498.896 9.78875 487.623 4.5 475.734 4.5H384.5" stroke="#2F2F2F" stroke-width="2"/>
<path opacity="0.7" d="M850.5 142H643.636C633.284 142 623.335 146.014 615.881 153.197L501.619 263.303C494.165 270.486 484.216 274.5 473.864 274.5H384.5" stroke="#2F2F2F" stroke-width="2"/>
<path opacity="0.7" d="M850.5 112H633.175C623.098 112 613.392 115.803 605.998 122.65L561.502 163.85C554.108 170.697 544.402 174.5 534.325 174.5H234.5" stroke="#2F2F2F" stroke-width="2"/>
<path opacity="0.7" d="M850.5 172H655.63C644.107 172 633.145 176.969 625.55 185.634L471.95 360.866C464.355 369.531 453.393 374.5 441.87 374.5H0" stroke="#2F2F2F" stroke-width="2"/>
<rect x="379" width="30" height="10" rx="4" fill="#141414"/>
<rect x="379.75" y="0.75" width="28.5" height="8.5" rx="3.25" stroke="url(#paint15_linear_914_2806)" stroke-opacity="0.3" stroke-width="1.5"/>
<rect x="379" y="270" width="30" height="10" rx="4" fill="#141414"/>
<rect x="379.75" y="270.75" width="28.5" height="8.5" rx="3.25" stroke="url(#paint16_linear_914_2806)" stroke-opacity="0.3" stroke-width="1.5"/>
<rect x="229" y="170" width="30" height="10" rx="4" fill="#141414"/>
<rect x="229.75" y="170.75" width="28.5" height="8.5" rx="3.25" stroke="url(#paint17_linear_914_2806)" stroke-opacity="0.3" stroke-width="1.5"/>
<g opacity="0.9" filter="url(#filter0_f_914_2806)">
<path d="M975 273V313" stroke="url(#paint18_linear_914_2806)" stroke-width="7" stroke-linecap="round"/>
</g>
<path opacity="0.9" d="M975 273V313" stroke="url(#paint19_linear_914_2806)" stroke-width="2" stroke-linecap="round"/>
<g opacity="0.9" filter="url(#filter1_f_914_2806)">
<path d="M1145 172H1105" stroke="url(#paint20_linear_914_2806)" stroke-width="7" stroke-linecap="round"/>
</g>
<path opacity="0.9" d="M1145 172H1105" stroke="url(#paint21_linear_914_2806)" stroke-width="2" stroke-linecap="round"/>
<g opacity="0.9" filter="url(#filter2_f_914_2806)">
<path d="M1266 81.9998H1226" stroke="url(#paint22_linear_914_2806)" stroke-width="7" stroke-linecap="round"/>
</g>
<path opacity="0.9" d="M1266 81.9998H1226" stroke="url(#paint23_linear_914_2806)" stroke-width="2" stroke-linecap="round"/>
<g opacity="0.9" filter="url(#filter3_f_914_2806)">
<path d="M676 112H636" stroke="url(#paint24_linear_914_2806)" stroke-width="7" stroke-linecap="round"/>
</g>
<path opacity="0.9" d="M676 112H636" stroke="url(#paint25_linear_914_2806)" stroke-width="2" stroke-linecap="round"/>
<defs>
<filter id="filter0_f_914_2806" x="961.5" y="259.5" width="27" height="67" filterUnits="userSpaceOnUse" color-interpolation-filters="sRGB">
<feFlood flood-opacity="0" result="BackgroundImageFix"/>
<feBlend mode="normal" in="SourceGraphic" in2="BackgroundImageFix" result="shape"/>
<feGaussianBlur stdDeviation="5" result="effect1_foregroundBlur_914_2806"/>
</filter>
<filter id="filter1_f_914_2806" x="1091.5" y="158.5" width="67" height="27" filterUnits="userSpaceOnUse" color-interpolation-filters="sRGB">
<feFlood flood-opacity="0" result="BackgroundImageFix"/>
<feBlend mode="normal" in="SourceGraphic" in2="BackgroundImageFix" result="shape"/>
<feGaussianBlur stdDeviation="5" result="effect1_foregroundBlur_914_2806"/>
</filter>
<filter id="filter2_f_914_2806" x="1212.5" y="68.4998" width="67" height="27" filterUnits="userSpaceOnUse" color-interpolation-filters="sRGB">
<feFlood flood-opacity="0" result="BackgroundImageFix"/>
<feBlend mode="normal" in="SourceGraphic" in2="BackgroundImageFix" result="shape"/>
<feGaussianBlur stdDeviation="5" result="effect1_foregroundBlur_914_2806"/>
</filter>
<filter id="filter3_f_914_2806" x="622.5" y="98.4999" width="67" height="27" filterUnits="userSpaceOnUse" color-interpolation-filters="sRGB">
<feFlood flood-opacity="0" result="BackgroundImageFix"/>
<feBlend mode="normal" in="SourceGraphic" in2="BackgroundImageFix" result="shape"/>
<feGaussianBlur stdDeviation="5" result="effect1_foregroundBlur_914_2806"/>
</filter>
<linearGradient id="paint0_linear_914_2806" x1="1054" y1="82" x2="1084" y2="82" gradientUnits="userSpaceOnUse">
<stop offset="0.483333" stop-color="#3C3C3C"/>
<stop offset="1" stop-color="#A2A2A2"/>
</linearGradient>
<linearGradient id="paint1_linear_914_2806" x1="1054" y1="112" x2="1084" y2="112" gradientUnits="userSpaceOnUse">
<stop offset="0.483333" stop-color="#3C3C3C"/>
<stop offset="1" stop-color="#A2A2A2"/>
</linearGradient>
<linearGradient id="paint2_linear_914_2806" x1="1054" y1="142" x2="1084" y2="142" gradientUnits="userSpaceOnUse">
<stop offset="0.483333" stop-color="#3C3C3C"/>
<stop offset="1" stop-color="#A2A2A2"/>
</linearGradient>
<linearGradient id="paint3_linear_914_2806" x1="1054" y1="172" x2="1084" y2="172" gradientUnits="userSpaceOnUse">
<stop offset="0.483333" stop-color="#3C3C3C"/>
<stop offset="1" stop-color="#A2A2A2"/>
</linearGradient>
<linearGradient id="paint4_linear_914_2806" x1="1.11759e-07" y1="5" x2="30" y2="5" gradientUnits="userSpaceOnUse">
<stop offset="0.483333" stop-color="#3C3C3C"/>
<stop offset="1" stop-color="#A2A2A2"/>
</linearGradient>
<linearGradient id="paint5_linear_914_2806" x1="1.11759e-07" y1="5" x2="30" y2="5" gradientUnits="userSpaceOnUse">
<stop offset="0.483333" stop-color="#3C3C3C"/>
<stop offset="1" stop-color="#A2A2A2"/>
</linearGradient>
<linearGradient id="paint6_linear_914_2806" x1="1.11759e-07" y1="5" x2="30" y2="5" gradientUnits="userSpaceOnUse">
<stop offset="0.483333" stop-color="#3C3C3C"/>
<stop offset="1" stop-color="#A2A2A2"/>
</linearGradient>
<linearGradient id="paint7_linear_914_2806" x1="1.11759e-07" y1="5" x2="30" y2="5" gradientUnits="userSpaceOnUse">
<stop offset="0.483333" stop-color="#3C3C3C"/>
<stop offset="1" stop-color="#A2A2A2"/>
</linearGradient>
<linearGradient id="paint8_linear_914_2806" x1="1010" y1="224" x2="1040" y2="224" gradientUnits="userSpaceOnUse">
<stop offset="0.483333" stop-color="#3C3C3C"/>
<stop offset="1" stop-color="#A2A2A2"/>
</linearGradient>
<linearGradient id="paint9_linear_914_2806" x1="980" y1="224" x2="1010" y2="224" gradientUnits="userSpaceOnUse">
<stop offset="0.483333" stop-color="#3C3C3C"/>
<stop offset="1" stop-color="#A2A2A2"/>
</linearGradient>
<linearGradient id="paint10_linear_914_2806" x1="950" y1="224" x2="980" y2="224" gradientUnits="userSpaceOnUse">
<stop offset="0.483333" stop-color="#3C3C3C"/>
<stop offset="1" stop-color="#A2A2A2"/>
</linearGradient>
<linearGradient id="paint11_linear_914_2806" x1="920" y1="224" x2="950" y2="224" gradientUnits="userSpaceOnUse">
<stop offset="0.483333" stop-color="#3C3C3C"/>
<stop offset="1" stop-color="#A2A2A2"/>
</linearGradient>
<linearGradient id="paint12_linear_914_2806" x1="1.11759e-07" y1="5" x2="30" y2="5" gradientUnits="userSpaceOnUse">
<stop offset="0.483333" stop-color="#3C3C3C"/>
<stop offset="1" stop-color="#A2A2A2"/>
</linearGradient>
<linearGradient id="paint13_linear_914_2806" x1="1.11759e-07" y1="5" x2="30" y2="5" gradientUnits="userSpaceOnUse">
<stop offset="0.483333" stop-color="#3C3C3C"/>
<stop offset="1" stop-color="#A2A2A2"/>
</linearGradient>
<linearGradient id="paint14_linear_914_2806" x1="1.11759e-07" y1="5" x2="30" y2="5" gradientUnits="userSpaceOnUse">
<stop offset="0.483333" stop-color="#3C3C3C"/>
<stop offset="1" stop-color="#A2A2A2"/>
</linearGradient>
<linearGradient id="paint15_linear_914_2806" x1="379" y1="5" x2="409" y2="5" gradientUnits="userSpaceOnUse">
<stop offset="0.483333" stop-color="#3C3C3C"/>
<stop offset="1" stop-color="#A2A2A2"/>
</linearGradient>
<linearGradient id="paint16_linear_914_2806" x1="379" y1="275" x2="409" y2="275" gradientUnits="userSpaceOnUse">
<stop offset="0.483333" stop-color="#3C3C3C"/>
<stop offset="1" stop-color="#A2A2A2"/>
</linearGradient>
<linearGradient id="paint17_linear_914_2806" x1="229" y1="175" x2="259" y2="175" gradientUnits="userSpaceOnUse">
<stop offset="0.483333" stop-color="#3C3C3C"/>
<stop offset="1" stop-color="#A2A2A2"/>
</linearGradient>
<linearGradient id="paint18_linear_914_2806" x1="975" y1="293" x2="976" y2="293" gradientUnits="userSpaceOnUse">
<stop stop-color="#AB33F5"/>
<stop offset="1" stop-color="#FF6914"/>
</linearGradient>
<linearGradient id="paint19_linear_914_2806" x1="975" y1="293" x2="976" y2="293" gradientUnits="userSpaceOnUse">
<stop stop-color="#AB33F5"/>
<stop offset="1" stop-color="#FF6914"/>
</linearGradient>
<linearGradient id="paint20_linear_914_2806" x1="1125" y1="172" x2="1125" y2="173" gradientUnits="userSpaceOnUse">
<stop stop-color="#AB33F5"/>
<stop offset="1" stop-color="#FF6914"/>
</linearGradient>
<linearGradient id="paint21_linear_914_2806" x1="1125" y1="172" x2="1125" y2="173" gradientUnits="userSpaceOnUse">
<stop stop-color="#AB33F5"/>
<stop offset="1" stop-color="#FF6914"/>
</linearGradient>
<linearGradient id="paint22_linear_914_2806" x1="1246" y1="81.9998" x2="1246" y2="82.9998" gradientUnits="userSpaceOnUse">
<stop stop-color="#AB33F5"/>
<stop offset="1" stop-color="#FF6914"/>
</linearGradient>
<linearGradient id="paint23_linear_914_2806" x1="1246" y1="81.9998" x2="1246" y2="82.9998" gradientUnits="userSpaceOnUse">
<stop stop-color="#AB33F5"/>
<stop offset="1" stop-color="#FF6914"/>
</linearGradient>
<linearGradient id="paint24_linear_914_2806" x1="656" y1="112" x2="656" y2="113" gradientUnits="userSpaceOnUse">
<stop stop-color="#AB33F5"/>
<stop offset="1" stop-color="#FF6914"/>
</linearGradient>
<linearGradient id="paint25_linear_914_2806" x1="656" y1="112" x2="656" y2="113" gradientUnits="userSpaceOnUse">
<stop stop-color="#AB33F5"/>
<stop offset="1" stop-color="#FF6914"/>
</linearGradient>
</defs>
</svg>
