<svg width="206" height="32" viewBox="0 0 206 32" fill="none" xmlns="http://www.w3.org/2000/svg">
<g clip-path="url(#clip0_754_2288)">
<path d="M193.607 11.7065C194.772 10.3053 196.209 9.59567 197.92 9.57749C198.848 9.5593 199.667 9.71399 200.377 10.0415C201.086 10.3508 201.66 10.7784 202.097 11.3243C202.624 11.9612 202.988 12.7073 203.188 13.5625C203.388 14.3995 203.489 15.3366 203.489 16.3739V24.2619H199.612V16.6741C199.612 16.1646 199.558 15.6824 199.449 15.2275C199.358 14.7543 199.194 14.3541 198.957 14.0265C198.721 13.6807 198.402 13.426 198.002 13.2623C197.62 13.0985 197.183 13.0166 196.692 13.0166C196.073 13.0348 195.546 13.1713 195.109 13.426C194.69 13.6808 194.372 14.0083 194.154 14.4086C193.935 14.7908 193.781 15.2275 193.69 15.7188C193.617 16.1919 193.58 16.6741 193.58 17.1654V24.2619H189.732V9.8777H193.416L193.607 11.7065Z" fill="#13182B"/>
<path d="M179.974 24.48C177.646 24.48 175.853 23.825 174.597 22.5148C173.342 21.1865 172.714 19.3486 172.714 17.0013C172.714 15.8731 172.878 14.8541 173.205 13.9443C173.551 13.0163 174.025 12.2247 174.625 11.5697C175.243 10.9146 175.999 10.4233 176.89 10.0957C177.8 9.75003 178.828 9.57715 179.974 9.57715C181.103 9.57715 182.112 9.75003 183.004 10.0957C183.914 10.4233 184.678 10.9146 185.297 11.5697C185.934 12.2247 186.416 13.0163 186.744 13.9443C187.089 14.8541 187.263 15.8731 187.263 17.0013C187.263 19.3668 186.625 21.2047 185.352 22.5148C184.096 23.825 182.303 24.48 179.974 24.48ZM179.974 13.0163C178.792 13.0163 177.919 13.3984 177.354 14.1627C176.79 14.9269 176.508 15.8822 176.508 17.0286C176.508 18.1931 176.79 19.1575 177.354 19.9218C177.919 20.686 178.792 21.0682 179.974 21.0682C181.157 21.0682 182.021 20.686 182.568 19.9218C183.114 19.1575 183.386 18.1931 183.386 17.0286C183.386 15.8822 183.114 14.9269 182.568 14.1627C182.021 13.3984 181.157 13.0163 179.974 13.0163Z" fill="#13182B"/>
<path d="M168.085 3.19055C168.795 3.19055 169.369 3.39981 169.805 3.81832C170.242 4.23684 170.46 4.79183 170.46 5.4833C170.46 6.21116 170.242 6.78435 169.805 7.20286C169.369 7.60318 168.795 7.80334 168.085 7.80334C167.394 7.80334 166.82 7.60318 166.366 7.20286C165.929 6.78435 165.71 6.21116 165.71 5.4833C165.71 4.79183 165.929 4.23684 166.366 3.81832C166.82 3.39981 167.394 3.19055 168.085 3.19055ZM170.024 24.262H166.174V9.87778H170.024V24.262Z" fill="#13182B"/>
<path d="M160.448 13.2351V19.0489C160.448 20.2863 161.076 20.9049 162.331 20.9049H163.75V24.2622H161.949C160.038 24.3349 158.665 23.971 157.828 23.1704C157.008 22.3697 156.599 21.1597 156.599 19.5401V13.2351H154.416V9.87783H156.599V5.97473H160.448V9.87783H163.887V13.2351H160.448Z" fill="#13182B"/>
<path d="M148.869 22.4875C148.323 23.2154 147.659 23.7339 146.876 24.0433C146.094 24.3526 145.184 24.4982 144.147 24.48C142.818 24.4436 141.708 24.0706 140.817 23.3609C140.343 22.9606 139.971 22.4875 139.697 21.9416C139.443 21.3775 139.316 20.7133 139.316 19.9491C139.334 19.1666 139.507 18.4752 139.834 17.8747C140.18 17.2561 140.699 16.7465 141.39 16.3462C141.972 16.0369 142.627 15.8185 143.355 15.6912C144.102 15.5638 144.911 15.5001 145.784 15.5001H148.732C148.787 14.6085 148.577 13.9443 148.104 13.5076C147.649 13.0527 147.003 12.8161 146.166 12.7979C145.894 12.7979 145.611 12.8161 145.32 12.8525C145.03 12.8889 144.756 12.9617 144.502 13.0709C144.265 13.18 144.056 13.3347 143.873 13.5349C143.71 13.7169 143.601 13.9443 143.547 14.2172H139.589C139.68 13.3438 139.916 12.616 140.298 12.0337C140.699 11.4331 141.199 10.951 141.799 10.587C142.4 10.2231 143.064 9.96839 143.792 9.82279C144.538 9.659 145.302 9.57715 146.085 9.57715C146.521 9.57715 146.967 9.60443 147.422 9.659C147.877 9.69538 148.323 9.78641 148.759 9.93201C149.196 10.0593 149.606 10.2413 149.988 10.4779C150.388 10.6962 150.761 10.9873 151.107 11.3513C151.725 12.0609 152.107 12.8798 152.253 13.8078C152.417 14.7176 152.49 15.6092 152.471 16.4827V24.2617H148.95L148.869 22.4875ZM148.732 17.902H145.921C145.648 17.902 145.339 17.9293 144.993 17.9839C144.647 18.0385 144.347 18.1386 144.092 18.2841C143.837 18.4297 143.619 18.6208 143.437 18.8573C143.273 19.0939 143.191 19.385 143.191 19.7307C143.191 20.0219 143.246 20.2766 143.355 20.495C143.483 20.7133 143.638 20.8953 143.819 21.0409C144.019 21.1865 144.256 21.3047 144.529 21.3958C144.802 21.4685 145.075 21.5049 145.348 21.5049C145.875 21.5231 146.367 21.4321 146.822 21.232C147.295 21.0318 147.704 20.7498 148.05 20.3858C148.268 20.0947 148.432 19.7671 148.541 19.4032C148.668 19.0211 148.732 18.5206 148.732 17.902Z" fill="#13182B"/>
<path d="M137.356 12.6619L130.369 20.905H137.356V24.2622H125.347V21.4508L132.279 13.2079H125.347V9.87793H137.356V12.6619Z" fill="#13182B"/>
<path d="M120.722 3.19055C121.432 3.19055 122.005 3.39981 122.441 3.81832C122.879 4.23684 123.097 4.79183 123.097 5.4833C123.097 6.21116 122.879 6.78435 122.441 7.20286C122.005 7.60318 121.432 7.80334 120.722 7.80334C120.031 7.80334 119.457 7.60318 119.002 7.20286C118.566 6.78435 118.347 6.21116 118.347 5.4833C118.347 4.79183 118.566 4.23684 119.002 3.81832C119.457 3.39981 120.031 3.19055 120.722 3.19055ZM122.66 24.262H118.811V9.87778H122.66V24.262Z" fill="#13182B"/>
<path d="M105.754 11.7065C106.918 10.3053 108.356 9.59567 110.066 9.57749C110.994 9.5593 111.814 9.71399 112.523 10.0415C113.233 10.3508 113.806 10.7784 114.242 11.3243C114.77 11.9612 115.134 12.7073 115.334 13.5625C115.535 14.3995 115.634 15.3366 115.634 16.3739V24.2619H111.759V16.6741C111.759 16.1646 111.704 15.6824 111.595 15.2275C111.504 14.7543 111.34 14.3541 111.104 14.0265C110.867 13.6807 110.549 13.426 110.149 13.2623C109.766 13.0985 109.329 13.0166 108.838 13.0166C108.219 13.0348 107.691 13.1713 107.255 13.426C106.837 13.6808 106.518 14.0083 106.299 14.4086C106.081 14.7908 105.926 15.2275 105.835 15.7188C105.763 16.1919 105.727 16.6741 105.727 17.1654V24.2619H101.878V9.8777H105.563L105.754 11.7065Z" fill="#13182B"/>
<path d="M95.268 22.4875C94.7215 23.2154 94.0579 23.7339 93.2748 24.0433C92.4925 24.3526 91.583 24.4982 90.5455 24.48C89.2175 24.4436 88.1076 24.0706 87.2158 23.3609C86.7426 22.9606 86.3695 22.4875 86.0967 21.9416C85.8424 21.3775 85.7144 20.7133 85.7144 19.9491C85.7329 19.1666 85.9055 18.4752 86.2331 17.8747C86.5792 17.2561 87.0971 16.7465 87.7893 16.3462C88.3712 16.0369 89.0264 15.8185 89.7539 15.6912C90.5 15.5638 91.3101 15.5001 92.1834 15.5001H95.1316C95.1855 14.6085 94.9767 13.9443 94.5034 13.5076C94.0487 13.0527 93.4028 12.8161 92.5657 12.7979C92.2929 12.7979 92.0108 12.8161 91.7194 12.8525C91.428 12.8889 91.1552 12.9617 90.9009 13.0709C90.6643 13.18 90.4546 13.3347 90.2727 13.5349C90.1093 13.7169 89.9998 13.9443 89.9451 14.2172H85.9872C86.0781 13.3438 86.3148 12.616 86.6971 12.0337C87.0971 11.4331 87.5981 10.951 88.1986 10.587C88.799 10.2231 89.4634 9.96839 90.191 9.82279C90.9371 9.659 91.7009 9.57715 92.484 9.57715C92.9203 9.57715 93.3666 9.60443 93.8213 9.659C94.276 9.69538 94.7215 9.78641 95.1586 9.93201C95.5956 10.0593 96.0049 10.2413 96.3872 10.4779C96.7872 10.6962 97.1602 10.9873 97.5055 11.3513C98.1245 12.0609 98.5068 12.8798 98.6525 13.8078C98.8158 14.7176 98.8891 15.6092 98.8706 16.4827V24.2617H95.3497L95.268 22.4875ZM95.1316 17.902H92.3198C92.047 17.902 91.7379 17.9293 91.3918 17.9839C91.0457 18.0385 90.7459 18.1386 90.4908 18.2841C90.2365 18.4297 90.0184 18.6208 89.8365 18.8573C89.6723 19.0939 89.5906 19.385 89.5906 19.7307C89.5906 20.0219 89.6453 20.2766 89.7539 20.495C89.8819 20.7133 90.036 20.8953 90.2179 21.0409C90.4184 21.1865 90.655 21.3047 90.9278 21.3958C91.2007 21.4685 91.4735 21.5049 91.7464 21.5049C92.2744 21.5231 92.7653 21.4321 93.2209 21.232C93.6933 21.0318 94.1034 20.7498 94.4487 20.3858C94.6676 20.0947 94.831 19.7671 94.9405 19.4032C95.0676 19.0211 95.1316 18.5206 95.1316 17.902Z" fill="#13182B"/>
<path d="M79.3077 22.7884C78.7618 23.4071 78.1067 23.8438 77.3425 24.0986C76.5782 24.3533 75.7503 24.4807 74.8587 24.4807C73.9671 24.4807 73.0936 24.3442 72.2384 24.0713C71.4013 23.7802 70.6735 23.3162 70.0548 22.6793C69.3634 21.9514 68.8811 21.1144 68.6082 20.1681C68.3352 19.222 68.1987 18.2485 68.1987 17.2476C68.1987 14.8821 68.8538 12.9897 70.164 11.5703C70.7281 10.9516 71.4559 10.4694 72.3475 10.1238C73.2573 9.77799 74.2309 9.6142 75.268 9.63239C75.9413 9.59601 76.6692 9.71433 77.4516 9.98726C78.2341 10.2602 78.9074 10.7151 79.4715 11.352L79.8808 9.87812H83.2108V23.3617C83.2108 23.9439 83.1744 24.5171 83.1016 25.0812C83.0471 25.6635 82.9469 26.2185 82.8014 26.7462C82.6558 27.2921 82.4375 27.8107 82.1463 28.302C81.8188 28.9025 81.4184 29.4119 80.9453 29.8305C80.4904 30.249 79.981 30.5947 79.4168 30.8677C78.8528 31.1588 78.2523 31.3681 77.6154 31.4955C76.9785 31.6228 76.3325 31.6865 75.6775 31.6865C74.8405 31.6865 74.0398 31.5864 73.2755 31.3862C72.5113 31.2043 71.8108 30.895 71.1739 30.4582C70.5552 30.0397 70.0366 29.503 69.6181 28.8479C69.2178 28.1928 68.9539 27.4103 68.8265 26.5005H72.9208C72.9935 26.9372 73.2846 27.3285 73.7942 27.6742C74.3037 28.0199 74.9224 28.1928 75.6502 28.1928C76.4327 28.1928 77.0696 28.0381 77.5608 27.7288C78.0703 27.4194 78.4525 27.01 78.7072 26.5005C78.9619 25.991 79.1257 25.4087 79.1985 24.7537C79.2713 24.0986 79.3077 23.4435 79.3077 22.7884ZM75.7321 21.0689C76.3325 21.0689 76.8603 20.9597 77.3152 20.7414C77.7883 20.523 78.1704 20.2319 78.4616 19.8679C78.7527 19.4858 78.971 19.0491 79.1166 18.5578C79.2622 18.0483 79.335 17.5115 79.335 16.9474C79.335 15.8193 79.0165 14.8912 78.3797 14.1633C77.761 13.4173 76.8694 13.0352 75.7048 13.017C75.1043 13.017 74.5675 13.1261 74.0944 13.3445C73.6395 13.5628 73.2573 13.854 72.948 14.2179C72.6569 14.5819 72.4386 15.0095 72.293 15.5008C72.1474 15.9921 72.0746 16.5198 72.0746 17.0838C72.0746 17.6844 72.1474 18.2302 72.293 18.7216C72.4568 19.1947 72.6933 19.6132 73.0026 19.9771C73.312 20.3228 73.6941 20.5958 74.149 20.7959C74.6039 20.9779 75.1316 21.0689 75.7321 21.0689Z" fill="#13182B"/>
<path d="M61.5591 11.6788C62.1414 10.9874 62.7601 10.4688 63.4151 10.1231C64.0884 9.77729 64.8891 9.60449 65.8171 9.60449C66.0536 9.60449 66.2811 9.61359 66.4994 9.63178C66.7178 9.64997 66.918 9.67725 67.0999 9.71363V13.2619C66.6814 13.2619 66.2538 13.271 65.8171 13.2892C65.3985 13.2892 64.9982 13.3256 64.6161 13.3984C64.234 13.4712 63.8609 13.5895 63.497 13.7532C63.1513 13.8988 62.842 14.1172 62.569 14.4083C62.1505 14.8815 61.8866 15.3909 61.7775 15.9368C61.6865 16.4827 61.641 17.1014 61.641 17.7929V24.2617H57.7925V9.87742H61.3408L61.5591 11.6788Z" fill="#13182B"/>
<path d="M48.0333 24.48C45.7042 24.48 43.9118 23.825 42.6563 22.5148C41.4007 21.1865 40.7729 19.3486 40.7729 17.0013C40.7729 15.8731 40.9367 14.8541 41.2642 13.9443C41.61 13.0163 42.0831 12.2247 42.6836 11.5697C43.3023 10.9146 44.0574 10.4233 44.949 10.0957C45.8588 9.75003 46.887 9.57715 48.0333 9.57715C49.1615 9.57715 50.1714 9.75003 51.0631 10.0957C51.9729 10.4233 52.7372 10.9146 53.3558 11.5697C53.9927 12.2247 54.4748 13.0163 54.8024 13.9443C55.1481 14.8541 55.321 15.8731 55.321 17.0013C55.321 19.3668 54.6841 21.2047 53.4104 22.5148C52.1548 23.825 50.3625 24.48 48.0333 24.48ZM48.0333 13.0163C46.8506 13.0163 45.9772 13.3984 45.413 14.1627C44.849 14.9269 44.5669 15.8822 44.5669 17.0286C44.5669 18.1931 44.849 19.1575 45.413 19.9218C45.9772 20.686 46.8506 21.0682 48.0333 21.0682C49.2161 21.0682 50.0804 20.686 50.6263 19.9218C51.1722 19.1575 51.4452 18.1931 51.4452 17.0286C51.4452 15.8822 51.1722 14.9269 50.6263 14.1627C50.0804 13.3984 49.2161 13.0163 48.0333 13.0163Z" fill="#13182B"/>
<path d="M14.4618 3.07405C14.4618 1.95229 13.5478 1.02791 12.4377 1.18927C11.286 1.35668 10.1569 1.6667 9.07679 2.11407C7.36955 2.82124 5.81831 3.85775 4.51163 5.16442C3.20496 6.4711 2.16844 8.02234 1.46128 9.72964C0.754111 11.4368 0.390137 13.2666 0.390137 15.1146C0.390137 16.9625 0.754111 18.7923 1.46128 20.4996C2.16844 22.2069 3.20496 23.7581 4.51163 25.0647C5.81831 26.3714 7.36955 27.408 9.07679 28.1151C10.7841 28.8223 12.6139 29.1862 14.4618 29.1862V22.4319C13.5009 22.4319 12.5494 22.2426 11.6616 21.8748C10.7738 21.5072 9.96715 20.9681 9.28774 20.2887C8.60823 19.6092 8.06925 18.8026 7.70152 17.9148C7.3338 17.027 7.14453 16.0755 7.14453 15.1146C7.14453 14.1536 7.3338 13.2021 7.70152 12.3144C8.06925 11.4266 8.60823 10.62 9.28774 9.9405C9.96715 9.261 10.7738 8.72206 11.6616 8.35432C11.9216 8.24662 12.1871 8.15423 12.4567 8.07742C13.5355 7.77002 14.4618 6.88796 14.4618 5.76621V3.07405Z" fill="#13182B"/>
<path d="M26.3135 15.1143C27.4352 15.1143 28.3597 16.0283 28.1983 17.1383C28.0308 18.2901 27.7209 19.4192 27.2735 20.4993C26.5663 22.2066 25.5298 23.7578 24.2231 25.0645C22.9165 26.3711 21.3652 27.4076 19.658 28.1148C17.9507 28.822 16.1209 29.1859 14.2729 29.1859V22.4316C15.2339 22.4316 16.1854 22.2423 17.0732 21.8746C17.9609 21.5068 18.7676 20.9678 19.447 20.2884C20.1265 19.6089 20.6655 18.8023 21.0332 17.9145C21.1409 17.6545 21.2333 17.389 21.3102 17.1195C21.6175 16.0407 22.4996 15.1143 23.6213 15.1143H26.3135Z" fill="#13182B"/>
<path d="M28.6865 1.04871C29.8083 1.04871 30.7326 1.9627 30.5713 3.07279C30.4039 4.22451 30.0939 5.35363 29.6465 6.4337C28.9393 8.14095 27.9028 9.69219 26.5961 10.9989C25.2894 12.3056 23.7382 13.342 22.031 14.0492C20.9509 14.4966 19.8218 14.8066 18.6701 14.974C17.56 15.1354 16.646 14.211 16.646 13.0892V10.3971C16.646 9.27535 17.5723 8.39327 18.6511 8.08588C18.9207 8.00907 19.1862 7.91667 19.4462 7.80898C20.3339 7.44125 21.1406 6.90226 21.8201 6.22279C22.4996 5.54332 23.0385 4.73667 23.4062 3.84891C23.514 3.5889 23.6063 3.32343 23.6831 3.05385C23.9905 1.97504 24.8726 1.04871 25.9944 1.04871H28.6865Z" fill="#13182B"/>
</g>
<defs>
<clipPath id="clip0_754_2288">
<rect width="205.474" height="32" fill="white" transform="translate(0.390137)"/>
</clipPath>
</defs>
</svg>
