<svg width="206" height="32" viewBox="0 0 206 32" fill="none" xmlns="http://www.w3.org/2000/svg">
<g clip-path="url(#clip0_451_32159)">
<path d="M193.217 11.7065C194.382 10.3053 195.819 9.59567 197.53 9.57749C198.458 9.5593 199.277 9.71399 199.987 10.0415C200.696 10.3508 201.269 10.7784 201.706 11.3243C202.234 11.9612 202.597 12.7073 202.798 13.5625C202.998 14.3995 203.098 15.3366 203.098 16.3739V24.2619H199.222V16.6741C199.222 16.1646 199.167 15.6824 199.059 15.2275C198.968 14.7543 198.804 14.3541 198.567 14.0265C198.33 13.6807 198.012 13.426 197.612 13.2623C197.23 13.0985 196.793 13.0166 196.302 13.0166C195.683 13.0348 195.156 13.1713 194.719 13.426C194.3 13.6808 193.982 14.0083 193.764 14.4086C193.545 14.7908 193.391 15.2275 193.3 15.7188C193.226 16.1919 193.19 16.6741 193.19 17.1654V24.2619H189.342V9.8777H193.026L193.217 11.7065Z" fill="#C6C9D5"/>
<path d="M179.584 24.4803C177.256 24.4803 175.463 23.8253 174.207 22.5152C172.952 21.1869 172.324 19.349 172.324 17.0017C172.324 15.8734 172.488 14.8545 172.815 13.9447C173.161 13.0167 173.635 12.2251 174.235 11.57C174.853 10.9149 175.608 10.4237 176.5 10.0961C177.41 9.7504 178.438 9.57751 179.584 9.57751C180.712 9.57751 181.722 9.7504 182.614 10.0961C183.524 10.4237 184.288 10.9149 184.907 11.57C185.544 12.2251 186.026 13.0167 186.354 13.9447C186.699 14.8545 186.872 15.8734 186.872 17.0017C186.872 19.3672 186.235 21.2051 184.962 22.5152C183.706 23.8253 181.913 24.4803 179.584 24.4803ZM179.584 13.0167C178.402 13.0167 177.528 13.3987 176.964 14.163C176.4 14.9272 176.118 15.8826 176.118 17.029C176.118 18.1935 176.4 19.1579 176.964 19.9222C177.528 20.6864 178.402 21.0685 179.584 21.0685C180.767 21.0685 181.631 20.6864 182.178 19.9222C182.723 19.1579 182.996 18.1935 182.996 17.029C182.996 15.8826 182.723 14.9272 182.178 14.163C181.631 13.3987 180.767 13.0167 179.584 13.0167Z" fill="#C6C9D5"/>
<path d="M167.695 3.19055C168.405 3.19055 168.978 3.39981 169.415 3.81832C169.852 4.23684 170.07 4.79183 170.07 5.4833C170.07 6.21116 169.852 6.78435 169.415 7.20286C168.978 7.60318 168.405 7.80334 167.695 7.80334C167.004 7.80334 166.43 7.60318 165.975 7.20286C165.539 6.78435 165.32 6.21116 165.32 5.4833C165.32 4.79183 165.539 4.23684 165.975 3.81832C166.43 3.39981 167.004 3.19055 167.695 3.19055ZM169.634 24.262H165.784V9.87778H169.634V24.262Z" fill="#C6C9D5"/>
<path d="M160.058 13.2351V19.0489C160.058 20.2863 160.687 20.9049 161.942 20.9049H163.361V24.2622H161.56C159.649 24.3349 158.276 23.971 157.439 23.1704C156.619 22.3697 156.21 21.1597 156.21 19.5401V13.2351H154.026V9.87783H156.21V5.97473H160.058V9.87783H163.498V13.2351H160.058Z" fill="#C6C9D5"/>
<path d="M148.479 22.4878C147.933 23.2157 147.269 23.7343 146.486 24.0437C145.704 24.353 144.794 24.4986 143.757 24.4803C142.428 24.444 141.318 24.071 140.426 23.3613C139.953 22.961 139.581 22.4878 139.307 21.942C139.053 21.3779 138.926 20.7137 138.926 19.9495C138.943 19.167 139.117 18.4755 139.444 17.8751C139.79 17.2564 140.309 16.7469 141 16.3466C141.582 16.0372 142.237 15.8189 142.965 15.6915C143.711 15.5641 144.521 15.5005 145.394 15.5005H148.342C148.397 14.6088 148.187 13.9447 147.714 13.508C147.259 13.0531 146.613 12.8165 145.776 12.7983C145.503 12.7983 145.221 12.8165 144.93 12.8529C144.639 12.8893 144.366 12.962 144.111 13.0712C143.875 13.1804 143.666 13.3351 143.483 13.5352C143.32 13.7172 143.21 13.9447 143.157 14.2176H139.199C139.29 13.3442 139.526 12.6163 139.908 12.034C140.309 11.4335 140.809 10.9513 141.409 10.5874C142.01 10.2235 142.674 9.96876 143.402 9.82316C144.148 9.65937 144.912 9.57751 145.695 9.57751C146.131 9.57751 146.577 9.6048 147.032 9.65937C147.487 9.69575 147.933 9.78678 148.369 9.93238C148.806 10.0597 149.215 10.2417 149.598 10.4782C149.998 10.6966 150.371 10.9877 150.717 11.3517C151.335 12.0613 151.717 12.8802 151.863 13.8082C152.027 14.718 152.1 15.6096 152.081 16.483V24.2621H148.56L148.479 22.4878ZM148.342 17.9024H145.53C145.258 17.9024 144.949 17.9297 144.602 17.9843C144.257 18.0388 143.957 18.1389 143.702 18.2845C143.447 18.4301 143.229 18.6211 143.047 18.8577C142.883 19.0942 142.801 19.3853 142.801 19.7311C142.801 20.0222 142.856 20.277 142.965 20.4953C143.093 20.7137 143.247 20.8957 143.429 21.0413C143.629 21.1869 143.866 21.3051 144.138 21.3961C144.412 21.4689 144.685 21.5053 144.958 21.5053C145.485 21.5235 145.977 21.4325 146.431 21.2323C146.905 21.0322 147.314 20.7501 147.66 20.3862C147.878 20.0951 148.042 19.7675 148.151 19.4035C148.278 19.0215 148.342 18.521 148.342 17.9024Z" fill="#C6C9D5"/>
<path d="M136.966 12.6619L129.979 20.905H136.966V24.2622H124.957V21.4508L131.889 13.2079H124.957V9.87793H136.966V12.6619Z" fill="#C6C9D5"/>
<path d="M120.331 3.19055C121.041 3.19055 121.614 3.39981 122.05 3.81832C122.487 4.23684 122.706 4.79183 122.706 5.4833C122.706 6.21116 122.487 6.78435 122.05 7.20286C121.614 7.60318 121.041 7.80334 120.331 7.80334C119.639 7.80334 119.066 7.60318 118.611 7.20286C118.175 6.78435 117.956 6.21116 117.956 5.4833C117.956 4.79183 118.175 4.23684 118.611 3.81832C119.066 3.39981 119.639 3.19055 120.331 3.19055ZM122.268 24.262H118.42V9.87778H122.268V24.262Z" fill="#C6C9D5"/>
<path d="M105.364 11.7065C106.528 10.3053 107.966 9.59567 109.676 9.57749C110.604 9.5593 111.423 9.71399 112.132 10.0415C112.842 10.3508 113.416 10.7784 113.852 11.3243C114.38 11.9612 114.744 12.7073 114.944 13.5625C115.145 14.3995 115.244 15.3366 115.244 16.3739V24.2619H111.369V16.6741C111.369 16.1646 111.314 15.6824 111.204 15.2275C111.114 14.7543 110.95 14.3541 110.714 14.0265C110.477 13.6807 110.159 13.426 109.759 13.2623C109.376 13.0985 108.939 13.0166 108.448 13.0166C107.829 13.0348 107.301 13.1713 106.865 13.426C106.447 13.6808 106.128 14.0083 105.909 14.4086C105.691 14.7908 105.536 15.2275 105.445 15.7188C105.373 16.1919 105.337 16.6741 105.337 17.1654V24.2619H101.488V9.8777H105.172L105.364 11.7065Z" fill="#C6C9D5"/>
<path d="M94.8779 22.4878C94.3314 23.2157 93.6678 23.7343 92.8846 24.0437C92.1023 24.353 91.1929 24.4986 90.1554 24.4803C88.8274 24.444 87.7175 24.071 86.8257 23.3613C86.3524 22.961 85.9794 22.4878 85.7065 21.942C85.4522 21.3779 85.3242 20.7137 85.3242 19.9495C85.3427 19.167 85.5154 18.4755 85.843 17.8751C86.1891 17.2564 86.707 16.7469 87.3992 16.3466C87.9811 16.0372 88.6362 15.8189 89.3638 15.6915C90.1099 15.5641 90.92 15.5005 91.7933 15.5005H94.7415C94.7954 14.6088 94.5865 13.9447 94.1133 13.508C93.6585 13.0531 93.0126 12.8165 92.1756 12.7983C91.9027 12.7983 91.6206 12.8165 91.3293 12.8529C91.0379 12.8893 90.7651 12.962 90.5107 13.0712C90.2741 13.1804 90.0644 13.3351 89.8825 13.5352C89.7192 13.7172 89.6097 13.9447 89.555 14.2176H85.5971C85.688 13.3442 85.9246 12.6163 86.307 12.034C86.707 11.4335 87.208 10.9513 87.8084 10.5874C88.4089 10.2235 89.0733 9.96876 89.8009 9.82316C90.547 9.65937 91.3107 9.57751 92.0939 9.57751C92.5301 9.57751 92.9764 9.6048 93.4312 9.65937C93.8859 9.69575 94.3314 9.78678 94.7684 9.93238C95.2055 10.0597 95.6147 10.2417 95.9971 10.4782C96.3971 10.6966 96.7701 10.9877 97.1154 11.3517C97.7343 12.0613 98.1166 12.8802 98.2623 13.8082C98.4257 14.718 98.499 15.6096 98.4804 16.483V24.2621H94.9596L94.8779 22.4878ZM94.7415 17.9024H91.9297C91.6569 17.9024 91.3478 17.9297 91.0017 17.9843C90.6556 18.0388 90.3558 18.1389 90.1006 18.2845C89.8463 18.4301 89.6282 18.6211 89.4463 18.8577C89.2821 19.0942 89.2004 19.3853 89.2004 19.7311C89.2004 20.0222 89.2552 20.277 89.3638 20.4953C89.4918 20.7137 89.6459 20.8957 89.8278 21.0413C90.0282 21.1869 90.2649 21.3051 90.5377 21.3961C90.8105 21.4689 91.0834 21.5053 91.3562 21.5053C91.8842 21.5235 92.3752 21.4325 92.8307 21.2323C93.3032 21.0322 93.7133 20.7501 94.0585 20.3862C94.2775 20.0951 94.4409 19.7675 94.5503 19.4035C94.6775 19.0215 94.7415 18.521 94.7415 17.9024Z" fill="#C6C9D5"/>
<path d="M78.9185 22.7881C78.3726 23.4068 77.7175 23.8435 76.9533 24.0982C76.189 24.353 75.3611 24.4804 74.4695 24.4804C73.5779 24.4804 72.7045 24.3439 71.8492 24.0709C71.0122 23.7798 70.2844 23.3158 69.6657 22.6789C68.9742 21.951 68.4919 21.114 68.219 20.1678C67.9461 19.2216 67.8096 18.2481 67.8096 17.2473C67.8096 14.8817 68.4646 12.9893 69.7748 11.57C70.3389 10.9513 71.0668 10.4691 71.9584 10.1234C72.8682 9.77763 73.8417 9.61384 74.8789 9.63203C75.5521 9.59565 76.2801 9.71396 77.0625 9.98689C77.8449 10.2598 78.5182 10.7147 79.0823 11.3516L79.4917 9.87775H82.8216V23.3613C82.8216 23.9435 82.7852 24.5167 82.7125 25.0809C82.6579 25.6631 82.5578 26.2181 82.4123 26.7458C82.2667 27.2917 82.0483 27.8103 81.7572 28.3016C81.4296 28.9021 81.0293 29.4116 80.5562 29.8301C80.1013 30.2486 79.5918 30.5944 79.0277 30.8673C78.4636 31.1584 77.8631 31.3677 77.2262 31.4951C76.5894 31.6224 75.9434 31.6861 75.2883 31.6861C74.4513 31.6861 73.6507 31.586 72.8864 31.3859C72.1222 31.2039 71.4216 30.8946 70.7847 30.4579C70.166 30.0394 69.6475 29.5026 69.2289 28.8475C68.8286 28.1924 68.5648 27.41 68.4374 26.5002H72.5316C72.6043 26.9369 72.8955 27.3281 73.405 27.6738C73.9145 28.0196 74.5332 28.1924 75.261 28.1924C76.0435 28.1924 76.6804 28.0378 77.1717 27.7284C77.6811 27.4191 78.0633 27.0096 78.318 26.5002C78.5728 25.9907 78.7366 25.4084 78.8093 24.7533C78.8822 24.0982 78.9185 23.4431 78.9185 22.7881ZM75.343 21.0685C75.9434 21.0685 76.4711 20.9594 76.926 20.741C77.3991 20.5226 77.7813 20.2315 78.0724 19.8676C78.3635 19.4854 78.5819 19.0487 78.7275 18.5574C78.8731 18.0479 78.9458 17.5111 78.9458 16.9471C78.9458 15.8189 78.6273 14.8908 77.9905 14.163C77.3718 13.417 76.4802 13.0348 75.3156 13.0166C74.7152 13.0166 74.1783 13.1258 73.7052 13.3441C73.2503 13.5625 72.8682 13.8537 72.5589 14.2175C72.2678 14.5815 72.0494 15.0091 71.9038 15.5004C71.7582 15.9917 71.6854 16.5194 71.6854 17.0835C71.6854 17.684 71.7582 18.2298 71.9038 18.7212C72.0676 19.1943 72.3041 19.6128 72.6134 19.9767C72.9228 20.3225 73.3049 20.5954 73.7598 20.7956C74.2147 20.9775 74.7425 21.0685 75.343 21.0685Z" fill="#C6C9D5"/>
<path d="M61.168 11.6792C61.7503 10.9878 62.3689 10.4692 63.024 10.1234C63.6973 9.77766 64.498 9.60486 65.426 9.60486C65.6625 9.60486 65.89 9.61395 66.1083 9.63214C66.3267 9.65033 66.5268 9.67762 66.7088 9.714V13.2623C66.2903 13.2623 65.8627 13.2714 65.426 13.2896C65.0074 13.2896 64.6071 13.326 64.225 13.3988C63.8429 13.4716 63.4698 13.5899 63.1059 13.7536C62.7602 13.8992 62.4509 14.1175 62.1779 14.4086C61.7593 14.8818 61.4955 15.3913 61.3864 15.9372C61.2953 16.4831 61.2499 17.1018 61.2499 17.7932V24.262H57.4014V9.87779H60.9497L61.168 11.6792Z" fill="#C6C9D5"/>
<path d="M47.6422 24.4803C45.3131 24.4803 43.5207 23.8253 42.2652 22.5152C41.0096 21.1869 40.3818 19.349 40.3818 17.0017C40.3818 15.8734 40.5456 14.8545 40.8731 13.9447C41.2189 13.0167 41.692 12.2251 42.2925 11.57C42.9112 10.9149 43.6663 10.4237 44.5579 10.0961C45.4677 9.7504 46.4959 9.57751 47.6422 9.57751C48.7704 9.57751 49.7803 9.7504 50.6719 10.0961C51.5818 10.4237 52.346 10.9149 52.9647 11.57C53.6015 12.2251 54.0837 13.0167 54.4113 13.9447C54.757 14.8545 54.9299 15.8734 54.9299 17.0017C54.9299 19.3672 54.293 21.2051 53.0193 22.5152C51.7637 23.8253 49.9714 24.4803 47.6422 24.4803ZM47.6422 13.0167C46.4595 13.0167 45.586 13.3987 45.0219 14.163C44.4579 14.9272 44.1758 15.8826 44.1758 17.029C44.1758 18.1935 44.4579 19.1579 45.0219 19.9222C45.586 20.6864 46.4595 21.0685 47.6422 21.0685C48.825 21.0685 49.6893 20.6864 50.2352 19.9222C50.7811 19.1579 51.0541 18.1935 51.0541 17.029C51.0541 15.8826 50.7811 14.9272 50.2352 14.163C49.6893 13.3987 48.825 13.0167 47.6422 13.0167Z" fill="#C6C9D5"/>
<path d="M14.0717 3.07368C14.0717 1.95192 13.1576 1.02754 12.0476 1.1889C10.8958 1.35631 9.76674 1.66633 8.68665 2.11371C6.97941 2.82087 5.42817 3.85738 4.12149 5.16406C2.81482 6.47073 1.77831 8.02198 1.07114 9.72927C0.363974 11.4365 4.40724e-08 13.2663 0 15.1142C-4.40724e-08 16.9621 0.363974 18.7919 1.07114 20.4992C1.77831 22.2065 2.81482 23.7577 4.12149 25.0643C5.42817 26.371 6.97941 27.4076 8.68665 28.1147C10.3939 28.8219 12.2237 29.1859 14.0717 29.1859V22.4315C13.1107 22.4315 12.1592 22.2422 11.2715 21.8744C10.3837 21.5068 9.57701 20.9678 8.8976 20.2883C8.2181 19.6088 7.67912 18.8022 7.31139 17.9144C6.94366 17.0266 6.75439 16.0751 6.75439 15.1142C6.75439 14.1533 6.94366 13.2018 7.31139 12.314C7.67912 11.4263 8.2181 10.6196 8.8976 9.94013C9.57701 9.26064 10.3837 8.72169 11.2715 8.35395C11.5315 8.24625 11.797 8.15387 12.0665 8.07705C13.1453 7.76966 14.0717 6.88759 14.0717 5.76584V3.07368Z" fill="#C6C9D5"/>
<path d="M25.9224 15.1143C27.0441 15.1143 27.9686 16.0283 27.8071 17.1383C27.6397 18.2901 27.3298 19.4192 26.8823 20.4993C26.1752 22.2066 25.1387 23.7578 23.832 25.0645C22.5254 26.3711 20.9741 27.4076 19.2668 28.1148C17.5596 28.822 15.7298 29.1859 13.8818 29.1859V22.4316C14.8428 22.4316 15.7943 22.2423 16.6821 21.8746C17.5698 21.5068 18.3765 20.9678 19.0559 20.2884C19.7354 19.6089 20.2744 18.8023 20.6421 17.9145C20.7498 17.6545 20.8422 17.389 20.9191 17.1195C21.2264 16.0407 22.1084 15.1143 23.2302 15.1143H25.9224Z" fill="#C6C9D5"/>
<path d="M28.2964 1.04871C29.4181 1.04871 30.3425 1.9627 30.1812 3.07279C30.0138 4.22451 29.7038 5.35363 29.2564 6.4337C28.5492 8.14095 27.5127 9.69219 26.206 10.9989C24.8993 12.3056 23.3481 13.342 21.6409 14.0492C20.5608 14.4966 19.4317 14.8066 18.2799 14.974C17.1699 15.1354 16.2559 14.211 16.2559 13.0892V10.3971C16.2559 9.27535 17.1822 8.39327 18.261 8.08588C18.5306 8.00907 18.7961 7.91667 19.056 7.80898C19.9438 7.44125 20.7504 6.90226 21.4299 6.22279C22.1094 5.54332 22.6484 4.73667 23.0161 3.84891C23.1238 3.5889 23.2162 3.32343 23.293 3.05385C23.6004 1.97504 24.4825 1.04871 25.6042 1.04871H28.2964Z" fill="#C6C9D5"/>
</g>
<defs>
<clipPath id="clip0_451_32159">
<rect width="205.474" height="32" fill="white"/>
</clipPath>
</defs>
</svg>
