<svg width="66" height="72" viewBox="0 0 66 72" fill="none" xmlns="http://www.w3.org/2000/svg">
<g clip-path="url(#clip0_1082_16840)">
<mask id="mask0_1082_16840" style="mask-type:luminance" maskUnits="userSpaceOnUse" x="0" y="0" width="65" height="72">
<path d="M0.866943 0H64.8669V72H0.866943V0Z" fill="white"/>
</mask>
<g mask="url(#mask0_1082_16840)">
<mask id="mask1_1082_16840" style="mask-type:luminance" maskUnits="userSpaceOnUse" x="0" y="0" width="65" height="72">
<path d="M0.86499 0H64.865V72H0.86499V0Z" fill="white"/>
</mask>
<g mask="url(#mask1_1082_16840)">
<path d="M5.74783 58.2219L32.1068 71.6689C32.4916 71.8652 32.9179 71.9662 33.3498 71.9634C33.7817 71.9606 34.2066 71.8541 34.5888 71.6529L60.0218 58.2339C60.4582 58.0038 60.8236 57.659 61.0786 57.2366C61.3336 56.8142 61.4685 56.3303 61.4688 55.8369V2.71293C61.4696 2.35758 61.4004 2.00557 61.265 1.677C61.1297 1.34844 60.9309 1.04978 60.68 0.798094C60.4292 0.546408 60.1312 0.346634 59.8031 0.210193C59.475 0.0737533 59.1232 0.00332306 58.7678 0.00292969H6.96783C6.61253 0.00332284 6.26079 0.0737602 5.93274 0.210213C5.60469 0.346665 5.30675 0.546455 5.05598 0.798155C4.80521 1.04985 4.60653 1.34852 4.47129 1.67708C4.33605 2.00564 4.26691 2.35763 4.26783 2.71293V55.8029C4.26783 56.8249 4.83583 57.7589 5.74483 58.2209L5.74783 58.2219Z" fill="white"/>
<path d="M32.8999 2.93998C33.2019 2.93998 33.4999 2.93998 33.8019 3.01698L32.8999 4.75198C31.5459 4.67498 30.3479 5.72998 30.2749 7.08598C30.1989 8.44398 31.2509 9.64598 32.6019 9.71898H32.9029C33.5029 9.71898 34.1029 9.49298 34.5549 9.11698L35.5309 10.775C34.7629 11.315 33.8459 11.605 32.9069 11.604C30.5069 11.68 28.4769 9.86898 28.4029 7.46198C28.3269 5.05498 30.1329 3.01698 32.5309 2.94398H32.9069H32.9029L32.8999 2.93998ZM35.9759 6.63298L37.1039 8.51298L35.9759 10.319L34.9239 8.51398H32.7469L33.8749 6.63298H35.9759ZM34.1769 5.95298C34.1769 5.64998 34.2539 5.35098 34.4029 5.12498C34.5529 4.89798 34.8529 4.67198 35.0799 4.52198L35.2299 4.44498C35.5299 4.29498 35.6039 4.21898 35.6039 4.06898C35.6039 3.91898 35.3789 3.76598 35.2299 3.76598C34.9269 3.76598 34.7039 3.91598 34.5519 4.21898L34.1769 3.84198C34.2539 3.69198 34.4029 3.53998 34.5519 3.38998C34.7779 3.23998 35.0029 3.23998 35.2289 3.23998C35.4539 3.23998 35.7529 3.31698 35.9049 3.46598C36.0579 3.61598 36.2079 3.84198 36.2079 4.06898C36.2079 4.44498 35.9819 4.74798 35.5309 4.89898L35.3059 5.04898C35.0799 5.19798 34.9309 5.27398 34.8539 5.50098H36.2079V6.02698L34.1839 5.94998H34.1809L34.1769 5.95298ZM33.5289 15.009L39.3949 11.661C39.5887 11.55 39.7498 11.3899 39.862 11.1968C39.9742 11.0036 40.0335 10.7843 40.0339 10.561V0.000976562H25.6989V10.488C25.6989 10.941 25.9409 11.358 26.3319 11.585L32.2799 15.003C32.4698 15.1129 32.6854 15.1708 32.9049 15.1708C33.1243 15.1708 33.3399 15.1129 33.5299 15.003L33.5289 15.009ZM62.2259 38.685H3.56687C3.3941 38.6846 3.22487 38.734 3.07944 38.8273C2.93402 38.9206 2.81855 39.0538 2.74687 39.211L0.947869 43.16C0.894534 43.2776 0.866943 43.4053 0.866943 43.5345C0.866943 43.6637 0.894534 43.7913 0.947869 43.909L2.74687 47.856C2.81851 48.0133 2.93393 48.1466 3.07935 48.2401C3.22476 48.3336 3.39401 48.3832 3.56687 48.383H62.2259C62.5819 48.383 62.9059 48.169 63.0489 47.844L64.7899 43.896C64.8401 43.7803 64.866 43.6556 64.866 43.5295C64.866 43.4034 64.8401 43.2786 64.7899 43.163L63.0499 39.216C62.9796 39.0558 62.8643 38.9196 62.718 38.8237C62.5717 38.7278 62.4008 38.6765 62.2259 38.676V38.685Z" fill="#161616"/>
<path d="M23.7729 57.7058C23.7729 57.7058 23.7579 57.7338 23.7599 57.7468C23.7649 57.7531 23.7713 57.7581 23.7786 57.7614C23.7859 57.7647 23.7939 57.7662 23.8019 57.7658H26.5059C26.5209 57.7658 26.5359 57.7678 26.5509 57.7748C26.5653 57.7806 26.5783 57.7895 26.5889 57.8008C26.6169 57.8258 26.6289 57.8508 26.6289 57.8838V58.8558C26.6291 58.8718 26.6255 58.8876 26.6186 58.902C26.6117 58.9164 26.6015 58.929 26.5889 58.9388C26.5785 58.9505 26.5657 58.9597 26.5514 58.9659C26.537 58.9721 26.5215 58.9752 26.5059 58.9748H22.0189C22.0022 58.976 21.9854 58.9734 21.9698 58.9672C21.9542 58.9609 21.9402 58.9512 21.9289 58.9388C21.9177 58.9281 21.9089 58.9152 21.9031 58.9009C21.8972 58.8866 21.8944 58.8713 21.8949 58.8558V57.9318C21.8949 57.8738 21.9139 57.8228 21.9549 57.7818C22.2989 57.4448 22.6319 57.0968 22.9529 56.7388C23.2899 56.3628 23.5059 56.1268 23.5919 56.0338C23.7759 55.8138 23.9639 55.6038 24.1549 55.3998C24.7579 54.7268 25.0639 54.2258 25.0639 53.9018C25.0669 53.7927 25.0463 53.6842 25.0035 53.5837C24.9607 53.4833 24.8967 53.3932 24.8159 53.3198C24.6356 53.1691 24.4057 53.0907 24.1709 53.0998C23.9069 53.0998 23.6869 53.1748 23.5259 53.3198C23.4411 53.3944 23.374 53.487 23.3294 53.5908C23.2847 53.6945 23.2637 53.8069 23.2679 53.9198V54.1688C23.2683 54.1843 23.2653 54.1998 23.2593 54.2141C23.2533 54.2284 23.2443 54.2412 23.2329 54.2518C23.2224 54.2633 23.2096 54.2724 23.1953 54.2785C23.1809 54.2845 23.1654 54.2874 23.1499 54.2868H21.9709C21.9554 54.2874 21.9399 54.2845 21.9255 54.2785C21.9112 54.2724 21.8984 54.2633 21.8879 54.2518C21.8599 54.2258 21.8479 54.2008 21.8479 54.1688V53.6998C21.8729 53.3398 21.9839 53.0198 22.1939 52.7398C22.4039 52.4578 22.6879 52.2378 23.0139 52.1048C23.3799 51.9548 23.7739 51.8788 24.1699 51.8848C24.6399 51.8848 25.0529 51.9748 25.4029 52.1558C25.7529 52.3308 26.0229 52.5668 26.2109 52.8698C26.4009 53.1758 26.4989 53.5078 26.4989 53.8718C26.4989 54.1518 26.4269 54.4388 26.2859 54.7358C26.1178 55.0781 25.9079 55.3983 25.6609 55.6888C25.4569 55.9478 25.2309 56.2028 24.9929 56.4638C24.7549 56.7188 24.3989 57.0858 23.9289 57.5608L23.7789 57.7108L23.7689 57.7038H23.7729V57.7058ZM29.8709 59.0858C29.1359 59.0858 28.5589 58.8818 28.1359 58.4738C27.7099 58.0628 27.4969 57.5038 27.4969 56.7938V54.1458C27.4969 53.4518 27.7099 52.9028 28.1359 52.4958C28.5589 52.0838 29.1369 51.8828 29.8709 51.8828C30.6059 51.8828 31.1839 52.0868 31.6119 52.4948C32.0379 52.8998 32.2519 53.4518 32.2519 54.1458V56.7938C32.2519 57.5008 32.0379 58.0628 31.6119 58.4738C31.1819 58.8848 30.6019 59.0858 29.8709 59.0858ZM29.8709 57.8778C30.1659 57.8778 30.4079 57.7848 30.5829 57.5998C30.7609 57.4148 30.8529 57.1698 30.8529 56.8598V54.1058C30.8529 53.7988 30.7639 53.5568 30.5829 53.3718C30.4079 53.1868 30.1729 53.0948 29.8709 53.0948C29.5689 53.0948 29.3399 53.1868 29.1689 53.3718C28.9909 53.5568 28.8989 53.7988 28.8989 54.1058V56.8608C28.8989 57.1698 28.9869 57.4148 29.1689 57.6008C29.3429 57.7848 29.5789 57.8778 29.8709 57.8778ZM35.0439 57.7058C35.0439 57.7058 35.0289 57.7338 35.0379 57.7468C35.0409 57.7588 35.0529 57.7658 35.0779 57.7658H37.7839C37.7993 57.7656 37.8145 57.7686 37.8286 57.7746C37.8427 57.7807 37.8554 57.7896 37.8659 57.8008C37.8774 57.8113 37.8864 57.8242 37.8925 57.8385C37.8985 57.8528 37.9014 57.8683 37.9009 57.8838V58.8558C37.9013 58.8713 37.8983 58.8868 37.8923 58.9011C37.8863 58.9154 37.8773 58.9282 37.8659 58.9388C37.8557 58.9504 37.8431 58.9597 37.8289 58.9659C37.8147 58.9721 37.7994 58.9752 37.7839 58.9748H33.2899C33.2744 58.9751 33.2591 58.972 33.245 58.9658C33.2308 58.9596 33.2182 58.9504 33.2079 58.9388C33.1965 58.9282 33.1875 58.9154 33.1815 58.9011C33.1755 58.8868 33.1725 58.8713 33.1729 58.8558V57.9318C33.1729 57.8738 33.1889 57.8228 33.2259 57.7818C33.5559 57.4628 33.8879 57.1188 34.2239 56.7388C34.5609 56.3628 34.7769 56.1268 34.8629 56.0338C35.0509 55.8138 35.2409 55.6038 35.4319 55.3998C36.0349 54.7268 36.3409 54.2258 36.3409 53.9018C36.3438 53.7927 36.3231 53.6842 36.2803 53.5838C36.2375 53.4834 36.1736 53.3933 36.0929 53.3198C35.9093 53.1701 35.6777 53.0919 35.4409 53.0998C35.1809 53.0998 34.9579 53.1748 34.7969 53.3198C34.7145 53.3958 34.6495 53.4889 34.6065 53.5925C34.5635 53.6961 34.5435 53.8077 34.5479 53.9198V54.1688C34.5484 54.1843 34.5456 54.1996 34.5397 54.2139C34.5339 54.2282 34.5251 54.2411 34.5139 54.2518C34.5025 54.264 34.4884 54.2735 34.4729 54.2795C34.4573 54.2856 34.4406 54.2881 34.4239 54.2868H33.2459C33.2304 54.2874 33.2149 54.2845 33.2005 54.2785C33.1862 54.2724 33.1734 54.2633 33.1629 54.2518C33.1515 54.2412 33.1425 54.2284 33.1365 54.2141C33.1305 54.1998 33.1275 54.1843 33.1279 54.1688V53.6998C33.1439 53.3398 33.2579 53.0198 33.4649 52.7398C33.6689 52.4618 33.9479 52.2518 34.2909 52.1048C34.6553 51.9541 35.0466 51.8792 35.4409 51.8848C35.9109 51.8848 36.3249 51.9748 36.6739 52.1558C37.0269 52.3308 37.2999 52.5668 37.4879 52.8698C37.6749 53.1758 37.7709 53.5078 37.7709 53.8718C37.7709 54.1518 37.7039 54.4388 37.5679 54.7358C37.3943 55.0768 37.1819 55.3966 36.9349 55.6888C36.7309 55.9478 36.5049 56.2028 36.2669 56.4638C36.0289 56.7188 35.6729 57.0858 35.2029 57.5608L35.0529 57.7108L35.0439 57.7058ZM43.7569 55.9228C43.7812 55.9226 43.805 55.9294 43.8256 55.9423C43.8462 55.9553 43.8626 55.9738 43.8729 55.9958C43.879 56.01 43.8821 56.0253 43.8819 56.0408V57.0548C43.8821 57.0704 43.879 57.0859 43.8728 57.1002C43.8666 57.1145 43.8574 57.1273 43.8459 57.1378C43.8219 57.1605 43.79 57.1731 43.7569 57.1728H43.3319C43.2999 57.1728 43.2839 57.1888 43.2839 57.2198V58.8598C43.2843 58.8753 43.2813 58.8908 43.2753 58.9051C43.2693 58.9194 43.2603 58.9322 43.2489 58.9428C43.2249 58.9656 43.193 58.9782 43.1599 58.9778H41.9969C41.9804 58.9788 41.9639 58.9762 41.9485 58.9702C41.9331 58.9641 41.9193 58.9548 41.9079 58.9428C41.8965 58.9322 41.8875 58.9194 41.8815 58.9051C41.8755 58.8908 41.8725 58.8753 41.8729 58.8598V57.2198C41.8729 57.1898 41.8569 57.1728 41.8259 57.1728H38.7619C38.7378 57.1728 38.7142 57.166 38.6938 57.153C38.6734 57.1401 38.6572 57.1216 38.6469 57.0998C38.6408 57.0856 38.6377 57.0703 38.6379 57.0548V56.2548C38.6379 56.2128 38.6479 56.1618 38.6729 56.1048L40.4679 52.0578C40.4979 52.0008 40.5409 51.9678 40.6049 51.9678H41.8499C41.8959 51.9678 41.9299 51.9778 41.9459 52.0038C41.9619 52.0288 41.9619 52.0618 41.9389 52.1058L40.2749 55.8618C40.2749 55.8618 40.2719 55.8908 40.2749 55.9038C40.2839 55.9158 40.2929 55.9228 40.3089 55.9228H41.8219C41.8539 55.9228 41.8699 55.9068 41.8699 55.8678V54.6318C41.8691 54.6153 41.8716 54.5987 41.8775 54.5833C41.8833 54.5678 41.8923 54.5537 41.9039 54.5418C41.9154 54.5297 41.9294 54.5203 41.945 54.5142C41.9605 54.5082 41.9772 54.5056 41.9939 54.5068H43.1569C43.1732 54.5067 43.1894 54.5098 43.2045 54.516C43.2196 54.5221 43.2334 54.5313 43.2449 54.5428C43.2571 54.5539 43.2667 54.5675 43.2729 54.5827C43.2791 54.598 43.2819 54.6144 43.2809 54.6308V55.8678C43.2809 55.9078 43.2959 55.9228 43.3279 55.9228H43.7569Z" fill="#25252F"/>
<path d="M20.0129 22.3998L20.0189 17.6558C20.0189 17.6018 20.0719 17.5508 20.1259 17.5508H21.3629C21.4159 17.5508 21.4669 17.6048 21.4669 17.6588L21.4619 22.4038C21.4619 23.1058 21.9439 23.6438 22.6939 23.6478C23.4439 23.6478 23.9309 23.1618 23.9339 22.4098L23.9399 17.6658C23.9399 17.6108 23.9939 17.5598 24.0479 17.5598H25.2839C25.3379 17.5598 25.3889 17.6148 25.3889 17.6698L25.3819 22.4128C25.3819 23.9248 24.3019 24.8908 22.6919 24.8868C21.0799 24.8868 20.0059 23.8608 20.0089 22.4038H20.0059L20.0129 22.3998ZM26.2469 23.2898V23.1808C26.2469 23.1278 26.3019 23.0738 26.3579 23.0738H27.5119C27.5659 23.0738 27.6199 23.1308 27.6199 23.1848C27.6199 23.5138 28.0009 23.7368 28.5509 23.7398C29.0469 23.7398 29.3739 23.5198 29.3769 23.2448C29.3769 22.8018 28.5539 22.8018 27.7819 22.5248C27.0669 22.3048 26.3019 21.9148 26.3019 20.9778C26.3019 19.9298 27.1839 19.2728 28.5579 19.2728C29.9299 19.2728 30.8069 19.9928 30.8069 20.9848C30.8069 21.0398 30.7529 21.0928 30.6959 21.0928H29.5419C29.4879 21.0928 29.4349 21.0358 29.4349 20.9818C29.4349 20.6528 29.1069 20.4298 28.5579 20.4268C28.1149 20.4268 27.7879 20.5928 27.7879 20.9218C27.7879 21.3648 28.5039 21.3648 29.3299 21.6418C30.1519 21.8618 30.9759 22.2518 30.9759 23.2418C30.9759 24.2918 30.0359 24.8938 28.6619 24.8938C27.1789 24.8938 26.2429 24.2308 26.2469 23.2898ZM40.6479 19.5858C40.7019 19.6398 40.7019 19.6898 40.7019 19.7478L40.4829 20.9328C40.4829 21.0388 40.4289 21.0388 40.3209 20.9878C40.1589 20.9338 39.9459 20.9338 39.7299 20.9338C39.2439 20.9878 38.8149 21.3098 38.8149 21.8488L38.8079 24.7058C38.8079 24.7598 38.7549 24.8108 38.7009 24.8108H37.4639C37.4109 24.8108 37.3599 24.7568 37.3599 24.7028L37.3699 19.6368C37.3699 19.5828 37.4229 19.5318 37.4769 19.5318H38.7129C38.7669 19.5318 38.8179 19.5858 38.8179 19.6398V20.0198C38.8179 20.0738 38.8719 20.0738 38.8719 20.0738C39.1419 19.6978 39.5169 19.4288 40.0029 19.4288C40.3239 19.4288 40.4889 19.4838 40.6449 19.5918L40.6479 19.5858ZM41.2509 23.3218V23.2128C41.2509 23.1598 41.3049 23.1058 41.3629 23.1058H42.5159C42.5699 23.1058 42.6239 23.1628 42.6239 23.2168C42.6239 23.5458 43.0049 23.7688 43.5549 23.7718C44.0509 23.7718 44.3789 23.5518 44.3819 23.2768C44.3819 22.8338 43.5579 22.8338 42.7859 22.5568C42.0709 22.3368 41.3059 21.9468 41.3059 21.0098C41.3059 19.9618 42.1889 19.3048 43.5619 19.3048C44.9339 19.3048 45.8119 20.0248 45.8119 21.0168C45.8119 21.0708 45.7579 21.1248 45.7009 21.1248H44.5469C44.4929 21.1248 44.4389 21.0678 44.4389 21.0128C44.4389 20.6848 44.1119 20.4618 43.5619 20.4588C43.1199 20.4588 42.7919 20.6248 42.7919 20.9538C42.7919 21.3968 43.5069 21.3968 44.3339 21.6738C45.1569 21.8938 45.9799 22.2838 45.9799 23.2738C45.9799 24.3238 45.0399 24.9258 43.6669 24.9258C42.1829 24.9258 41.2469 24.2628 41.2509 23.3218ZM33.9689 19.2728C32.8279 19.2728 32.0089 19.9228 31.6809 20.9088C31.5689 21.2608 31.5129 21.6288 31.5159 21.9988C31.5159 22.5438 31.5699 22.9228 31.7319 23.3088C32.1069 24.2908 32.9229 24.8978 34.1219 24.8978C34.9919 24.8978 35.7549 24.5718 36.2439 23.9728C36.2989 23.9148 36.2989 23.8638 36.2439 23.8068L35.4839 23.0378C35.4309 22.9298 35.3759 22.9838 35.3199 23.0378C35.0459 23.3638 34.7189 23.5808 34.2299 23.5808C33.6319 23.5808 33.3049 23.3608 33.1429 22.9778C33.0889 22.8118 33.0349 22.7028 33.0349 22.5378C33.0349 22.4998 33.0509 22.4838 33.0889 22.4838L36.3519 22.4898C36.4599 22.4898 36.5179 22.4898 36.5179 22.3848C36.5179 22.0588 36.5179 21.7848 36.4099 21.5148C36.2479 20.1998 35.3829 19.2728 33.9659 19.2688V19.2758L33.9689 19.2728ZM34.9469 21.5078H33.1519C33.1139 21.5078 33.0989 21.4918 33.0989 21.4528C33.0989 21.3448 33.0989 21.2328 33.1519 21.1278C33.2599 20.7458 33.5329 20.5288 34.0219 20.5288C34.5119 20.5288 34.8399 20.7488 34.9439 21.1858C34.9439 21.2398 34.9979 21.3518 34.9979 21.4598C34.9979 21.4978 34.9829 21.5138 34.9439 21.5098H34.9469V21.5078ZM15.0299 35.1098L15.0429 27.9858C15.0429 27.9318 15.0969 27.8778 15.1509 27.8778H16.4059C16.4599 27.8778 16.5139 27.9348 16.5139 27.9868L16.5039 33.9038C16.5039 33.9418 16.5199 33.9578 16.5589 33.9578L19.9999 33.9648C20.0539 33.9648 20.1079 34.0188 20.1079 34.0728V35.1158C20.1079 35.1698 20.0509 35.2248 19.9999 35.2248L15.1419 35.2168C15.0879 35.2168 15.0329 35.1638 15.0329 35.1098H15.0269H15.0299ZM25.8099 31.3558C25.4779 30.3488 24.6449 29.6758 23.4189 29.6758C22.1919 29.6758 21.3019 30.2848 20.9629 31.3458C20.8539 31.6238 20.7929 32.0738 20.7929 32.4628C20.7929 32.8528 20.8479 33.2438 20.9589 33.5788C21.2349 34.6948 22.1789 35.3678 23.4029 35.3168C24.5759 35.3168 25.4649 34.6538 25.8029 33.5348C25.9099 33.2568 25.9699 32.8648 25.9699 32.4728C25.9699 32.0798 25.9169 31.6918 25.8049 31.3558H25.8099ZM24.3559 33.2538C24.1879 33.7538 23.8539 34.0888 23.4089 34.0318C22.9069 34.0318 22.5759 33.7518 22.4089 33.2468C22.3549 33.0788 22.3549 32.7968 22.3549 32.5198C22.3549 32.1848 22.3549 31.9078 22.4649 31.7388C22.5759 31.2348 22.9139 30.9608 23.4129 30.9608C23.8609 30.9608 24.1909 31.2408 24.3599 31.7458C24.4129 31.9688 24.4669 32.2488 24.4669 32.5258C24.4669 32.7498 24.4099 33.0308 24.3559 33.2538ZM27.9179 35.1348L26.2349 29.9248C26.1799 29.8148 26.2349 29.7588 26.3419 29.7588H27.7089C27.7629 29.7588 27.8159 29.8168 27.8739 29.8698L28.7409 33.0498C28.7409 33.1038 28.7949 33.1038 28.7949 33.0498L29.6749 29.8738C29.6749 29.8198 29.7299 29.7648 29.8409 29.7648H31.2079C31.3149 29.7648 31.3729 29.8228 31.3149 29.9348L29.6149 35.0808C29.6149 35.1348 29.5609 35.1898 29.4499 35.1898H28.0839C27.9759 35.2398 27.9179 35.2398 27.9179 35.1318H27.9149L27.9179 35.1348ZM33.9699 29.6998C32.8289 29.6998 32.0099 30.3508 31.6819 31.3358C31.5699 31.6888 31.5139 32.0558 31.5169 32.4258C31.5169 32.9718 31.5709 33.3518 31.7329 33.7368C32.1079 34.7188 32.9239 35.3258 34.1229 35.3258C34.9929 35.3258 35.7559 34.9998 36.2449 34.4008C36.2999 34.3428 36.2999 34.2918 36.2449 34.2348L35.4849 33.4648C35.4319 33.3578 35.3769 33.4118 35.3209 33.4648C35.0469 33.7918 34.7199 34.0088 34.2309 34.0088C33.6329 34.0088 33.3059 33.7888 33.1439 33.4048C33.0899 33.2398 33.0359 33.1308 33.0359 32.9648C33.0359 32.9268 33.0519 32.9108 33.0899 32.9108L36.3529 32.9178C36.4609 32.9178 36.5189 32.9178 36.5189 32.8128C36.5189 32.4868 36.5189 32.2128 36.4109 31.9428C36.2489 30.6278 35.3839 29.6998 33.9669 29.6968V29.7038L33.9699 29.6998ZM34.9479 31.9358H33.1529C33.1149 31.9358 33.0999 31.9198 33.0999 31.8818C33.0999 31.7718 33.0999 31.6618 33.1529 31.5558C33.2609 31.1738 33.5339 30.9558 34.0229 30.9558C34.5129 30.9558 34.8409 31.1768 34.9449 31.6138C34.9449 31.6668 34.9989 31.7788 34.9989 31.8878C34.9989 31.9258 34.9839 31.9418 34.9449 31.9378H34.9479V31.9358ZM39.6179 32.8568L39.6229 28.0328C39.6229 27.9788 39.6769 27.9238 39.7319 27.9238H40.9869C41.0409 27.9238 41.0949 27.9818 41.0949 28.0338L41.0889 32.8568C41.0889 33.5708 41.5769 34.1168 42.3399 34.1228C43.1059 34.1228 43.5959 33.6328 43.6009 32.8668L43.6089 28.0428C43.6104 28.0146 43.6221 27.988 43.6418 27.9678C43.6615 27.9476 43.6878 27.9351 43.7159 27.9328H44.9719C45.0249 27.9328 45.0789 27.9918 45.0789 28.0428L45.0729 32.8668C45.0729 34.4008 43.9769 35.3858 42.3369 35.3828C40.6969 35.3788 39.6069 34.3368 39.6099 32.8568H39.6079H39.6179ZM46.0039 33.6958V33.5868C46.0039 33.5338 46.0579 33.4788 46.1119 33.4788H47.2589C47.3129 33.4788 47.3669 33.5358 47.3669 33.5888C47.3669 33.9148 47.7479 34.1358 48.2919 34.1388C48.7839 34.1388 49.1119 33.9218 49.1149 33.6478C49.1149 33.2078 48.2949 33.2078 47.5289 32.9308C46.8169 32.7108 46.0589 32.3278 46.0589 31.3908C46.0589 30.3478 46.9349 29.6938 48.3009 29.6968C49.6679 29.6968 50.5379 30.4148 50.5379 31.3998C50.5379 31.4538 50.4839 31.5088 50.4299 31.5088H49.2829C49.2289 31.5088 49.1749 31.4508 49.1749 31.3988C49.1749 31.0718 48.8479 30.8508 48.3009 30.8488C47.8629 30.8488 47.5359 31.0108 47.5359 31.3388C47.5359 31.7788 48.2409 31.7788 49.0639 32.0568C49.8839 32.2768 50.6999 32.6628 50.6999 33.6468C50.6999 34.6908 49.7699 35.2898 48.4029 35.2898C46.9289 35.2898 46.0029 34.6298 46.0029 33.6958H46.0039Z" fill="#161616"/>
<path d="M47.0898 42.4641L49.3048 42.1141L50.4488 39.8911L51.5168 42.0461L53.8708 42.4801L52.2278 44.1251L52.5808 46.4911L50.4388 45.4831L48.2938 46.4811L48.5898 44.1181L47.0898 42.4641ZM38.2848 42.4641L40.4988 42.1141L41.6438 39.8911L42.7078 42.0461L45.0658 42.4801L43.4228 44.1251L43.7748 46.4911L41.6338 45.4831L39.4878 46.4811L39.7808 44.1181L38.2848 42.4641ZM29.4748 42.4641L31.6928 42.1141L32.8368 39.8911L33.9008 42.0461L36.2558 42.4801L34.6128 44.1251L34.9658 46.4911L32.8238 45.4831L30.6818 46.4811L30.9748 44.1181L29.4748 42.4641ZM20.6708 42.4641L22.8858 42.1141L24.0298 39.8911L25.0938 42.0461L27.4528 42.4801L25.8088 44.1251L26.1618 46.4911L24.0208 45.4831L21.8748 46.4811L22.1678 44.1181L20.6708 42.4641ZM11.8608 42.4641L14.0788 42.1141L15.2228 39.8911L16.2878 42.0461L18.6418 42.4801L17.0028 44.1261L17.3528 46.4911L15.2098 45.4831L13.0688 46.4821L13.3608 44.1181L11.8608 42.4641Z" fill="#FF5E15"/>
</g>
</g>
</g>
<defs>
<clipPath id="clip0_1082_16840">
<rect width="65" height="72" fill="white" transform="translate(0.75)"/>
</clipPath>
</defs>
</svg>
