<svg width="154" height="32" viewBox="0 0 154 32" fill="none" xmlns="http://www.w3.org/2000/svg">
<g clip-path="url(#clip0_451_32245)">
<mask id="mask0_451_32245" style="mask-type:luminance" maskUnits="userSpaceOnUse" x="0" y="0" width="154" height="32">
<path d="M153.461 0H0.927734V32H153.461V0Z" fill="white"/>
</mask>
<g mask="url(#mask0_451_32245)">
<mask id="mask1_451_32245" style="mask-type:luminance" maskUnits="userSpaceOnUse" x="1" y="0" width="153" height="32">
<path d="M153.415 0H1.41406V32H153.415V0Z" fill="white"/>
</mask>
<g mask="url(#mask1_451_32245)">
<path d="M1.41406 21.3547L12.2344 16.5387L18.4623 20.1506L19.7204 31.9999L12.0457 31.9369L13.1779 23.6993L11.8569 22.9385L5.37729 28.008L1.41406 21.3547Z" fill="#C6C9D5"/>
<path d="M19.1543 19.6434L28.7165 26.6772L32.491 19.8969L24.816 16.7919V15.2711L32.491 12.1028L28.7165 5.38599L19.1543 12.4196V19.6434Z" fill="#C6C9D5"/>
<path d="M18.4623 11.8495L19.7204 0L12.0457 0.12674L13.1779 8.36433L11.8569 9.12474L5.31439 4.05546L1.41406 10.6455L12.2344 15.4613L18.4623 11.8495Z" fill="#C6C9D5"/>
<path d="M58.0968 14.58V25.6814H62.2274V11.5338H56.2119V14.58H58.0968Z" fill="#C6C9D5"/>
<path d="M57.9668 9.54581C58.3454 9.94154 58.922 10.1395 59.6965 10.1395C60.4713 10.1395 61.0389 9.94154 61.4001 9.54581C61.7793 9.13255 61.9681 8.61621 61.9681 7.99682C61.9681 7.35988 61.7793 6.84355 61.4001 6.44778C61.0389 6.03474 60.4713 5.82812 59.6965 5.82812C58.922 5.82812 58.3454 6.03474 57.9668 6.44778C57.6056 6.84355 57.4248 7.35988 57.4248 7.99682C57.4248 8.61621 57.6056 9.13255 57.9668 9.54581Z" fill="#C6C9D5"/>
<path d="M43.7163 25.3714C44.8864 25.9049 46.3236 26.1718 48.0271 26.1718C49.628 26.1718 51.0046 25.9223 52.1581 25.423C53.3112 24.9241 54.1974 24.2268 54.8169 23.3321C55.4541 22.4196 55.7722 21.3611 55.7722 20.1564C55.7722 18.9861 55.4715 17.9964 54.8691 17.1874C54.2835 16.3613 53.4664 15.7159 52.416 15.2514C51.3662 14.7693 50.153 14.4681 48.776 14.3478L47.3304 14.2187C46.4698 14.1497 45.8502 13.9175 45.4715 13.5215C45.0928 13.1257 44.9035 12.661 44.9035 12.1276C44.9035 11.7143 45.0071 11.3358 45.2131 10.9916C45.4199 10.6301 45.7294 10.3461 46.1428 10.1395C46.5731 9.93312 47.098 9.82978 47.7176 9.82978C48.3712 9.82978 48.9137 9.95011 49.344 10.1913C49.4387 10.2422 49.5287 10.2967 49.6131 10.3545L49.6335 10.3688C49.6651 10.3906 49.6963 10.4133 49.7265 10.4361C49.988 10.6359 50.1961 10.8727 50.3509 11.1464C50.5743 11.5252 50.6869 11.9467 50.6869 12.4115H54.8169C54.8169 11.1722 54.5329 10.0965 53.9654 9.18439C53.3974 8.25499 52.5799 7.54072 51.5129 7.04145C50.4625 6.52513 49.1978 6.26697 47.7176 6.26697C46.3061 6.26697 45.0843 6.50808 44.0515 6.98992C43.019 7.45472 42.2101 8.12592 41.625 9.00352C41.0566 9.88139 40.7725 10.9228 40.7725 12.1276C40.7725 13.797 41.3325 15.1394 42.451 16.155C43.5695 17.1704 45.0672 17.7556 46.9432 17.9103L48.3632 18.0394C49.5159 18.1428 50.3509 18.3752 50.8672 18.7365C51.3833 19.0807 51.6416 19.554 51.6416 20.1564C51.6416 20.4332 51.5965 20.693 51.5056 20.9355C51.4383 21.1156 51.3462 21.286 51.2288 21.4473C50.953 21.8089 50.5487 22.0924 50.0152 22.2994C49.4817 22.5058 48.819 22.6089 48.0271 22.6089C47.1496 22.6089 46.4352 22.4887 45.8847 22.2477C45.3337 21.9893 44.9209 21.6537 44.6451 21.2409C44.387 20.8276 44.2583 20.3802 44.2583 19.8982H40.1533C40.1533 21.1201 40.4544 22.2046 41.0566 23.1513C41.6591 24.0805 42.5456 24.8208 43.7163 25.3714Z" fill="#C6C9D5"/>
<path d="M71.4425 25.8619C70.0139 25.8619 68.8612 25.6899 67.9835 25.3454C67.1054 24.9842 66.4602 24.3906 66.047 23.5646C65.6512 22.7211 65.4534 21.5851 65.4534 20.1564V14.5542H63.3105V11.5338H65.4534V7.71289H69.2999V11.5338H73.4305V14.5542H69.2999V20.3115C69.2999 20.9827 69.4718 21.4989 69.8166 21.8601C70.1772 22.2047 70.6852 22.3765 71.3399 22.3765H73.4305V25.8619H71.4425Z" fill="#C6C9D5"/>
<path fill-rule="evenodd" clip-rule="evenodd" d="M78.4038 25.5522C79.333 25.9653 80.4005 26.1717 81.605 26.1717C82.7925 26.1717 83.8424 25.9653 84.7551 25.5522C85.6671 25.139 86.4245 24.5623 87.0264 23.8225C87.629 23.0822 88.0337 22.2391 88.2397 21.2925H84.445C84.2731 21.7227 83.9457 22.0839 83.4637 22.3764C82.9824 22.6694 82.3624 22.8157 81.605 22.8157C81.1365 22.8157 80.717 22.7602 80.3478 22.649C80.0664 22.5645 79.8144 22.4481 79.5917 22.2993C79.0751 21.9552 78.6965 21.4728 78.4557 20.8535C78.3884 20.6771 78.3311 20.4925 78.2831 20.3003C78.2344 20.1054 78.1944 19.9027 78.1644 19.6917H88.4984V18.2976C88.4984 17.0067 88.2224 15.8192 87.6725 14.735C87.1211 13.6333 86.3211 12.747 85.2711 12.0757C84.2384 11.3873 82.9644 11.0431 81.4497 11.0431C80.2971 11.0431 79.2637 11.2497 78.3517 11.6627C77.4577 12.0585 76.709 12.6006 76.1064 13.2891C75.5037 13.9775 75.0391 14.7607 74.7117 15.6386C74.4024 16.499 74.2471 17.4025 74.2471 18.3491V18.8655C74.2471 19.7778 74.4024 20.6727 74.7117 21.5504C75.0391 22.411 75.5037 23.1939 76.1064 23.8997C76.7258 24.5885 77.4911 25.139 78.4038 25.5522ZM78.2358 17.139C78.2471 17.0843 78.2591 17.0304 78.2725 16.9774C78.3084 16.8315 78.3498 16.6916 78.3964 16.5581C78.4231 16.4819 78.4511 16.4077 78.4817 16.3356C78.7398 15.6987 79.1184 15.2169 79.6171 14.8898C79.8038 14.7677 80.0058 14.6683 80.2231 14.5918C80.5884 14.4636 80.9978 14.3993 81.4497 14.3993C82.1564 14.3993 82.741 14.5629 83.2058 14.8898C83.6877 15.1996 84.0491 15.6557 84.2897 16.258C84.3098 16.3067 84.3277 16.3562 84.3457 16.4062C84.3744 16.4861 84.4011 16.568 84.4257 16.6519C84.4618 16.7769 84.4938 16.9061 84.5217 17.0398C84.5424 17.1383 84.5597 17.2391 84.5757 17.3425H78.1964C78.2085 17.2734 78.221 17.2057 78.2358 17.139Z" fill="#C6C9D5"/>
<path d="M90.2021 25.6815V11.5338H93.4815V15.097C93.5256 14.8853 93.5761 14.6819 93.6329 14.487C93.6815 14.3228 93.7335 14.1644 93.7908 14.0122C94.1529 13.0483 94.6948 12.3256 95.4175 11.8435C96.1402 11.3445 97.0261 11.095 98.0768 11.095H98.2569C99.3242 11.095 100.211 11.3445 100.916 11.8435C101.639 12.3256 102.182 13.0483 102.543 14.0122L102.572 14.0849L102.596 14.1514C102.612 14.1045 102.629 14.0581 102.646 14.0122C103.025 13.0483 103.575 12.3256 104.298 11.8435C105.021 11.3445 105.908 11.095 106.957 11.095H107.139C108.204 11.095 109.1 11.3445 109.823 11.8435C110.564 12.3256 111.123 13.0483 111.5 14.0122C111.879 14.976 112.069 16.1809 112.069 17.6266V25.6815H107.939V17.3942C107.939 16.6197 107.732 15.9915 107.319 15.5096C106.924 15.0277 106.355 14.7867 105.615 14.7867C104.875 14.7867 104.29 15.0364 103.86 15.5354C103.43 16.0172 103.214 16.6627 103.214 17.4717V25.6815H99.0575V17.3942C99.0575 16.6197 98.8509 15.9915 98.4382 15.5096C98.0421 15.0277 97.4829 14.7867 96.7602 14.7867C96.0022 14.7867 95.4089 15.0364 94.9789 15.5354C94.5482 16.0172 94.3328 16.6627 94.3328 17.4717V25.6815H90.2021Z" fill="#C6C9D5"/>
<path fill-rule="evenodd" clip-rule="evenodd" d="M123.104 22.9553V25.6814H126.382V17.0069C126.382 15.6988 126.124 14.6318 125.608 13.8056C125.092 12.9622 124.335 12.334 123.336 11.921C122.356 11.508 121.142 11.3014 119.696 11.3014C119.383 11.3014 119.055 11.3047 118.715 11.3115C118.514 11.3157 118.307 11.3209 118.095 11.3272C117.528 11.3444 116.976 11.3702 116.443 11.4046L116.036 11.4322C115.827 11.4467 115.629 11.4611 115.445 11.4756C115.306 11.4864 115.174 11.4972 115.05 11.508V14.9933C115.583 14.9588 116.176 14.9243 116.831 14.89C117.014 14.8804 117.195 14.8715 117.375 14.8632C117.635 14.8512 117.891 14.8407 118.144 14.8316C118.346 14.8243 118.544 14.8179 118.741 14.8124C119.36 14.7952 119.86 14.7867 120.238 14.7867C120.996 14.7867 121.546 14.9673 121.891 15.3288C122.235 15.6903 122.407 16.2324 122.407 16.9554V17.0069H119.851C118.595 17.0069 117.485 17.1705 116.52 17.4974C115.557 17.8072 114.808 18.2978 114.275 18.9689C113.741 19.6231 113.475 20.4664 113.475 21.4989C113.475 22.4457 113.69 23.2632 114.12 23.9518C114.55 24.6231 115.144 25.139 115.901 25.5006C116.676 25.8619 117.571 26.0427 118.586 26.0427C119.567 26.0427 120.393 25.8619 121.065 25.5006C121.753 25.139 122.286 24.6231 122.665 23.9518C122.731 23.8385 122.794 23.7211 122.853 23.5992C122.934 23.4269 123.007 23.2457 123.071 23.0555L123.104 22.9553ZM122.407 20.4406V19.3047H119.824C119.102 19.3047 118.543 19.4853 118.148 19.8468C117.769 20.191 117.579 20.6643 117.579 21.2665C117.579 21.5501 117.626 21.8082 117.72 22.0401C117.816 22.2729 117.958 22.4797 118.148 22.6611C118.543 23.0052 119.102 23.177 119.824 23.177C119.963 23.177 120.095 23.1702 120.224 23.157C120.329 23.1459 120.431 23.1301 120.53 23.1101C120.719 23.0717 120.898 23.0167 121.065 22.9446C121.444 22.7728 121.753 22.4888 121.994 22.0925C122.235 21.6968 122.373 21.1463 122.407 20.4406Z" fill="#C6C9D5"/>
<path d="M128.854 25.6815V11.5337H132.133V16.2034C132.29 14.8704 132.686 13.7955 133.321 12.9794C134.181 11.8951 135.42 11.3531 137.039 11.3531H137.581V14.9157H136.548C135.412 14.9157 134.534 15.2255 133.915 15.845C133.295 16.4474 132.985 17.3253 132.985 18.4784V25.6815H128.854Z" fill="#C6C9D5"/>
<path d="M142.819 19.0722H144.187L148.653 25.6814H153.301L147.637 17.5645L152.294 11.5337H147.957L142.819 18.2606V6.83508H138.688V25.6814H142.819V19.0722Z" fill="#C6C9D5"/>
</g>
</g>
</g>
<defs>
<clipPath id="clip0_451_32245">
<rect width="152.533" height="32" fill="white" transform="translate(0.927734)"/>
</clipPath>
</defs>
</svg>
