<svg width="153" height="32" viewBox="0 0 153 32" fill="none" xmlns="http://www.w3.org/2000/svg">
<path d="M150.626 14.8736L147.036 15.0945C146.975 14.7877 146.843 14.5115 146.64 14.2661C146.438 14.0144 146.171 13.815 145.839 13.6677C145.514 13.5143 145.125 13.4375 144.67 13.4375C144.063 13.4375 143.55 13.5665 143.133 13.8242C142.716 14.0758 142.507 14.4134 142.507 14.8368C142.507 15.1743 142.642 15.4597 142.912 15.6929C143.182 15.9261 143.645 16.1132 144.302 16.2544L146.861 16.7699C148.236 17.0522 149.261 17.5063 149.936 18.1323C150.611 18.7583 150.949 19.5806 150.949 20.5993C150.949 21.526 150.676 22.3392 150.129 23.0388C149.589 23.7383 148.847 24.2845 147.901 24.6773C146.963 25.0639 145.88 25.2572 144.652 25.2572C142.78 25.2572 141.289 24.8676 140.178 24.0882C139.074 23.3027 138.426 22.2348 138.236 20.8847L142.093 20.6822C142.21 21.2529 142.492 21.6887 142.94 21.9894C143.388 22.2839 143.962 22.4312 144.662 22.4312C145.349 22.4312 145.901 22.2993 146.318 22.0354C146.742 21.7654 146.956 21.4186 146.963 20.9952C146.956 20.6392 146.806 20.3478 146.511 20.1207C146.217 19.8874 145.763 19.7095 145.149 19.5867L142.7 19.0988C141.32 18.8227 140.292 18.344 139.617 17.6629C138.948 16.9816 138.614 16.1132 138.614 15.0577C138.614 14.1495 138.858 13.367 139.35 12.7103C139.847 12.0537 140.543 11.5474 141.439 11.1914C142.342 10.8355 143.397 10.6576 144.606 10.6576C146.392 10.6576 147.798 11.035 148.822 11.7898C149.853 12.5447 150.455 13.5726 150.626 14.8736Z" fill="#C6C9D5"/>
<path d="M136.071 14.8736L132.481 15.0945C132.419 14.7877 132.288 14.5115 132.085 14.2661C131.882 14.0144 131.616 13.815 131.284 13.6677C130.959 13.5143 130.569 13.4375 130.115 13.4375C129.507 13.4375 128.995 13.5665 128.578 13.8242C128.161 14.0758 127.952 14.4134 127.952 14.8368C127.952 15.1743 128.086 15.4597 128.356 15.6929C128.627 15.9261 129.091 16.1132 129.747 16.2544L132.306 16.7699C133.681 17.0522 134.706 17.5063 135.38 18.1323C136.055 18.7583 136.393 19.5806 136.393 20.5993C136.393 21.526 136.12 22.3392 135.573 23.0388C135.034 23.7383 134.291 24.2845 133.347 24.6773C132.407 25.0639 131.324 25.2572 130.097 25.2572C128.225 25.2572 126.734 24.8676 125.623 24.0882C124.518 23.3027 123.871 22.2348 123.681 20.8847L127.538 20.6822C127.654 21.2529 127.937 21.6887 128.385 21.9894C128.833 22.2839 129.406 22.4312 130.106 22.4312C130.793 22.4312 131.346 22.2993 131.763 22.0354C132.186 21.7654 132.401 21.4186 132.407 20.9952C132.401 20.6392 132.251 20.3478 131.956 20.1207C131.662 19.8874 131.207 19.7095 130.594 19.5867L128.145 19.0988C126.764 18.8227 125.736 18.344 125.061 17.6629C124.392 16.9816 124.058 16.1132 124.058 15.0577C124.058 14.1495 124.304 13.367 124.794 12.7103C125.291 12.0537 125.987 11.5474 126.883 11.1914C127.786 10.8355 128.842 10.6576 130.051 10.6576C131.837 10.6576 133.242 11.035 134.267 11.7898C135.298 12.5447 135.899 13.5726 136.071 14.8736Z" fill="#C6C9D5"/>
<path d="M115.259 25.2572C113.805 25.2572 112.553 24.9626 111.503 24.3735C110.46 23.7783 109.656 22.9375 109.091 21.8513C108.526 20.7589 108.244 19.4671 108.244 17.9758C108.244 16.5214 108.526 15.2449 109.091 14.1463C109.656 13.0479 110.451 12.1918 111.475 11.5781C112.507 10.9644 113.715 10.6576 115.102 10.6576C116.035 10.6576 116.904 10.8079 117.708 11.1086C118.518 11.4032 119.224 11.8481 119.825 12.4434C120.432 13.0387 120.905 13.7874 121.243 14.6895C121.58 15.5855 121.749 16.6349 121.749 17.8377V18.9147H109.809V16.4845H118.058C118.058 15.9199 117.934 15.4198 117.689 14.9841C117.444 14.5483 117.103 14.2077 116.668 13.9623C116.238 13.7107 115.738 13.5848 115.167 13.5848C114.572 13.5848 114.044 13.7229 113.583 13.9991C113.13 14.2691 112.774 14.6343 112.516 15.0945C112.258 15.5487 112.126 16.055 112.12 16.6135V18.9239C112.12 19.6235 112.249 20.228 112.507 20.7374C112.77 21.2468 113.142 21.6395 113.62 21.9157C114.099 22.1919 114.667 22.33 115.324 22.33C115.759 22.33 116.158 22.2686 116.52 22.1459C116.882 22.0231 117.192 21.839 117.45 21.5935C117.708 21.348 117.904 21.0473 118.039 20.6914L121.666 20.9307C121.482 21.8022 121.104 22.5631 120.534 23.2136C119.969 23.8581 119.239 24.3612 118.343 24.7233C117.453 25.0792 116.425 25.2572 115.259 25.2572Z" fill="#C6C9D5"/>
<path d="M96.6103 16.8068V24.9811H92.6885V10.8417H96.4258V13.3363H96.5914C96.9048 12.514 97.4291 11.8634 98.166 11.3847C98.902 10.8999 99.7952 10.6576 100.845 10.6576C101.826 10.6576 102.683 10.8724 103.413 11.3019C104.143 11.7315 104.711 12.3452 105.116 13.143C105.52 13.9347 105.724 14.8797 105.724 15.9783V24.9811H101.802V16.6778C101.807 15.8125 101.587 15.1375 101.139 14.6527C100.691 14.1617 100.074 13.9162 99.2889 13.9162C98.7609 13.9162 98.295 14.0297 97.8893 14.2568C97.4903 14.4839 97.1778 14.8153 96.951 15.251C96.7298 15.6807 96.6159 16.1991 96.6103 16.8068Z" fill="#C6C9D5"/>
<path d="M85.6258 24.9811V10.8417H89.5472V24.9811H85.6258ZM87.5957 9.01902C87.0127 9.01902 86.5126 8.82571 86.0953 8.43908C85.6841 8.04632 85.4785 7.57685 85.4785 7.03067C85.4785 6.49062 85.6841 6.02728 86.0953 5.64065C86.5126 5.24789 87.0127 5.05151 87.5957 5.05151C88.1788 5.05151 88.6758 5.24789 89.087 5.64065C89.5043 6.02728 89.713 6.49062 89.713 7.03067C89.713 7.57685 89.5043 8.04632 89.087 8.43908C88.6758 8.82571 88.1788 9.01902 87.5957 9.01902Z" fill="#C6C9D5"/>
<path d="M82.8338 14.8736L79.2436 15.0945C79.1823 14.7877 79.0503 14.5115 78.8478 14.2661C78.6452 14.0144 78.3783 13.815 78.0469 13.6677C77.7217 13.5143 77.332 13.4375 76.8779 13.4375C76.2703 13.4375 75.7579 13.5665 75.3406 13.8242C74.9233 14.0758 74.7146 14.4134 74.7146 14.8368C74.7146 15.1743 74.8496 15.4597 75.1196 15.6929C75.3896 15.9261 75.853 16.1132 76.5096 16.2544L79.0688 16.7699C80.4434 17.0522 81.4683 17.5063 82.1433 18.1323C82.8184 18.7583 83.1559 19.5806 83.1559 20.5993C83.1559 21.526 82.8828 22.3392 82.3366 23.0388C81.7966 23.7383 81.054 24.2845 80.109 24.6773C79.1699 25.0639 78.0868 25.2572 76.8595 25.2572C74.9877 25.2572 73.4964 24.8676 72.3857 24.0882C71.281 23.3027 70.6336 22.2348 70.4434 20.8847L74.3004 20.6822C74.4169 21.2529 74.6993 21.6887 75.1473 21.9894C75.5953 22.2839 76.169 22.4312 76.8687 22.4312C77.556 22.4312 78.1083 22.2993 78.5256 22.0354C78.9491 21.7654 79.1638 21.4186 79.17 20.9952C79.1638 20.6392 79.0135 20.3478 78.7189 20.1207C78.4243 19.8874 77.9702 19.7095 77.3566 19.5867L74.9079 19.0988C73.5271 18.8227 72.4992 18.344 71.8242 17.6629C71.1552 16.9816 70.8208 16.1132 70.8208 15.0577C70.8208 14.1495 71.0662 13.367 71.5572 12.7103C72.0543 12.0537 72.7508 11.5474 73.6467 11.1914C74.5489 10.8355 75.6045 10.6576 76.8134 10.6576C78.5992 10.6576 80.0046 11.035 81.0294 11.7898C82.0605 12.5447 82.6619 13.5726 82.8338 14.8736Z" fill="#C6C9D5"/>
<path d="M64.0116 18.9607V10.8417H67.933V24.9811H64.1681V22.4128H64.0208C63.7017 23.2413 63.1709 23.9071 62.4283 24.4103C61.6918 24.9136 60.7928 25.1652 59.7311 25.1652C58.786 25.1652 57.9545 24.9504 57.2365 24.5208C56.5185 24.0912 55.9569 23.4806 55.5519 22.6889C55.153 21.8973 54.9505 20.9492 54.9443 19.8445V10.8417H58.8658V19.1449C58.872 19.9795 59.096 20.6392 59.5377 21.124C59.9796 21.6088 60.5718 21.8513 61.3144 21.8513C61.787 21.8513 62.2289 21.7439 62.64 21.5291C63.0512 21.3081 63.3825 20.9829 63.6342 20.5533C63.8919 20.1237 64.0178 19.5928 64.0116 18.9607Z" fill="#C6C9D5"/>
<path d="M38.5381 24.9811V6.12854H42.4596V13.2167H42.5793C42.7511 12.8361 42.9996 12.4495 43.3249 12.0568C43.6563 11.6579 44.0858 11.3265 44.6137 11.0626C45.1476 10.7926 45.8104 10.6576 46.602 10.6576C47.6331 10.6576 48.5842 10.9276 49.4556 11.4677C50.3271 12.0015 51.0236 12.8086 51.5453 13.8887C52.0669 14.9626 52.3277 16.3096 52.3277 17.9298C52.3277 19.507 52.073 20.8387 51.5637 21.9249C51.0604 23.005 50.3731 23.8243 49.5017 24.3828C48.6364 24.9351 47.6667 25.2112 46.5928 25.2112C45.8318 25.2112 45.1844 25.0855 44.6505 24.8338C44.1227 24.5822 43.6901 24.2662 43.3525 23.8856C43.015 23.499 42.7573 23.1094 42.5793 22.7166H42.4043V24.9811H38.5381ZM42.3768 17.9114C42.3768 18.7522 42.4934 19.4855 42.7266 20.1114C42.9597 20.7374 43.2973 21.2253 43.7391 21.5752C44.181 21.9188 44.7179 22.0906 45.3501 22.0906C45.9883 22.0906 46.5284 21.9158 46.9703 21.5659C47.4121 21.21 47.7466 20.7191 47.9736 20.0931C48.2068 19.461 48.3234 18.7337 48.3234 17.9114C48.3234 17.0952 48.2099 16.3771 47.9828 15.7574C47.7558 15.1375 47.4213 14.6527 46.9794 14.3029C46.5376 13.9531 45.9945 13.7782 45.3501 13.7782C44.7118 13.7782 44.1718 13.9469 43.7299 14.2845C43.2942 14.622 42.9597 15.1007 42.7266 15.7205C42.4934 16.3403 42.3768 17.0706 42.3768 17.9114Z" fill="#C6C9D5"/>
<path fill-rule="evenodd" clip-rule="evenodd" d="M16.1434 11.6384L20.3854 15.8804L16.3463 19.9193L12.1043 15.6774L16.1434 11.6384ZM11.7941 7.28917L9.13462 4.62962C8.98291 4.47792 8.98291 4.23195 9.13462 4.08025L12.9345 0.280404C13.0862 0.1287 13.3321 0.1287 13.4838 0.280404L26.4742 13.2708C27.9155 14.712 27.9155 17.0487 26.4742 18.4899L20.6956 24.2685L23.3551 26.9281C23.5068 27.0798 23.5068 27.3257 23.3551 27.4775L19.5553 31.2774C19.4035 31.429 19.1576 31.429 19.0059 31.2774L6.01547 18.2869C4.57427 16.8457 4.57427 14.5091 6.01547 13.0679L11.7941 7.28917Z" fill="#C6C9D5"/>
</svg>
