<svg width="72" height="72" viewBox="0 0 72 72" fill="none" xmlns="http://www.w3.org/2000/svg">
<g clip-path="url(#clip0_1082_16828)">
<path d="M35.9201 72C34.0901 72 32.3381 71.08 31.1121 69.475C30.3551 68.483 28.9611 67.843 27.5611 67.843C26.9293 67.8355 26.3046 67.9773 25.7381 68.257C24.7631 68.755 23.7581 69.007 22.7481 69.007C19.9521 69.008 17.6661 67.034 17.0601 64.095C16.6761 62.235 14.7371 60.665 12.8271 60.665H12.7451C12.6854 60.6666 12.6257 60.6676 12.5661 60.668C10.5931 60.668 8.82706 59.855 7.72106 58.438C6.60906 57.013 6.24806 55.086 6.73306 53.149C7.19706 51.294 6.07606 48.976 4.33506 48.189C2.49106 47.355 1.19806 45.851 0.787063 44.065C0.377063 42.278 0.884063 40.362 2.17706 38.807C3.40006 37.337 3.39706 34.763 2.16906 33.297C0.869063 31.745 0.357063 29.83 0.763063 28.042C1.16806 26.255 2.45506 24.748 4.29606 23.909C6.03606 23.115 7.15006 20.794 6.68006 18.94C6.18806 17.004 6.54406 15.072 7.65606 13.643C8.76206 12.221 10.5321 11.405 12.5111 11.405C12.5631 11.405 12.6161 11.405 12.6691 11.407H12.7381C14.6541 11.407 16.5921 9.83 16.9711 7.963C17.5711 5.013 19.8581 3.032 22.6631 3.032C23.6671 3.032 24.6671 3.281 25.6371 3.772C26.1651 4.04 26.7911 4.182 27.4491 4.182C28.8541 4.182 30.2511 3.537 31.0071 2.54C32.2331 0.926 33.9901 0 35.8251 0C37.6551 0 39.4071 0.92 40.6331 2.525C41.4021 3.531 42.7631 4.157 44.1831 4.157C44.8471 4.157 45.4771 4.014 46.0071 3.742C46.9811 3.244 47.9881 2.992 48.9981 2.992C51.7931 2.992 54.0781 4.966 54.6861 7.905C55.0701 9.764 57.0081 11.335 58.9191 11.335L59.0011 11.334L59.1801 11.332C61.1531 11.332 62.9201 12.145 64.0251 13.562C65.1371 14.987 65.4971 16.914 65.0121 18.85C64.5481 20.704 65.6691 23.023 67.4121 23.81C69.2541 24.645 70.5471 26.147 70.9581 27.933C71.3681 29.72 70.8621 31.636 69.5681 33.191C68.3451 34.661 68.3481 37.235 69.5771 38.702C70.8751 40.253 71.3871 42.168 70.9821 43.956C70.5771 45.744 69.2891 47.25 67.4491 48.09C65.7091 48.883 64.5961 51.204 65.0661 53.058C65.5561 54.996 65.2011 56.928 64.0891 58.356C62.9821 59.778 61.2121 60.594 59.2311 60.594L59.0771 60.593L59.0061 60.592C57.0911 60.592 55.1521 62.169 54.7731 64.035C54.1731 66.985 51.8871 68.966 49.0831 68.966C48.0791 68.966 47.0771 68.716 46.1071 68.224C45.5441 67.9487 44.9246 67.809 44.2981 67.816C42.8931 67.816 41.4941 68.462 40.7371 69.46C39.5121 71.074 37.7571 72 35.9201 72Z" fill="white"/>
<path d="M63.102 53.5571C63.816 56.3731 62.024 58.6271 59.12 58.5671C56.216 58.5061 53.366 60.7851 52.788 63.6321C52.21 66.4781 49.617 67.7321 47.026 66.4171C44.436 65.1031 40.88 65.9211 39.124 68.2341C37.368 70.5481 34.489 70.5531 32.725 68.2441C30.961 65.9361 27.402 65.1291 24.817 66.4521C22.23 67.7741 19.633 66.5301 19.047 63.6861C18.459 60.8401 15.602 58.5701 12.698 58.6391C9.79401 58.7091 7.99601 56.4591 8.70101 53.6411C9.40601 50.8241 7.81801 47.5381 5.17101 46.3411C2.52401 45.1441 1.87901 42.3371 3.73701 40.1051C5.59501 37.8711 5.59001 34.2221 3.72501 31.9951C1.85901 29.7681 2.49501 26.9601 5.13801 25.7551C7.78201 24.5491 9.36001 21.2591 8.64601 18.4441C7.93201 15.6281 9.72401 13.3741 12.628 13.4341C15.532 13.4941 18.381 11.2141 18.959 8.36809C19.538 5.52109 22.131 4.26809 24.721 5.58209C27.311 6.89709 30.868 6.08009 32.624 3.76609C34.38 1.45209 37.26 1.44809 39.023 3.75609C40.787 6.06509 44.345 6.87009 46.931 5.54809C49.518 4.22509 52.114 5.47009 52.701 8.31509C53.289 11.1601 56.146 13.4311 59.051 13.3611C61.954 13.2911 63.753 15.5411 63.047 18.3581C62.342 21.1751 63.93 24.4611 66.577 25.6581C69.224 26.8561 69.869 29.6621 68.011 31.8961C66.153 34.1281 66.158 37.7761 68.024 40.0051C69.888 42.2311 69.252 45.0401 66.609 46.2451C63.966 47.4521 62.389 50.7411 63.102 53.5571Z" fill="black"/>
<path d="M67.19 30.6158C67.595 29.9868 67.743 29.3228 67.601 28.7058C67.431 27.9668 66.86 27.3428 65.993 26.9508C62.743 25.4808 60.805 21.4718 61.672 18.0138C61.902 17.0898 61.769 16.2548 61.295 15.6628C60.82 15.0698 60.036 14.7568 59.085 14.7798C55.52 14.8648 52.034 12.0938 51.313 8.60183C50.995 7.06383 49.9 6.23183 48.523 6.48183C48.1936 6.54513 47.8752 6.6563 47.578 6.81183C46.953 7.12939 46.2849 7.35377 45.595 7.47783C42.7 8.00483 39.606 6.85583 37.896 4.61783C37.221 3.73483 36.33 3.31983 35.451 3.48083C34.821 3.59583 34.236 3.99083 33.755 4.62383C32.641 6.09283 30.882 7.13883 28.931 7.49383C27.234 7.80383 25.511 7.57383 24.081 6.84783C23.449 6.52783 22.815 6.41283 22.247 6.51583C21.282 6.69183 20.591 7.46983 20.351 8.64983C19.738 11.6658 17.131 14.1698 14.011 14.7388C13.5453 14.8241 13.0723 14.8623 12.599 14.8528C12.3564 14.8469 12.1139 14.8654 11.875 14.9078C11.165 15.0378 10.609 15.3848 10.27 15.9138C9.89999 16.4898 9.81099 17.2638 10.022 18.0938C10.899 21.5508 8.97199 25.5658 5.72799 27.0458C4.86199 27.4408 4.29299 28.0658 4.12599 28.8058C3.95799 29.5458 4.20199 30.3548 4.81299 31.0838C7.10299 33.8178 7.10899 38.2708 4.82799 41.0128C4.47899 41.4328 4.25599 41.8768 4.15599 42.3198C12.306 37.3998 22.992 33.4028 35.002 31.2128C46.76 29.0698 57.942 28.9978 67.19 30.6158Z" fill="url(#paint0_linear_1082_16828)"/>
<path d="M5.75594 45.0478C9.00494 46.5178 10.9439 50.5268 10.0779 53.9858C9.84794 54.9088 9.98094 55.7438 10.4549 56.3358C10.9289 56.9288 11.7139 57.2428 12.6649 57.2208C16.2299 57.1348 19.7149 59.9068 20.4369 63.3988C20.7539 64.9378 21.8489 65.7688 23.2269 65.5178C23.5369 65.4608 23.8549 65.3498 24.1709 65.1888C24.7964 64.8706 25.4652 64.6458 26.1559 64.5218C29.0499 63.9948 32.1429 65.1438 33.8529 67.3818C34.5279 68.2648 35.4189 68.6798 36.2979 68.5188C36.9279 68.4048 37.5139 68.0088 37.9949 67.3758C39.1099 65.9068 40.8679 64.8608 42.8209 64.5048C44.5159 64.1948 46.2379 64.4248 47.6699 65.1518C48.3009 65.4718 48.9349 65.5868 49.5019 65.4838C50.4669 65.3078 51.1589 64.5288 51.3989 63.3488C52.0109 60.3328 54.6189 57.8308 57.7379 57.2618C58.2036 57.1766 58.6766 57.1385 59.1499 57.1478C59.4019 57.1518 59.6459 57.1338 59.8739 57.0928C60.5839 56.9628 61.1399 56.6148 61.4799 56.0868C61.8499 55.5098 61.9379 54.7348 61.7279 53.9048C60.8519 50.4488 62.7779 46.4338 66.0219 44.9548C66.8869 44.5598 67.4559 43.9348 67.6239 43.1948C67.7919 42.4548 67.5479 41.6448 66.9369 40.9148C64.6469 38.1808 64.6409 33.7268 66.9209 30.9878C67.0229 30.8658 67.1109 30.7408 67.1909 30.6148C57.9419 28.9968 46.7609 29.0698 35.0019 31.2128C22.9919 33.4028 12.3059 37.3998 4.15694 42.3198C4.08134 42.6394 4.07861 42.972 4.14894 43.2928C4.31894 44.0328 4.88894 44.6568 5.75594 45.0478Z" fill="url(#paint1_linear_1082_16828)"/>
<path d="M61.531 39.4042C63.416 25.2362 53.458 12.2212 39.289 10.3362C25.12 8.45018 12.105 18.4082 10.22 32.5772C8.33499 46.7472 18.293 59.7612 32.462 61.6472C46.632 63.5312 59.646 53.5732 61.531 39.4042Z" fill="black"/>
<path d="M34.2539 60.767C34.2145 60.7645 34.176 60.7543 34.1406 60.7369C34.1051 60.7195 34.0734 60.6954 34.0473 60.6657C33.9946 60.6059 33.9679 60.5276 33.9729 60.448C33.978 60.3685 34.0144 60.2942 34.0742 60.2415C34.134 60.1888 34.2124 60.162 34.2919 60.167C34.9197 60.2077 35.5489 60.2241 36.1779 60.216C36.2575 60.215 36.3342 60.2456 36.3912 60.3011C36.4482 60.3566 36.4809 60.4325 36.4819 60.512C36.483 60.5916 36.4524 60.6683 36.3969 60.7253C36.3414 60.7823 36.2655 60.815 36.1859 60.816L35.8719 60.819C35.3279 60.819 34.7879 60.801 34.2539 60.767ZM37.7899 60.447C37.7862 60.4077 37.7903 60.368 37.802 60.3302C37.8137 60.2925 37.8327 60.2574 37.8579 60.227C37.8832 60.1966 37.9143 60.1715 37.9493 60.1532C37.9843 60.1348 38.0225 60.1235 38.0619 60.12C38.6885 60.0641 39.3126 59.9837 39.9329 59.879C40.0116 59.8658 40.0922 59.8843 40.1572 59.9305C40.2222 59.9767 40.2662 60.0469 40.2794 60.1255C40.2927 60.2042 40.2742 60.2849 40.2279 60.3498C40.1817 60.4148 40.1116 60.4588 40.0329 60.472C39.3884 60.5802 38.7399 60.663 38.0889 60.72C38.0139 60.7199 37.9417 60.6919 37.8863 60.6414C37.8308 60.5909 37.7971 60.5217 37.7899 60.447ZM32.3299 60.568C31.692 60.4766 31.0579 60.3605 30.4289 60.22C30.3511 60.2027 30.2833 60.1551 30.2406 60.0878C30.1978 60.0204 30.1835 59.9389 30.2009 59.861C30.2183 59.7832 30.2659 59.7154 30.3332 59.6727C30.4005 59.6299 30.4821 59.6157 30.5599 59.633C31.1736 59.7706 31.7924 59.884 32.4149 59.973C32.4901 59.9883 32.5565 60.0317 32.6008 60.0943C32.645 60.157 32.6637 60.2341 32.653 60.3101C32.6422 60.386 32.6029 60.455 32.5431 60.5029C32.4832 60.5509 32.4064 60.5741 32.3299 60.568ZM41.5609 59.857C41.5512 59.8187 41.5492 59.7788 41.5549 59.7397C41.5607 59.7005 41.5741 59.6629 41.5945 59.629C41.6148 59.595 41.6417 59.5655 41.6735 59.542C41.7053 59.5185 41.7415 59.5015 41.7799 59.492C42.3929 59.339 42.9969 59.162 43.5899 58.962C43.6642 58.9415 43.7435 58.9502 43.8116 58.9863C43.8796 59.0225 43.9312 59.0834 43.9557 59.1565C43.9801 59.2295 43.9757 59.3092 43.9432 59.3791C43.9106 59.449 43.8526 59.5037 43.7809 59.532C43.1729 59.736 42.5539 59.918 41.9259 60.075C41.8877 60.0846 41.848 60.0866 41.809 60.0808C41.77 60.0751 41.7326 60.0617 41.6988 60.0414C41.665 60.0212 41.6355 59.9945 41.612 59.9628C41.5885 59.9312 41.5705 59.8952 41.5609 59.857ZM28.5599 59.724C27.9399 59.534 27.3309 59.319 26.7339 59.083C26.6597 59.0537 26.6001 58.9961 26.5683 58.9229C26.5365 58.8497 26.5351 58.7668 26.5644 58.6925C26.5937 58.6183 26.6513 58.5587 26.7246 58.5269C26.7978 58.4951 26.8807 58.4937 26.9549 58.523C27.5379 58.754 28.1319 58.963 28.7369 59.149C28.7747 59.1607 28.8098 59.1796 28.8402 59.2048C28.8706 59.23 28.8958 59.2609 28.9143 59.2958C28.9328 59.3307 28.9442 59.3689 28.9479 59.4083C28.9516 59.4476 28.9475 59.4873 28.9359 59.525C28.9243 59.5628 28.9053 59.5979 28.8802 59.6283C28.855 59.6588 28.824 59.6839 28.7891 59.7024C28.7542 59.7209 28.716 59.7323 28.6767 59.736C28.6373 59.7397 28.5977 59.7357 28.5599 59.724ZM45.1929 58.687C45.1774 58.6508 45.1692 58.6118 45.1687 58.5724C45.1683 58.533 45.1756 58.4939 45.1903 58.4573C45.2049 58.4207 45.2267 58.3874 45.2542 58.3592C45.2818 58.331 45.3147 58.3085 45.3509 58.293C45.9292 58.0459 46.4979 57.777 47.0559 57.487C47.1265 57.4502 47.2088 57.4428 47.2847 57.4667C47.3607 57.4905 47.424 57.5435 47.4609 57.614C47.4978 57.6846 47.5051 57.7669 47.4813 57.8428C47.4575 57.9188 47.4045 57.9822 47.3339 58.019C46.7639 58.317 46.1819 58.592 45.5869 58.846C45.5136 58.877 45.4309 58.8777 45.3571 58.8479C45.2832 58.8181 45.2242 58.7603 45.1929 58.687ZM24.9639 58.299C24.3845 58.0154 23.8164 57.7092 23.2609 57.381C23.1922 57.3405 23.1425 57.2743 23.1226 57.197C23.1027 57.1197 23.1143 57.0377 23.1549 56.969C23.1955 56.9003 23.2617 56.8506 23.339 56.8307C23.4162 56.8108 23.4982 56.8225 23.5669 56.863C24.1079 57.183 24.6619 57.482 25.2289 57.759C25.2644 57.7764 25.2961 57.8006 25.3222 57.8303C25.3483 57.8599 25.3683 57.8944 25.381 57.9318C25.3938 57.9692 25.3991 58.0087 25.3966 58.0481C25.3941 58.0875 25.3838 58.1261 25.3664 58.1615C25.349 58.197 25.3248 58.2287 25.2952 58.2548C25.2655 58.2809 25.231 58.3009 25.1936 58.3136C25.1563 58.3264 25.1167 58.3317 25.0773 58.3292C25.0379 58.3267 24.9994 58.3164 24.9639 58.299ZM48.5969 56.965C48.5758 56.9315 48.5616 56.8942 48.555 56.8551C48.5484 56.8161 48.5496 56.7761 48.5585 56.7375C48.5674 56.699 48.5839 56.6625 48.607 56.6303C48.63 56.5982 48.6592 56.5709 48.6929 56.55C49.2261 56.2166 49.7461 55.8627 50.2519 55.489C50.2837 55.4656 50.3198 55.4486 50.3581 55.4391C50.3964 55.4297 50.4363 55.4278 50.4753 55.4337C50.5144 55.4396 50.5519 55.4531 50.5857 55.4735C50.6195 55.4939 50.649 55.5208 50.6724 55.5525C50.6959 55.5843 50.7128 55.6204 50.7223 55.6587C50.7318 55.6971 50.7337 55.7369 50.7278 55.7759C50.7219 55.815 50.7083 55.8525 50.6879 55.8863C50.6675 55.9201 50.6407 55.9496 50.6089 55.973C50.0907 56.3556 49.5579 56.7182 49.0119 57.06C48.9785 57.0812 48.9412 57.0955 48.9022 57.1022C48.8632 57.1088 48.8232 57.1077 48.7846 57.0989C48.7461 57.0901 48.7096 57.0737 48.6774 57.0507C48.6452 57.0277 48.6178 56.9986 48.5969 56.965ZM21.6359 56.332C21.1077 55.9621 20.5939 55.5718 20.0959 55.162C20.0654 55.1369 20.0401 55.106 20.0215 55.0711C20.0029 55.0361 19.9914 54.9979 19.9876 54.9585C19.9838 54.9192 19.9878 54.8794 19.9993 54.8416C20.0109 54.8038 20.0298 54.7686 20.0549 54.738C20.0801 54.7075 20.111 54.6822 20.1459 54.6636C20.1808 54.6451 20.2191 54.6335 20.2584 54.6297C20.2978 54.6259 20.3375 54.6299 20.3754 54.6414C20.4132 54.653 20.4484 54.6719 20.4789 54.697C20.9649 55.097 21.4649 55.478 21.9809 55.84C22.0462 55.8858 22.0906 55.9556 22.1043 56.0341C22.1181 56.1125 22.1002 56.1933 22.0544 56.2585C22.0087 56.3238 21.9389 56.3682 21.8604 56.382C21.7819 56.3957 21.7012 56.3778 21.6359 56.332ZM51.6939 54.734C51.668 54.7043 51.6482 54.6697 51.6356 54.6322C51.6231 54.5948 51.6181 54.5552 51.6209 54.5158C51.6237 54.4764 51.6342 54.438 51.6519 54.4026C51.6696 54.3673 51.694 54.3359 51.7239 54.31C52.1999 53.898 52.6589 53.467 53.1009 53.02C53.157 52.9633 53.2334 52.9311 53.3131 52.9307C53.3929 52.9302 53.4697 52.9614 53.5264 53.0175C53.5832 53.0736 53.6153 53.15 53.6158 53.2298C53.6163 53.3096 53.585 53.3863 53.5289 53.443C53.0759 53.901 52.6049 54.342 52.1189 54.764C52.0891 54.7901 52.0544 54.8101 52.0169 54.8227C51.9794 54.8353 51.9397 54.8404 51.9002 54.8376C51.8607 54.8348 51.8221 54.8242 51.7867 54.8064C51.7513 54.7887 51.7198 54.7641 51.6939 54.734ZM18.6539 53.874C18.1891 53.4271 17.7421 52.9621 17.3139 52.48C17.2877 52.4505 17.2675 52.4161 17.2545 52.3787C17.2415 52.3414 17.2361 52.3018 17.2384 52.2624C17.2407 52.2229 17.2508 52.1843 17.268 52.1487C17.2853 52.1131 17.3094 52.0813 17.3389 52.055C17.3685 52.0288 17.4029 52.0086 17.4402 51.9956C17.4776 51.9827 17.5171 51.9772 17.5566 51.9795C17.5961 51.9818 17.6347 51.9919 17.6703 52.0092C17.7058 52.0264 17.7377 52.0505 17.7639 52.08C18.1819 52.551 18.6169 53.005 19.0699 53.442C19.1273 53.4972 19.1605 53.5729 19.1621 53.6525C19.1637 53.7321 19.1336 53.8091 19.0784 53.8665C19.0233 53.924 18.9475 53.9571 18.8679 53.9587C18.7883 53.9603 18.7113 53.9292 18.6539 53.874ZM54.4099 52.051C54.3797 52.0256 54.3548 51.9944 54.3367 51.9592C54.3185 51.9241 54.3075 51.8857 54.3043 51.8463C54.301 51.8069 54.3056 51.7673 54.3177 51.7296C54.3298 51.692 54.3493 51.6571 54.3749 51.627C54.7809 51.147 55.1679 50.651 55.5359 50.14C55.5823 50.0753 55.6525 50.0317 55.7311 50.0188C55.8097 50.0058 55.8902 50.0246 55.9549 50.071C56.0196 50.1174 56.0633 50.1877 56.0762 50.2662C56.0891 50.3448 56.0703 50.4253 56.0239 50.49C55.6472 51.0136 55.2502 51.5223 54.8339 52.015C54.8085 52.0453 54.7774 52.0703 54.7423 52.0885C54.7072 52.1068 54.6688 52.1179 54.6294 52.1212C54.59 52.1246 54.5503 52.1201 54.5127 52.108C54.475 52.096 54.4401 52.0766 54.4099 52.051ZM16.0869 50.986C15.6973 50.4727 15.3281 49.9443 14.9799 49.402C14.9432 49.3352 14.9333 49.257 14.952 49.1831C14.9707 49.1093 15.0168 49.0453 15.0809 49.004C15.1449 48.9628 15.2223 48.9474 15.2973 48.9609C15.3723 48.9745 15.4393 49.016 15.4849 49.077C15.8249 49.607 16.1849 50.122 16.5659 50.623C16.6117 50.6868 16.6307 50.766 16.6189 50.8436C16.6071 50.9212 16.5655 50.9911 16.5029 51.0385C16.4402 51.0858 16.3616 51.1069 16.2837 51.0971C16.2058 51.0873 16.1358 51.0474 16.0869 50.986ZM56.6799 48.98C56.6462 48.9595 56.6168 48.9326 56.5935 48.9007C56.5702 48.8688 56.5535 48.8327 56.5442 48.7943C56.5349 48.7559 56.5333 48.7161 56.5394 48.6771C56.5455 48.6381 56.5593 48.6007 56.5799 48.567C56.9059 48.03 57.2119 47.48 57.4969 46.917C57.5148 46.8818 57.5394 46.8505 57.5694 46.8248C57.5993 46.7991 57.6341 46.7796 57.6716 46.7674C57.7091 46.7551 57.7487 46.7504 57.788 46.7534C57.8274 46.7564 57.8657 46.7672 57.9009 46.785C57.9361 46.8029 57.9674 46.8275 57.9931 46.8575C58.0188 46.8874 58.0383 46.9222 58.0506 46.9597C58.0628 46.9972 58.0676 47.0368 58.0646 47.0761C58.0615 47.1155 58.0508 47.1538 58.0329 47.189C57.7419 47.7648 57.4283 48.3289 57.0929 48.88C57.0511 48.9478 56.9843 48.9962 56.907 49.015C56.8296 49.0337 56.748 49.0211 56.6799 48.98ZM13.9979 47.738C13.6928 47.1699 13.4099 46.5902 13.1499 46C13.1178 45.9271 13.116 45.8444 13.1449 45.7701C13.1738 45.6959 13.231 45.6361 13.3039 45.604C13.3769 45.5719 13.4595 45.5701 13.5338 45.599C13.6081 45.6279 13.6678 45.6851 13.6999 45.758C13.9549 46.335 14.2299 46.9 14.5279 47.452C14.5466 47.4868 14.5583 47.525 14.5623 47.5643C14.5662 47.6036 14.5624 47.6433 14.5511 47.6812C14.5397 47.719 14.521 47.7542 14.496 47.7848C14.471 47.8154 14.4402 47.8408 14.4054 47.8595C14.3351 47.8973 14.2527 47.9057 14.1763 47.8827C14.0999 47.8597 14.0357 47.8083 13.9979 47.738ZM58.4459 45.593C58.4094 45.5781 58.3761 45.5561 58.3481 45.5283C58.3201 45.5005 58.2978 45.4675 58.2826 45.4311C58.2673 45.3947 58.2594 45.3556 58.2593 45.3161C58.2592 45.2766 58.2669 45.2375 58.2819 45.201C58.5209 44.621 58.7369 44.029 58.9309 43.428C58.943 43.3905 58.9624 43.3557 58.9879 43.3256C59.0134 43.2955 59.0446 43.2708 59.0797 43.2527C59.1148 43.2347 59.1531 43.2238 59.1925 43.2206C59.2318 43.2174 59.2714 43.222 59.3089 43.234C59.3465 43.2461 59.3813 43.2655 59.4114 43.291C59.4414 43.3165 59.4662 43.3478 59.4842 43.3829C59.5022 43.418 59.5131 43.4563 59.5164 43.4956C59.5196 43.5349 59.515 43.5745 59.5029 43.612C59.3049 44.228 59.0829 44.835 58.8379 45.429C58.823 45.4656 58.801 45.4988 58.7732 45.5269C58.7454 45.5549 58.7124 45.5772 58.676 45.5924C58.6395 45.6076 58.6005 45.6155 58.561 45.6156C58.5215 45.6158 58.4824 45.6081 58.4459 45.593ZM12.4399 44.204C12.2268 43.5954 12.0376 42.9785 11.8729 42.355C11.8629 42.3168 11.8604 42.277 11.8658 42.2378C11.8711 42.1987 11.8841 42.161 11.9041 42.1269C11.924 42.0927 11.9504 42.0629 11.9819 42.039C12.0133 42.0151 12.0492 41.9976 12.0874 41.9875C12.1256 41.9775 12.1654 41.9751 12.2046 41.9804C12.2437 41.9858 12.2815 41.9988 12.3156 42.0187C12.3497 42.0386 12.3796 42.065 12.4035 42.0965C12.4274 42.128 12.4449 42.1638 12.4549 42.202C12.6149 42.812 12.7999 43.414 13.0069 44.005C13.02 44.0423 13.0256 44.0817 13.0234 44.1211C13.0212 44.1605 13.0113 44.1991 12.9942 44.2346C12.9772 44.2702 12.9532 44.3021 12.9238 44.3284C12.8944 44.3547 12.8601 44.375 12.8229 44.388C12.7857 44.4011 12.7462 44.4067 12.7069 44.4045C12.6675 44.4024 12.6289 44.3924 12.5933 44.3754C12.5577 44.3583 12.5259 44.3343 12.4996 44.305C12.4733 44.2756 12.453 44.2413 12.4399 44.204ZM59.6599 41.972C59.6215 41.963 59.5852 41.9464 59.5531 41.9233C59.5211 41.9002 59.4939 41.871 59.4732 41.8374C59.4525 41.8037 59.4386 41.7663 59.4324 41.7273C59.4262 41.6883 59.4277 41.6484 59.4369 41.61C59.5809 41.001 59.7019 40.384 59.7999 39.758C59.8122 39.6793 59.8554 39.6086 59.9198 39.5616C59.9842 39.5147 60.0646 39.4952 60.1434 39.5075C60.2222 39.5199 60.2928 39.563 60.3398 39.6274C60.3868 39.6918 60.4062 39.7723 60.3939 39.851C60.2939 40.491 60.1699 41.125 60.0219 41.748C60.013 41.7866 59.9965 41.823 59.9734 41.8551C59.9504 41.8873 59.9212 41.9145 59.8875 41.9354C59.8539 41.9562 59.8164 41.9701 59.7774 41.9764C59.7383 41.9827 59.6984 41.9812 59.6599 41.972ZM11.4529 40.468C11.3377 39.8338 11.2473 39.1953 11.1819 38.554C11.178 38.5148 11.1818 38.4751 11.1932 38.4373C11.2046 38.3995 11.2233 38.3644 11.2483 38.3338C11.2733 38.3033 11.304 38.2779 11.3388 38.2593C11.3735 38.2406 11.4117 38.229 11.4509 38.225C11.5302 38.2171 11.6094 38.2409 11.6711 38.2914C11.7328 38.3418 11.772 38.4147 11.7799 38.494C11.8439 39.123 11.9329 39.746 12.0449 40.361C12.0591 40.4395 12.0415 40.5205 11.996 40.586C11.9506 40.6515 11.8809 40.6963 11.8024 40.7105C11.7239 40.7247 11.643 40.7071 11.5774 40.6617C11.5119 40.6162 11.4671 40.5465 11.4529 40.468ZM60.2939 38.208C60.2546 38.205 60.2162 38.1942 60.181 38.1763C60.1458 38.1585 60.1145 38.1338 60.0889 38.1038C60.0632 38.0738 60.0438 38.039 60.0316 38.0015C60.0194 37.9639 60.0148 37.9244 60.0179 37.885C60.0975 36.8513 60.1115 35.8135 60.0599 34.778C60.0579 34.7386 60.0638 34.6992 60.077 34.6621C60.0903 34.6249 60.1107 34.5908 60.1372 34.5615C60.1636 34.5323 60.1956 34.5085 60.2313 34.4916C60.2669 34.4747 60.3055 34.465 60.3449 34.463C60.3843 34.4611 60.4237 34.4669 60.4609 34.4801C60.498 34.4934 60.5322 34.5138 60.5614 34.5403C60.5907 34.5668 60.6144 34.5987 60.6313 34.6344C60.6482 34.67 60.6579 34.7086 60.6599 34.748C60.713 35.8085 60.6986 36.8713 60.6169 37.93C60.6108 38.0096 60.5733 38.0834 60.5128 38.1354C60.4522 38.1873 60.3735 38.2141 60.2939 38.208ZM11.0599 36.625C11.0422 35.9806 11.0509 35.3357 11.0859 34.692C11.088 34.6526 11.0977 34.614 11.1147 34.5784C11.1316 34.5428 11.1554 34.5109 11.1847 34.4844C11.214 34.458 11.2483 34.4376 11.2854 34.4244C11.3226 34.4112 11.362 34.4055 11.4014 34.4075C11.4408 34.4096 11.4794 34.4193 11.515 34.4363C11.5507 34.4533 11.5826 34.4771 11.609 34.5064C11.6354 34.5357 11.6558 34.5699 11.669 34.607C11.6822 34.6442 11.688 34.6836 11.6859 34.723C11.6535 35.3515 11.6452 35.9809 11.6609 36.61C11.6628 36.6897 11.633 36.7669 11.5781 36.8246C11.5232 36.8823 11.4476 36.9159 11.3679 36.918H11.3609C11.2824 36.9183 11.2069 36.8878 11.1506 36.833C11.0943 36.7782 11.0617 36.7036 11.0599 36.625ZM59.8929 32.899C59.8132 32.2752 59.7091 31.6547 59.5809 31.039C59.5728 31.0003 59.5725 30.9603 59.5798 30.9215C59.5872 30.8826 59.6021 30.8455 59.6238 30.8124C59.6455 30.7793 59.6735 30.7508 59.7062 30.7285C59.7389 30.7062 59.7757 30.6906 59.8144 30.6825C59.8532 30.6745 59.8931 30.6741 59.932 30.6815C59.9709 30.6888 60.0079 30.7038 60.041 30.7254C60.0741 30.7471 60.1026 30.7751 60.1249 30.8078C60.1472 30.8405 60.1628 30.8773 60.1709 30.916C60.3009 31.543 60.4069 32.179 60.4899 32.823C60.5 32.9022 60.4782 32.9821 60.4294 33.0452C60.3805 33.1083 60.3086 33.1495 60.2294 33.1595C60.1502 33.1696 60.0703 33.1478 60.0072 33.099C59.9441 33.0501 59.903 32.9782 59.8929 32.899ZM11.5199 33.104C11.4408 33.0938 11.3689 33.0526 11.3201 32.9894C11.2714 32.9262 11.2497 32.8462 11.2599 32.767C11.3449 32.123 11.4529 31.487 11.5849 30.861C11.6012 30.7831 11.6478 30.7148 11.7145 30.6712C11.7812 30.6276 11.8624 30.6122 11.9404 30.6285C12.0184 30.6448 12.0867 30.6915 12.1303 30.7581C12.1739 30.8248 12.1892 30.9061 12.1729 30.984C12.0435 31.5997 11.9381 32.2202 11.8569 32.844C11.852 32.8833 11.8393 32.9212 11.8197 32.9555C11.8001 32.9899 11.7738 33.02 11.7425 33.0441C11.7112 33.0683 11.6754 33.086 11.6372 33.0963C11.599 33.1066 11.5591 33.1092 11.5199 33.104ZM59.1249 29.209C58.9488 28.6047 58.749 28.0076 58.5259 27.419C58.4977 27.3445 58.5002 27.2628 58.5329 27.1901C58.5656 27.1175 58.6259 27.0608 58.7004 27.0325C58.7749 27.0043 58.8576 27.0068 58.9303 27.0395C59.003 27.0723 59.0597 27.1325 59.0879 27.207C59.3159 27.807 59.5209 28.419 59.7019 29.04C59.713 29.0779 59.7165 29.1176 59.7123 29.1569C59.708 29.1961 59.6961 29.2341 59.6772 29.2688C59.6582 29.3034 59.6326 29.334 59.6019 29.3587C59.5711 29.3835 59.5358 29.4019 59.4979 29.413C59.46 29.4241 59.4203 29.4277 59.3811 29.4234C59.3418 29.4192 59.3038 29.4072 59.2692 29.3883C59.2345 29.3693 59.204 29.3438 59.1792 29.313C59.1545 29.2822 59.136 29.2469 59.1249 29.209ZM12.2599 29.359C12.2221 29.3479 12.1868 29.3294 12.1561 29.3046C12.1254 29.2799 12.0999 29.2493 12.0811 29.2146C12.0622 29.18 12.0504 29.142 12.0462 29.1027C12.0421 29.0635 12.0457 29.0239 12.0569 28.986C12.2399 28.365 12.4469 27.754 12.6749 27.154C12.7033 27.0795 12.7601 27.0193 12.8329 26.9867C12.8689 26.9705 12.9078 26.9616 12.9472 26.9605C12.9867 26.9593 13.026 26.966 13.0629 26.98C13.0998 26.9941 13.1336 27.0153 13.1623 27.0424C13.191 27.0695 13.2141 27.102 13.2303 27.138C13.2464 27.174 13.2553 27.2129 13.2565 27.2524C13.2576 27.2918 13.251 27.3311 13.2369 27.368C13.0127 27.956 12.8116 28.5524 12.6339 29.156C12.6228 29.194 12.6043 29.2294 12.5794 29.2601C12.5546 29.2909 12.5239 29.3165 12.4891 29.3353C12.4544 29.3542 12.4162 29.366 12.3769 29.3701C12.3376 29.3741 12.2978 29.3704 12.2599 29.359ZM57.7899 25.685C57.5218 25.1163 57.2316 24.5582 56.9199 24.012C56.8804 23.9428 56.87 23.8607 56.891 23.7838C56.912 23.7069 56.9627 23.6415 57.0319 23.602C57.1011 23.5625 57.1832 23.5521 57.2601 23.5731C57.337 23.5941 57.4024 23.6448 57.4419 23.714C57.7609 24.272 58.0579 24.844 58.3339 25.429C58.3632 25.5005 58.3639 25.5804 58.3359 25.6523C58.308 25.7243 58.2534 25.7827 58.1836 25.8156C58.1137 25.8484 58.0339 25.8532 57.9607 25.8289C57.8874 25.8046 57.8263 25.7531 57.7899 25.685ZM13.5779 25.775C13.5422 25.7582 13.5102 25.7345 13.4837 25.7053C13.4572 25.676 13.4367 25.6419 13.4234 25.6047C13.4101 25.5675 13.4043 25.5281 13.4063 25.4887C13.4083 25.4493 13.418 25.4107 13.4349 25.375C13.7119 24.79 14.0119 24.218 14.3319 23.66C14.3515 23.6258 14.3777 23.5958 14.409 23.5717C14.4402 23.5476 14.4759 23.5299 14.5139 23.5196C14.552 23.5093 14.5917 23.5066 14.6308 23.5117C14.67 23.5167 14.7077 23.5294 14.7419 23.549C14.7761 23.5687 14.8061 23.5948 14.8302 23.6261C14.8543 23.6573 14.872 23.693 14.8823 23.731C14.8926 23.7691 14.8953 23.8088 14.8903 23.848C14.8853 23.8871 14.8725 23.9248 14.8529 23.959C14.5397 24.5048 14.2479 25.0626 13.9779 25.631C13.9437 25.7029 13.8824 25.7583 13.8074 25.7851C13.7325 25.8119 13.6499 25.8089 13.5779 25.775ZM55.9219 22.412C55.5684 21.8917 55.1947 21.3854 54.8019 20.894C54.7772 20.8632 54.7589 20.8278 54.7479 20.7898C54.7369 20.7518 54.7334 20.7121 54.7378 20.6728C54.7422 20.6335 54.7542 20.5955 54.7733 20.5609C54.7924 20.5262 54.8181 20.4957 54.8489 20.471C54.8798 20.4463 54.9152 20.428 54.9532 20.417C54.9911 20.406 55.0309 20.4026 55.0701 20.4069C55.1094 20.4113 55.1475 20.4233 55.1821 20.4424C55.2167 20.4615 55.2472 20.4872 55.2719 20.518C55.6742 21.0217 56.0568 21.5408 56.4189 22.074C56.4411 22.1067 56.4567 22.1434 56.4647 22.182C56.4727 22.2206 56.473 22.2605 56.4656 22.2992C56.4583 22.338 56.4433 22.375 56.4216 22.4079C56.4 22.4409 56.3721 22.4693 56.3394 22.4915C56.3068 22.5137 56.2701 22.5293 56.2315 22.5373C56.1928 22.5453 56.153 22.5456 56.1142 22.5382C56.0754 22.5309 56.0385 22.5159 56.0055 22.4943C55.9725 22.4726 55.9441 22.4447 55.9219 22.412ZM15.4389 22.439C15.4061 22.4169 15.378 22.3885 15.3562 22.3555C15.3344 22.3225 15.3194 22.2855 15.312 22.2467C15.3045 22.2078 15.3048 22.1679 15.3129 22.1292C15.321 22.0904 15.3366 22.0537 15.3589 22.021C15.7237 21.4888 16.1083 20.9704 16.5119 20.467C16.5619 20.405 16.6345 20.3653 16.7137 20.3568C16.793 20.3482 16.8724 20.3715 16.9344 20.4215C16.9965 20.4715 17.0361 20.5441 17.0447 20.6234C17.0532 20.7026 17.0299 20.782 16.9799 20.844C16.5869 21.334 16.2119 21.84 15.8559 22.36C15.8337 22.3926 15.8053 22.4205 15.7724 22.4421C15.7394 22.4637 15.7025 22.4786 15.6638 22.4859C15.6251 22.4933 15.5853 22.4929 15.5467 22.4849C15.5081 22.4768 15.4715 22.4612 15.4389 22.439ZM53.5689 19.466C53.1389 19.006 52.6909 18.564 52.2269 18.139C52.168 18.0852 52.133 18.0102 52.1294 17.9305C52.1258 17.8508 52.1541 17.7729 52.2079 17.714C52.2618 17.6552 52.3368 17.6201 52.4165 17.6165C52.4962 17.6129 52.574 17.6412 52.6329 17.695C53.1089 18.131 53.5669 18.585 54.0069 19.056C54.0613 19.1142 54.0903 19.1917 54.0876 19.2713C54.0849 19.3509 54.0506 19.4262 53.9924 19.4805C53.9342 19.5349 53.8568 19.5639 53.7772 19.5612C53.6976 19.5585 53.6233 19.5242 53.5689 19.466ZM17.7929 19.433C17.7641 19.406 17.7409 19.3736 17.7246 19.3376C17.7083 19.3016 17.6993 19.2627 17.6981 19.2232C17.6969 19.1837 17.7035 19.1444 17.7176 19.1075C17.7316 19.0705 17.7528 19.0367 17.7799 19.008C18.2219 18.538 18.6799 18.086 19.1579 17.651C19.2174 17.6002 19.2943 17.5746 19.3723 17.5795C19.4504 17.5844 19.5234 17.6194 19.5761 17.6773C19.6287 17.7351 19.6568 17.8112 19.6543 17.8893C19.6519 17.9675 19.6191 18.0416 19.5629 18.096C19.0979 18.519 18.6489 18.961 18.2179 19.419C18.191 19.4479 18.1586 19.4712 18.1226 19.4876C18.0867 19.5039 18.0478 19.513 18.0083 19.5143C17.9688 19.5156 17.9295 19.5091 17.8925 19.4952C17.8555 19.4812 17.8217 19.4601 17.7929 19.433ZM50.7879 16.918C50.2924 16.5303 49.7821 16.162 49.2579 15.814C49.1915 15.77 49.1453 15.7014 49.1294 15.6233C49.1136 15.5452 49.1294 15.464 49.1734 15.3975C49.2174 15.3311 49.2861 15.2849 49.3642 15.269C49.4423 15.2532 49.5235 15.269 49.5899 15.313C50.1279 15.67 50.6499 16.048 51.1579 16.445C51.2206 16.4941 51.2613 16.5661 51.271 16.6451C51.2806 16.7242 51.2585 16.8038 51.2094 16.8665C51.1851 16.8976 51.1549 16.9236 51.1206 16.943C51.0863 16.9624 51.0485 16.9748 51.0093 16.9796C50.9303 16.9892 50.8506 16.9671 50.7879 16.918ZM20.5829 16.827C20.5586 16.7959 20.5407 16.7602 20.5302 16.7221C20.5197 16.684 20.5168 16.6442 20.5217 16.605C20.5266 16.5658 20.5393 16.5279 20.5589 16.4936C20.5785 16.4593 20.6046 16.4292 20.6359 16.405C21.1446 16.0093 21.6683 15.6334 22.2059 15.278C22.2724 15.234 22.3536 15.2182 22.4317 15.234C22.5098 15.2499 22.5784 15.2961 22.6224 15.3625C22.6664 15.429 22.6823 15.5102 22.6664 15.5883C22.6506 15.6664 22.6044 15.735 22.5379 15.779C22.0119 16.127 21.5009 16.494 21.0049 16.879C20.9738 16.9034 20.9382 16.9214 20.9002 16.932C20.8621 16.9426 20.8223 16.9455 20.7831 16.9407C20.7439 16.9359 20.706 16.9233 20.6717 16.9038C20.6373 16.8843 20.6072 16.8582 20.5829 16.827ZM47.6459 14.831C47.0979 14.525 46.5359 14.241 45.9619 13.977C45.9261 13.9606 45.8938 13.9372 45.867 13.9082C45.8402 13.8793 45.8193 13.8453 45.8056 13.8083C45.7919 13.7713 45.7857 13.732 45.7872 13.6926C45.7887 13.6531 45.7979 13.6144 45.8144 13.5785C45.8309 13.5427 45.8543 13.5104 45.8832 13.4836C45.9122 13.4568 45.9461 13.4359 45.9831 13.4223C46.0201 13.4086 46.0595 13.4023 46.0989 13.4038C46.1383 13.4053 46.1771 13.4146 46.2129 13.431C46.8009 13.701 47.3769 13.993 47.9389 14.306C48.0043 14.347 48.0515 14.4116 48.0707 14.4863C48.0898 14.5611 48.0796 14.6404 48.0419 14.7078C48.0043 14.7752 47.9422 14.8256 47.8685 14.8485C47.7948 14.8714 47.7151 14.8652 47.6459 14.831ZM23.7419 14.684C23.7226 14.6495 23.7104 14.6115 23.7058 14.5723C23.7013 14.533 23.7045 14.4932 23.7154 14.4552C23.7263 14.4172 23.7445 14.3817 23.7692 14.3508C23.7938 14.3199 23.8243 14.2941 23.8589 14.275C24.4224 13.9628 24.9978 13.6725 25.5839 13.405C25.6566 13.3719 25.7394 13.369 25.8143 13.3969C25.8891 13.4248 25.9498 13.4814 25.9829 13.554C26.0161 13.6267 26.019 13.7096 25.9911 13.7844C25.9631 13.8592 25.9066 13.9199 25.8339 13.953C25.2599 14.214 24.6989 14.498 24.1499 14.802C24.0801 14.84 23.9981 14.849 23.9217 14.8269C23.8453 14.8048 23.7807 14.7535 23.7419 14.684ZM44.2169 13.257C43.6261 13.0403 43.0269 12.8468 42.4209 12.677C42.3829 12.6663 42.3474 12.6482 42.3163 12.6238C42.2853 12.5994 42.2594 12.5691 42.2401 12.5346C42.2208 12.5002 42.2084 12.4622 42.2038 12.423C42.1991 12.3838 42.2022 12.344 42.2129 12.306C42.2236 12.268 42.2417 12.2325 42.2661 12.2014C42.2906 12.1704 42.3209 12.1445 42.3553 12.1252C42.3898 12.1059 42.4277 12.0935 42.4669 12.0889C42.5061 12.0842 42.5459 12.0873 42.5839 12.098C43.2079 12.273 43.8209 12.472 44.4239 12.693C44.4987 12.7205 44.5595 12.7765 44.593 12.8488C44.6265 12.9211 44.6299 13.0037 44.6024 13.0785C44.575 13.1533 44.5189 13.2141 44.4466 13.2476C44.3743 13.2811 44.2917 13.2845 44.2169 13.257ZM27.1929 13.059C27.1794 13.022 27.1732 12.9827 27.1749 12.9433C27.1766 12.9039 27.186 12.8652 27.2026 12.8294C27.2192 12.7937 27.2427 12.7615 27.2718 12.7349C27.3008 12.7082 27.3349 12.6875 27.3719 12.674C27.9749 12.454 28.5889 12.257 29.2129 12.084C29.2897 12.0627 29.3718 12.0727 29.4412 12.1119C29.5106 12.1511 29.5616 12.2163 29.5829 12.293C29.6043 12.3698 29.5942 12.4519 29.555 12.5213C29.5159 12.5907 29.4507 12.6417 29.3739 12.663C28.7649 12.832 28.1659 13.024 27.5779 13.238C27.5409 13.2516 27.5015 13.2577 27.4621 13.2561C27.4227 13.2544 27.3841 13.245 27.3483 13.2284C27.3125 13.2117 27.2804 13.1882 27.2538 13.1592C27.2271 13.1301 27.2064 13.0961 27.1929 13.059ZM40.5869 12.24C39.9697 12.1177 39.3479 12.02 38.7229 11.947C38.6837 11.9424 38.6458 11.9302 38.6114 11.9109C38.5769 11.8917 38.5466 11.8658 38.5221 11.8349C38.4976 11.8039 38.4795 11.7684 38.4687 11.7304C38.458 11.6925 38.4548 11.6527 38.4594 11.6135C38.464 11.5743 38.4763 11.5364 38.4955 11.502C38.5148 11.4675 38.5406 11.4372 38.5716 11.4127C38.6026 11.3882 38.638 11.3701 38.676 11.3594C38.714 11.3486 38.7537 11.3454 38.7929 11.35C39.4333 11.4248 40.0705 11.5249 40.7029 11.65C40.7812 11.6654 40.8501 11.7112 40.8945 11.7774C40.939 11.8436 40.9553 11.9248 40.9399 12.003C40.9245 12.0813 40.8787 12.1502 40.8125 12.1946C40.7463 12.2391 40.6652 12.2554 40.5869 12.24ZM30.8569 11.992C30.8492 11.9532 30.8493 11.9133 30.8571 11.8745C30.8649 11.8357 30.8803 11.7988 30.9024 11.766C30.9246 11.7332 30.953 11.7051 30.986 11.6833C31.019 11.6615 31.056 11.6465 31.0949 11.639C31.7275 11.5156 32.3647 11.4169 33.0049 11.343C33.0842 11.3338 33.164 11.3563 33.2266 11.4059C33.2892 11.4554 33.3296 11.5277 33.3389 11.607C33.3482 11.6863 33.3256 11.7661 33.2761 11.8287C33.2266 11.8913 33.1542 11.9317 33.0749 11.941C32.4449 12.013 31.8239 12.11 31.2099 12.229C31.1712 12.2367 31.1313 12.2367 31.0925 12.229C31.0538 12.2212 31.017 12.2059 30.9842 12.1839C30.9514 12.1618 30.9233 12.1336 30.9014 12.1006C30.8796 12.0677 30.8645 12.0308 30.8569 11.992ZM36.8419 11.8C36.2132 11.7754 35.5837 11.7748 34.9549 11.798C34.9155 11.7995 34.8762 11.7931 34.8393 11.7794C34.8023 11.7657 34.7684 11.7448 34.7396 11.7179C34.7107 11.6911 34.6874 11.6588 34.671 11.623C34.6546 11.5872 34.6454 11.5484 34.6439 11.509C34.6425 11.4696 34.6488 11.4303 34.6625 11.3934C34.6763 11.3564 34.6972 11.3226 34.724 11.2937C34.7508 11.2648 34.7831 11.2415 34.8189 11.2251C34.8548 11.2087 34.8935 11.1995 34.9329 11.198C35.577 11.1736 36.2219 11.1742 36.8659 11.2C36.9053 11.2008 36.9442 11.2094 36.9803 11.2252C37.0164 11.241 37.049 11.2637 37.0763 11.2921C37.1036 11.3206 37.125 11.3541 37.1394 11.3908C37.1537 11.4275 37.1607 11.4666 37.1599 11.506C37.1591 11.5454 37.1506 11.5843 37.1348 11.6204C37.119 11.6565 37.0962 11.6891 37.0678 11.7164C37.0394 11.7437 37.0059 11.7651 36.9692 11.7795C36.9325 11.7938 36.8933 11.8008 36.8539 11.8H36.8419Z" fill="white"/>
<path d="M58.872 37.8422C59.892 25.1382 50.42 14.0122 37.716 12.9932C25.0119 11.9732 13.887 21.4462 12.868 34.1492C11.848 46.8532 21.3199 57.9792 34.0239 58.9982C46.728 60.0182 57.853 50.5452 58.872 37.8422Z" fill="white"/>
<path d="M13.6211 36.0001C13.6211 23.7101 23.5841 13.7471 35.8741 13.7471C48.1641 13.7471 58.1261 23.7101 58.1271 35.9991C58.1271 48.2891 48.1631 58.2521 35.8741 58.2521C23.5841 58.2521 13.6211 48.2901 13.6211 36.0001ZM20.5751 20.7001C18.5625 22.7069 16.9664 25.0917 15.8785 27.7174C14.7907 30.3431 14.2325 33.1579 14.2361 36.0001C14.2325 38.842 14.7906 41.6566 15.8783 44.2821C16.966 46.9076 18.5618 49.2923 20.5741 51.2991C22.581 53.3111 24.9657 54.9067 27.5913 55.9942C30.2168 57.0817 33.0313 57.6397 35.8731 57.6361C38.7149 57.6398 41.5295 57.0819 44.155 55.9943C46.7805 54.9068 49.1652 53.3112 51.1721 51.2991C53.1843 49.2921 54.78 46.9072 55.8675 44.2815C56.955 41.6558 57.5129 38.8411 57.5091 35.9991C57.5129 33.1573 56.9552 30.3428 55.8678 27.7173C54.7805 25.0918 53.185 22.707 51.1731 20.7001C49.1661 18.6878 46.7813 17.092 44.1556 16.0045C41.5299 14.917 38.7151 14.3592 35.8731 14.3631C33.0316 14.3596 30.2174 14.9177 27.5923 16.0052C24.9671 17.0927 22.5817 18.6882 20.5751 20.7001Z" fill="black"/>
<path d="M35.82 3.44678C36.578 3.44678 37.313 3.86278 37.89 4.61678C39.297 6.45878 41.708 7.60278 44.18 7.60278C45.3576 7.60939 46.5201 7.33804 47.573 6.81078C48.057 6.56278 48.536 6.43778 48.995 6.43778C50.163 6.43778 51.027 7.24678 51.307 8.60178C52.023 12.0668 55.364 14.7818 58.915 14.7818C59.002 14.7793 59.089 14.7783 59.176 14.7788C60.094 14.7788 60.85 15.0988 61.305 15.6818C61.765 16.2728 61.895 17.1018 61.665 18.0118C60.8 21.4718 62.739 25.4808 65.987 26.9518C66.854 27.3428 67.426 27.9668 67.595 28.7058C67.766 29.4458 67.525 30.2558 66.915 30.9878C64.635 33.7268 64.641 38.1798 66.931 40.9148C67.541 41.6448 67.786 42.4548 67.618 43.1948C67.45 43.9348 66.881 44.5588 66.016 44.9538C62.772 46.4338 60.846 50.4498 61.722 53.9048C61.953 54.8178 61.827 55.6468 61.366 56.2388C60.91 56.8258 60.151 57.1488 59.228 57.1488L59.144 57.1468L59.002 57.1458C55.442 57.1458 52.099 59.8698 51.392 63.3488C51.117 64.7088 50.252 65.5208 49.079 65.5208C48.623 65.5208 48.147 65.3968 47.664 65.1508C46.6175 64.6308 45.4636 64.3637 44.295 64.3708C41.813 64.3708 39.396 65.5218 37.989 67.3758C37.413 68.1358 36.677 68.5538 35.917 68.5538C35.16 68.5538 34.425 68.1378 33.847 67.3828C32.44 65.5408 30.03 64.3968 27.557 64.3968C26.3798 64.3903 25.2176 64.6616 24.165 65.1888C23.681 65.4358 23.203 65.5618 22.743 65.5618C21.575 65.5618 20.711 64.7538 20.431 63.3988C19.716 59.9328 16.374 57.2188 12.823 57.2188C12.768 57.2188 12.713 57.2188 12.659 57.2208H12.562C11.645 57.2208 10.889 56.9008 10.434 56.3178C9.97202 55.7268 9.84402 54.8978 10.072 53.9858C10.938 50.5258 8.99902 46.5178 5.75002 45.0488C4.88402 44.6568 4.31302 44.0328 4.14302 43.2928C3.97302 42.5528 4.21402 41.7428 4.82302 41.0128C7.10302 38.2718 7.09602 33.8178 4.80802 31.0848C4.19702 30.3548 3.95202 29.5448 4.12002 28.8048C4.28802 28.0648 4.85602 27.4408 5.72202 27.0458C8.96602 25.5668 10.892 21.5508 10.016 18.0958C9.78502 17.1818 9.91102 16.3538 10.373 15.7598C10.828 15.1748 11.586 14.8528 12.508 14.8528H12.593L12.735 14.8548C16.295 14.8548 19.639 12.1298 20.345 8.64978C20.621 7.28978 21.487 6.47978 22.659 6.47978C23.116 6.47978 23.592 6.60278 24.074 6.84778C25.1208 7.36835 26.275 7.63618 27.444 7.62978C29.927 7.62978 32.343 6.47778 33.749 4.62378C34.325 3.86378 35.06 3.44678 35.82 3.44678ZM35.82 4.05478C35.255 4.05478 34.692 4.38678 34.234 4.99078C32.714 6.99378 30.113 8.23678 27.444 8.23678C26.1798 8.24326 24.9317 7.95316 23.8 7.38978C23.404 7.18878 23.02 7.08678 22.66 7.08678C21.786 7.08678 21.16 7.70078 20.942 8.77078C20.18 12.5228 16.575 15.4628 12.736 15.4628C12.685 15.4628 12.633 15.4628 12.582 15.4608H12.502C11.779 15.4608 11.191 15.6998 10.853 16.1338C10.51 16.5738 10.423 17.2188 10.606 17.9458C11.552 21.6728 9.47402 26.0038 5.97502 27.5988C5.28602 27.9128 4.83902 28.3888 4.71402 28.9388C4.58902 29.4898 4.78802 30.1128 5.27402 30.6938C7.74402 33.6418 7.75002 38.4438 5.29102 41.4008C4.80702 41.9828 4.61002 42.6058 4.73602 43.1558C4.86202 43.7058 5.31202 44.1818 6.00202 44.4938C9.50602 46.0778 11.597 50.4018 10.663 54.1338C10.481 54.8598 10.57 55.5038 10.914 55.9438C11.251 56.3748 11.837 56.6138 12.564 56.6138L12.647 56.6118L12.823 56.6098C16.653 56.6098 20.256 59.5378 21.028 63.2758C21.248 64.3418 21.873 64.9538 22.744 64.9538C23.106 64.9538 23.491 64.8508 23.889 64.6468C24.987 64.0848 26.256 63.7878 27.559 63.7878C30.216 63.7878 32.811 65.0238 34.332 67.0128C34.791 67.6148 35.354 67.9448 35.918 67.9448C36.483 67.9448 37.047 67.6128 37.505 67.0088C39.025 65.0058 41.627 63.7618 44.296 63.7618C45.5603 63.7555 46.8084 64.0459 47.94 64.6098C48.336 64.8098 48.72 64.9128 49.08 64.9128C49.954 64.9128 50.58 64.2988 50.798 63.2278C51.56 59.4768 55.164 56.5378 59.003 56.5378L59.156 56.5388H59.235C59.96 56.5388 60.549 56.3008 60.887 55.8658C61.23 55.4258 61.317 54.7818 61.133 54.0558C60.189 50.3278 62.266 45.9968 65.764 44.4008C66.454 44.0868 66.901 43.6108 67.026 43.0608C67.151 42.5098 66.952 41.8858 66.466 41.3048C63.996 38.3568 63.989 33.5528 66.449 30.5988C66.934 30.0158 67.131 29.3928 67.004 28.8428C66.878 28.2928 66.428 27.8178 65.738 27.5048C62.234 25.9198 60.144 21.5948 61.077 17.8648C61.259 17.1388 61.17 16.4968 60.827 16.0558C60.49 15.6238 59.904 15.3858 59.177 15.3858L59.089 15.3868C59.0314 15.3883 58.9737 15.389 58.916 15.3888C55.088 15.3888 51.485 12.4618 50.713 8.72478C50.493 7.65778 49.867 7.04478 48.996 7.04478C48.634 7.04478 48.249 7.14878 47.851 7.35178C46.7123 7.92293 45.4549 8.21724 44.181 8.21078C41.523 8.21078 38.928 6.97478 37.408 4.98578C36.948 4.38578 36.385 4.05478 35.822 4.05478H35.82Z" fill="white"/>
<path d="M29.1201 22.7432C28.6581 22.8302 28.4041 22.7102 28.4041 22.2292C28.4041 21.3392 29.1071 20.3592 30.7581 20.0512C31.0661 19.9932 31.8811 20.0142 32.5631 19.8872C32.8911 19.8252 33.1851 19.7302 33.3731 19.5752C33.2051 19.9072 33.1121 20.1122 32.7971 21.7552C33.0921 21.4732 33.4331 21.2152 33.7531 21.1552C34.1141 21.0872 34.5231 21.3992 34.5231 21.8472C34.5231 21.9002 34.5231 21.9532 34.5091 22.0102L34.2351 23.3382C34.2157 23.4101 34.2043 23.4838 34.2011 23.5582C34.2011 23.7052 34.2751 23.7912 34.5351 23.7422C34.8031 23.6922 35.1511 23.2532 35.4181 22.9892L35.6461 22.9472C35.3381 23.3122 34.5821 24.3422 34.0611 24.4402C33.5391 24.5372 33.2321 24.3672 33.2321 23.8662C33.2321 23.7592 33.2451 23.6502 33.2721 23.5182L33.5261 22.2672C33.5388 22.2087 33.5455 22.1491 33.5461 22.0892C33.5461 21.8492 33.4191 21.7192 33.2391 21.7522C33.0511 21.7872 32.9111 21.8802 32.7441 22.0392C32.6171 22.7182 32.4561 23.5892 32.2491 24.7792L31.2861 24.9592L32.2021 20.5232C31.9351 20.5462 31.6271 20.5562 31.3201 20.5732L30.3771 25.1282L29.4141 25.3082L30.3701 20.6912C29.6281 20.8632 29.0261 21.2572 29.0261 22.3062C29.0261 22.6462 29.1131 22.6842 29.1201 22.7432Z" fill="black"/>
<path d="M34.85 23.2299C34.85 22.3799 35.2101 20.8219 36.4281 20.5949C36.9761 20.4919 37.2831 20.6619 37.2831 21.1299C37.2831 21.9459 36.4081 22.5769 35.7731 22.7759C35.7591 22.8859 35.753 22.9869 35.753 23.0669C35.753 23.5089 35.9731 23.6009 36.2331 23.5519C36.5481 23.4939 36.8161 23.2629 37.0901 22.9649C37.0901 23.6869 36.5081 23.9829 35.8401 24.1079C35.1971 24.2279 34.85 23.8049 34.85 23.2299ZM36.6481 20.9079C36.2741 20.9779 35.9661 21.7909 35.8261 22.4449C36.4411 22.3239 36.8761 21.7149 36.8821 21.2389C36.8821 21.0989 36.8491 20.8699 36.6481 20.9079ZM26.7621 42.5619L24.5261 43.0369V41.5419C24.5261 41.1079 24.5021 40.8419 24.4541 40.7439C24.4061 40.6459 24.3011 40.6139 24.1381 40.6489C23.9541 40.6879 23.8371 40.7789 23.7881 40.9199C23.7381 41.0619 23.7131 41.3499 23.7131 41.7859V45.7799C23.7131 46.1979 23.7371 46.4649 23.7871 46.5819C23.8371 46.6989 23.9491 46.7389 24.1221 46.7019C24.2881 46.6669 24.3971 46.5799 24.4491 46.4419C24.5001 46.3019 24.5261 45.9969 24.5261 45.5249V44.4449L26.7621 43.9689V44.3049C26.7621 45.1949 26.6991 45.8389 26.5731 46.2379C26.4481 46.6379 26.1701 47.0229 25.7391 47.3939C25.3091 47.7659 24.7791 48.0179 24.1491 48.1519C23.4931 48.2919 22.9531 48.2869 22.5291 48.1399C22.1031 47.9929 21.8221 47.7239 21.6841 47.3339C21.5461 46.9439 21.4771 46.3269 21.4771 45.4839V42.9719C21.4771 42.3519 21.4971 41.8819 21.5401 41.5639C21.5831 41.2449 21.7101 40.9199 21.9201 40.5879C22.1301 40.2569 22.4231 39.9679 22.7961 39.7249C23.1893 39.473 23.6261 39.2967 24.0841 39.2049C24.7441 39.0649 25.2871 39.0769 25.7151 39.2399C26.1431 39.4039 26.4251 39.6619 26.5601 40.0129C26.6941 40.3649 26.7611 40.9419 26.7611 41.7449L26.7621 42.5619ZM32.7061 37.5549V46.1549L30.4701 46.6299V43.0179L29.8001 43.1599V46.7719L27.5641 47.2469V38.6469L29.8001 38.1719V41.2479L30.4701 41.1059V38.0299L32.7061 37.5549ZM38.7171 41.3159C38.7171 42.1799 38.6971 42.7959 38.656 43.1639C38.6107 43.5436 38.4797 43.9081 38.2731 44.2299C38.0515 44.5804 37.755 44.8775 37.4051 45.0999C37.0401 45.3369 36.6151 45.5069 36.1301 45.6099C35.6701 45.7069 35.2561 45.7199 34.8901 45.6469C34.5482 45.5882 34.2363 45.4155 34.0051 45.1569C33.7834 44.9058 33.6445 44.5927 33.607 44.2599C33.5651 43.9149 33.5431 43.2999 33.5431 42.4139V40.9429C33.5431 40.0789 33.5631 39.4629 33.6041 39.0949C33.6441 38.7269 33.7721 38.3709 33.9871 38.0279C34.2011 37.6849 34.4901 37.3949 34.8551 37.1579C35.2201 36.9219 35.6451 36.7519 36.1301 36.6489C36.5901 36.5509 37.0041 36.5389 37.3701 36.6109C37.7371 36.6839 38.0321 36.8469 38.2551 37.1009C38.4781 37.3549 38.6101 37.6539 38.6531 37.9989C38.6951 38.3439 38.7171 38.9589 38.7171 39.8449V41.3149V41.3159ZM36.4801 38.9649C36.4801 38.5649 36.4581 38.3129 36.4141 38.2109C36.3701 38.1089 36.279 38.0719 36.1411 38.1009C36.0848 38.1118 36.0317 38.1348 35.9852 38.1683C35.9388 38.2018 35.9001 38.245 35.8721 38.2949C35.8101 38.3979 35.7791 38.6709 35.7791 39.1139V43.1289C35.7791 43.6289 35.7991 43.9319 35.8401 44.0399C35.8811 44.1479 35.9761 44.1869 36.1251 44.1549C36.1941 44.144 36.2585 44.1132 36.3103 44.0663C36.3622 44.0195 36.3993 43.9585 36.4171 43.8909C36.4591 43.7479 36.4811 43.4229 36.4811 42.9159L36.4801 38.9649ZM41.781 35.6279V44.2279L39.545 44.7019V36.1019L41.781 35.6279ZM47.9001 38.0739L45.6641 38.5489V37.0539C45.6641 36.6199 45.6401 36.3539 45.5921 36.2559C45.5441 36.1579 45.4391 36.1259 45.2761 36.1609C45.0921 36.2009 44.976 36.2909 44.9261 36.4319C44.8761 36.5739 44.8511 36.8619 44.8511 37.2979V41.2919C44.8511 41.7099 44.8761 41.9769 44.9261 42.0939C44.976 42.2109 45.0861 42.2509 45.26 42.2139C45.427 42.1789 45.5361 42.0919 45.5871 41.9539C45.6381 41.8149 45.6641 41.5099 45.6641 41.0369V39.9569L47.9001 39.4819V39.8169C47.9001 40.7069 47.8371 41.3509 47.7121 41.7499C47.5861 42.1499 47.3081 42.5349 46.878 42.9059C46.448 43.2779 45.917 43.5299 45.2871 43.6639C44.632 43.8039 44.0921 43.7989 43.6671 43.6519C43.2421 43.5049 42.9601 43.2359 42.8221 42.8459C42.684 42.4559 42.6151 41.8389 42.6151 40.9959V38.4839C42.6151 37.8639 42.6361 37.3949 42.6791 37.0759C42.7211 36.7569 42.848 36.4319 43.059 36.0999C43.269 35.7689 43.5621 35.4799 43.9351 35.2369C44.3283 34.9849 44.7651 34.8085 45.2231 34.7169C45.8821 34.5769 46.4251 34.5889 46.8531 34.7519C47.2821 34.9159 47.5631 35.1739 47.6981 35.5249C47.8331 35.8769 47.9001 36.4549 47.9001 37.2569V38.0739ZM48.7031 34.1599L52.4321 33.3669V35.0889L50.9391 35.4049V37.0359L52.3361 36.7389V38.3759L50.9391 38.6719V40.5619L52.5811 40.2139V41.9349L48.7031 42.7579V34.1599ZM25.3711 28.0759L27.6011 27.6019C28.3061 27.4519 28.8411 27.3939 29.2031 27.4269C29.5661 27.4589 29.8591 27.6189 30.0831 27.9069C30.3051 28.1929 30.4171 28.7079 30.4171 29.4509C30.4171 29.9539 30.3381 30.3209 30.1801 30.5529C30.0231 30.7849 29.7121 31.0029 29.2481 31.2069C29.7651 31.2139 30.1161 31.3339 30.3001 31.5659C30.4841 31.7979 30.5761 32.1939 30.5761 32.7539V33.5509C30.5761 34.1309 30.5101 34.5769 30.3771 34.8839C30.251 35.1851 30.0274 35.4352 29.7421 35.5939C29.4521 35.7579 28.8571 35.9349 27.9581 36.1259L25.3711 36.6759V28.0759ZM27.6071 29.0719V30.9839L27.8311 30.9319C28.0501 30.8849 28.1901 30.8019 28.2511 30.6809C28.3111 30.5599 28.3411 30.2449 28.3411 29.7349C28.3411 29.4649 28.3161 29.2819 28.2661 29.1849C28.2161 29.0869 28.1521 29.0329 28.0721 29.0219C27.9921 29.0099 27.8371 29.0269 27.6071 29.0719ZM27.6071 32.3229V34.7289C27.9231 34.6509 28.1241 34.5589 28.2101 34.4519C28.2971 34.3459 28.3401 34.1179 28.3401 33.7719V32.9689C28.3401 32.6009 28.3021 32.3859 28.2241 32.3249C28.1461 32.2639 27.9401 32.2629 27.6071 32.3229ZM31.3771 26.7999L35.1061 26.0079V27.7289L33.6131 28.0459V29.6769L35.01 29.3799V31.0159L33.6131 31.3129V33.2029L35.2551 32.8549V34.5759L31.3771 35.3999V26.7999ZM40.6401 27.4369L38.5621 27.8779V27.2399C38.5621 26.9429 38.5361 26.7599 38.482 26.6889C38.4291 26.6189 38.3411 26.5969 38.2171 26.6229C38.1522 26.636 38.0912 26.6634 38.0384 26.7032C37.9856 26.7431 37.9425 26.7942 37.9121 26.8529C37.8421 26.9769 37.8081 27.1509 37.8081 27.3749C37.8081 27.6619 37.8471 27.8689 37.9251 27.9979C37.9991 28.1279 38.2091 28.2579 38.5561 28.3899C39.5521 28.7699 40.1791 29.1209 40.4371 29.4449C40.6961 29.7689 40.8251 30.3529 40.8251 31.1949C40.8251 31.8079 40.7531 32.2749 40.6101 32.5949C40.4661 32.9159 40.1901 33.2179 39.7791 33.5019C39.3681 33.7859 38.8891 33.9859 38.3441 34.1019C37.7461 34.2289 37.2351 34.2239 36.8121 34.0869C36.3891 33.9499 36.1121 33.7199 35.9811 33.3969C35.8501 33.0749 35.7841 32.5919 35.7841 31.9469V31.3839L37.8611 30.9439V31.9889C37.8611 32.3119 37.8911 32.5129 37.9491 32.5919C38.0071 32.6719 38.1101 32.6959 38.2591 32.6639C38.3294 32.6506 38.3958 32.6216 38.4533 32.579C38.5108 32.5364 38.5579 32.4813 38.5911 32.4179C38.6641 32.2859 38.7011 32.1049 38.7011 31.8749C38.7011 31.3689 38.6311 31.0519 38.4931 30.9249C38.3511 30.7999 38.003 30.6129 37.4461 30.3669C36.8911 30.1169 36.5221 29.9269 36.3421 29.7989C36.1611 29.6709 36.012 29.4729 35.892 29.2039C35.774 28.9349 35.7151 28.5729 35.7151 28.1159C35.7151 27.4569 35.7991 26.9579 35.9671 26.6179C36.1351 26.2779 36.4071 25.9809 36.7831 25.7299C37.1581 25.4789 37.6111 25.2959 38.1431 25.1839C38.7231 25.0609 39.2181 25.0489 39.6271 25.1499C40.0361 25.2499 40.3071 25.4299 40.4401 25.6869C40.5721 25.9439 40.6391 26.4139 40.6391 27.0969L40.6401 27.4369ZM46.0301 23.6899V25.4109L44.7011 25.6929V32.5719L42.4651 33.0459V26.1679L41.1431 26.4479V24.7279L46.0301 23.6899Z" fill="black"/>
</g>
<defs>
<linearGradient id="paint0_linear_1082_16828" x1="36.706" y1="40.0448" x2="28.235" y2="-6.41017" gradientUnits="userSpaceOnUse">
<stop offset="0.198" stop-color="white"/>
<stop offset="1" stop-color="#00142B"/>
</linearGradient>
<linearGradient id="paint1_linear_1082_16828" x1="41.3579" y1="68.1538" x2="36.4859" y2="41.4378" gradientUnits="userSpaceOnUse">
<stop stop-color="#5C6977"/>
<stop offset="0.692" stop-color="#00142B"/>
<stop offset="1"/>
</linearGradient>
<clipPath id="clip0_1082_16828">
<rect width="72" height="72" fill="white"/>
</clipPath>
</defs>
</svg>
