<svg width="56" height="72" viewBox="0 0 56 72" fill="none" xmlns="http://www.w3.org/2000/svg">
<g clip-path="url(#clip0_1082_16854)">
<path d="M54.6869 64.106L46.4639 65.196L41.7189 72L32.9219 57.355L45.8899 49.46L54.6869 64.106ZM2.31592 64.106L10.5399 65.196L15.2849 72L24.0809 57.355L11.1129 49.461L2.31592 64.106Z" fill="#EE9D06"/>
<path d="M55.3529 47.403V15.8L27.9849 0L0.616943 15.8V47.402L27.9849 63.202L55.3529 47.403Z" fill="#142F45"/>
<path d="M53.2751 46.2029V16.9999L27.9851 2.3999L2.69507 16.9999V46.2029L27.9851 60.8029L53.2751 46.2029Z" stroke="#F4D350" stroke-width="0.422" stroke-miterlimit="10"/>
<mask id="mask0_1082_16854" style="mask-type:luminance" maskUnits="userSpaceOnUse" x="0" y="0" width="56" height="64">
<path d="M55.3549 47.403V15.8L27.9869 0L0.618896 15.8V47.402L27.9869 63.202L55.3549 47.403Z" fill="white"/>
</mask>
<g mask="url(#mask0_1082_16854)">
<g opacity="0.45">
<path opacity="0.4" d="M2.51784 -2.23823H0.412842V70.3998H2.51984V-2.24023L2.51784 -2.23823ZM8.20384 -2.23823H6.09784V70.3998H8.20384V-2.24023V-2.23823ZM13.8858 -2.23823H11.7788V70.3998H13.8858V-2.24023V-2.23823ZM19.5668 -2.23823H17.4608V70.3998H19.5668V-2.24023V-2.23823ZM25.2498 -2.23823H23.1448V70.3998H25.2508V-2.24023L25.2498 -2.23823ZM30.9328 -2.23823H28.8258V70.3998H30.9328V-2.24023V-2.23823ZM36.6138 -2.23823H34.5078V70.3998H36.6138V-2.24023V-2.23823ZM42.2998 -2.23823H40.1928V70.3998H42.2998V-2.24023V-2.23823ZM47.9808 -2.23823H45.8748V70.3998H47.9808V-2.24023V-2.23823ZM52.4008 -2.23823H50.2948V70.3998H52.3998V-2.24023L52.4008 -2.23823ZM56.8208 -2.23823H54.7148V70.3998H56.8208V-2.24023V-2.23823Z" fill="#6E8ED6" fill-opacity="0.5"/>
</g>
</g>
<path d="M13.791 42.7478L35.977 43.0308L35.99 42.0248L13.804 41.7428L12.856 40.9248L9.53502 41.5798L9.52702 42.1908L9.52002 42.8028L12.823 43.5418L13.791 42.7478Z" fill="#E2E7E9"/>
<path d="M31.6351 40.3898L31.2121 40.3848C30.7001 40.3778 30.4891 39.4968 29.8771 39.4888C29.2651 39.4808 29.0471 39.5668 29.0371 40.3128C29.0291 41.0578 29.0131 42.2548 29.0131 42.2548L28.9891 44.1978C28.9791 44.9438 29.1941 45.0348 29.8061 45.0418C30.4191 45.0498 30.6521 44.1738 31.1641 44.1808C31.2981 44.1828 31.2541 44.1808 31.5871 44.1858C32.0441 44.1918 32.2771 45.0728 32.7791 45.0798L43.7521 45.2198C45.2841 45.2388 45.6461 44.3818 45.6701 42.4668C45.6941 40.5518 45.3541 39.6858 43.8221 39.6668L32.8491 39.5268C32.3481 39.5198 32.0921 40.3948 31.6351 40.3898Z" fill="#E3A349"/>
<path d="M44.128 43.6432C44.1915 43.644 44.2543 43.6572 44.3128 43.6823C44.3712 43.7074 44.4241 43.7437 44.4685 43.7892C44.5129 43.8347 44.5479 43.8885 44.5715 43.9475C44.595 44.0065 44.6068 44.0696 44.606 44.1332V44.1712C44.6041 44.2994 44.5515 44.4216 44.4596 44.511C44.3678 44.6004 44.2442 44.6498 44.116 44.6482L33.733 44.5162C33.6048 44.5143 33.4826 44.4617 33.3931 44.3698C33.3037 44.278 33.2544 44.1544 33.256 44.0262V43.9882C33.2578 43.86 33.3105 43.7378 33.4023 43.6483C33.4942 43.5589 33.6178 43.5096 33.746 43.5112L44.128 43.6432ZM44.15 42.0002C44.417 42.0042 44.63 42.2232 44.627 42.4902V42.5282C44.6262 42.5917 44.6129 42.6545 44.5879 42.7129C44.5628 42.7714 44.5265 42.8243 44.481 42.8687C44.4355 42.9131 44.3817 42.948 44.3227 42.9716C44.2636 42.9952 44.2006 43.007 44.137 43.0062L33.755 42.8742C33.6914 42.8734 33.6286 42.8601 33.5702 42.835C33.5118 42.81 33.4589 42.7737 33.4145 42.7282C33.3701 42.6827 33.3351 42.6289 33.3115 42.5699C33.2879 42.5108 33.2762 42.4477 33.277 42.3842V42.3462C33.2778 42.2826 33.2911 42.2198 33.3161 42.1614C33.3412 42.103 33.3775 42.0501 33.423 42.0057C33.4685 41.9613 33.5223 41.9263 33.5813 41.9027C33.6403 41.8791 33.7034 41.8674 33.767 41.8682L44.15 42.0002ZM44.173 40.2472C44.44 40.2502 44.653 40.4702 44.65 40.7372V40.7752C44.6481 40.9034 44.5955 41.0256 44.5036 41.115C44.4118 41.2044 44.2882 41.2538 44.16 41.2522L33.778 41.1202C33.6498 41.1183 33.5276 41.0657 33.4381 40.9738C33.3487 40.882 33.2994 40.7584 33.301 40.6302V40.5932C33.3018 40.5296 33.3151 40.4668 33.3401 40.4084C33.3652 40.35 33.4015 40.2971 33.447 40.2527C33.4925 40.2083 33.5463 40.1733 33.6053 40.1497C33.6643 40.1261 33.7274 40.1144 33.791 40.1152L44.173 40.2472ZM29.915 39.2982C30.315 39.3042 30.637 39.6322 30.632 40.0332L30.575 44.5162C30.5738 44.6115 30.5539 44.7056 30.5163 44.7932C30.4787 44.8808 30.4242 44.9601 30.3559 45.0266C30.2877 45.0931 30.207 45.1455 30.1184 45.1807C30.0299 45.216 29.9353 45.2335 29.84 45.2322L29.623 45.2302C29.5276 45.229 29.4335 45.2091 29.3458 45.1715C29.2582 45.1339 29.1788 45.0794 29.1122 45.0112C29.0457 44.9429 28.9932 44.8622 28.9578 44.7737C28.9224 44.6852 28.9048 44.5905 28.906 44.4952L28.963 40.0122C28.9642 39.9169 28.9841 39.8227 29.0217 39.7352C29.0593 39.6476 29.1138 39.5683 29.182 39.5018C29.2503 39.4353 29.331 39.3829 29.4195 39.3476C29.5081 39.3123 29.6027 39.2949 29.698 39.2962L29.915 39.2982ZM31.27 13.5602L31.159 13.5372C31.1233 13.427 31.0816 13.3188 31.034 13.2132C31.0217 13.186 31.0083 13.1593 30.994 13.1332C30.9814 13.1038 30.9681 13.0748 30.954 13.0462L31.456 12.2772L30.904 11.7262L30.354 11.1752L29.681 11.6152L29.585 11.6782C29.565 11.6672 29.543 11.6582 29.522 11.6482L29.47 11.6192C29.458 11.6132 29.444 11.6092 29.432 11.6042C29.3565 11.5709 29.2798 11.5405 29.202 11.5132C29.183 11.5052 29.164 11.4962 29.144 11.4892L29.114 11.4802L29.094 11.4732L29.07 11.3632L28.906 10.5762H27.346L27.182 11.3622L27.159 11.4722C26.989 11.5272 26.825 11.5972 26.668 11.6782L26.571 11.6152L25.899 11.1752L25.348 11.7262L24.797 12.2772L25.237 12.9502L25.3 13.0462C25.218 13.2032 25.149 13.3662 25.094 13.5362L24.984 13.5602L24.197 13.7252V15.2842L24.984 15.4482L25.094 15.4722L25.11 15.5122C25.116 15.5322 25.121 15.5532 25.128 15.5722C25.134 15.5902 25.143 15.6062 25.15 15.6222C25.186 15.7202 25.228 15.8152 25.273 15.9082C25.28 15.9222 25.285 15.9382 25.293 15.9512C25.294 15.9562 25.297 15.9592 25.299 15.9642L25.237 16.0592L24.797 16.7312L25.348 17.2832L25.899 17.8332L26.572 17.3942L26.668 17.3312C26.718 17.3572 26.768 17.3812 26.818 17.4042C26.833 17.4102 26.846 17.4182 26.86 17.4242L26.87 17.4282C26.892 17.4382 26.914 17.4462 26.937 17.4552C27.001 17.4812 27.067 17.5052 27.133 17.5272L27.159 17.5372L27.347 18.4342H28.906L29.094 17.5372C29.2627 17.4822 29.4266 17.4133 29.584 17.3312L29.681 17.3942L30.354 17.8342L30.904 17.2832L31.456 16.7322L30.953 15.9632C31.035 15.8062 31.104 15.6432 31.159 15.4722L31.269 15.4492L32.056 15.2842V13.7242L31.269 13.5602H31.27ZM28.127 15.9872C27.7338 15.9872 27.3567 15.831 27.0787 15.553C26.8007 15.2749 26.6445 14.8979 26.6445 14.5047C26.6445 14.1115 26.8007 13.7344 27.0787 13.4564C27.3567 13.1784 27.7338 13.0222 28.127 13.0222C28.5202 13.0222 28.8973 13.1784 29.1753 13.4564C29.4533 13.7344 29.6095 14.1115 29.6095 14.5047C29.6095 14.8979 29.4533 15.2749 29.1753 15.553C28.8973 15.831 28.5202 15.9872 28.127 15.9872ZM21.82 13.9702L21.758 13.9562C21.738 13.894 21.7146 13.8329 21.688 13.7732L21.665 13.7272L21.641 13.6772L21.926 13.2422L21.614 12.9292L21.302 12.6172L20.921 12.8672L20.866 12.9022L20.83 12.8852L20.8 12.8692L20.78 12.8592C20.7373 12.8405 20.694 12.8235 20.65 12.8082C20.638 12.8042 20.628 12.7982 20.616 12.7952L20.599 12.7902L20.588 12.7852L20.574 12.7222L20.481 12.2772H19.597L19.504 12.7232L19.491 12.7852C19.394 12.8162 19.301 12.8552 19.213 12.9022L19.158 12.8662L18.777 12.6162L18.465 12.9292L18.152 13.2412L18.402 13.6232L18.437 13.6772C18.3906 13.7664 18.3518 13.8594 18.321 13.9552L18.258 13.9692L17.813 14.0622V14.9452L18.258 15.0392L18.321 15.0522L18.33 15.0762C18.334 15.0862 18.336 15.0992 18.34 15.1102C18.343 15.1202 18.349 15.1282 18.352 15.1382C18.373 15.1932 18.397 15.2482 18.422 15.3002L18.433 15.3242L18.437 15.3312L18.401 15.3852L18.152 15.7662L18.465 16.0792L18.777 16.3912L19.158 16.1412L19.213 16.1062C19.24 16.1212 19.269 16.1342 19.298 16.1472L19.321 16.1592C19.3227 16.1598 19.3243 16.1605 19.326 16.1612L19.365 16.1762C19.406 16.194 19.4481 16.2094 19.491 16.2222L19.597 16.7312H20.481L20.587 16.2222C20.684 16.1922 20.777 16.1522 20.866 16.1062L20.92 16.1422L21.301 16.3922L21.614 16.0792L21.926 15.7662L21.641 15.3302C21.687 15.2422 21.727 15.1492 21.757 15.0522L21.82 15.0392L22.266 14.9452V14.0622L21.821 13.9692L21.82 13.9702ZM20.039 15.3452C19.8162 15.3452 19.6025 15.2567 19.445 15.0991C19.2875 14.9416 19.199 14.728 19.199 14.5052C19.199 14.2824 19.2875 14.0687 19.445 13.9112C19.6025 13.7537 19.8162 13.6652 20.039 13.6652C20.2618 13.6652 20.4754 13.7537 20.633 13.9112C20.7905 14.0687 20.879 14.2824 20.879 14.5052C20.879 14.728 20.7905 14.9416 20.633 15.0991C20.4754 15.2567 20.2618 15.3452 20.039 15.3452ZM37.71 13.9702L37.646 13.9562C37.6259 13.894 37.6026 13.8329 37.576 13.7732L37.554 13.7272L37.53 13.6772L37.815 13.2422L37.503 12.9292L37.19 12.6172L36.81 12.8672L36.755 12.9022L36.719 12.8852L36.689 12.8692L36.668 12.8592C36.6253 12.8406 36.5819 12.8236 36.538 12.8082C36.528 12.8042 36.516 12.7982 36.505 12.7952L36.487 12.7902L36.477 12.7852L36.463 12.7222L36.37 12.2772H35.486L35.393 12.7232L35.38 12.7852C35.283 12.8162 35.19 12.8552 35.101 12.9022L35.047 12.8662L34.666 12.6162L34.353 12.9292L34.041 13.2412L34.291 13.6232L34.326 13.6772C34.2796 13.7664 34.2408 13.8594 34.21 13.9552L34.147 13.9692L33.701 14.0622V14.9452L34.147 15.0392L34.21 15.0522L34.218 15.0762C34.222 15.0862 34.225 15.0992 34.228 15.1102C34.232 15.1202 34.238 15.1282 34.241 15.1382C34.262 15.1932 34.285 15.2482 34.311 15.3002L34.321 15.3242L34.326 15.3312L34.29 15.3852L34.041 15.7662L34.353 16.0792L34.666 16.3912L35.046 16.1412L35.101 16.1062C35.129 16.1212 35.157 16.1342 35.186 16.1472L35.21 16.1592L35.215 16.1612L35.254 16.1762C35.295 16.194 35.3371 16.2094 35.38 16.2222L35.486 16.7312H36.37L36.476 16.2222C36.573 16.1922 36.666 16.1522 36.755 16.1062L36.809 16.1422L37.19 16.3922L37.503 16.0792L37.815 15.7662L37.53 15.3302C37.5766 15.241 37.6154 15.148 37.646 15.0522L37.709 15.0392L38.155 14.9452V14.0622L37.709 13.9692L37.71 13.9702ZM35.928 15.3452C35.7051 15.3452 35.4913 15.2566 35.3337 15.099C35.176 14.9414 35.0875 14.7276 35.0875 14.5047C35.0875 14.2818 35.176 14.068 35.3337 13.9103C35.4913 13.7527 35.7051 13.6642 35.928 13.6642C36.1508 13.6642 36.3644 13.7527 36.522 13.9102C36.6795 14.0677 36.768 14.2814 36.768 14.5042C36.768 14.727 36.6795 14.9406 36.522 15.0981C36.3644 15.2557 36.1508 15.3442 35.928 15.3442V15.3452Z" fill="#F3D34F"/>
<path d="M13.625 38.9112C12.879 38.9112 12.262 38.8132 11.775 38.6172C11.288 38.4172 10.899 38.1492 10.608 37.8162L10.308 38.7402H8.68796V35.5832H10.885C10.96 36.0382 11.188 36.4132 11.569 36.7082C11.949 36.9982 12.431 37.1442 13.012 37.1442C13.33 37.1442 13.576 37.0812 13.749 36.9552C13.8323 36.8949 13.8995 36.815 13.9447 36.7226C13.9898 36.6301 14.0116 36.528 14.008 36.4252C14.0131 36.3155 13.9891 36.2065 13.9384 36.1091C13.8876 36.0118 13.8119 35.9297 13.719 35.8712C13.4831 35.7286 13.2237 35.629 12.953 35.5772C12.635 35.5062 12.286 35.4372 11.905 35.3712C11.5185 35.3028 11.1367 35.2099 10.762 35.0932C10.3862 34.9785 10.0316 34.8035 9.71196 34.5752C9.38409 34.3352 9.12117 34.0173 8.94696 33.6502C8.75396 33.2572 8.65796 32.7552 8.65796 32.1422C8.65796 31.5492 8.79996 31.0302 9.08196 30.5862C9.36896 30.1432 9.77996 29.7962 10.314 29.5492C10.848 29.3022 11.488 29.1792 12.234 29.1792C12.902 29.1792 13.46 29.2752 13.908 29.4672C14.355 29.6602 14.721 29.9332 15.004 30.2862L15.304 29.3612H16.924V32.4012H14.68C14.566 31.9342 14.338 31.5742 13.996 31.3232C13.6556 31.071 13.2415 30.9385 12.818 30.9462C12.5 30.9462 12.246 31.0062 12.058 31.1282C11.9676 31.1818 11.8935 31.259 11.8437 31.3515C11.7938 31.4439 11.7701 31.5483 11.775 31.6532C11.775 31.8692 11.871 32.0332 12.064 32.1482C12.256 32.2622 12.511 32.3542 12.829 32.4252C13.148 32.4952 13.497 32.5682 13.879 32.6432C14.259 32.7172 14.64 32.8192 15.021 32.9492C15.402 33.0792 15.751 33.2612 16.07 33.4972C16.388 33.7292 16.643 34.0392 16.836 34.4272C17.028 34.8172 17.125 35.3102 17.125 35.9072C17.125 36.8412 16.815 37.5762 16.194 38.1102C15.574 38.6442 14.717 38.9112 13.624 38.9112H13.625ZM17.578 38.7412V36.7082H18.433L20.194 31.3942H18.927V29.3602H24.748L26.952 36.7072H27.806V38.7392H22.521V36.7072H23.493L23.223 35.6762H20.795L20.489 36.7062H21.461V38.7392H17.578V38.7412ZM21.231 34.2042H22.834L22.085 31.3412L21.231 34.2042ZM28.313 38.7402V36.7082H29.256V31.3942H28.313V29.3602H33.615V31.3932H32.32V36.7362H34.24L34.476 34.5392H36.421V38.7392H28.314L28.313 38.7402ZM37.068 38.7402V36.7082H38.011V31.3942H37.068V29.3602H45.41V33.0902H43.466L43.26 31.3632H41.003V32.9532H42.594V34.9572H41.004V36.7372H43.26L43.466 34.7512H45.41V38.7392H37.068V38.7402ZM9.96396 24.1832V20.4722H10.822V23.4832H12.684V24.1832H9.96396ZM12.696 24.1832L14.351 20.4722H15.199L16.859 24.1832H15.957L14.6 20.9072H14.94L13.576 24.1832H12.696ZM13.523 23.3882L13.751 22.7362H15.661L15.893 23.3882H13.523ZM17.243 24.1832V20.4722H19.057C19.523 20.4722 19.873 20.5602 20.107 20.7372C20.343 20.9142 20.462 21.1472 20.462 21.4372C20.4661 21.6173 20.4163 21.7946 20.319 21.9462C20.2208 22.09 20.0848 22.2038 19.926 22.2752C19.7462 22.3556 19.5508 22.3952 19.354 22.3912L19.454 22.1742C19.688 22.1742 19.894 22.2132 20.074 22.2912C20.2447 22.3572 20.3912 22.4738 20.494 22.6252C20.6003 22.787 20.6541 22.9777 20.648 23.1712C20.653 23.3174 20.6211 23.4624 20.5552 23.593C20.4893 23.7236 20.3915 23.8354 20.271 23.9182C20.02 24.0952 19.651 24.1832 19.163 24.1832H17.243ZM18.097 23.5372H19.1C19.323 23.5372 19.49 23.5012 19.604 23.4302C19.721 23.3562 19.779 23.2402 19.779 23.0802C19.779 22.9252 19.721 22.8102 19.604 22.7362C19.491 22.6582 19.323 22.6192 19.1 22.6192H18.034V21.9942H18.952C19.16 21.9942 19.319 21.9582 19.429 21.8872C19.4842 21.8515 19.5291 21.8018 19.559 21.7431C19.5888 21.6844 19.6026 21.6189 19.599 21.5532C19.6025 21.489 19.5886 21.4251 19.5587 21.3682C19.5287 21.3113 19.4839 21.2636 19.429 21.2302C19.319 21.1562 19.16 21.1192 18.952 21.1192H18.098L18.097 23.5372ZM23.1 24.2472C22.807 24.2472 22.535 24.1992 22.284 24.1042C22.044 24.0135 21.8242 23.8766 21.637 23.7012C21.4567 23.5279 21.3126 23.3206 21.213 23.0912C21.1122 22.8496 21.0615 22.59 21.064 22.3282C21.064 22.0522 21.114 21.7982 21.213 21.5642C21.315 21.3312 21.459 21.1282 21.643 20.9542C21.826 20.7812 22.042 20.6472 22.289 20.5512C22.537 20.4562 22.805 20.4082 23.095 20.4082C23.389 20.4082 23.657 20.4562 23.901 20.5512C24.1379 20.6403 24.3546 20.7758 24.5385 20.9498C24.7224 21.1237 24.8698 21.3326 24.972 21.5642C25.075 21.7942 25.126 22.0482 25.126 22.3282C25.13 22.586 25.0802 22.8417 24.9798 23.0792C24.8795 23.3166 24.7307 23.5305 24.543 23.7072C24.363 23.8762 24.148 24.0082 23.901 24.1042C23.657 24.1992 23.39 24.2472 23.1 24.2472ZM23.095 23.5152C23.261 23.5152 23.413 23.4872 23.551 23.4302C23.6905 23.3746 23.8171 23.2908 23.9229 23.1842C24.0287 23.0775 24.1115 22.9502 24.166 22.8102C24.226 22.6652 24.256 22.5042 24.256 22.3282C24.256 22.1512 24.226 21.9902 24.166 21.8452C24.1127 21.7053 24.0309 21.578 23.9259 21.4713C23.8209 21.3646 23.695 21.2808 23.556 21.2252C23.4095 21.1677 23.2533 21.1388 23.096 21.1402C22.929 21.1402 22.776 21.1682 22.634 21.2252C22.3548 21.3424 22.1333 21.5653 22.018 21.8452C21.96 21.9995 21.9315 22.1634 21.934 22.3282C21.934 22.5012 21.962 22.6622 22.019 22.8102C22.079 22.9552 22.16 23.0802 22.263 23.1872C22.369 23.2932 22.493 23.3742 22.633 23.4302C22.775 23.4872 22.929 23.5152 23.095 23.5152ZM27.42 24.2472C26.894 24.2472 26.482 24.1002 26.185 23.8072C25.888 23.5142 25.74 23.0952 25.74 22.5502V20.4722H26.599V22.5182C26.599 22.8722 26.671 23.1262 26.816 23.2822C26.961 23.4372 27.164 23.5152 27.426 23.5152C27.687 23.5152 27.89 23.4372 28.036 23.2822C28.18 23.1272 28.253 22.8722 28.253 22.5182V20.4722H29.101V22.5502C29.101 23.0952 28.953 23.5132 28.656 23.8072C28.359 24.1002 27.947 24.2472 27.42 24.2472ZM29.95 24.1832V20.4722H31.556C31.889 20.4722 32.175 20.5272 32.416 20.6362C32.656 20.7422 32.841 20.8962 32.972 21.0982C33.102 21.2992 33.168 21.5392 33.168 21.8182C33.168 22.0942 33.103 22.3332 32.972 22.5342C32.842 22.7322 32.656 22.8842 32.415 22.9902C32.175 23.0962 31.889 23.1502 31.556 23.1502H30.427L30.809 22.7732V24.1832H29.95ZM32.31 24.1832L31.381 22.8372H32.299L33.237 24.1832H32.31ZM30.809 22.8682L30.427 22.4662H31.509C31.774 22.4662 31.972 22.4092 32.102 22.2962C32.1678 22.2361 32.2196 22.1621 32.2537 22.0797C32.2877 21.9972 32.3032 21.9083 32.299 21.8192C32.299 21.6142 32.233 21.4552 32.102 21.3412C31.972 21.2282 31.774 21.1712 31.509 21.1712H30.427L30.809 20.7642V22.8682ZM35.35 24.1832V20.4722H37.036C37.439 20.4722 37.795 20.5502 38.102 20.7052C38.41 20.8572 38.65 21.0712 38.823 21.3472C38.996 21.6222 39.083 21.9492 39.083 22.3272C39.083 22.7022 38.996 23.0292 38.823 23.3082C38.6473 23.5862 38.3981 23.8102 38.103 23.9552C37.7698 24.113 37.4045 24.191 37.036 24.1832H35.35ZM36.21 23.4782H36.994C37.2159 23.4838 37.4359 23.4364 37.636 23.3402C37.819 23.2452 37.961 23.1102 38.06 22.9372C38.162 22.7642 38.214 22.5612 38.214 22.3272C38.214 22.0912 38.162 21.8872 38.06 21.7172C37.9616 21.545 37.8134 21.4066 37.635 21.3202C37.4363 21.2206 37.2161 21.1715 36.994 21.1772H36.209L36.21 23.4782ZM39.191 24.1832L40.845 20.4722H41.694L43.354 24.1832H42.452L41.095 20.9072H41.434L40.071 24.1832H39.191ZM40.018 23.3882L40.246 22.7362H42.156L42.388 23.3882H40.018ZM44.433 24.1832V22.6672L44.629 23.1872L42.996 20.4722H43.908L45.16 22.5562H44.635L45.891 20.4722H46.734L45.101 23.1872L45.292 22.6672V24.1832H44.433Z" fill="white"/>
</g>
<defs>
<clipPath id="clip0_1082_16854">
<rect width="55" height="72" fill="white" transform="translate(0.5)"/>
</clipPath>
</defs>
</svg>
