<svg width="168" height="32" viewBox="0 0 168 32" fill="none" xmlns="http://www.w3.org/2000/svg">
<g clip-path="url(#clip0_451_32301)">
<mask id="mask0_451_32301" style="mask-type:luminance" maskUnits="userSpaceOnUse" x="0" y="0" width="168" height="32">
<path d="M167.905 0H0.793945V32H167.905V0Z" fill="white"/>
</mask>
<g mask="url(#mask0_451_32301)">
<mask id="mask1_451_32301" style="mask-type:luminance" maskUnits="userSpaceOnUse" x="1" y="0" width="167" height="32">
<path d="M167.072 0H1.47168V32H167.072V0Z" fill="white"/>
</mask>
<g mask="url(#mask1_451_32301)">
<path d="M5.54536 3.56338C7.79674 1.41387 10.8538 0.15924 13.9523 0.00318025C15.0126 0.00318025 16.0762 0.00954479 17.1367 0C17.0826 1.13686 17.1366 2.27688 17.1049 3.41369C16.9553 5.95487 16.0158 8.43872 14.4331 10.4322C12.376 13.1135 9.22976 14.9126 5.8893 15.3775C4.43084 15.6133 2.95004 15.4635 1.48204 15.5049C1.50749 14.2534 1.42789 12.9989 1.52663 11.7506C1.81324 8.65528 3.27489 5.69057 5.54536 3.56338Z" fill="#C6C9D5"/>
<path d="M18.1182 0C19.255 0.0127264 20.3919 -0.0063638 21.5319 0.00636257C24.3693 0.206965 27.1684 1.29604 29.305 3.18445C31.6614 5.20653 33.276 8.098 33.6902 11.1869C33.8713 12.6199 33.7569 14.0689 33.8271 15.5081C32.8333 15.5049 31.8432 15.5017 30.8493 15.5081C28.407 15.4413 26.006 14.6515 23.9616 13.3205C23.019 12.6453 22.051 11.9608 21.3441 11.0245C19.7932 9.29216 18.7392 7.11722 18.3411 4.82443C18.0417 3.23218 18.1628 1.60817 18.1182 0Z" fill="#C6C9D5"/>
<path d="M1.48344 16.4188C2.49293 16.4761 3.50559 16.3709 4.51184 16.4825C8.82036 16.5748 13.0015 18.9949 15.2337 22.6793C16.514 24.7429 17.2018 27.1882 17.1126 29.6182C17.1094 30.4141 17.1222 31.2073 17.0999 32C15.5013 31.9526 13.8868 32.0831 12.3042 31.7741C8.78853 31.182 5.55636 29.0896 3.61063 26.1026C2.13626 23.9308 1.40067 21.2782 1.47708 18.6574C1.47708 17.9091 1.47708 17.1639 1.48344 16.4188Z" fill="#C6C9D5"/>
<path d="M28.4464 16.7562C30.179 16.3709 31.965 16.4346 33.7262 16.4346L33.8027 16.511C33.7646 18.1766 33.8951 19.8611 33.5607 21.5074C32.857 25.2013 30.4114 28.5002 27.1218 30.3122C25.0742 31.4522 22.7241 32.013 20.3835 31.9872C19.6351 31.9904 18.8836 31.9747 18.1353 31.9969C18.1353 30.6179 18.0779 29.2326 18.234 27.8602C18.597 24.539 20.393 21.447 22.9757 19.358C24.5742 18.0969 26.453 17.183 28.4464 16.7562Z" fill="#C6C9D5"/>
<path d="M46.8753 25.8324C46.8753 26.3931 46.6811 26.8674 46.2933 27.2557C45.9266 27.6224 45.4629 27.8051 44.9026 27.8051C44.3633 27.8051 43.9104 27.6224 43.5442 27.2557C43.1776 26.8674 42.9941 26.3931 42.9941 25.8324V5.84424C42.9941 5.28364 43.1776 4.82005 43.5442 4.45352C43.932 4.06541 44.4065 3.87134 44.9674 3.87134C45.5276 3.87134 45.9806 4.06541 46.3257 4.45352C46.6919 4.82005 46.8753 5.28364 46.8753 5.84424V25.8324Z" fill="#C6C9D5"/>
<path d="M62.4539 10.5017C63.0143 10.5017 63.4781 10.6957 63.8447 11.0839C64.2109 11.4504 64.3942 11.914 64.3942 12.4746V20.6898C64.3942 22.9754 63.7585 24.7866 62.4863 26.1235C61.2138 27.4605 59.3813 28.1286 56.9875 28.1286C54.5944 28.1286 52.7615 27.4605 51.4894 26.1235C50.2388 24.7866 49.6133 22.9754 49.6133 20.6898V12.4746C49.6133 11.914 49.7966 11.4504 50.1633 11.0839C50.53 10.6957 50.9932 10.5017 51.554 10.5017C52.1149 10.5017 52.5781 10.6957 52.9448 11.0839C53.3114 11.4504 53.4949 11.914 53.4949 12.4746V20.6898C53.4949 22.0051 53.786 22.9862 54.3679 23.633C54.9503 24.2582 55.8233 24.571 56.9875 24.571C58.174 24.571 59.0578 24.2582 59.6402 23.633C60.222 22.9862 60.5132 22.0051 60.5132 20.6898V12.4746C60.5132 11.914 60.6965 11.4504 61.0632 11.0839C61.4293 10.6957 61.8931 10.5017 62.4539 10.5017Z" fill="#C6C9D5"/>
<path d="M76.067 10.1783C77.7921 10.1783 79.0642 10.5988 79.8839 11.4397C80.7031 12.259 81.2422 13.3264 81.5005 14.6417L80.951 14.3505L81.2099 13.8332C81.4682 13.3372 81.8668 12.8089 82.4069 12.2484C82.9452 11.6661 83.5924 11.181 84.3468 10.7929C85.1229 10.3831 85.9852 10.1783 86.9349 10.1783C88.4869 10.1783 89.662 10.5125 90.4596 11.181C91.2797 11.8494 91.8397 12.7441 92.1413 13.8654C92.4436 14.9652 92.5949 16.1942 92.5949 17.5526V25.8325C92.5949 26.3931 92.4108 26.8674 92.0445 27.2557C91.678 27.6224 91.2148 27.8051 90.654 27.8051C90.0933 27.8051 89.63 27.6224 89.2628 27.2557C88.8965 26.8674 88.7133 26.3931 88.7133 25.8325V17.5526C88.7133 16.841 88.6277 16.205 88.4549 15.6444C88.2821 15.0621 87.9692 14.5986 87.5165 14.2536C87.0636 13.9086 86.4172 13.736 85.5764 13.736C84.7564 13.736 84.0564 13.9086 83.474 14.2536C82.8916 14.5986 82.4492 15.0621 82.1477 15.6444C81.8668 16.205 81.7268 16.841 81.7268 17.5526V25.8325C81.7268 26.3931 81.5436 26.8674 81.1775 27.2557C80.8108 27.6224 80.347 27.8051 79.7868 27.8051C79.226 27.8051 78.7622 27.6224 78.3961 27.2557C78.0293 26.8674 77.8461 26.3931 77.8461 25.8325V17.5526C77.8461 16.841 77.7598 16.205 77.5872 15.6444C77.4147 15.0621 77.1019 14.5986 76.6494 14.2536C76.1964 13.9086 75.5493 13.736 74.7088 13.736C73.8896 13.736 73.1885 13.9086 72.6061 14.2536C72.0242 14.5986 71.582 15.0621 71.28 15.6444C71.0002 16.205 70.86 16.841 70.86 17.5526V25.8325C70.86 26.3931 70.6768 26.8674 70.31 27.2557C69.9433 27.6224 69.4801 27.8051 68.9193 27.8051C68.3584 27.8051 67.8951 27.6224 67.5286 27.2557C67.1619 26.8674 66.9785 26.3931 66.9785 25.8325V12.4746C66.9785 11.9142 67.1619 11.4505 67.5286 11.0839C67.8951 10.6958 68.3584 10.5018 68.9193 10.5018C69.4801 10.5018 69.9433 10.6958 70.31 11.0839C70.6768 11.4505 70.86 11.9142 70.86 12.4746V13.8654L70.3747 13.7684C70.5688 13.4019 70.8384 13.0137 71.1831 12.6041C71.5282 12.1729 71.9488 11.7739 72.4448 11.4074C72.9405 11.0408 73.4905 10.7497 74.0939 10.5341C74.6979 10.2969 75.3558 10.1783 76.067 10.1783Z" fill="#C6C9D5"/>
<path d="M98.8321 25.8323C98.8321 26.393 98.6489 26.8674 98.2824 27.2556C97.9161 27.6223 97.4521 27.8051 96.8912 27.8051C96.3312 27.8051 95.8672 27.6223 95.5009 27.2556C95.1344 26.8674 94.9512 26.393 94.9512 25.8323V12.4746C94.9512 11.9141 95.1344 11.4505 95.5009 11.0839C95.8672 10.6957 96.3312 10.5017 96.8912 10.5017C97.4521 10.5017 97.9161 10.6957 98.2824 11.0839C98.6489 11.4505 98.8321 11.9141 98.8321 12.4746V25.8323ZM96.8592 8.39943C96.1264 8.39943 95.6089 8.28078 95.3064 8.04359C95.0049 7.80644 94.8545 7.38599 94.8545 6.78223V6.1677C94.8545 5.54238 95.016 5.12193 95.3392 4.90633C95.684 4.66911 96.2017 4.55054 96.8912 4.55054C97.6464 4.55054 98.1753 4.66911 98.4761 4.90633C98.7784 5.1435 98.9296 5.56395 98.9296 6.1677V6.78223C98.9296 7.40754 98.7673 7.83879 98.4441 8.07598C98.1209 8.29159 97.5929 8.39943 96.8592 8.39943Z" fill="#C6C9D5"/>
<path d="M110.454 10.1783C112.05 10.1783 113.258 10.5125 114.076 11.181C114.918 11.8494 115.489 12.7441 115.791 13.8654C116.114 14.9652 116.276 16.1942 116.276 17.5526V25.8325C116.276 26.3931 116.093 26.8674 115.726 27.2557C115.359 27.6224 114.896 27.8051 114.335 27.8051C113.775 27.8051 113.311 27.6224 112.945 27.2557C112.578 26.8674 112.395 26.3931 112.395 25.8325V17.5526C112.395 16.841 112.298 16.205 112.104 15.6444C111.931 15.0621 111.608 14.5986 111.133 14.2536C110.659 13.9086 109.98 13.736 109.096 13.736C108.233 13.736 107.5 13.9086 106.896 14.2536C106.315 14.5986 105.862 15.0621 105.538 15.6444C105.236 16.205 105.085 16.841 105.085 17.5526V25.8325C105.085 26.3931 104.902 26.8674 104.535 27.2557C104.169 27.6224 103.705 27.8051 103.145 27.8051C102.584 27.8051 102.12 27.6224 101.754 27.2557C101.387 26.8674 101.204 26.3931 101.204 25.8325V12.4746C101.204 11.9142 101.387 11.4505 101.754 11.0839C102.12 10.6958 102.584 10.5018 103.145 10.5018C103.705 10.5018 104.169 10.6958 104.535 11.0839C104.902 11.4505 105.085 11.9142 105.085 12.4746V13.8654L104.6 13.7684C104.795 13.4019 105.074 13.0137 105.441 12.6041C105.807 12.1729 106.239 11.7739 106.735 11.4074C107.231 11.0408 107.791 10.7497 108.416 10.5341C109.042 10.2969 109.721 10.1783 110.454 10.1783Z" fill="#C6C9D5"/>
<path d="M135.479 19.1697C135.479 20.9379 135.08 22.5012 134.283 23.8595C133.505 25.1964 132.449 26.2421 131.112 26.9968C129.798 27.7512 128.32 28.1288 126.681 28.1288C125.043 28.1288 123.556 27.7512 122.219 26.9968C120.903 26.2421 119.846 25.1964 119.049 23.8595C118.273 22.5012 117.884 20.9379 117.884 19.1697C117.884 17.4017 118.273 15.8491 119.049 14.5123C119.846 13.1539 120.903 12.0974 122.219 11.3427C123.556 10.5664 125.043 10.1783 126.681 10.1783C128.32 10.1783 129.798 10.5664 131.112 11.3427C132.449 12.0974 133.505 13.1539 134.283 14.5123C135.08 15.8491 135.479 17.4017 135.479 19.1697ZM131.598 19.1697C131.598 18.0701 131.371 17.1213 130.918 16.3235C130.487 15.5042 129.894 14.8681 129.139 14.4153C128.407 13.9625 127.588 13.736 126.681 13.736C125.775 13.736 124.946 13.9625 124.191 14.4153C123.458 14.8681 122.865 15.5042 122.412 16.3235C121.98 17.1213 121.766 18.0701 121.766 19.1697C121.766 20.2479 121.98 21.1966 122.412 22.016C122.865 22.8137 123.458 23.439 124.191 23.8919C124.946 24.3446 125.775 24.5711 126.681 24.5711C127.588 24.5711 128.407 24.3446 129.139 23.8919C129.894 23.439 130.487 22.8137 130.918 22.016C131.371 21.1966 131.598 20.2479 131.598 19.1697Z" fill="#C6C9D5"/>
<path d="M149.945 10.5017C150.506 10.5017 150.969 10.6957 151.335 11.0839C151.701 11.4504 151.885 11.914 151.885 12.4746V20.6898C151.885 22.9754 151.25 24.7866 149.977 26.1235C148.704 27.4605 146.872 28.1286 144.478 28.1286C142.085 28.1286 140.253 27.4605 138.98 26.1235C137.729 24.7866 137.104 22.9754 137.104 20.6898V12.4746C137.104 11.914 137.287 11.4504 137.655 11.0839C138.021 10.6957 138.484 10.5017 139.045 10.5017C139.605 10.5017 140.069 10.6957 140.436 11.0839C140.802 11.4504 140.985 11.914 140.985 12.4746V20.6898C140.985 22.0051 141.277 22.9862 141.858 23.633C142.442 24.2582 143.314 24.571 144.478 24.571C145.664 24.571 146.548 24.2582 147.13 23.633C147.712 22.9862 148.004 22.0051 148.004 20.6898V12.4746C148.004 11.914 148.187 11.4504 148.554 11.0839C148.921 10.6957 149.383 10.5017 149.945 10.5017Z" fill="#C6C9D5"/>
<path d="M153.467 25.1209C153.252 24.819 153.154 24.4309 153.176 23.9566C153.197 23.4822 153.478 23.0726 154.017 22.7275C154.362 22.5118 154.728 22.4257 155.116 22.4687C155.505 22.4904 155.882 22.6844 156.248 23.051C156.874 23.6762 157.531 24.1614 158.222 24.5064C158.912 24.8514 159.774 25.0238 160.81 25.0238C161.132 25.0023 161.487 24.9593 161.876 24.8945C162.264 24.8083 162.599 24.6358 162.879 24.3771C163.18 24.0968 163.332 23.6762 163.332 23.1156C163.332 22.6413 163.17 22.2639 162.846 21.9836C162.523 21.7033 162.092 21.4662 161.553 21.272C161.036 21.078 160.453 20.8948 159.807 20.7222C159.138 20.5282 158.447 20.3125 157.736 20.0753C157.045 19.8382 156.41 19.5363 155.827 19.1697C155.246 18.7816 154.771 18.2749 154.405 17.6496C154.039 17.0243 153.856 16.2374 153.856 15.2886C153.856 14.2105 154.156 13.2941 154.76 12.5393C155.365 11.7847 156.14 11.2025 157.089 10.7929C158.06 10.3831 159.073 10.1783 160.129 10.1783C160.798 10.1783 161.499 10.2646 162.232 10.4371C162.965 10.588 163.666 10.8468 164.334 11.2133C165.003 11.5583 165.563 12.0219 166.016 12.6041C166.253 12.9276 166.393 13.3156 166.437 13.7684C166.479 14.2212 166.274 14.631 165.822 14.9974C165.499 15.2561 165.121 15.3748 164.69 15.3532C164.258 15.3101 163.903 15.1592 163.623 14.9005C163.256 14.4262 162.76 14.0488 162.135 13.7684C161.531 13.4881 160.831 13.348 160.032 13.348C159.71 13.348 159.353 13.391 158.965 13.4773C158.599 13.542 158.276 13.7038 157.995 13.9625C157.715 14.1997 157.575 14.5878 157.575 15.1268C157.575 15.6228 157.736 16.0217 158.06 16.3235C158.383 16.6038 158.814 16.8411 159.353 17.0351C159.913 17.2077 160.507 17.3801 161.132 17.5526C161.779 17.7251 162.437 17.9299 163.105 18.1671C163.774 18.4043 164.388 18.7169 164.948 19.105C165.51 19.4932 165.962 20 166.306 20.6251C166.652 21.2289 166.826 22.0052 166.826 22.9539C166.826 24.0537 166.501 24.9916 165.854 25.7678C165.208 26.5441 164.398 27.137 163.429 27.5469C162.459 27.9345 161.466 28.1288 160.453 28.1288C159.181 28.1288 157.909 27.913 156.636 27.4822C155.365 27.0292 154.308 26.2421 153.467 25.1209Z" fill="#C6C9D5"/>
</g>
</g>
</g>
<defs>
<clipPath id="clip0_451_32301">
<rect width="167.111" height="32" fill="white" transform="translate(0.793945)"/>
</clipPath>
</defs>
</svg>
