<svg width="133" height="32" viewBox="0 0 133 32" fill="none" xmlns="http://www.w3.org/2000/svg">
<path d="M124.525 24.0821C123.163 24.0821 121.969 23.7929 120.942 23.2145C119.917 22.6174 119.124 21.7872 118.564 20.7237C118.004 19.6603 117.725 18.4102 117.725 16.9736C117.725 15.5556 118.004 14.3149 118.564 13.2514C119.124 12.1693 119.917 11.3297 120.942 10.7326C121.969 10.117 123.163 9.80908 124.525 9.80908C125.905 9.80908 127.1 10.117 128.107 10.7326C129.134 11.3484 129.926 12.1973 130.486 13.2794C131.046 14.3429 131.326 15.5649 131.326 16.9456C131.326 17.1509 131.316 17.356 131.298 17.5613C131.298 17.7478 131.279 17.9064 131.242 18.0371H120.718V15.2944H128.471L127.911 16.6098C127.911 15.453 127.631 14.5108 127.071 13.7831C126.531 13.0555 125.682 12.6917 124.525 12.6917C123.518 12.6917 122.706 13.0089 122.09 13.6432C121.474 14.2589 121.166 15.0892 121.166 16.134V17.6173C121.166 18.7181 121.474 19.5856 122.09 20.22C122.725 20.8357 123.582 21.1436 124.665 21.1436C125.616 21.1436 126.363 20.9477 126.903 20.5558C127.445 20.164 127.911 19.6789 128.303 19.1005L130.85 20.5558C130.234 21.6939 129.395 22.5709 128.331 23.1865C127.286 23.7836 126.017 24.0821 124.525 24.0821Z" fill="#C6C9D5"/>
<path d="M111.903 10.117L112.827 13.8951V23.8022H109.161V10.117H111.903ZM112.071 15.7701L111.399 15.4623V12.6637L111.652 12.3558C111.857 12.02 112.165 11.6562 112.575 11.2644C113.005 10.8725 113.489 10.5367 114.03 10.2569C114.59 9.95833 115.168 9.80908 115.766 9.80908C116.064 9.80908 116.334 9.82775 116.577 9.86508C116.82 9.90242 117.006 9.96766 117.137 10.061V13.3913H116.241C115.029 13.3913 114.096 13.5872 113.443 13.979C112.79 14.3522 112.333 14.9493 112.071 15.7701Z" fill="#C6C9D5"/>
<path d="M98.2257 24.138C97.2 24.138 96.3786 23.9794 95.7635 23.6622C95.1475 23.345 94.672 22.9252 94.336 22.4028C94.0186 21.8617 93.8044 21.2461 93.6924 20.5558C93.5804 19.8654 93.5244 19.147 93.5244 18.4008V10.1168H97.1902V18.4287C97.1902 19.2684 97.368 19.8281 97.7226 20.1079C98.0951 20.3878 98.5342 20.5278 99.0373 20.5278C99.504 20.5278 99.9706 20.4438 100.437 20.2758C100.903 20.1079 101.342 19.8654 101.752 19.5482C102.181 19.2124 102.536 18.8299 102.816 18.4008L103.264 20.3318H102.368V10.1168H106.035V23.8022H103.292L102.536 21.1994L103.711 21.2274C103.245 21.7685 102.713 22.2629 102.116 22.7107C101.538 23.1584 100.913 23.5129 100.241 23.7742C99.5884 24.0166 98.9164 24.138 98.2257 24.138Z" fill="#C6C9D5"/>
<path d="M88.689 24.054C87.2897 24.054 86.1796 23.6901 85.3587 22.9625C84.5564 22.2162 84.1553 21.0315 84.1553 19.4083V10.2848L84.0993 10.1168L84.855 6.89844H87.8215V18.8205C87.8215 19.4176 87.9614 19.8561 88.2413 20.1359C88.5398 20.3972 88.9129 20.5277 89.3608 20.5277C89.6592 20.5277 89.9294 20.5091 90.1721 20.4717C90.4147 20.4157 90.6298 20.3598 90.8156 20.3038V23.7181C90.5178 23.8301 90.2005 23.9141 89.8645 23.9701C89.5287 24.026 89.1369 24.054 88.689 24.054ZM82.0283 13.5032V10.1168H90.8156V13.5032H82.0283Z" fill="#C6C9D5"/>
<path d="M75.765 9.80896C76.6979 9.80896 77.4442 9.96754 78.004 10.2848C78.5824 10.6019 79.0114 11.031 79.2913 11.5721C79.5898 12.1131 79.7857 12.7289 79.8791 13.4192C79.9723 14.0909 80.019 14.7906 80.019 15.5182V23.8021H76.3528V15.4902C76.3528 14.6506 76.1848 14.0909 75.849 13.811C75.5319 13.5312 75.1214 13.3912 74.6176 13.3912C74.1512 13.3912 73.6754 13.4845 73.1904 13.6711C72.7052 13.839 72.2481 14.0909 71.819 14.4267C71.4085 14.7439 71.054 15.1077 70.7555 15.5182L70.2798 13.6151H71.2033V23.8021H67.5371V10.1169H70.2798L71.0353 12.7475L69.86 12.6915C70.345 12.1318 70.8954 11.6374 71.5112 11.2083C72.1455 10.7792 72.8172 10.4434 73.5262 10.2008C74.2352 9.93963 74.9815 9.80896 75.765 9.80896Z" fill="#C6C9D5"/>
<path d="M58.495 24.0819C57.133 24.0819 55.939 23.7928 54.9128 23.2144C53.8866 22.6173 53.0937 21.7871 52.534 20.7236C51.9742 19.6602 51.6943 18.4101 51.6943 16.9735C51.6943 15.5554 51.9742 14.3147 52.534 13.2513C53.0937 12.1691 53.8866 11.3296 54.9128 10.7325C55.939 10.1169 57.133 9.80896 58.495 9.80896C59.8757 9.80896 61.0698 10.1169 62.0773 10.7325C63.1034 11.3482 63.8964 12.1971 64.4561 13.2793C65.0158 14.3427 65.2957 15.5648 65.2957 16.9455C65.2957 17.1507 65.2863 17.3559 65.2677 17.5611C65.2677 17.7477 65.249 17.9063 65.2118 18.037H54.6889V15.2943H62.4411L61.8814 16.6097C61.8814 15.4529 61.6015 14.5106 61.0418 13.783C60.5007 13.0554 59.6518 12.6915 58.495 12.6915C57.4875 12.6915 56.6759 13.0088 56.0602 13.6431C55.4446 14.2588 55.1366 15.089 55.1366 16.1338V17.6171C55.1366 18.7179 55.4446 19.5855 56.0602 20.2199C56.6946 20.8355 57.5528 21.1434 58.635 21.1434C59.5865 21.1434 60.3328 20.9475 60.8739 20.5557C61.415 20.1639 61.8814 19.6788 62.2732 19.1004L64.8199 20.5557C64.2042 21.6938 63.3646 22.5707 62.3012 23.1864C61.2563 23.7834 59.9877 24.0819 58.495 24.0819Z" fill="#C6C9D5"/>
<path d="M51.1332 10.1168L46.1237 23.8022H42.5974L37.3359 10.1168H41.1981L44.7803 20.5837H43.9127L47.355 10.1168H51.1332Z" fill="#C6C9D5"/>
<path fill-rule="evenodd" clip-rule="evenodd" d="M10.9982 2.3988C10.5213 2.3988 10.1346 2.78544 10.1346 3.26238V11.4663C5.12691 11.4664 1.06738 15.526 1.06738 20.5338C1.06738 25.5416 5.12702 29.6012 10.1349 29.6012H18.3388C18.8157 29.6012 19.2023 29.2146 19.2023 28.7376V20.5338C24.2101 20.5336 28.2695 16.474 28.2695 11.4663C28.2695 6.45845 24.2099 2.3988 19.2021 2.3988H10.9982ZM19.2023 20.5338V12.3299C19.2023 11.8529 18.8157 11.4663 18.3388 11.4663H10.1346C10.1345 11.4663 10.1347 11.4663 10.1346 11.4663V19.6701C10.1346 20.1471 10.5213 20.5338 10.9982 20.5338H19.2023C19.2024 20.5338 19.2023 20.5338 19.2023 20.5338Z" fill="#C6C9D5"/>
<path d="M10.901 2.3988C10.4778 2.3988 10.1348 2.74188 10.1348 3.16507V11.4663H18.4359C18.8591 11.4663 19.2022 11.8093 19.2022 12.2325V20.5338C24.2101 20.5338 28.2697 16.4741 28.2697 11.4663C28.2697 6.45845 24.2101 2.3988 19.2022 2.3988H10.901Z" fill="#C6C9D5"/>
</svg>
