<svg width="178" height="32" viewBox="0 0 178 32" fill="none" xmlns="http://www.w3.org/2000/svg">
<g clip-path="url(#clip0_451_32217)">
<mask id="mask0_451_32217" style="mask-type:luminance" maskUnits="userSpaceOnUse" x="0" y="0" width="178" height="32">
<path d="M177.456 0H0.225586V32H177.456V0Z" fill="white"/>
</mask>
<g mask="url(#mask0_451_32217)">
<mask id="mask1_451_32217" style="mask-type:luminance" maskUnits="userSpaceOnUse" x="0" y="0" width="177" height="32">
<path d="M176.787 0H0.786133V32H176.787V0Z" fill="white"/>
</mask>
<g mask="url(#mask1_451_32217)">
<path d="M57.126 28.5883C54.5927 28.5883 52.3532 28.0908 50.4076 27.0953C48.4619 26.0771 46.9578 24.641 45.8946 22.7859C44.8314 20.9308 44.2998 18.7478 44.2998 16.2369C44.2998 13.7259 44.8314 11.5429 45.8946 9.68796C46.9578 7.81034 48.4619 6.37391 50.4076 5.37857C52.3532 4.36058 54.5927 3.85156 57.126 3.85156C58.8454 3.85156 60.3611 4.03257 61.673 4.39452C63.008 4.73385 64.2293 5.27674 65.3376 6.02327V10.9435C64.3424 10.1291 63.2002 9.54092 61.9108 9.179C60.6439 8.79436 59.1963 8.60212 57.5675 8.60212C56.0518 8.60212 54.6828 8.91884 53.4614 9.5522C52.2626 10.163 51.3126 11.0452 50.6113 12.1989C49.91 13.3526 49.5591 14.6986 49.5591 16.2369C49.5591 17.7978 49.8759 19.1664 50.5092 20.3427C51.1654 21.4965 52.0815 22.3899 53.2577 23.0234C54.4341 23.6567 55.7915 23.9734 57.3297 23.9734C58.7323 23.9734 59.9536 23.7247 60.9943 23.227V18.6462H57.16V14.8457H65.9823V26.2809C63.7429 27.819 60.7911 28.5883 57.126 28.5883Z" fill="#C6C9D5"/>
<path d="M67.1738 11.7918H72.1277V14.1332C72.7839 13.3415 73.7 12.742 74.8762 12.3348C76.0526 11.9049 77.3875 11.6901 78.8802 11.6901V15.5923C77.3194 15.5923 75.9395 15.8298 74.7406 16.3049C73.5644 16.7799 72.75 17.5038 72.2974 18.4766V28.0794H67.1738V11.7918Z" fill="#C6C9D5"/>
<path d="M88.7268 28.5883C85.6045 28.5883 83.1501 27.8416 81.3629 26.3489C79.576 24.8332 78.6826 22.7179 78.6826 20.0034C78.6826 17.3113 79.4745 15.1849 81.058 13.6241C82.6637 12.0632 84.9485 11.2827 87.9124 11.2827C89.8573 11.2827 91.5085 11.6447 92.866 12.3686C94.2237 13.0925 95.2532 14.0992 95.954 15.3885C96.6557 16.6553 97.0061 18.0918 97.0061 19.6979V21.7678H83.5693C83.9309 23.8491 85.8765 24.8898 89.4052 24.8898C90.4452 24.8898 91.5204 24.7991 92.6285 24.6179C93.7373 24.4373 94.6989 24.1883 95.5133 23.8716V27.4685C94.7213 27.808 93.7028 28.0792 92.4589 28.2829C91.2148 28.4862 89.9709 28.5883 88.7268 28.5883ZM92.1533 18.4424C92.0861 17.3566 91.6788 16.5197 90.9325 15.9315C90.186 15.3206 89.1565 15.0152 87.8445 15.0152C86.5549 15.0152 85.5364 15.3206 84.7901 15.9315C84.0436 16.5422 83.6365 17.3792 83.5693 18.4424H92.1533Z" fill="#C6C9D5"/>
<path d="M107.509 28.5883C104.387 28.5883 101.933 27.8416 100.146 26.3489C98.3585 24.8332 97.4648 22.7179 97.4648 20.0034C97.4648 17.3113 98.2568 15.1849 99.8401 13.6241C101.447 12.0632 103.731 11.2827 106.695 11.2827C108.64 11.2827 110.291 11.6447 111.649 12.3686C113.006 13.0925 114.035 14.0992 114.736 15.3885C115.438 16.6553 115.789 18.0918 115.789 19.6979V21.7678H102.351C102.713 23.8491 104.658 24.8898 108.187 24.8898C109.228 24.8898 110.303 24.7991 111.411 24.6179C112.519 24.4373 113.481 24.1883 114.295 23.8716V27.4685C113.503 27.808 112.486 28.0792 111.242 28.2829C109.997 28.4862 108.754 28.5883 107.509 28.5883ZM110.936 18.4424C110.868 17.3566 110.461 16.5197 109.714 15.9315C108.968 15.3206 107.938 15.0152 106.627 15.0152C105.338 15.0152 104.319 15.3206 103.573 15.9315C102.826 16.5422 102.419 17.3792 102.351 18.4424H110.936Z" fill="#C6C9D5"/>
<path d="M116.925 11.7917H121.879V13.7938C122.626 12.9568 123.508 12.3346 124.526 11.9274C125.567 11.4976 126.652 11.2827 127.783 11.2827C130 11.2827 131.652 11.8822 132.738 13.0811C133.846 14.2576 134.4 15.8523 134.4 17.8656V28.0792H129.276V18.4424C129.276 16.3387 128.304 15.2868 126.358 15.2868C125.499 15.2868 124.695 15.5016 123.95 15.9315C123.202 16.3387 122.569 16.9494 122.049 17.7638V28.0792H116.925V11.7917Z" fill="#C6C9D5"/>
<path d="M138.92 9.28083C138.129 9.28083 137.462 9.02068 136.919 8.50035C136.376 7.98011 136.104 7.32408 136.104 6.53231C136.104 5.76321 136.376 5.1185 136.919 4.59816C137.462 4.05526 138.129 3.78381 138.92 3.78381C139.713 3.78381 140.38 4.05526 140.923 4.59816C141.467 5.1185 141.738 5.76321 141.738 6.53231C141.738 7.32408 141.467 7.98011 140.923 8.50035C140.38 9.02068 139.713 9.28083 138.92 9.28083ZM136.342 11.7918H141.5V28.0794H136.342V11.7918Z" fill="#C6C9D5"/>
<path d="M150.239 28.5883C149.017 28.5883 147.705 28.4528 146.303 28.1809C144.923 27.932 143.837 27.5702 143.045 27.0952V23.0912C143.949 23.6341 145.035 24.0753 146.303 24.4146C147.57 24.7541 148.746 24.9238 149.831 24.9238C150.759 24.9238 151.437 24.8441 151.867 24.686C152.297 24.5277 152.512 24.2336 152.512 23.8038C152.512 23.4644 152.388 23.1931 152.139 22.9894C151.89 22.7632 151.505 22.5709 150.985 22.4125C150.487 22.2315 149.65 21.9714 148.474 21.6321C147.094 21.2249 146.009 20.8178 145.217 20.4105C144.448 19.9808 143.86 19.4491 143.452 18.8157C143.067 18.1824 142.875 17.368 142.875 16.3725C142.875 14.6759 143.542 13.4091 144.877 12.5721C146.235 11.7125 148.068 11.2827 150.374 11.2827C151.505 11.2827 152.671 11.4071 153.869 11.656C155.09 11.8822 156.029 12.1876 156.685 12.5721V16.4744C156.029 16.0445 155.17 15.6939 154.107 15.4225C153.067 15.151 152.048 15.0152 151.053 15.0152C150.125 15.0152 149.402 15.1058 148.882 15.2868C148.384 15.4678 148.134 15.807 148.134 16.3047C148.134 16.7346 148.372 17.0626 148.848 17.2888C149.345 17.5149 150.262 17.7977 151.596 18.1371L152.274 18.3067C153.7 18.6913 154.809 19.1211 155.6 19.5961C156.391 20.0486 156.946 20.6028 157.263 21.2588C157.602 21.8923 157.772 22.6953 157.772 23.668C157.772 25.1611 157.127 26.3598 155.837 27.2648C154.548 28.1474 152.682 28.5883 150.239 28.5883Z" fill="#C6C9D5"/>
<path d="M158.956 3.0033H164.08V13.6581C164.849 12.8663 165.72 12.2781 166.693 11.8936C167.665 11.4864 168.706 11.2828 169.814 11.2828C172.032 11.2828 173.682 11.8823 174.769 13.0812C175.877 14.2576 176.432 15.8524 176.432 17.8657V28.0794H171.307V18.4426C171.307 16.3387 170.335 15.2869 168.39 15.2869C167.53 15.2869 166.726 15.5018 165.98 15.9316C165.234 16.3387 164.6 16.9495 164.08 17.7639V28.0794H158.956V3.0033Z" fill="#C6C9D5"/>
<path fill-rule="evenodd" clip-rule="evenodd" d="M26.8008 7.80443C26.8008 12.1147 23.3069 15.6089 18.9966 15.6089C14.6862 15.6089 11.1921 12.1147 11.1921 7.80443C11.1921 3.49417 14.6862 0 18.9966 0C23.3069 0 26.8008 3.49417 26.8008 7.80443ZM0.842847 15.0417C9.34557 14.4686 16.756 20.8346 17.4462 29.3553C17.5179 30.2383 17.5144 31.1103 17.4413 31.9642C8.93853 32.5372 1.52816 26.1713 0.837892 17.6506C0.766413 16.7676 0.769816 15.8959 0.842847 15.0417ZM22.9427 31.6658C31.4635 30.9755 37.8295 23.5653 37.2563 15.0625C36.4019 14.9895 35.5304 14.9862 34.6475 15.0577C26.1265 15.7478 19.7607 23.1583 20.3339 31.6608C21.188 31.7339 22.0598 31.7375 22.9427 31.6658Z" fill="#C6C9D5"/>
</g>
</g>
</g>
<defs>
<clipPath id="clip0_451_32217">
<rect width="177.231" height="32" fill="white" transform="translate(0.225586)"/>
</clipPath>
</defs>
</svg>
