<svg width="158" height="32" viewBox="0 0 158 32" fill="none" xmlns="http://www.w3.org/2000/svg">
<g clip-path="url(#clip0_451_32190)">
<path d="M146.621 16.6034H152.326C152.274 15.3329 151.444 14.0882 149.473 14.0882C147.684 14.0882 146.698 15.4366 146.621 16.6034ZM152.662 19.9225L155.541 20.7782C154.893 22.9822 152.87 24.8232 149.732 24.8232C146.232 24.8232 143.146 22.308 143.146 18.0037C143.146 13.9326 146.154 11.2878 149.422 11.2878C153.362 11.2878 155.722 13.803 155.722 17.8999C155.722 18.3926 155.67 18.9112 155.67 18.963H146.543C146.621 20.6485 148.047 21.8672 149.758 21.8672C151.366 21.8672 152.247 21.0634 152.662 19.9225Z" fill="#C6C9D5"/>
<path d="M131.636 20.882L134.592 20.2337C134.669 21.245 135.421 22.1785 136.925 22.1785C138.066 22.1785 138.611 21.5821 138.611 20.908C138.611 20.3375 138.222 19.8708 137.237 19.6633L135.551 19.2744C133.088 18.7298 131.973 17.2518 131.973 15.4627C131.973 13.1808 133.996 11.288 136.744 11.288C140.374 11.288 141.593 13.5957 141.749 14.97L138.87 15.6182C138.766 14.8663 138.222 13.9068 136.77 13.9068C135.862 13.9068 135.137 14.4514 135.137 15.1774C135.137 15.7997 135.603 16.1887 136.303 16.3184L138.118 16.7073C140.633 17.2259 141.904 18.7557 141.904 20.6227C141.904 22.6971 140.297 24.8233 136.952 24.8233C133.114 24.8233 131.792 22.334 131.636 20.882Z" fill="#C6C9D5"/>
<path d="M129.552 24.4344H126.103V11.6769H129.552V24.4344ZM125.688 7.50216C125.688 6.30938 126.648 5.34998 127.814 5.34998C129.007 5.34998 129.94 6.30938 129.94 7.50216C129.94 8.6431 129.007 9.60246 127.814 9.60246C126.648 9.60246 125.688 8.6431 125.688 7.50216Z" fill="#C6C9D5"/>
<path d="M124.194 11.6248V15.0995C123.806 15.0217 123.469 14.9957 123.158 14.9957C121.394 14.9957 119.864 15.8515 119.864 18.6V24.4342H116.416V11.6768H119.761V13.5696C120.538 11.8842 122.302 11.573 123.391 11.573C123.676 11.573 123.935 11.5989 124.194 11.6248Z" fill="#C6C9D5"/>
<path d="M104.506 29.361H101.058V11.6768H104.403V13.2326C104.974 12.2473 106.399 11.3916 108.318 11.3916C112.052 11.3916 114.204 14.2439 114.204 18.0297C114.204 21.8932 111.793 24.7455 108.189 24.7455C106.426 24.7455 105.129 24.0454 104.506 23.1897V29.361ZM110.807 18.0556C110.807 15.7997 109.407 14.4773 107.644 14.4773C105.881 14.4773 104.454 15.7997 104.454 18.0556C104.454 20.3115 105.881 21.6598 107.644 21.6598C109.407 21.6598 110.807 20.3374 110.807 18.0556Z" fill="#C6C9D5"/>
<path d="M99.1493 11.6248V15.0995C98.7605 15.0217 98.4229 14.9957 98.1117 14.9957C96.3485 14.9957 94.8189 15.8515 94.8189 18.6V24.4342H91.3701V11.6768H94.7149V13.5696C95.4933 11.8842 97.2565 11.573 98.3453 11.573C98.6301 11.573 98.8901 11.5989 99.1493 11.6248Z" fill="#C6C9D5"/>
<path d="M80.0729 16.6036H85.7777C85.7257 15.333 84.8961 14.0884 82.9257 14.0884C81.1361 14.0884 80.1513 15.4367 80.0729 16.6036ZM86.1145 19.9226L88.9929 20.7783C88.3449 22.9823 86.3225 24.8233 83.1849 24.8233C79.6842 24.8233 76.5986 22.3081 76.5986 18.0038C76.5986 13.9328 79.6065 11.288 82.8737 11.288C86.8153 11.288 89.1745 13.8032 89.1745 17.9C89.1745 18.3928 89.1225 18.9113 89.1225 18.9632H79.9954C80.0729 20.6486 81.4993 21.8673 83.2105 21.8673C84.8185 21.8673 85.7001 21.0635 86.1145 19.9226Z" fill="#C6C9D5"/>
<path d="M72.7051 7.86523V11.677H75.2721V14.7366H72.7051V20.0782C72.7051 21.1932 73.2236 21.5562 74.209 21.5562C74.6239 21.5562 75.0906 21.5044 75.2721 21.4525V24.3048C74.961 24.4345 74.3387 24.6159 73.3274 24.6159C70.8381 24.6159 69.2824 23.1379 69.2824 20.6746V14.7366H66.9746V11.677H67.6229C68.9712 11.677 69.5935 10.7953 69.5935 9.6544V7.86523H72.7051Z" fill="#C6C9D5"/>
<path d="M57.2788 17.0963V24.4345H53.8301V11.677H57.175V13.2586C57.953 11.9362 59.4828 11.3398 60.8571 11.3398C64.0206 11.3398 65.4726 13.5958 65.4726 16.3962V24.4345H62.0239V16.9926C62.0239 15.5664 61.3238 14.4514 59.6643 14.4514C58.1604 14.4514 57.2788 15.6182 57.2788 17.0963Z" fill="#C6C9D5"/>
<path d="M42.5313 16.6036H48.2358C48.184 15.333 47.3542 14.0884 45.3835 14.0884C43.5944 14.0884 42.609 15.4367 42.5313 16.6036ZM48.573 19.9226L51.4511 20.7783C50.8029 22.9823 48.7804 24.8233 45.6429 24.8233C42.1423 24.8233 39.0566 22.3081 39.0566 18.0038C39.0566 13.9328 42.0646 11.288 45.3317 11.288C49.273 11.288 51.6326 13.8032 51.6326 17.9C51.6326 18.3928 51.5808 18.9113 51.5808 18.9632H42.4534C42.5313 20.6486 43.9574 21.8673 45.6688 21.8673C47.2764 21.8673 48.1581 21.0635 48.573 19.9226Z" fill="#C6C9D5"/>
<mask id="mask0_451_32190" style="mask-type:luminance" maskUnits="userSpaceOnUse" x="0" y="1" width="30" height="31">
<path d="M29.8233 1.81995H0.291992V31.3512H29.8233V1.81995Z" fill="white"/>
</mask>
<g mask="url(#mask0_451_32190)">
<path fill-rule="evenodd" clip-rule="evenodd" d="M0.823242 21.7441C0.823242 22.4535 1.54168 22.9369 2.19879 22.6698L10.9792 19.1005C11.3559 18.9474 11.6022 18.5814 11.6022 18.1749V14.1443C11.6022 13.7377 11.8485 13.3717 12.2251 13.2185L21.0378 9.63622C21.4144 9.4831 21.6607 9.1171 21.6607 8.71054V3.98497C21.6607 3.43309 21.2134 2.98572 20.6615 2.98572H11.881C11.3291 2.98572 10.8818 3.43309 10.8818 3.98497V11.4508C10.8818 12.0027 10.4344 12.4501 9.88249 12.4501H1.8225C1.27063 12.4501 0.823243 12.8974 0.823243 13.4493L0.823242 21.7441Z" fill="#C6C9D5"/>
<path fill-rule="evenodd" clip-rule="evenodd" d="M29.2857 9.82442C29.2857 9.11506 28.5672 8.63154 27.9102 8.89866L19.1297 12.4679C18.753 12.6211 18.5067 12.9871 18.5067 13.3937V17.4241C18.5067 17.8307 18.2604 18.1967 17.8838 18.3498L9.07112 21.9321C8.69456 22.0852 8.44824 22.4513 8.44824 22.8579V27.5834C8.44824 28.1352 8.8956 28.5827 9.44744 28.5827H18.2279C18.7798 28.5827 19.2271 28.1352 19.2271 27.5834V20.1177C19.2271 19.5659 19.6746 19.1185 20.2264 19.1185H28.2864C28.8383 19.1185 29.2857 18.6711 29.2857 18.1192V9.82442Z" fill="#C6C9D5"/>
</g>
</g>
<defs>
<clipPath id="clip0_451_32190">
<rect width="157.6" height="32" fill="white" transform="translate(0.0703125)"/>
</clipPath>
</defs>
</svg>
