<svg width="89" height="72" viewBox="0 0 89 72" fill="none" xmlns="http://www.w3.org/2000/svg">
<g clip-path="url(#clip0_1082_16867)">
<path d="M62.9819 37.477C69.1103 35.9436 75.0294 33.6706 80.6089 30.708C80.2465 33.1326 79.7693 35.5386 79.1789 37.918C81.543 39.0327 83.9588 40.0345 86.4179 40.92C79.9577 44.3499 73.1045 46.9816 66.0089 48.757L62.9819 37.477Z" fill="url(#paint0_linear_1082_16867)"/>
<path d="M62.978 37.481C67.143 38.123 71.5 38.423 75.999 38.327L80.765 49.031C75.8462 49.3568 70.9086 49.2665 66.005 48.761C64.995 45.001 63.986 41.241 62.978 37.481Z" fill="#001430"/>
<path d="M24.635 37.477C18.507 35.9434 12.5882 33.6704 7.00895 30.708C7.37141 33.1326 7.84862 35.5386 8.43895 37.918C6.07484 39.0327 3.65912 40.0345 1.19995 40.92C7.66047 44.3502 14.5141 46.9822 21.61 48.758L24.636 37.478L24.635 37.477Z" fill="url(#paint1_linear_1082_16867)"/>
<path d="M24.6381 37.481C20.3309 38.1406 15.9744 38.4237 11.6181 38.327C10.0281 41.895 8.44005 45.463 6.85205 49.031C11.7709 49.3568 16.7084 49.2664 21.6121 48.761L24.6381 37.481Z" fill="#001430"/>
<path d="M44.386 72C44.1393 72.0002 43.8944 71.9579 43.662 71.875L43.631 71.863C43.347 71.753 36.604 69.111 29.811 62.011C25.828 57.85 22.657 53.011 20.383 47.628C17.55 40.923 16.113 33.36 16.113 25.148V9.58901C16.113 8.48901 16.944 7.57901 18.011 7.45501L43.994 0.0550123C44.2507 -0.0176864 44.5224 -0.0176864 44.779 0.0550123L70.724 7.45501C71.2464 7.51735 71.7279 7.76889 72.0774 8.16209C72.427 8.55529 72.6203 9.06291 72.621 9.58901V25.15C72.621 33.404 71.186 40.994 68.358 47.708C66.087 53.1 62.918 57.937 58.942 62.085C52.155 69.163 45.417 71.759 45.134 71.867L45.112 71.875C44.8792 71.9587 44.6335 72.0004 44.386 72Z" fill="white"/>
<path d="M69.1949 25.1491C68.5349 25.1491 68.0009 24.6141 68.0009 23.9551V23.8701C68.0009 23.2101 68.5349 22.6751 69.1949 22.6751H71.1869V9.58813C71.1869 9.39823 71.1115 9.21612 70.9772 9.08184C70.8429 8.94756 70.6608 8.87213 70.4709 8.87213L44.3859 1.43213L18.2609 8.87213C18.071 8.87213 17.8889 8.94756 17.7546 9.08184C17.6204 9.21612 17.5449 9.39823 17.5449 9.58813V22.6761H19.5369C20.1969 22.6761 20.7309 23.2101 20.7309 23.8701V23.9551C20.7309 24.6151 20.1959 25.1491 19.5369 25.1491H17.5449C17.5449 60.3051 44.1439 70.5251 44.1439 70.5251C44.3 70.5813 44.4708 70.5813 44.6269 70.5251C44.6269 70.5251 71.1869 60.4961 71.1869 25.1491H69.1949Z" fill="black"/>
<path d="M22.987 46.4288C25.109 51.4798 28.07 56.0228 31.787 59.9308C37.403 65.8378 43.099 68.5158 44.39 69.0758C45.664 68.5358 51.271 65.9458 56.875 60.1008C60.608 56.2068 63.584 51.6628 65.719 46.5948C67.065 43.3988 68.074 39.9848 68.749 36.3828H19.998C20.668 39.9208 21.663 43.2778 22.987 46.4288Z" fill="url(#paint2_linear_1082_16867)"/>
<path d="M69.196 26.5809C68.4999 26.5798 67.8326 26.3028 67.3403 25.8106C66.8481 25.3183 66.5711 24.651 66.57 23.9549V23.8699C66.5708 23.1736 66.8477 22.506 67.34 22.0135C67.8322 21.5211 68.4997 21.2439 69.196 21.2429H69.756V10.1569L44.386 2.92188L18.978 10.1569V21.2429H19.538C20.2345 21.2437 20.9022 21.5207 21.3947 22.0132C21.8872 22.5057 22.1642 23.1734 22.165 23.8699V23.9549C22.164 24.6512 21.8868 25.3187 21.3944 25.8109C20.9019 26.3032 20.2343 26.5801 19.538 26.5809H18.994C19.067 29.9809 19.404 33.2509 19.997 36.3839H68.748C69.334 33.2539 69.668 29.9819 69.741 26.5809H69.196Z" fill="url(#paint3_linear_1082_16867)"/>
<path d="M44.388 2.92188L69.758 10.1569V21.2429H69.198C68.5015 21.2437 67.8338 21.5207 67.3413 22.0132C66.8488 22.5057 66.5718 23.1734 66.571 23.8699V23.9549C66.572 24.6512 66.8492 25.3187 67.3416 25.8109C67.8341 26.3032 68.5017 26.5801 69.198 26.5809H69.743C69.587 33.8959 68.236 40.6229 65.72 46.5949C63.585 51.6629 60.61 56.2069 56.876 60.1009C51.272 65.9459 45.666 68.5359 44.392 69.0759C43.1 68.5159 37.404 65.8379 31.788 59.9319C28.072 56.0229 25.11 51.4799 22.988 46.4289C20.492 40.4889 19.151 33.8189 18.996 26.5809H19.54C20.2365 26.5801 20.9042 26.3031 21.3967 25.8106C21.8892 25.3181 22.1662 24.6504 22.167 23.9539V23.8699C22.1662 23.1734 21.8892 22.5057 21.3967 22.0132C20.9042 21.5207 20.2365 21.2437 19.54 21.2429H18.98V10.1569L44.388 2.92188ZM44.388 3.36888L19.41 10.4799V20.8119H19.54C20.3503 20.8129 21.1272 21.1354 21.7001 21.7085C22.273 22.2816 22.5952 23.0585 22.596 23.8689V23.9539C22.5949 24.7641 22.2726 25.5407 21.6997 26.1136C21.1268 26.6865 20.3502 27.0088 19.54 27.0099H19.436C19.634 34.0229 20.962 40.4969 23.384 46.2609C25.486 51.2639 28.418 55.7629 32.1 59.6339C37.468 65.2799 42.966 67.9669 44.394 68.6059C45.803 67.9879 51.212 65.3859 56.566 59.8029C60.263 55.9469 63.209 51.4459 65.324 46.4269C67.766 40.6289 69.104 34.0979 69.302 27.0099H69.198C68.3878 27.0088 67.6111 26.6865 67.0382 26.1136C66.4654 25.5407 66.143 24.7641 66.142 23.9539V23.8689C66.1428 23.0585 66.465 22.2816 67.0379 21.7085C67.6108 21.1354 68.3876 20.8129 69.198 20.8119H69.328V10.4809L44.388 3.36888Z" fill="#FF5E15"/>
<path d="M44.334 66.5472C42.494 65.6972 37.564 63.1332 32.721 58.1612C29.1105 54.454 26.2135 50.1136 24.175 45.3572C21.9 40.0722 20.608 34.1582 20.326 27.7652C20.3243 27.7277 20.3375 27.691 20.3628 27.6633C20.3882 27.6355 20.4235 27.6189 20.461 27.6172C20.4985 27.6155 20.5352 27.6287 20.563 27.6541C20.5907 27.6794 20.6073 27.7147 20.609 27.7522C20.889 34.1152 22.175 39.9942 24.435 45.2452C26.4601 49.9697 29.3377 54.2809 32.924 57.9632C37.682 62.8492 42.53 65.3952 44.394 66.2632C46.234 65.4202 50.998 62.9502 55.737 58.1242C59.3432 54.4495 62.2355 50.1371 64.267 45.4062C66.547 40.1212 67.842 34.1892 68.122 27.7532C68.1214 27.7337 68.1248 27.7143 68.1321 27.6962C68.1394 27.6781 68.1503 27.6616 68.1641 27.6479C68.178 27.6342 68.1946 27.6235 68.2128 27.6165C68.231 27.6094 68.2505 27.6062 68.2699 27.6071C68.2894 27.6079 68.3086 27.6127 68.3261 27.6213C68.3437 27.6298 68.3592 27.6419 68.3719 27.6567C68.3846 27.6716 68.3941 27.6889 68.3998 27.7075C68.4055 27.7262 68.4072 27.7458 68.405 27.7652C68.124 34.2322 66.821 40.1982 64.525 45.5182C62.4802 50.2809 59.5689 54.6225 55.939 58.3222C51.115 63.2342 46.269 65.7222 44.452 66.5482C44.4335 66.5568 44.4134 66.5613 44.393 66.5613C44.3726 66.5613 44.3525 66.5558 44.334 66.5472ZM68.184 19.6052V11.4682L44.386 5.01322L20.551 11.4692V19.6052C20.551 19.6423 20.5362 19.678 20.51 19.7042C20.4837 19.7305 20.4481 19.7452 20.411 19.7452C20.3739 19.7452 20.3383 19.7305 20.312 19.7042C20.2857 19.678 20.271 19.6423 20.271 19.6052V11.3622C20.2711 11.3314 20.2813 11.3015 20.3001 11.2771C20.3189 11.2527 20.3452 11.2351 20.375 11.2272L44.35 4.73322C44.3739 4.72695 44.3991 4.72695 44.423 4.73322L68.36 11.2272C68.3896 11.2353 68.4157 11.2529 68.4343 11.2773C68.4529 11.3017 68.463 11.3315 68.463 11.3622V19.6052C68.4646 19.6245 68.4622 19.644 68.456 19.6623C68.4497 19.6807 68.4397 19.6975 68.4266 19.7118C68.4135 19.726 68.3975 19.7374 68.3798 19.7452C68.362 19.753 68.3429 19.757 68.3235 19.757C68.3041 19.757 68.2849 19.753 68.2672 19.7452C68.2495 19.7374 68.2335 19.726 68.2204 19.7118C68.2073 19.6975 68.1973 19.6807 68.191 19.6623C68.1848 19.644 68.1824 19.6245 68.184 19.6052Z" fill="#142F45"/>
<path d="M43.0941 14.5462L43.2481 13.0932L42.3381 11.9502L43.7671 11.6482L44.5731 10.4292L45.3031 11.6952L46.7111 12.0852L45.7311 13.1702L45.7961 14.6302L44.4621 14.0332L43.0941 14.5462ZM38.6501 14.9212L38.0641 13.9712L36.9781 13.7072L37.7011 12.8552L37.6171 11.7412L38.6511 12.1652L39.6841 11.7412L39.6001 12.8552L40.3221 13.7072L39.2381 13.9712L38.6501 14.9212ZM50.0861 14.9212L49.4991 13.9712L48.4141 13.7072L49.1361 12.8552L49.0531 11.7412L50.0861 12.1652L51.1201 11.7412L51.0361 12.8552L51.7581 13.7072L50.6731 13.9712L50.0861 14.9212ZM54.8651 15.5232L54.4271 14.8132L53.6151 14.6152L54.1551 13.9782L54.0931 13.1452L54.8651 13.4622L55.6381 13.1452L55.5751 13.9782L56.1151 14.6152L55.3051 14.8122L54.8651 15.5232ZM33.8711 15.5232L33.4321 14.8132L32.6221 14.6152L33.1621 13.9782L33.0991 13.1452L33.8711 13.4622L34.6441 13.1452L34.5811 13.9782L35.1211 14.6152L34.3111 14.8122L33.8711 15.5232Z" fill="#FF5E15"/>
<path d="M11.62 38.3282C32.16 46.8702 55.46 46.8692 76 38.3262L80.765 49.0312C57.185 58.8392 30.435 58.8392 6.85498 49.0332L11.621 38.3282H11.62Z" fill="#F1F2FA"/>
<path d="M43.2489 55.1659C43.1924 55.1658 43.1383 55.1432 43.0984 55.1032C43.0586 55.0631 43.0363 55.0089 43.0364 54.9524C43.0365 54.8959 43.0591 54.8418 43.0991 54.8019C43.1392 54.7621 43.1934 54.7398 43.2499 54.7399C43.6992 54.7419 44.1486 54.7412 44.5979 54.7379C44.6258 54.7376 44.6535 54.7429 44.6794 54.7533C44.7052 54.7637 44.7288 54.7792 44.7487 54.7987C44.7686 54.8183 44.7845 54.8415 44.7954 54.8672C44.8064 54.8929 44.8121 54.9205 44.8124 54.9484C44.8126 54.9763 44.8074 55.004 44.797 55.0299C44.7865 55.0557 44.7711 55.0793 44.7516 55.0992C44.732 55.1192 44.7087 55.135 44.6831 55.146C44.6574 55.1569 44.6298 55.1626 44.6019 55.1629C44.1506 55.1669 43.6992 55.1676 43.2479 55.1649L43.2489 55.1659ZM41.8949 55.1489C41.4429 55.1389 40.9919 55.1279 40.5409 55.1129C40.4868 55.1078 40.4367 55.0822 40.4009 55.0414C40.365 55.0006 40.3461 54.9476 40.348 54.8933C40.3499 54.839 40.3725 54.7875 40.4112 54.7493C40.4498 54.7112 40.5016 54.6892 40.5559 54.6879C41.0039 54.7029 41.4529 54.7149 41.9029 54.7239C41.9592 54.7244 42.0131 54.7473 42.0526 54.7876C42.092 54.8278 42.1139 54.882 42.1134 54.9384C42.1129 54.9948 42.09 55.0486 42.0497 55.0881C42.0095 55.1275 41.9552 55.1494 41.8989 55.1489H41.8949ZM45.7379 54.9359C45.7372 54.908 45.7421 54.8802 45.7522 54.8542C45.7623 54.8281 45.7775 54.8043 45.7968 54.7842C45.8161 54.764 45.8392 54.7478 45.8648 54.7366C45.8904 54.7254 45.918 54.7194 45.9459 54.7189C46.3949 54.7089 46.8439 54.6959 47.2919 54.6789C47.3198 54.6779 47.3476 54.6834 47.3738 54.6932C47.3999 54.703 47.4239 54.7178 47.4443 54.7368C47.4648 54.7559 47.4813 54.7787 47.4928 54.8041C47.5044 54.8295 47.5109 54.857 47.5119 54.8849C47.5129 54.9128 47.5084 54.9406 47.4986 54.9668C47.4888 54.9929 47.474 55.0169 47.4549 55.0374C47.4359 55.0578 47.413 55.0743 47.3876 55.0858C47.3622 55.0974 47.3348 55.1039 47.3069 55.1049C46.8569 55.1209 46.4069 55.1339 45.9549 55.1439H45.9499C45.8944 55.1437 45.8412 55.1218 45.8017 55.0829C45.7621 55.0441 45.7392 54.9913 45.7379 54.9359ZM39.1879 55.0579C38.737 55.0362 38.2864 55.0112 37.8359 54.9829C37.7808 54.978 37.7299 54.9517 37.6939 54.9097C37.6579 54.8678 37.6397 54.8134 37.6432 54.7582C37.6468 54.7031 37.6717 54.6515 37.7127 54.6144C37.7538 54.5773 37.8076 54.5578 37.8629 54.5599C38.3109 54.5869 38.7599 54.6119 39.2089 54.6329C39.2652 54.6342 39.3188 54.6579 39.3577 54.6987C39.3966 54.7395 39.4177 54.794 39.4164 54.8504C39.4151 54.9068 39.3914 54.9603 39.3506 54.9992C39.3098 55.0381 39.2552 55.0592 39.1989 55.0579H39.1879ZM48.4349 54.8449C48.4334 54.817 48.4375 54.789 48.4468 54.7627C48.4562 54.7363 48.4707 54.7121 48.4895 54.6913C48.5082 54.6706 48.5309 54.6538 48.5562 54.6419C48.5815 54.63 48.6089 54.6232 48.6369 54.6219C49.0859 54.5999 49.5339 54.5739 49.9809 54.5449C50.0087 54.5431 50.0366 54.5469 50.063 54.5559C50.0894 54.5649 50.1138 54.579 50.1347 54.5974C50.1557 54.6159 50.1728 54.6383 50.1851 54.6633C50.1974 54.6883 50.2046 54.7156 50.2064 54.7434C50.2082 54.7712 50.2044 54.7992 50.1954 54.8256C50.1864 54.852 50.1723 54.8763 50.1538 54.8973C50.1354 54.9182 50.113 54.9353 50.088 54.9476C50.0629 54.9599 50.0357 54.9671 50.0079 54.9689C49.5547 54.998 49.1014 55.024 48.6479 55.0469C48.5933 55.047 48.5407 55.026 48.501 54.9884C48.4614 54.9509 48.4377 54.8995 48.4349 54.8449ZM36.4849 54.8909C36.0349 54.8559 35.5849 54.8189 35.1369 54.7789C35.1091 54.7764 35.0821 54.7685 35.0574 54.7555C35.0327 54.7426 35.0108 54.7249 34.9929 54.7035C34.975 54.6821 34.9615 54.6574 34.9532 54.6308C34.9449 54.6042 34.9419 54.5762 34.9444 54.5484C34.9469 54.5206 34.9548 54.4936 34.9678 54.4689C34.9807 54.4442 34.9984 54.4223 35.0198 54.4044C35.0412 54.3865 35.0659 54.373 35.0925 54.3647C35.1191 54.3564 35.1471 54.3534 35.1749 54.3559C35.6219 54.3959 36.0699 54.4329 36.5179 54.4659C36.5742 54.4701 36.6266 54.4966 36.6635 54.5395C36.7003 54.5823 36.7186 54.638 36.7144 54.6944C36.7101 54.7508 36.6837 54.8031 36.6408 54.84C36.598 54.8768 36.5412 54.8951 36.4849 54.8909ZM51.1299 54.6779C51.1277 54.6501 51.131 54.6222 51.1396 54.5957C51.1483 54.5692 51.162 54.5446 51.1801 54.5235C51.1982 54.5023 51.2203 54.4849 51.2452 54.4723C51.27 54.4596 51.2971 54.452 51.3249 54.4499C51.7725 54.4147 52.2198 54.3763 52.6669 54.3349C52.6947 54.3323 52.7227 54.3353 52.7493 54.3435C52.7759 54.3518 52.8007 54.3652 52.8222 54.3831C52.8436 54.4009 52.8613 54.4228 52.8743 54.4474C52.8873 54.4721 52.8953 54.4991 52.8979 54.5269C52.9004 54.5547 52.8975 54.5827 52.8892 54.6093C52.881 54.636 52.8676 54.6607 52.8497 54.6822C52.8319 54.7036 52.81 54.7213 52.7853 54.7343C52.7607 54.7473 52.7337 54.7553 52.7059 54.7579C52.2515 54.7999 51.7968 54.8385 51.3419 54.8739C51.2883 54.874 51.2367 54.8539 51.1974 54.8176C51.158 54.7812 51.1339 54.7313 51.1299 54.6779ZM33.7899 54.6479C33.3409 54.6009 32.8922 54.5506 32.4439 54.4969C32.4162 54.4936 32.3894 54.4849 32.365 54.4713C32.3407 54.4576 32.3193 54.4393 32.302 54.4174C32.2847 54.3955 32.272 54.3704 32.2644 54.3435C32.2568 54.3167 32.2546 54.2886 32.2579 54.2609C32.2612 54.2332 32.2699 54.2064 32.2835 54.1821C32.2972 54.1577 32.3154 54.1363 32.3374 54.119C32.3593 54.1017 32.3844 54.089 32.4112 54.0814C32.4381 54.0738 32.4662 54.0716 32.4939 54.0749C32.9399 54.1279 33.3859 54.1779 33.8339 54.2249C33.8898 54.2309 33.9411 54.2588 33.9765 54.3026C34.0118 54.3464 34.0284 54.4024 34.0224 54.4584C34.0164 54.5144 33.9885 54.5657 33.9447 54.601C33.9009 54.6364 33.8448 54.6529 33.7889 54.6469L33.7899 54.6479ZM53.8179 54.4349C53.8148 54.4072 53.8173 54.3791 53.8251 54.3524C53.8329 54.3256 53.8459 54.3006 53.8633 54.2789C53.8808 54.2572 53.9024 54.2391 53.9268 54.2257C53.9513 54.2123 53.9782 54.2039 54.0059 54.2009C54.4529 54.1539 54.8989 54.1029 55.3449 54.0489C55.3727 54.0452 55.401 54.0471 55.4281 54.0544C55.4553 54.0617 55.4807 54.0744 55.5028 54.0916C55.525 54.1088 55.5436 54.1303 55.5574 54.1547C55.5712 54.1792 55.58 54.2062 55.5833 54.234C55.5867 54.2619 55.5844 54.2902 55.5767 54.3172C55.569 54.3442 55.556 54.3694 55.5384 54.3914C55.5209 54.4133 55.4992 54.4316 55.4745 54.445C55.4499 54.4585 55.4228 54.467 55.3949 54.4699C54.9396 54.5248 54.4839 54.5765 54.0279 54.6249C53.9756 54.6247 53.9253 54.6052 53.8865 54.5701C53.8477 54.535 53.8233 54.4869 53.8179 54.4349ZM31.1009 54.3269C30.6529 54.2669 30.2059 54.2049 29.7609 54.1389C29.7052 54.1307 29.655 54.1007 29.6215 54.0555C29.5879 54.0103 29.5737 53.9536 29.5819 53.8979C29.5901 53.8422 29.6201 53.7921 29.6653 53.7585C29.7105 53.7249 29.7672 53.7107 29.8229 53.7189C30.2669 53.7839 30.7119 53.8469 31.1569 53.9059C31.1846 53.9096 31.2113 53.9187 31.2355 53.9327C31.2597 53.9467 31.2809 53.9653 31.2979 53.9875C31.3149 54.0097 31.3273 54.035 31.3345 54.062C31.3417 54.089 31.3436 54.1172 31.3399 54.1449C31.3362 54.1726 31.3271 54.1993 31.3131 54.2235C31.2991 54.2477 31.2805 54.2689 31.2583 54.2859C31.2361 54.3029 31.2108 54.3153 31.1838 54.3226C31.1568 54.3298 31.1286 54.3306 31.1009 54.3269ZM56.4989 54.1159C56.4949 54.0882 56.4965 54.0601 56.5035 54.033C56.5104 54.006 56.5227 53.9806 56.5395 53.9583C56.5563 53.936 56.5774 53.9172 56.6015 53.9031C56.6256 53.8889 56.6522 53.8797 56.6799 53.8759C57.1259 53.8159 57.5699 53.7529 58.0139 53.6859C58.0415 53.6818 58.0696 53.6831 58.0966 53.6898C58.1237 53.6966 58.1492 53.7086 58.1716 53.7251C58.194 53.7417 58.213 53.7625 58.2273 53.7864C58.2417 53.8103 58.2513 53.8368 58.2554 53.8644C58.2595 53.892 58.2582 53.9201 58.2515 53.9472C58.2447 53.9742 58.2327 53.9997 58.2162 54.0221C58.1996 54.0445 58.1787 54.0635 58.1549 54.0779C58.131 54.0922 58.1045 54.1018 58.0769 54.1059C57.6214 54.1741 57.1654 54.2387 56.7089 54.2999C56.6575 54.2999 56.6079 54.2812 56.5693 54.2473C56.5307 54.2135 56.5057 54.1668 56.4989 54.1159ZM28.4229 53.9309C27.9769 53.8579 27.5329 53.7819 27.0879 53.7029C27.0604 53.698 27.0342 53.6877 27.0108 53.6726C26.9873 53.6576 26.967 53.6381 26.9511 53.6152C26.9352 53.5923 26.9239 53.5665 26.9179 53.5392C26.912 53.512 26.9115 53.4838 26.9164 53.4564C26.9213 53.429 26.9316 53.4027 26.9466 53.3793C26.9617 53.3558 26.9812 53.3355 27.0041 53.3196C27.027 53.3037 27.0528 53.2924 27.08 53.2865C27.1073 53.2805 27.1354 53.28 27.1629 53.2849C27.6049 53.3639 28.0469 53.4389 28.4909 53.5109C28.5443 53.5223 28.5913 53.5538 28.6222 53.5989C28.6531 53.644 28.6654 53.6993 28.6567 53.7532C28.6479 53.8072 28.6188 53.8557 28.5753 53.8888C28.5318 53.9218 28.4772 53.9369 28.4229 53.9309ZM59.1689 53.7199C59.1643 53.6924 59.1652 53.6642 59.1715 53.6371C59.1779 53.6099 59.1895 53.5842 59.2057 53.5616C59.222 53.5389 59.2426 53.5197 59.2663 53.505C59.29 53.4903 59.3164 53.4804 59.3439 53.4759C59.7869 53.4029 60.2299 53.3259 60.6719 53.2459C60.7264 53.2384 60.7817 53.2522 60.8262 53.2846C60.8707 53.3169 60.901 53.3652 60.9107 53.4194C60.9204 53.4735 60.9087 53.5293 60.8782 53.5751C60.8477 53.6209 60.8006 53.653 60.7469 53.6649C60.3029 53.7449 59.8589 53.8209 59.4129 53.8949C59.3854 53.8995 59.3572 53.8986 59.3301 53.8922C59.3029 53.8859 59.2772 53.8743 59.2546 53.858C59.2319 53.8418 59.2127 53.8212 59.198 53.7975C59.1833 53.7738 59.1734 53.7474 59.1689 53.7199ZM25.7579 53.4569C25.3146 53.3718 24.8719 53.2835 24.4299 53.1919C24.3747 53.1804 24.3264 53.1474 24.2955 53.1002C24.2647 53.053 24.2538 52.9956 24.2654 52.9404C24.2769 52.8852 24.3099 52.8369 24.3571 52.8061C24.4042 52.7752 24.4617 52.7644 24.5169 52.7759C24.9562 52.8673 25.3962 52.9553 25.8369 53.0399C25.8643 53.0451 25.8903 53.0557 25.9136 53.0711C25.9369 53.0864 25.957 53.1062 25.9726 53.1292C25.9882 53.1523 25.9992 53.1783 26.0048 53.2056C26.0104 53.2329 26.0106 53.261 26.0054 53.2884C26.0001 53.3158 25.9895 53.3419 25.9742 53.3651C25.9589 53.3884 25.9391 53.4085 25.916 53.4241C25.893 53.4398 25.867 53.4507 25.8397 53.4563C25.8124 53.462 25.7853 53.4621 25.7579 53.4569ZM61.8279 53.2469C61.8225 53.2195 61.8226 53.1913 61.8281 53.164C61.8337 53.1366 61.8446 53.1106 61.8602 53.0875C61.8758 53.0644 61.8958 53.0446 61.9191 53.0292C61.9424 53.0138 61.9685 53.0032 61.9959 52.9979C62.4359 52.9119 62.8759 52.8229 63.3159 52.7309C63.3432 52.7252 63.3714 52.7249 63.3988 52.7301C63.4262 52.7353 63.4524 52.7458 63.4757 52.7611C63.4991 52.7763 63.5192 52.7961 63.5349 52.8191C63.5506 52.8422 63.5617 52.8681 63.5674 52.8954C63.5731 52.9227 63.5734 52.9509 63.5682 52.9783C63.563 53.0057 63.5525 53.0319 63.5372 53.0552C63.5219 53.0786 63.5022 53.0987 63.4792 53.1144C63.4561 53.1301 63.4302 53.1412 63.4029 53.1469C62.9619 53.2399 62.5199 53.3289 62.0769 53.4159C62.0215 53.4268 61.964 53.4152 61.9171 53.3837C61.8702 53.3522 61.8378 53.3033 61.8269 53.2479L61.8279 53.2469ZM23.1079 52.9069C22.6672 52.8089 22.2272 52.7079 21.7879 52.6039C21.7608 52.5974 21.7352 52.5856 21.7126 52.5692C21.6901 52.5529 21.6709 52.5322 21.6564 52.5084C21.6418 52.4846 21.632 52.4582 21.6277 52.4307C21.6233 52.4031 21.6244 52.375 21.6309 52.3479C21.6374 52.3208 21.6492 52.2952 21.6655 52.2726C21.6819 52.2501 21.7026 52.231 21.7264 52.2164C21.7501 52.2018 21.7766 52.192 21.8041 52.1877C21.8316 52.1833 21.8598 52.1844 21.8869 52.1909C22.3229 52.2939 22.7609 52.3949 23.1989 52.4929C23.2493 52.5092 23.2918 52.5438 23.3182 52.5898C23.3445 52.6358 23.3527 52.69 23.3412 52.7417C23.3297 52.7935 23.2993 52.8391 23.256 52.8696C23.2127 52.9002 23.1605 52.9135 23.1079 52.9069ZM64.4719 52.6989C64.4657 52.6717 64.4649 52.6436 64.4696 52.6161C64.4743 52.5886 64.4843 52.5623 64.4992 52.5387C64.514 52.5151 64.5334 52.4947 64.5562 52.4786C64.579 52.4625 64.6047 52.451 64.6319 52.4449C65.0704 52.3468 65.508 52.2451 65.9449 52.1399C65.972 52.1334 66.0001 52.1323 66.0277 52.1367C66.0552 52.141 66.0816 52.1508 66.1054 52.1654C66.1292 52.18 66.1498 52.1991 66.1662 52.2216C66.1826 52.2442 66.1944 52.2698 66.2009 52.2969C66.2074 52.324 66.2085 52.3521 66.2041 52.3797C66.1997 52.4072 66.19 52.4336 66.1754 52.4574C66.1608 52.4812 66.1417 52.5019 66.1191 52.5182C66.0966 52.5346 66.071 52.5464 66.0439 52.5529C65.6049 52.6579 65.1659 52.7609 64.7249 52.8599C64.67 52.8722 64.6125 52.8622 64.5649 52.8322C64.5173 52.8023 64.4835 52.7547 64.4709 52.6999L64.4719 52.6989ZM20.4739 52.2819C20.0369 52.1719 19.5999 52.0569 19.1639 51.9399C19.1095 51.9253 19.0632 51.8897 19.035 51.841C19.0069 51.7922 18.9993 51.7343 19.0139 51.6799C19.0285 51.6255 19.0641 51.5792 19.1128 51.551C19.1616 51.5229 19.2195 51.5153 19.2739 51.5299C19.7079 51.6459 20.1439 51.7599 20.5779 51.8699C20.629 51.8868 20.6719 51.9224 20.6979 51.9696C20.7238 52.0168 20.7309 52.0721 20.7177 52.1243C20.7045 52.1766 20.6721 52.2219 20.6268 52.2511C20.5816 52.2803 20.5269 52.2913 20.4739 52.2819ZM67.0989 52.0739C67.092 52.0469 67.0905 52.0188 67.0944 51.9912C67.0984 51.9637 67.1077 51.9371 67.1219 51.9132C67.1361 51.8892 67.1549 51.8683 67.1772 51.8516C67.1995 51.8349 67.2249 51.8228 67.2519 51.8159C67.6869 51.7049 68.1219 51.5899 68.5549 51.4729C68.5818 51.4656 68.6099 51.4637 68.6376 51.4673C68.6652 51.4708 68.6919 51.4798 68.7161 51.4937C68.7403 51.5076 68.7615 51.5261 68.7785 51.5482C68.7956 51.5703 68.8081 51.5955 68.8154 51.6224C68.8227 51.6493 68.8246 51.6774 68.821 51.7051C68.8175 51.7327 68.8085 51.7594 68.7946 51.7836C68.7807 51.8078 68.7622 51.829 68.7401 51.8461C68.718 51.8631 68.6928 51.8756 68.6659 51.8829C68.2309 52.0009 67.7949 52.1159 67.3569 52.2269C67.3299 52.2338 67.3018 52.2353 67.2742 52.2314C67.2467 52.2274 67.2201 52.2181 67.1962 52.2039C67.1722 52.1897 67.1513 52.1709 67.1346 52.1486C67.1179 52.1263 67.1058 52.1009 67.0989 52.0739ZM17.8599 51.5799C17.4269 51.4569 16.9939 51.3299 16.5619 51.2009C16.5079 51.1849 16.4625 51.148 16.4357 51.0985C16.4089 51.049 16.4028 50.9909 16.4189 50.9369C16.4349 50.8829 16.4718 50.8375 16.5213 50.8107C16.5708 50.7839 16.6289 50.7778 16.6829 50.7939C17.1129 50.9239 17.5449 51.0489 17.9769 51.1719C18.0267 51.1909 18.0676 51.228 18.0914 51.2757C18.1153 51.3234 18.1204 51.3783 18.1057 51.4296C18.0909 51.4809 18.0575 51.5248 18.012 51.5526C17.9665 51.5804 17.9122 51.5902 17.8599 51.5799ZM69.7079 51.3739C69.7001 51.3471 69.6977 51.319 69.7007 51.2913C69.7038 51.2636 69.7123 51.2367 69.7258 51.2123C69.7393 51.1879 69.7574 51.1663 69.7792 51.1489C69.801 51.1315 69.8261 51.1186 69.8529 51.1109C70.2849 50.9879 70.7159 50.8609 71.1459 50.7309C71.1726 50.7228 71.2007 50.7201 71.2284 50.7228C71.2562 50.7256 71.2832 50.7338 71.3078 50.747C71.3324 50.7602 71.3542 50.7781 71.3719 50.7997C71.3895 50.8213 71.4028 50.8462 71.4109 50.8729C71.419 50.8996 71.4217 50.9277 71.4189 50.9555C71.4162 50.9832 71.408 51.0102 71.3948 51.0348C71.3816 51.0594 71.3637 51.0812 71.3421 51.0989C71.3205 51.1166 71.2956 51.1298 71.2689 51.1379C70.8369 51.2679 70.4039 51.3959 69.9699 51.5199C69.9157 51.5353 69.8575 51.5286 69.8082 51.5013C69.7589 51.4739 69.7235 51.4281 69.7079 51.3739ZM15.2679 50.8039C14.8379 50.6689 14.4079 50.5299 13.9809 50.3879C13.9544 50.3792 13.9299 50.3653 13.9088 50.3471C13.8877 50.3289 13.8704 50.3067 13.8579 50.2819C13.8453 50.257 13.8378 50.2299 13.8358 50.2021C13.8337 50.1743 13.8372 50.1464 13.8459 50.1199C13.8546 50.0934 13.8685 50.069 13.8867 50.0478C13.9049 50.0267 13.927 50.0094 13.9519 49.9969C13.9768 49.9844 14.0039 49.9768 14.0317 49.9748C14.0595 49.9727 14.0874 49.9762 14.1139 49.9849C14.5409 50.1259 14.9679 50.2639 15.3959 50.3989C15.4225 50.4073 15.4472 50.4209 15.4685 50.4388C15.4899 50.4567 15.5075 50.4787 15.5203 50.5035C15.5332 50.5282 15.5411 50.5552 15.5435 50.583C15.5459 50.6108 15.5428 50.6388 15.5344 50.6654C15.526 50.692 15.5124 50.7167 15.4945 50.738C15.4765 50.7594 15.4546 50.777 15.4298 50.7898C15.4051 50.8027 15.378 50.8106 15.3503 50.813C15.3225 50.8154 15.2945 50.8123 15.2679 50.8039ZM72.2949 50.5989C72.2779 50.5453 72.283 50.4872 72.3088 50.4373C72.3347 50.3875 72.3793 50.3499 72.4329 50.3329C72.8612 50.1967 73.2886 50.0574 73.7149 49.9149C73.7685 49.8971 73.8269 49.9014 73.8773 49.9267C73.9278 49.952 73.9661 49.9963 73.9839 50.0499C74.0017 50.1035 73.9974 50.1619 73.9721 50.2124C73.9468 50.2628 73.9025 50.3011 73.8489 50.3189C73.4209 50.4609 72.9919 50.6009 72.5619 50.7369C72.5353 50.7454 72.5073 50.7486 72.4794 50.7463C72.4516 50.744 72.4245 50.7362 72.3997 50.7234C72.3749 50.7106 72.3529 50.693 72.3349 50.6716C72.3169 50.6502 72.3033 50.6255 72.2949 50.5989ZM12.6989 49.9539C12.2731 49.8059 11.8485 49.6549 11.4249 49.5009C11.3987 49.4914 11.3746 49.4769 11.354 49.4582C11.3334 49.4394 11.3167 49.4168 11.3049 49.3916C11.2931 49.3663 11.2863 49.339 11.285 49.3112C11.2837 49.2834 11.2879 49.2556 11.2974 49.2294C11.3068 49.2032 11.3214 49.1791 11.3401 49.1585C11.3589 49.1379 11.3815 49.1213 11.4067 49.1094C11.4319 49.0976 11.4592 49.0908 11.4871 49.0895C11.5149 49.0882 11.5427 49.0924 11.5689 49.1019C11.9909 49.2549 12.4139 49.4059 12.8389 49.5519C12.8901 49.572 12.9316 49.6112 12.9546 49.6612C12.9776 49.7112 12.9804 49.7682 12.9622 49.8202C12.9441 49.8722 12.9066 49.9152 12.8575 49.9401C12.8084 49.965 12.7515 49.97 12.6989 49.9539ZM74.8589 49.7499C74.8407 49.6967 74.8442 49.6385 74.8688 49.5879C74.8933 49.5373 74.9368 49.4985 74.9899 49.4799C75.4139 49.3319 75.8369 49.1799 76.2599 49.0259C76.3121 49.0099 76.3685 49.0145 76.4174 49.0389C76.4664 49.0633 76.504 49.1055 76.5227 49.1569C76.5413 49.2083 76.5394 49.2649 76.5175 49.3149C76.4956 49.365 76.4553 49.4047 76.4049 49.4259C75.9809 49.5799 75.5559 49.7319 75.1299 49.8809C75.0768 49.8992 75.0187 49.8957 74.9682 49.8714C74.9176 49.8471 74.8787 49.8038 74.8599 49.7509L74.8589 49.7499ZM10.1559 49.0309C9.73489 48.8709 9.31389 48.7089 8.89389 48.5429C8.84573 48.5194 8.80822 48.4785 8.78883 48.4286C8.76945 48.3786 8.76962 48.3231 8.7893 48.2733C8.80899 48.2234 8.84675 48.1828 8.89505 48.1596C8.94335 48.1364 8.99864 48.1322 9.04989 48.1479C9.46789 48.3129 9.88689 48.4749 10.3069 48.6339C10.333 48.6437 10.3568 48.6586 10.3771 48.6777C10.3975 48.6968 10.4138 48.7197 10.4253 48.7451C10.4367 48.7705 10.4431 48.7979 10.444 48.8257C10.4449 48.8536 10.4402 48.8813 10.4304 48.9074C10.4205 48.9335 10.4056 48.9573 10.3866 48.9776C10.3675 48.998 10.3446 49.0143 10.3192 49.0258C10.2938 49.0373 10.2664 49.0436 10.2386 49.0445C10.2107 49.0454 10.182 49.0407 10.1559 49.0309ZM77.3989 48.8289C77.3888 48.8028 77.3839 48.7749 77.3846 48.7469C77.3854 48.7189 77.3916 48.6913 77.403 48.6657C77.4145 48.6402 77.4309 48.6171 77.4513 48.5979C77.4717 48.5787 77.4957 48.5638 77.5219 48.5539C77.9419 48.3939 78.3599 48.2309 78.7779 48.0649C78.8038 48.0546 78.8315 48.0495 78.8594 48.0499C78.8874 48.0503 78.9149 48.0562 78.9405 48.0672C78.9662 48.0783 78.9894 48.0943 79.0088 48.1143C79.0283 48.1343 79.0436 48.158 79.0539 48.1839C79.0642 48.2098 79.0693 48.2375 79.0689 48.2655C79.0685 48.2934 79.0626 48.3209 79.0515 48.3465C79.0405 48.3722 79.0245 48.3954 79.0045 48.4148C78.9845 48.4343 78.9608 48.4496 78.9349 48.4599C78.5149 48.6259 78.0949 48.7899 77.6739 48.9509C77.6212 48.9711 77.5627 48.9696 77.5112 48.9467C77.4596 48.9239 77.4192 48.8815 77.3989 48.8289ZM43.7999 46.1669C43.7996 46.1389 43.8049 46.1112 43.8155 46.0853C43.826 46.0594 43.8416 46.0359 43.8613 46.016C43.8811 45.9962 43.9045 45.9805 43.9304 45.9699C43.9562 45.9592 43.9839 45.9538 44.0119 45.9539C44.4609 45.9529 44.9099 45.9479 45.3589 45.9399C45.4152 45.939 45.4697 45.9605 45.5102 45.9997C45.5507 46.0389 45.574 46.0925 45.5749 46.1489C45.5758 46.2053 45.5543 46.2597 45.5151 46.3002C45.4759 46.3407 45.4222 46.364 45.3659 46.3649C44.9159 46.3729 44.4639 46.3779 44.0119 46.3789C43.9556 46.3789 43.9015 46.3566 43.8616 46.3169C43.8217 46.2771 43.8001 46.2232 43.7999 46.1669ZM42.6589 46.3709C42.2078 46.3652 41.7568 46.3558 41.3059 46.3429C41.278 46.3421 41.2506 46.3358 41.2252 46.3245C41.1998 46.3131 41.1769 46.2968 41.1577 46.2766C41.1191 46.2357 41.0983 46.1811 41.0999 46.1249C41.1007 46.0971 41.1069 46.0696 41.1183 46.0442C41.1297 46.0188 41.146 45.9959 41.1662 45.9767C41.1865 45.9576 41.2103 45.9427 41.2363 45.9327C41.2623 45.9228 41.29 45.9181 41.3179 45.9189C41.7659 45.9309 42.2149 45.9409 42.6639 45.9469C42.7201 45.9476 42.7738 45.9705 42.8131 46.0108C42.8523 46.051 42.8741 46.1052 42.8734 46.1614C42.8727 46.2176 42.8498 46.2713 42.8095 46.3106C42.7693 46.3499 42.7151 46.3716 42.6589 46.3709ZM46.5009 46.1249C46.4998 46.097 46.5043 46.0691 46.514 46.0429C46.5238 46.0167 46.5386 45.9927 46.5576 45.9723C46.5767 45.9518 46.5996 45.9353 46.625 45.9238C46.6505 45.9122 46.678 45.9058 46.7059 45.9049C47.1559 45.8909 47.6039 45.8729 48.0529 45.8499C48.1092 45.8472 48.1643 45.8671 48.2061 45.9051C48.2478 45.943 48.2727 45.996 48.2754 46.0524C48.278 46.1088 48.2582 46.1639 48.2202 46.2056C48.1822 46.2473 48.1292 46.2722 48.0729 46.2749C47.6221 46.297 47.171 46.3154 46.7199 46.3299H46.7129C46.6579 46.3299 46.605 46.3086 46.5654 46.2703C46.5258 46.232 46.5027 46.1799 46.5009 46.1249ZM39.9539 46.2949C39.5029 46.2749 39.0529 46.2509 38.6029 46.2239C38.575 46.2223 38.5478 46.2151 38.5227 46.203C38.4976 46.1908 38.4752 46.1738 38.4566 46.153C38.4381 46.1321 38.4239 46.1078 38.4147 46.0815C38.4056 46.0551 38.4017 46.0272 38.4034 45.9994C38.405 45.9716 38.4121 45.9443 38.4243 45.9192C38.4365 45.8941 38.4535 45.8717 38.4743 45.8532C38.4952 45.8346 38.5195 45.8204 38.5458 45.8113C38.5722 45.8021 38.6 45.7983 38.6279 45.7999C39.0759 45.8259 39.5239 45.8499 39.9729 45.8699C40.0291 45.8712 40.0825 45.8948 40.1213 45.9355C40.1601 45.9762 40.1812 46.0307 40.1799 46.0869C40.1786 46.1431 40.155 46.1965 40.1143 46.2353C40.0736 46.2742 40.0191 46.2952 39.9629 46.2939H39.9529L39.9539 46.2949ZM49.1999 45.9999C49.198 45.972 49.2016 45.9441 49.2105 45.9176C49.2195 45.8912 49.2335 45.8668 49.2519 45.8458C49.2703 45.8248 49.2927 45.8076 49.3177 45.7953C49.3428 45.7829 49.37 45.7757 49.3979 45.7739C49.8469 45.7439 50.2939 45.7119 50.7419 45.6769C50.7697 45.6747 50.7976 45.6779 50.8241 45.6865C50.8506 45.6951 50.8752 45.7088 50.8964 45.7268C50.9176 45.7449 50.9351 45.7669 50.9478 45.7918C50.9605 45.8166 50.9682 45.8436 50.9704 45.8714C50.9726 45.8992 50.9694 45.9271 50.9608 45.9536C50.9522 45.9801 50.9385 46.0047 50.9205 46.0259C50.9024 46.0471 50.8803 46.0646 50.8555 46.0773C50.8307 46.09 50.8037 46.0977 50.7759 46.0999C50.3259 46.1359 49.8759 46.1689 49.4259 46.1979H49.4109C49.3572 46.1978 49.3055 46.1772 49.2664 46.1405C49.2272 46.1037 49.2034 46.0535 49.1999 45.9999ZM37.2529 46.1319C36.8029 46.0989 36.3529 46.0609 35.9039 46.0199C35.8509 46.011 35.8033 45.9823 35.7705 45.9398C35.7378 45.8972 35.7223 45.8438 35.7272 45.7903C35.7322 45.7368 35.7571 45.6872 35.7971 45.6513C35.8371 45.6154 35.8892 45.596 35.9429 45.5969C36.3899 45.6369 36.8369 45.6749 37.2849 45.7089C37.341 45.7131 37.3931 45.7395 37.4298 45.7822C37.4664 45.8248 37.4846 45.8803 37.4804 45.9364C37.4761 45.9925 37.4498 46.0446 37.4071 46.0813C37.3645 46.1179 37.309 46.1361 37.2529 46.1319ZM51.8929 45.7899C51.8901 45.7621 51.8929 45.7341 51.901 45.7073C51.9091 45.6806 51.9224 45.6558 51.9402 45.6342C51.9579 45.6127 51.9798 45.5948 52.0044 45.5817C52.0291 45.5686 52.0561 45.5605 52.0839 45.5579C52.5309 45.5149 52.9779 45.4679 53.4239 45.4179C53.4798 45.4115 53.536 45.4277 53.5801 45.4627C53.6242 45.4978 53.6525 45.5489 53.6589 45.6049C53.6653 45.6609 53.6491 45.7171 53.6141 45.7611C53.579 45.8052 53.5278 45.8335 53.4719 45.8399C53.0229 45.8899 52.5739 45.9379 52.1249 45.9799C52.0971 45.9827 52.069 45.9809 52.0423 45.9728C52.0156 45.9647 51.9908 45.9514 51.9692 45.9336C51.9476 45.9159 51.9298 45.894 51.9167 45.8694C51.9036 45.8447 51.8955 45.8177 51.8929 45.7899ZM34.5579 45.8859C34.1089 45.8379 33.6609 45.7859 33.2129 45.7299C33.1841 45.7279 33.156 45.7201 33.1304 45.7068C33.1048 45.6936 33.0821 45.6753 33.0638 45.653C33.0455 45.6307 33.0319 45.605 33.0239 45.5772C33.0159 45.5495 33.0136 45.5205 33.0172 45.4919C33.0209 45.4632 33.0303 45.4357 33.0449 45.4108C33.0595 45.386 33.0791 45.3644 33.1024 45.3473C33.1256 45.3303 33.1522 45.3182 33.1803 45.3118C33.2084 45.3053 33.2375 45.3047 33.2659 45.3099C33.7109 45.3639 34.1559 45.4159 34.6029 45.4639C34.6588 45.4699 34.7101 45.4978 34.7455 45.5416C34.7808 45.5854 34.7974 45.6414 34.7914 45.6974C34.7854 45.7534 34.7575 45.8047 34.7137 45.84C34.6699 45.8754 34.6138 45.8919 34.5579 45.8859ZM54.5779 45.4949C54.5742 45.4672 54.5761 45.4392 54.5833 45.4122C54.5905 45.3853 54.603 45.36 54.62 45.3379C54.637 45.3158 54.6582 45.2973 54.6824 45.2834C54.7065 45.2695 54.7332 45.2605 54.7609 45.2569C55.2069 45.1999 55.6519 45.1389 56.0959 45.0749C56.149 45.0722 56.2012 45.0894 56.2422 45.1232C56.2833 45.1569 56.3102 45.2049 56.3177 45.2575C56.3252 45.3101 56.3128 45.3637 56.2829 45.4076C56.2529 45.4515 56.2076 45.4827 56.1559 45.4949C55.7007 45.5603 55.2451 45.622 54.7889 45.6799C54.7373 45.6799 54.6874 45.6611 54.6486 45.6271C54.6098 45.593 54.5847 45.5461 54.5779 45.4949ZM31.8719 45.5539C31.4247 45.4915 30.978 45.4255 30.5319 45.3559C30.479 45.3441 30.4326 45.3127 30.4021 45.2679C30.3716 45.2231 30.3593 45.1684 30.3677 45.1149C30.3761 45.0614 30.4046 45.0131 30.4474 44.9798C30.4901 44.9466 30.5439 44.9309 30.5979 44.9359C31.0409 45.0059 31.4849 45.0709 31.9299 45.1329C31.9827 45.1439 32.0293 45.1746 32.0604 45.2187C32.0915 45.2628 32.1046 45.317 32.0973 45.3705C32.0899 45.4239 32.0626 45.4725 32.0207 45.5066C31.9789 45.5406 31.9257 45.5575 31.8719 45.5539ZM57.2519 45.1139C57.2475 45.0864 57.2485 45.0583 57.255 45.0312C57.2614 45.004 57.2732 44.9785 57.2895 44.9559C57.3059 44.9333 57.3265 44.9142 57.3502 44.8996C57.374 44.885 57.4004 44.8753 57.4279 44.8709C57.8719 44.7999 58.3139 44.7249 58.7559 44.6469C58.7833 44.642 58.8115 44.6425 58.8387 44.6485C58.866 44.6544 58.8918 44.6657 58.9147 44.6816C58.9375 44.6975 58.9571 44.7178 58.9721 44.7413C58.9872 44.7647 58.9975 44.791 59.0024 44.8184C59.0073 44.8458 59.0068 44.874 59.0008 44.9012C58.9949 44.9285 58.9836 44.9543 58.9677 44.9772C58.9518 45.0001 58.9315 45.0196 58.908 45.0346C58.8845 45.0497 58.8583 45.06 58.8309 45.0649C58.3859 45.1439 57.9409 45.2189 57.4959 45.2909C57.4404 45.2996 57.3837 45.2859 57.3381 45.2529C57.2926 45.22 57.262 45.1704 57.2529 45.1149L57.2519 45.1139ZM29.1969 45.1369C28.7523 45.0604 28.3082 44.9804 27.8649 44.8969C27.8095 44.8864 27.7605 44.8544 27.7287 44.8077C27.6969 44.7611 27.6849 44.7038 27.6954 44.6484C27.7059 44.593 27.7379 44.544 27.7845 44.5122C27.8311 44.4804 27.8885 44.4684 27.9439 44.4789C28.3839 44.5619 28.8269 44.6419 29.2689 44.7189C29.2963 44.7236 29.3226 44.7337 29.3461 44.7486C29.3697 44.7635 29.3901 44.7828 29.4061 44.8056C29.4222 44.8283 29.4336 44.854 29.4398 44.8812C29.4459 44.9083 29.4466 44.9365 29.4419 44.9639C29.4372 44.9913 29.4271 45.0176 29.4122 45.0411C29.3973 45.0647 29.378 45.0851 29.3552 45.1011C29.3325 45.1172 29.3068 45.1286 29.2796 45.1348C29.2524 45.1409 29.2243 45.1416 29.1969 45.1369ZM59.9129 44.6499C59.9074 44.6224 59.9073 44.5942 59.9128 44.5667C59.9183 44.5392 59.9291 44.5131 59.9448 44.4899C59.9604 44.4666 59.9805 44.4467 60.0038 44.4313C60.0272 44.4158 60.0534 44.4052 60.0809 44.3999C60.5209 44.3149 60.9609 44.2259 61.4009 44.1339C61.4543 44.1265 61.5086 44.1397 61.5527 44.1707C61.5969 44.2018 61.6276 44.2485 61.6386 44.3013C61.6496 44.3541 61.6402 44.4091 61.6123 44.4553C61.5843 44.5014 61.5398 44.5353 61.4879 44.5499C61.0469 44.6419 60.6049 44.7319 60.1619 44.8179C60.1345 44.8233 60.1063 44.8232 60.079 44.8176C60.0516 44.8121 60.0256 44.8012 60.0025 44.7856C59.9794 44.77 59.9595 44.75 59.9442 44.7267C59.9288 44.7034 59.9182 44.6773 59.9129 44.6499ZM26.5369 44.6349C26.0949 44.5449 25.6539 44.4499 25.2129 44.3519C25.1579 44.3397 25.1099 44.3061 25.0796 44.2586C25.0493 44.2111 25.0392 44.1534 25.0514 44.0984C25.0636 44.0434 25.0971 43.9954 25.1447 43.9651C25.1922 43.9349 25.2499 43.9247 25.3049 43.9369C25.7439 44.0349 26.1829 44.1279 26.6219 44.2189C26.6733 44.2338 26.7171 44.2675 26.7448 44.3133C26.7724 44.3591 26.7818 44.4137 26.7711 44.4661C26.7604 44.5185 26.7304 44.565 26.687 44.5962C26.6436 44.6275 26.59 44.6413 26.5369 44.6349ZM62.5569 44.0999C62.5505 44.0726 62.5496 44.0444 62.5542 44.0168C62.5589 43.9892 62.5689 43.9628 62.5838 43.9391C62.5986 43.9154 62.6181 43.8948 62.6409 43.8787C62.6638 43.8625 62.6896 43.851 62.7169 43.8449C63.1539 43.7459 63.5909 43.6429 64.0269 43.5359C64.0802 43.5263 64.1352 43.5375 64.1806 43.567C64.2261 43.5966 64.2585 43.6423 64.2714 43.695C64.2843 43.7476 64.2766 43.8032 64.2499 43.8503C64.2233 43.8975 64.1796 43.9328 64.1279 43.9489C63.6899 44.0559 63.2509 44.1599 62.8109 44.2589C62.7559 44.2715 62.6981 44.2617 62.6503 44.2317C62.6025 44.2017 62.5685 44.1539 62.5559 44.0989L62.5569 44.0999ZM23.8939 44.0479C23.455 43.9429 23.017 43.8342 22.5799 43.7219C22.5296 43.7042 22.4877 43.6683 22.4626 43.6212C22.4374 43.5742 22.4309 43.5194 22.4442 43.4677C22.4575 43.4161 22.4898 43.3713 22.5345 43.3423C22.5793 43.3132 22.6333 43.302 22.6859 43.3109C23.1209 43.4219 23.5559 43.5309 23.9929 43.6349C24.02 43.6414 24.0456 43.6532 24.0681 43.6696C24.0907 43.6859 24.1098 43.7066 24.1244 43.7304C24.139 43.7542 24.1487 43.7806 24.1531 43.8081C24.1575 43.8356 24.1564 43.8638 24.1499 43.8909C24.1434 43.918 24.1316 43.9436 24.1152 43.9662C24.0988 43.9887 24.0782 44.0078 24.0544 44.0224C24.0306 44.037 24.0042 44.0467 23.9767 44.0511C23.9491 44.0555 23.921 44.0544 23.8939 44.0479ZM65.1809 43.4649C65.1669 43.4104 65.175 43.3526 65.2035 43.304C65.232 43.2555 65.2785 43.2202 65.3329 43.2059C65.7672 43.0927 66.2005 42.9761 66.6329 42.8559C66.6601 42.8471 66.6888 42.8438 66.7172 42.8463C66.7457 42.8489 66.7734 42.8571 66.7986 42.8706C66.8238 42.8842 66.846 42.9026 66.8639 42.9249C66.8817 42.9472 66.8949 42.9729 66.9026 43.0005C66.9103 43.028 66.9124 43.0568 66.9086 43.0851C66.9049 43.1135 66.8955 43.1408 66.8809 43.1654C66.8664 43.19 66.847 43.2114 66.824 43.2283C66.8009 43.2453 66.7747 43.2574 66.7469 43.2639C66.3129 43.3859 65.8769 43.5039 65.4399 43.6169C65.4129 43.624 65.3848 43.6256 65.3571 43.6218C65.3295 43.618 65.3029 43.6088 65.2788 43.5947C65.2548 43.5805 65.2337 43.5618 65.2169 43.5395C65.2001 43.5173 65.1879 43.4919 65.1809 43.4649ZM21.2709 43.3759C20.8359 43.2569 20.4009 43.1349 19.9679 43.0089C19.9411 43.0011 19.9161 42.9881 19.8943 42.9706C19.8726 42.9531 19.8545 42.9315 19.8411 42.9071C19.8276 42.8826 19.8192 42.8557 19.8161 42.828C19.8131 42.8003 19.8156 42.7722 19.8234 42.7454C19.8312 42.7186 19.8442 42.6936 19.8617 42.6719C19.8792 42.6501 19.9007 42.632 19.9252 42.6186C19.9497 42.6052 19.9765 42.5967 20.0043 42.5937C20.032 42.5906 20.0601 42.5931 20.0869 42.6009C20.5179 42.7259 20.9499 42.8479 21.3829 42.9659C21.4373 42.9806 21.4836 43.0163 21.5116 43.0652C21.5396 43.114 21.5471 43.172 21.5324 43.2264C21.5177 43.2808 21.482 43.3271 21.4331 43.3551C21.3842 43.3831 21.3253 43.3906 21.2709 43.3759ZM67.7839 42.7479C67.7759 42.7211 67.7733 42.693 67.7763 42.6652C67.7792 42.6374 67.7876 42.6105 67.801 42.5859C67.8144 42.5614 67.8325 42.5398 67.8542 42.5223C67.876 42.5047 67.9011 42.4917 67.9279 42.4839C68.3579 42.3559 68.7879 42.2259 69.2159 42.0919C69.2696 42.0751 69.3278 42.0802 69.3777 42.1063C69.4276 42.1324 69.465 42.1772 69.4819 42.2309C69.4987 42.2846 69.4935 42.3428 69.4675 42.3927C69.4414 42.4426 69.3966 42.4801 69.3429 42.4969C68.9129 42.6319 68.4809 42.7629 68.0479 42.8909C67.9939 42.9067 67.9359 42.9006 67.8864 42.8738C67.8369 42.847 67.8001 42.8018 67.7839 42.7479ZM18.6709 42.6209C18.2409 42.4879 17.8099 42.3519 17.3809 42.2119C17.3313 42.1914 17.2913 42.153 17.2688 42.1044C17.2463 42.0557 17.243 42.0003 17.2595 41.9493C17.2761 41.8983 17.3112 41.8554 17.358 41.8292C17.4048 41.803 17.4597 41.7954 17.5119 41.8079C17.9389 41.9479 18.3669 42.0829 18.7959 42.2149C18.8459 42.2345 18.8867 42.2723 18.91 42.3207C18.9334 42.3691 18.9375 42.4245 18.9217 42.4759C18.9059 42.5272 18.8713 42.5707 18.8248 42.5976C18.7782 42.6245 18.7233 42.6328 18.6709 42.6209ZM70.3629 41.9469C70.3455 41.8934 70.3499 41.8353 70.3752 41.7851C70.4005 41.7349 70.4446 41.6967 70.4979 41.6789C70.9239 41.5379 71.3479 41.3939 71.7729 41.2459C71.7992 41.2367 71.8271 41.2328 71.8549 41.2344C71.8828 41.236 71.91 41.243 71.9352 41.2551C71.9603 41.2672 71.9828 41.2842 72.0013 41.305C72.0199 41.3258 72.0342 41.3501 72.0434 41.3764C72.0526 41.4027 72.0565 41.4306 72.0549 41.4585C72.0533 41.4863 72.0463 41.5136 72.0342 41.5387C72.022 41.5638 72.0051 41.5863 71.9843 41.6048C71.9635 41.6234 71.9392 41.6377 71.9129 41.6469C71.4859 41.7949 71.0589 41.9409 70.6309 42.0819C70.5774 42.0993 70.5193 42.0949 70.4691 42.0696C70.4189 42.0443 70.3807 42.0002 70.3629 41.9469ZM16.0959 41.7829C15.669 41.6364 15.2433 41.4864 14.8189 41.3329C14.7926 41.3234 14.7685 41.3089 14.7478 41.2901C14.7272 41.2713 14.7104 41.2487 14.6986 41.2234C14.6867 41.1981 14.6799 41.1708 14.6786 41.1429C14.6772 41.115 14.6814 41.0872 14.6909 41.0609C14.7003 41.0346 14.7149 41.0105 14.7337 40.9898C14.7524 40.9692 14.7751 40.9524 14.8004 40.9406C14.8256 40.9287 14.853 40.9219 14.8809 40.9206C14.9088 40.9193 14.9366 40.9234 14.9629 40.9329C15.3859 41.0859 15.8089 41.2359 16.2339 41.3809C16.2872 41.3992 16.331 41.4379 16.3558 41.4886C16.3806 41.5392 16.3842 41.5976 16.3659 41.6509C16.3476 41.7042 16.3089 41.7481 16.2582 41.7728C16.2076 41.7976 16.1492 41.8012 16.0959 41.7829ZM72.9139 41.0649C72.9043 41.0387 72.9 41.0109 72.9012 40.983C72.9025 40.9552 72.9092 40.9278 72.921 40.9025C72.9327 40.8773 72.9494 40.8546 72.97 40.8358C72.9906 40.817 73.0147 40.8024 73.0409 40.7929C73.4609 40.6379 73.8819 40.4799 74.3009 40.3199C74.3534 40.2996 74.4118 40.301 74.4633 40.3238C74.5148 40.3466 74.5551 40.3889 74.5754 40.4414C74.5957 40.4939 74.5943 40.5523 74.5715 40.6038C74.5487 40.6553 74.5064 40.6956 74.4539 40.7159C74.0319 40.8779 73.6099 41.0359 73.1869 41.1919C73.1338 41.2112 73.0753 41.2087 73.0241 41.1849C72.9729 41.1611 72.9333 41.1179 72.9139 41.0649ZM13.5499 40.8639C13.1279 40.7039 12.7069 40.5409 12.2869 40.3739C12.2345 40.3531 12.1925 40.3123 12.1702 40.2605C12.1479 40.2088 12.1471 40.1503 12.1679 40.0979C12.1887 40.0455 12.2295 40.0036 12.2812 39.9812C12.333 39.9589 12.3915 39.9581 12.4439 39.9789C12.8619 40.1449 13.2809 40.3079 13.7009 40.4669C13.7535 40.4868 13.7961 40.5268 13.8193 40.5781C13.8424 40.6294 13.8443 40.6878 13.8244 40.7404C13.8045 40.793 13.7645 40.8356 13.7132 40.8588C13.6619 40.882 13.6025 40.8838 13.5499 40.8639ZM24.9559 46.7519L24.1419 48.3389C24.7919 48.4359 25.4149 47.8719 25.5289 47.3379C25.6089 46.9649 25.4439 46.6029 24.8799 46.4829C23.8409 46.2619 23.1209 46.5879 22.9579 47.3539C22.9029 47.6119 22.9779 47.6699 22.9739 47.7159C22.5319 47.6219 22.3139 47.4439 22.3919 47.0809C22.5349 46.4109 23.8519 46.0209 24.9219 46.2489C25.9749 46.4729 26.3349 47.0459 26.2249 47.5649C26.0879 48.2049 25.2369 48.7679 24.0829 48.5219L24.0509 48.5149L23.3529 49.8689L22.4299 49.6719L23.9859 46.6509L24.9559 46.7519ZM27.3649 48.0319L27.2489 48.2719C27.5069 48.1719 27.7849 48.1069 28.0559 48.1549C28.3459 48.2069 28.4959 48.3699 28.4619 48.5629C28.4299 48.7399 28.2239 48.9289 27.9069 48.8729C27.5459 48.8079 27.7869 48.5049 27.5929 48.4699C27.3989 48.4359 27.2859 48.4729 27.1189 48.5529L26.2259 50.4469L25.2959 50.2809L26.4359 47.8649L27.3659 48.0309L27.3649 48.0319ZM29.3739 50.5979C29.6909 50.6469 30.2809 50.4339 30.5649 50.0919L30.8569 50.1359C30.4069 50.6049 29.7069 51.0239 28.8699 50.8959C28.2479 50.8009 27.9679 50.3769 28.0349 49.9389C28.1349 49.2919 28.6579 48.2089 29.8379 48.3889C30.3689 48.4709 30.6409 48.6889 30.5859 49.0459C30.4909 49.6679 29.5869 49.8959 28.9619 49.8619C28.9369 49.9419 28.9189 50.0169 28.9089 50.0779C28.8579 50.4149 29.1209 50.5589 29.3739 50.5979ZM30.0099 48.6919C29.6469 48.6369 29.2609 49.1669 29.0519 49.6249C29.6489 49.7119 30.1319 49.3729 30.1929 49.0129C30.2099 48.9049 30.2049 48.7209 30.0099 48.6919Z" fill="#142F45"/>
<path d="M34.6839 50.8121C34.6567 50.8711 34.6385 50.9338 34.6299 50.9981C34.6169 51.1161 34.6649 51.2151 34.8729 51.2381C35.1329 51.2681 35.4419 50.9981 35.6169 50.7941L35.9229 50.8291C35.5919 51.0711 34.9289 51.6701 34.4209 51.6131C33.9129 51.5551 33.6339 51.3461 33.6779 50.9621C33.6893 50.8738 33.7125 50.7873 33.7469 50.7051L34.0999 49.8111C34.117 49.7695 34.1284 49.7258 34.1339 49.6811C34.1559 49.4961 34.0449 49.3641 33.8689 49.3441C33.7375 49.3282 33.6042 49.345 33.4809 49.3931C33.4929 49.4561 33.4999 49.5141 33.4929 49.5761C33.4889 49.6121 33.4779 49.6461 33.4679 49.6821L32.7799 51.4251L31.8349 51.3171L32.5039 49.6291C32.521 49.5875 32.5325 49.5438 32.5379 49.4991C32.5599 49.3141 32.4489 49.1821 32.2729 49.1621C32.1331 49.1444 31.9912 49.1659 31.8629 49.2241L31.0669 51.2301L30.1289 51.1231L31.1119 48.6401L32.0499 48.7471L31.9469 49.0101C32.2249 48.8911 32.5379 48.8031 32.8189 48.8351C33.0589 48.8621 33.3039 49.0301 33.4249 49.2461C33.7319 49.1001 34.0949 48.9801 34.4149 49.0161C34.7729 49.0571 35.1289 49.3991 35.0899 49.7481C35.0849 49.7881 35.0739 49.8241 35.0629 49.8641L34.6839 50.8121Z" fill="#142F45"/>
<path d="M36.822 49.2191L36.2121 50.9291C36.1951 50.9851 36.177 51.0401 36.174 51.0871C36.164 51.2001 36.2241 51.2871 36.4841 51.3081C36.7461 51.3281 37.109 51.0681 37.384 50.9241L37.606 50.9421C37.286 51.1541 36.4931 51.7791 35.9841 51.7391C35.4801 51.6991 35.181 51.4991 35.211 51.1131C35.217 51.0361 35.237 50.9501 35.271 50.8541L35.881 49.1441L36.822 49.2191ZM36.6081 48.1051C36.8961 48.1281 37.116 48.3321 37.098 48.5581C37.08 48.7841 36.831 48.9451 36.543 48.9231C36.255 48.9001 36.041 48.7021 36.059 48.4751C36.077 48.2491 36.3201 48.0821 36.6081 48.1051Z" fill="#142F45"/>
<path d="M40.2619 49.4208L39.6989 51.1468C39.6818 51.1981 39.6701 51.2511 39.6639 51.3048C39.6579 51.4188 39.7189 51.5048 39.9809 51.5188C40.2429 51.5318 40.5989 51.2618 40.8689 51.1108L41.0919 51.1228C40.7779 51.3428 40.0019 51.9888 39.4919 51.9628C39.0459 51.9388 38.7519 51.7888 38.7089 51.4868C38.3889 51.6968 38.0249 51.8848 37.7429 51.8698C37.2389 51.8438 36.9329 51.6518 36.9539 51.2658C36.9602 51.1772 36.978 51.0898 37.0069 51.0058L37.5709 49.2788L38.5139 49.3288L37.9499 51.0548C37.9339 51.1108 37.9179 51.1668 37.9149 51.2128C37.9099 51.3268 37.9709 51.4128 38.2329 51.4258C38.3699 51.4328 38.5379 51.3598 38.7069 51.2658C38.7178 51.2081 38.7338 51.1516 38.7549 51.0968L39.3189 49.3708L40.2619 49.4208Z" fill="#142F45"/>
<path d="M44.3041 52.0658C43.8781 52.0618 43.6381 51.8838 43.6421 51.4958C43.6421 51.4138 43.6571 51.3318 43.6841 51.2338L43.9441 50.3088C43.9569 50.2653 43.9637 50.2202 43.9641 50.1748C43.9671 49.9898 43.8441 49.8698 43.6661 49.8678C43.5385 49.8652 43.4122 49.8937 43.2981 49.9508C43.3177 50.0109 43.3278 50.0736 43.3281 50.1368C43.327 50.1731 43.3227 50.2093 43.3151 50.2448L42.8091 52.0498L41.8591 52.0398L42.3501 50.2918C42.3632 50.2483 42.3702 50.2032 42.3711 50.1578C42.3731 49.9718 42.2501 49.8518 42.0731 49.8498C41.9324 49.8467 41.7936 49.8827 41.6721 49.9538L41.0851 52.0308L40.1411 52.0208L40.8641 49.4508L41.8081 49.4608L41.7331 49.7328C41.9971 49.5868 42.3001 49.4658 42.5831 49.4688C42.8251 49.4718 43.0791 49.6088 43.2211 49.8058C43.5181 49.6338 43.8541 49.4828 44.1761 49.4858C44.5361 49.4908 44.9261 49.7938 44.9231 50.1448C44.9231 50.1858 44.9151 50.2218 44.9081 50.2628C44.8731 50.4328 44.5821 51.3368 44.5801 51.4508C44.5801 51.5378 44.6301 51.6108 44.8211 51.6128C44.8781 51.6162 44.9353 51.6119 44.9911 51.5998C44.8031 52.0408 44.5271 52.0688 44.3041 52.0658ZM47.9921 50.7388C48.0001 50.9088 48.0351 51.0668 48.0871 51.1988C48.2144 51.1632 48.3452 51.1411 48.4771 51.1328C48.6717 51.1172 48.8664 51.1615 49.0351 51.2598C49.4271 50.8218 49.7401 49.9858 49.7061 49.2998C49.6781 48.7338 49.5231 48.2568 48.6981 48.2978C47.6381 48.3508 46.9531 48.8538 46.9921 49.6378C47.0051 49.8998 47.0921 49.9368 47.1021 49.9828C46.6491 50.0048 46.3941 49.8888 46.3761 49.5178C46.3421 48.8328 47.5141 48.1188 48.6081 48.0648C49.9041 48.0008 50.4271 48.4748 50.4711 49.3708C50.5081 50.1018 50.1381 51.1218 49.4811 51.6448C49.6811 51.8468 49.8941 52.0218 50.2941 52.0018C50.3391 51.9998 50.3841 51.9918 50.4371 51.9848C50.2851 52.3488 50.0671 52.4468 49.7851 52.4608C49.2411 52.4878 49.0631 52.2128 48.9381 51.9308C48.8401 51.958 48.7396 51.9747 48.6381 51.9808C47.7931 52.0228 47.2141 51.7318 47.1711 50.8618C47.1241 49.9038 47.5561 48.5618 48.4731 48.5158C48.5641 48.5108 48.6631 48.5218 48.7691 48.5418C48.2336 49.1448 47.9548 49.9332 47.9921 50.7388ZM48.1671 51.3548C48.2591 51.4848 48.3801 51.5608 48.5511 51.5518C48.6095 51.5489 48.6667 51.5339 48.7191 51.5078C48.6746 51.4459 48.6146 51.397 48.545 51.3659C48.4754 51.3348 48.3989 51.3227 48.3231 51.3308C48.2705 51.3342 48.2183 51.3422 48.1671 51.3548ZM53.6371 48.9738L53.3241 50.7618C53.3144 50.8152 53.3104 50.8695 53.3121 50.9238C53.3221 51.0368 53.3951 51.1138 53.6561 51.0898C53.9171 51.0658 54.2311 50.7478 54.4781 50.5598L54.7001 50.5398C54.4201 50.8038 53.7441 51.5528 53.2341 51.5988C52.7901 51.6388 52.4781 51.5318 52.3921 51.2388C52.1061 51.4928 51.7721 51.7298 51.4911 51.7548C50.9881 51.7998 50.6591 51.6538 50.6241 51.2688C50.6179 51.1798 50.6233 51.0904 50.6401 51.0028L50.9531 49.2148L51.8931 49.1298L51.5801 50.9188C51.5706 50.9719 51.5666 51.0259 51.5681 51.0798C51.5781 51.1928 51.6511 51.2698 51.9121 51.2458C52.0501 51.2338 52.2051 51.1368 52.3591 51.0198C52.3619 50.9615 52.3699 50.9036 52.3831 50.8468L52.6971 49.0578L53.6371 48.9738Z" fill="#142F45"/>
<path d="M56.819 48.585L56.567 50.383C56.5594 50.4366 56.5573 50.4909 56.561 50.545C56.575 50.657 56.651 50.731 56.911 50.699C57.171 50.666 57.474 50.337 57.714 50.141L57.934 50.114C57.664 50.386 57.014 51.158 56.507 51.222C56.084 51.274 55.782 51.187 55.664 50.932C55.495 51.166 55.229 51.412 54.832 51.462C54.207 51.539 53.982 51.214 53.944 50.912C53.834 50.032 54.106 48.928 55.407 48.766C55.5615 48.7477 55.7181 48.7729 55.859 48.839L55.882 48.702L56.819 48.585ZM54.805 50.665C54.843 50.972 55.065 51.001 55.228 50.981C55.378 50.962 55.507 50.831 55.612 50.673C55.612 50.621 55.619 50.563 55.63 50.499L55.826 49.099C55.7236 49.0492 55.6088 49.0307 55.496 49.046C55.007 49.106 54.717 49.969 54.805 50.665Z" fill="#142F45"/>
<path d="M58.547 47.2759L58.219 50.1429C58.211 50.2229 58.205 50.2699 58.211 50.3109C58.228 50.4229 58.311 50.4889 58.564 50.4509C58.824 50.4109 59.117 50.0739 59.352 49.8719L59.572 49.8389C59.31 50.1189 58.68 50.9079 58.174 50.9839C57.675 51.0599 57.344 50.9339 57.286 50.5509C57.2745 50.4626 57.2745 50.3732 57.286 50.2849L57.603 47.5239L58.547 47.2759Z" fill="#142F45"/>
<path d="M60.1421 48.0518L59.9721 49.8598C59.9666 49.9136 59.9666 49.9679 59.9721 50.0218C59.9921 50.1328 60.0701 50.2038 60.3291 50.1598C60.5871 50.1158 60.8751 49.7728 61.1061 49.5668L61.3261 49.5288C61.0681 49.8128 60.4531 50.6138 59.9491 50.7008C59.4511 50.7858 59.1121 50.6658 59.0471 50.2848C59.0335 50.1967 59.0315 50.1073 59.0411 50.0188L59.2111 48.2108L60.1421 48.0518ZM59.6611 47.0248C59.9451 46.9758 60.2091 47.1188 60.2471 47.3428C60.2861 47.5668 60.0831 47.7838 59.7991 47.8328C59.5141 47.8818 59.2581 47.7428 59.2191 47.5188C59.1811 47.2948 59.3761 47.0728 59.6611 47.0248Z" fill="#142F45"/>
<path d="M61.97 46.8809C61.97 46.8809 61.938 47.2439 61.903 47.7229L62.289 47.6499L62.276 47.8619L61.89 47.9359C61.75 49.6219 61.767 49.6709 61.772 49.6959C61.794 49.8129 61.872 49.8759 62.131 49.8279C62.388 49.7779 62.669 49.4299 62.896 49.2189L63.115 49.1779C62.863 49.4679 62.263 50.2799 61.761 50.3759C61.265 50.4699 60.929 50.3559 60.857 49.9759C60.806 49.7069 60.937 48.5689 60.962 48.1119L60.75 48.1529L60.763 47.9409L60.975 47.9009L61.035 47.1639L61.97 46.8809Z" fill="#142F45"/>
<path d="M63.647 47.3641L63.553 49.1791C63.5448 49.2349 63.5458 49.2917 63.556 49.3471C63.581 49.4581 63.667 49.5182 63.917 49.4641C64.065 49.4321 64.217 49.3031 64.36 49.1561L64.454 47.1881L65.384 46.9851L65.239 50.0781C65.204 50.8401 64.683 51.0961 64.26 51.1881C63.87 51.2741 63.457 51.1381 63.385 50.8102C63.283 50.3412 63.751 50.0861 64.329 49.8121L64.349 49.4441C64.106 49.7131 63.819 49.9661 63.562 50.0221C63.062 50.1311 62.731 50.0241 62.648 49.6461C62.6305 49.5586 62.6248 49.4692 62.631 49.3801L62.705 47.5701L63.647 47.3641ZM64.015 50.7731C64.143 50.7451 64.295 50.6111 64.307 50.2971L64.319 49.9832C63.939 50.1772 63.663 50.3901 63.722 50.6631C63.738 50.7331 63.874 50.8031 64.015 50.7731ZM28.915 19.7051L28.158 23.2671C29.224 23.1821 30.024 21.7741 30.024 20.6431C30.024 19.8541 29.64 19.1931 28.702 19.1931C26.974 19.1931 25.939 20.1631 25.939 21.7851C25.939 22.3291 26.078 22.4141 26.089 22.5101C25.353 22.5101 24.947 22.2431 24.947 21.4751C24.947 20.0571 26.91 18.7021 28.691 18.7021C30.441 18.7021 31.208 19.7051 31.208 20.8031C31.208 22.1581 30.046 23.6621 28.126 23.6621H28.072L27.422 26.7021H25.886L27.336 19.9181L28.915 19.7051ZM33.32 21.3681L33.202 21.9021C33.586 21.6031 34.012 21.3681 34.46 21.3681C34.94 21.3681 35.228 21.6461 35.228 22.0511C35.228 22.4241 34.951 22.8831 34.428 22.8831C33.831 22.8831 34.13 22.1791 33.81 22.1791C33.49 22.1791 33.32 22.2971 33.074 22.5201L32.188 26.7021H30.652L31.783 21.3681H33.32ZM37.29 25.9341C37.812 25.9341 38.708 25.3151 39.081 24.5261H39.561C38.953 25.6251 37.929 26.7021 36.553 26.7021C35.53 26.7021 34.975 25.9231 34.975 25.0061C34.975 23.6511 35.551 21.2731 37.492 21.2731C38.367 21.2731 38.857 21.6351 38.857 22.3821C38.857 23.6821 37.46 24.4301 36.447 24.5581C36.4268 24.71 36.4158 24.863 36.414 25.0161C36.414 25.7201 36.875 25.9341 37.29 25.9341ZM37.844 21.8381C37.247 21.8381 36.756 23.0431 36.532 24.0461C37.513 24.0361 38.207 23.1921 38.217 22.4361C38.217 22.2111 38.164 21.8381 37.844 21.8381Z" fill="#142F45"/>
<path d="M45.9401 24.9952C45.9064 25.1242 45.8883 25.2568 45.8861 25.3902C45.8861 25.6352 45.9821 25.8272 46.3231 25.8272C46.7501 25.8272 47.1981 25.1972 47.4431 24.7392H47.9451C47.4541 25.3152 46.4941 26.7012 45.6621 26.7012C44.8301 26.7012 44.3391 26.3392 44.3391 25.5392C44.3391 25.3692 44.3611 25.1982 44.4031 24.9952L44.8091 23.0752C44.8291 22.9792 44.8411 22.8832 44.8411 22.7982C44.8411 22.4142 44.6381 22.1682 44.3501 22.1682C44.1151 22.1682 43.9341 22.2322 43.7311 22.3602C43.7631 22.4882 43.7851 22.6062 43.7851 22.7332C43.7851 22.8082 43.7751 22.8832 43.7641 22.9572L42.9741 26.7012H41.4281L42.1951 23.0752C42.2171 22.9792 42.2271 22.8832 42.2271 22.7972C42.2271 22.4142 42.0251 22.1682 41.7371 22.1682C41.4811 22.1682 41.2991 22.2432 41.0871 22.3922L40.1691 26.7022H38.6331L39.7631 21.3682H41.3001L41.1821 21.9332C41.6091 21.6242 42.0991 21.3682 42.5581 21.3682C42.9531 21.3682 43.3791 21.6562 43.6141 22.0722C44.0841 21.6992 44.6491 21.3682 45.1711 21.3682C45.7581 21.3682 46.3981 21.9872 46.3981 22.7122C46.3981 22.7972 46.3881 22.8722 46.3771 22.9572L45.9401 24.9952Z" fill="#142F45"/>
<path d="M49.243 21.3689L48.475 24.9949C48.4515 25.1036 48.4372 25.2139 48.432 25.3249C48.432 25.5609 48.539 25.7309 48.965 25.7309C49.392 25.7309 49.947 25.1339 50.374 24.7919H50.736C50.246 25.2829 49.04 26.7019 48.208 26.7019C47.388 26.7019 46.875 26.3389 46.875 25.5389C46.875 25.3789 46.896 25.1979 46.939 24.9949L47.707 21.3689H49.243ZM48.753 19.1069C49.221 19.1069 49.605 19.4909 49.605 19.9609C49.6045 20.0723 49.582 20.1824 49.5388 20.2851C49.4956 20.3877 49.4326 20.4808 49.3533 20.559C49.2741 20.6373 49.1802 20.6991 49.077 20.7409C48.9738 20.7828 48.8633 20.8039 48.752 20.8029C48.6412 20.8036 48.5314 20.7823 48.4288 20.7402C48.3263 20.6981 48.2332 20.6362 48.1548 20.5579C48.0764 20.4795 48.0143 20.3865 47.9721 20.284C47.9299 20.1816 47.9085 20.0717 47.909 19.9609C47.909 19.4909 48.284 19.1069 48.753 19.1069Z" fill="#142F45"/>
<path d="M54.9621 21.3682L54.1941 24.9952C54.1706 25.1038 54.1562 25.2142 54.1511 25.3252C54.1511 25.5602 54.2581 25.7312 54.6851 25.7312C55.1111 25.7312 55.6661 25.1332 56.0931 24.7922H56.4551C55.9651 25.2822 54.7591 26.7022 53.9271 26.7022C53.2021 26.7022 52.7111 26.4242 52.6151 25.8052C52.1141 26.2752 51.5381 26.7012 51.0791 26.7012C50.2591 26.7012 49.7461 26.3392 49.7461 25.5392C49.7461 25.3792 49.7671 25.1982 49.8101 24.9952L50.5781 21.3682H52.1141L51.3461 24.9952C51.3226 25.1038 51.3083 25.2142 51.3031 25.3252C51.3031 25.5602 51.4101 25.7312 51.8371 25.7312C52.0611 25.7312 52.3271 25.5612 52.5941 25.3472C52.6041 25.2402 52.6261 25.1232 52.6581 24.9952L53.4261 21.3682H54.9621Z" fill="#142F45"/>
<path d="M61.7559 26.7022C61.0619 26.7022 60.6679 26.3392 60.6679 25.5392C60.6679 25.3692 60.6879 25.1982 60.7319 24.9952L61.1369 23.0752C61.1574 22.9842 61.1681 22.8914 61.1689 22.7982C61.1689 22.4142 60.9659 22.1682 60.6789 22.1682C60.4658 22.1673 60.2574 22.2308 60.0809 22.3502C60.1129 22.4782 60.1339 22.6062 60.1339 22.7342C60.1339 22.8082 60.1239 22.8842 60.1139 22.9582L59.3239 26.7022H57.7769L58.5449 23.0752C58.5659 22.9792 58.5769 22.8832 58.5769 22.7982C58.5769 22.4142 58.3739 22.1682 58.0869 22.1682C57.8299 22.1682 57.6489 22.2432 57.4359 22.3922L56.5179 26.7022H54.9819L56.1129 21.3682H57.6499L57.5329 21.9342C57.9599 21.6242 58.4499 21.3682 58.9089 21.3682C59.3029 21.3682 59.7189 21.6462 59.9539 22.0512C60.4339 21.6882 60.9779 21.3682 61.5009 21.3682C62.0869 21.3682 62.7269 21.9882 62.7269 22.7122C62.7269 22.7982 62.7169 22.8722 62.7059 22.9582C62.6529 23.3102 62.1939 25.1872 62.1939 25.4222C62.1939 25.6022 62.2789 25.7522 62.5889 25.7522C62.6629 25.7522 62.7809 25.7522 62.8659 25.7202C62.5669 26.6382 62.1189 26.7022 61.7559 26.7022ZM39.5639 34.9832V40.1652H38.2709V37.3872C38.2709 36.9862 38.2619 36.7452 38.2429 36.6642C38.2326 36.6232 38.2129 36.5852 38.1853 36.5532C38.1577 36.5213 38.1229 36.4963 38.0839 36.4802C37.9979 36.4382 37.8049 36.4172 37.5069 36.4172H37.3789V35.8132C38.0039 35.6792 38.4789 35.4022 38.8029 34.9832H39.5639ZM43.1159 36.7372V38.4652C43.1159 38.8582 43.0949 39.1442 43.0519 39.3232C43.0065 39.5099 42.9154 39.6824 42.7869 39.8252C42.6567 39.9778 42.4888 40.0937 42.2999 40.1612C42.1099 40.2302 41.8979 40.2642 41.6629 40.2642C41.3539 40.2642 41.0969 40.2282 40.8929 40.1572C40.7009 40.0946 40.5308 39.9784 40.4029 39.8222C40.2865 39.6809 40.1982 39.5186 40.1429 39.3442C40.0919 39.1762 40.0659 38.9102 40.0659 38.5452V36.7372C40.0659 36.2612 40.1069 35.9052 40.1899 35.6682C40.2719 35.4322 40.4349 35.2422 40.6799 35.0982C40.9239 34.9562 41.2199 34.8842 41.5669 34.8842C41.8509 34.8842 42.1049 34.9342 42.3289 35.0342C42.5529 35.1322 42.7199 35.2542 42.8309 35.3962C42.9419 35.5392 43.0169 35.7002 43.0569 35.8792C43.0969 36.0592 43.1159 36.3452 43.1159 36.7372ZM41.8229 36.3022C41.8229 36.0272 41.8099 35.8552 41.7829 35.7852C41.7569 35.7152 41.6939 35.6812 41.5959 35.6812C41.4999 35.6812 41.4359 35.7182 41.4059 35.7912C41.3749 35.8652 41.3589 36.0352 41.3589 36.3012V38.8302C41.3589 39.1302 41.3739 39.3122 41.4029 39.3742C41.4319 39.4362 41.4939 39.4672 41.5899 39.4672C41.6859 39.4672 41.7489 39.4312 41.7789 39.3582C41.8089 39.2852 41.8239 39.1222 41.8239 38.8682L41.8229 36.3022ZM46.6299 36.7372V38.4652C46.6299 38.8582 46.6079 39.1442 46.5659 39.3232C46.5229 39.5032 46.4349 39.6702 46.2999 39.8252C46.17 39.9777 46.0024 40.0935 45.8139 40.1612C45.6239 40.2302 45.4119 40.2642 45.1769 40.2642C44.9158 40.271 44.6553 40.2349 44.4059 40.1572C44.2139 40.0946 44.0439 39.9783 43.9159 39.8222C43.7995 39.6809 43.7112 39.5186 43.6559 39.3442C43.6059 39.1762 43.5799 38.9102 43.5799 38.5452V36.7372C43.5799 36.2612 43.6209 35.9052 43.7029 35.6682C43.7849 35.4322 43.9489 35.2422 44.1929 35.0982C44.4369 34.9562 44.7329 34.8842 45.0809 34.8842C45.3649 34.8842 45.6189 34.9342 45.8429 35.0342C46.0669 35.1322 46.2339 35.2542 46.3449 35.3962C46.4549 35.5392 46.5309 35.7002 46.5709 35.8792C46.6099 36.0592 46.6299 36.3452 46.6299 36.7372ZM45.3369 36.3022C45.3369 36.0272 45.3239 35.8552 45.2969 35.7852C45.2699 35.7152 45.2069 35.6812 45.1099 35.6812C45.0139 35.6812 44.9499 35.7182 44.9199 35.7912C44.8879 35.8652 44.8729 36.0352 44.8729 36.3012V38.8302C44.8729 39.1302 44.8879 39.3122 44.9159 39.3742C44.9449 39.4362 45.0079 39.4672 45.1039 39.4672C45.1989 39.4672 45.2619 39.4312 45.2919 39.3582C45.3219 39.2852 45.3369 39.1222 45.3369 38.8682V36.3022ZM48.8879 35.8672V36.7572C48.8879 36.9892 48.8659 37.1642 48.8219 37.2802C48.7653 37.4107 48.6658 37.5179 48.5399 37.5842C48.3959 37.6702 48.2059 37.7142 47.9699 37.7142C47.6959 37.7142 47.4879 37.6722 47.3449 37.5902C47.2186 37.5257 47.1168 37.4217 47.0549 37.2942C47.0049 37.1792 46.9799 37.0142 46.9799 36.7982V35.8672C46.9799 35.6112 47.0069 35.4222 47.0589 35.2992C47.1206 35.1664 47.2277 35.06 47.3609 34.9992C47.5109 34.9232 47.6949 34.8842 47.9149 34.8842C48.1579 34.8842 48.3549 34.9262 48.5069 35.0112C48.6395 35.076 48.7465 35.1834 48.8109 35.3162C48.8619 35.4362 48.8879 35.6202 48.8879 35.8672ZM48.0679 35.6402C48.0736 35.5553 48.0669 35.4701 48.0479 35.3872C48.0339 35.3552 47.9959 35.3392 47.9339 35.3392C47.8759 35.3392 47.8389 35.3562 47.8219 35.3892C47.7987 35.4703 47.7899 35.555 47.7959 35.6392V36.9452C47.7959 37.0952 47.8039 37.1842 47.8189 37.2142C47.8339 37.2442 47.8729 37.2592 47.9369 37.2592C47.9929 37.2592 48.0279 37.2422 48.0439 37.2082C48.0653 37.1301 48.0735 37.0489 48.0679 36.9682V35.6402ZM50.3949 34.8842L48.3689 40.2642H47.8759L49.9089 34.8842H50.3949ZM51.2909 38.3692V39.2622C51.2909 39.4922 51.2689 39.6662 51.2249 39.7842C51.1689 39.915 51.0697 40.0226 50.9439 40.0892C50.7999 40.1762 50.6089 40.2192 50.3729 40.2192C50.1019 40.2192 49.8939 40.1782 49.7499 40.0942C49.6234 40.0292 49.5213 39.925 49.4589 39.7972C49.4089 39.6812 49.3839 39.5172 49.3839 39.3042V38.3702C49.3839 38.1162 49.4099 37.9272 49.4619 37.8052C49.5239 37.6724 49.6309 37.5658 49.7639 37.5042C49.9139 37.4262 50.0979 37.3872 50.3179 37.3872C50.5629 37.3872 50.7619 37.4302 50.9129 37.5152C51.0456 37.5805 51.1523 37.6886 51.2159 37.8222C51.2659 37.9422 51.2909 38.1242 51.2909 38.3692ZM50.4709 38.1452C50.4763 38.06 50.4696 37.9744 50.4509 37.8912C50.4369 37.8582 50.3989 37.8412 50.3369 37.8412C50.2799 37.8412 50.2429 37.8582 50.2269 37.8922C50.2052 37.9746 50.1971 38.0601 50.2029 38.1452V39.4512C50.2029 39.5982 50.2099 39.6872 50.2249 39.7172C50.2399 39.7472 50.2789 39.7612 50.3399 39.7612C50.3979 39.7612 50.4339 39.7452 50.4499 39.7112C50.4698 39.6328 50.4772 39.5518 50.4719 39.4712L50.4709 38.1452ZM31.1049 30.3822C31.1095 30.4874 31.0737 30.5904 31.0049 30.6702C30.954 30.7274 30.8865 30.7672 30.8119 30.7842C30.7612 30.7969 30.7091 30.803 30.6569 30.8022C30.5616 30.8063 30.4673 30.7819 30.3859 30.7322C30.3251 30.6931 30.2758 30.6385 30.2429 30.5742C30.2069 30.5033 30.1861 30.4256 30.1819 30.3462L30.4469 30.3292C30.4589 30.4232 30.4869 30.4912 30.5329 30.5342C30.5479 30.5492 30.5658 30.561 30.5856 30.5688C30.6054 30.5765 30.6266 30.5801 30.6479 30.5792C30.6717 30.5792 30.6953 30.5744 30.7171 30.5649C30.739 30.5555 30.7587 30.5417 30.775 30.5244C30.7913 30.507 30.8039 30.4865 30.8119 30.4641C30.82 30.4417 30.8234 30.4179 30.8219 30.3942C30.8219 30.3272 30.7869 30.2602 30.7179 30.1942L30.4689 29.9892C30.3934 29.9294 30.3273 29.8586 30.2729 29.7792C30.232 29.7109 30.2105 29.6327 30.2109 29.5532C30.2109 29.4072 30.2679 29.2952 30.3809 29.2202C30.459 29.1726 30.5494 29.1489 30.6409 29.1522C30.7399 29.1522 30.8249 29.1722 30.8959 29.2102C30.9509 29.2402 30.9959 29.2822 31.0299 29.3362C31.0645 29.3925 31.0854 29.4562 31.0909 29.5222L30.8239 29.5652C30.82 29.5077 30.7971 29.4532 30.7589 29.4102C30.7442 29.3965 30.7268 29.3859 30.7079 29.379C30.6891 29.3721 30.669 29.3691 30.6489 29.3702C30.5969 29.3702 30.5589 29.3902 30.5319 29.4302C30.5091 29.4652 30.4976 29.5064 30.4989 29.5482C30.4989 29.6222 30.5349 29.6972 30.6089 29.7732C30.6467 29.8108 30.6879 29.8449 30.7319 29.8752C30.7969 29.9232 30.8399 29.9552 30.8609 29.9752C30.9438 30.0457 31.0124 30.1316 31.0629 30.2282C31.0899 30.2852 31.1029 30.3372 31.1049 30.3822ZM31.9599 30.7832V29.1702H32.7549V29.4142H32.2399V29.8542H32.6159V30.0982H32.2399V30.5382H32.7549V30.7822H31.9609L31.9599 30.7832ZM34.4449 30.3972C34.4452 30.4493 34.4339 30.5009 34.4118 30.5482C34.3896 30.5954 34.3572 30.6371 34.3169 30.6702C34.2314 30.7455 34.1207 30.7858 34.0069 30.7832H33.5679V29.1702H34.0069C34.1289 29.1702 34.2319 29.2082 34.3169 29.2832C34.357 29.316 34.3892 29.3574 34.4114 29.4043C34.4335 29.4511 34.4449 29.5023 34.4449 29.5542V30.3972ZM33.8469 30.5432H34.0159C34.0572 30.5442 34.0974 30.5291 34.1279 30.5012C34.1423 30.489 34.1538 30.4738 34.1618 30.4567C34.1697 30.4396 34.1739 30.421 34.1739 30.4022V29.5592C34.1739 29.5402 34.1697 29.5215 34.1616 29.5043C34.1535 29.4872 34.1416 29.4721 34.1269 29.4602C34.0962 29.4334 34.0566 29.4192 34.0159 29.4202H33.8469V30.5432ZM36.5199 30.8012C36.4053 30.8041 36.2937 30.7641 36.2069 30.6892C36.1666 30.6566 36.1341 30.6155 36.1118 30.5688C36.0895 30.5221 36.0779 30.4709 36.0779 30.4192V29.1732H36.3509V30.4162C36.3509 30.4542 36.3669 30.4862 36.3989 30.5142C36.4299 30.5412 36.4679 30.5542 36.5119 30.5542C36.5532 30.5554 36.5935 30.5411 36.6249 30.5142C36.6395 30.5024 36.6514 30.4874 36.6595 30.4705C36.6676 30.4535 36.6719 30.435 36.6719 30.4162V29.1732H36.9619V30.4182C36.9623 30.4704 36.9508 30.522 36.9283 30.5692C36.9057 30.6163 36.8728 30.6577 36.8319 30.6902C36.745 30.7641 36.634 30.8036 36.5199 30.8012ZM38.1049 29.4172H37.8089V29.1732H38.6789V29.4172H38.3849V30.7832H38.1049V29.4172ZM40.7519 29.1732C40.8706 29.1671 40.9871 29.2072 41.0769 29.2852C41.1138 29.32 41.143 29.3622 41.1625 29.4091C41.182 29.456 41.1913 29.5064 41.1899 29.5572V29.7912C41.19 29.8431 41.1785 29.8945 41.1564 29.9415C41.1343 29.9885 41.102 30.0301 41.0619 30.0632C40.9766 30.1387 40.8658 30.1791 40.7519 30.1762H40.5919V30.7832H40.3119V29.1732H40.7519ZM40.9189 29.5612C40.9197 29.542 40.9162 29.523 40.9088 29.5054C40.9014 29.4877 40.8901 29.472 40.8759 29.4592C40.8434 29.4324 40.8019 29.4188 40.7599 29.4212H40.5909V29.9362H40.7599C40.8012 29.9375 40.8416 29.9232 40.8729 29.8962C40.8876 29.884 40.8993 29.8687 40.9073 29.8514C40.9152 29.8341 40.9192 29.8152 40.9189 29.7962V29.5612ZM42.0369 30.7832V29.1702H42.8309V29.4142H42.3159V29.8542H42.6929V30.0982H42.3159V30.5382H42.8309V30.7822H42.0369V30.7832ZM44.0839 29.1732C44.2399 29.1732 44.3539 29.2102 44.4269 29.2852C44.4602 29.3218 44.4858 29.3648 44.5023 29.4115C44.5188 29.4582 44.5258 29.5077 44.5229 29.5572V29.7912C44.5229 29.9052 44.4729 30.0012 44.3729 30.0802L44.5809 30.7832H44.2789L44.1089 30.1762H43.9239V30.7832H43.6439V29.1732H44.0839ZM44.2509 29.5612C44.2509 29.4672 44.1979 29.4212 44.0909 29.4212H43.9239V29.9362H44.0919C44.1334 29.9372 44.1737 29.9226 44.2049 29.8952C44.2194 29.8831 44.231 29.8679 44.239 29.8508C44.2469 29.8337 44.251 29.815 44.2509 29.7962V29.5612ZM46.2699 30.3822C46.2745 30.4874 46.2387 30.5904 46.1699 30.6702C46.1193 30.7272 46.0522 30.7671 45.9779 30.7842C45.9272 30.7969 45.8751 30.803 45.8229 30.8022C45.7129 30.8022 45.6229 30.7792 45.5509 30.7322C45.4904 30.693 45.4414 30.6384 45.4089 30.5742C45.3728 30.5033 45.352 30.4256 45.3479 30.3462L45.6129 30.3292C45.6249 30.4232 45.6529 30.4912 45.6989 30.5342C45.7139 30.5492 45.7318 30.561 45.7516 30.5688C45.7714 30.5765 45.7926 30.5801 45.8139 30.5792C45.8377 30.5792 45.8613 30.5744 45.8831 30.5649C45.905 30.5555 45.9247 30.5417 45.941 30.5244C45.9573 30.507 45.9699 30.4865 45.9779 30.4641C45.986 30.4417 45.9894 30.4179 45.9879 30.3942C45.9879 30.3272 45.9539 30.2602 45.8839 30.1942C45.8011 30.126 45.7184 30.0577 45.6359 29.9892C45.56 29.9295 45.4936 29.8587 45.4389 29.7792C45.3979 29.7109 45.3765 29.6328 45.3769 29.5532C45.3769 29.4072 45.4339 29.2952 45.5469 29.2202C45.625 29.1726 45.7154 29.1489 45.8069 29.1522C45.9069 29.1522 45.9909 29.1722 46.0619 29.2102C46.1169 29.2402 46.1619 29.2822 46.1959 29.3362C46.2306 29.3925 46.2515 29.4562 46.2569 29.5222L45.9899 29.5652C45.986 29.5077 45.9631 29.4532 45.9249 29.4102C45.9102 29.3965 45.8928 29.3859 45.8739 29.379C45.8551 29.3721 45.835 29.3691 45.8149 29.3702C45.7629 29.3702 45.7249 29.3902 45.6979 29.4302C45.6751 29.4652 45.6636 29.5064 45.6649 29.5482C45.6649 29.6222 45.7019 29.6972 45.7749 29.7732C45.8128 29.8108 45.8539 29.8449 45.8979 29.8752C45.9629 29.9232 46.0059 29.9552 46.0269 29.9752C46.11 30.0456 46.1786 30.1315 46.2289 30.2282C46.2559 30.2852 46.2679 30.3372 46.2699 30.3822ZM47.5669 29.1732C47.7029 29.1732 47.8109 29.2102 47.8919 29.2852C47.9286 29.3201 47.9576 29.3623 47.9769 29.4092C47.9962 29.4561 48.0054 29.5065 48.0039 29.5572V29.7912C48.004 29.8431 47.9925 29.8945 47.9704 29.9415C47.9483 29.9885 47.916 30.0301 47.8759 30.0632C47.7906 30.1387 47.6798 30.1791 47.5659 30.1762H47.4059V30.7832H47.1269V29.1732H47.5669ZM47.7339 29.5612C47.7345 29.542 47.7309 29.5229 47.7233 29.5052C47.7157 29.4876 47.7043 29.4719 47.6899 29.4592C47.6574 29.4324 47.6159 29.4188 47.5739 29.4212H47.4059V29.9362H47.5739C47.6152 29.9375 47.6556 29.9232 47.6869 29.8962C47.7017 29.8841 47.7136 29.8688 47.7217 29.8515C47.7299 29.8342 47.734 29.8153 47.7339 29.7962V29.5612ZM49.1299 30.7832H48.8519V29.1732H49.1309L49.1299 30.7832ZM50.4429 30.8042C50.3278 30.807 50.2158 30.7667 50.1289 30.6912C50.0885 30.6585 50.056 30.6172 50.0337 30.5703C50.0113 30.5234 49.9998 30.4721 49.9999 30.4202V29.5402C49.9999 29.4332 50.0429 29.3422 50.1299 29.2672C50.2167 29.1923 50.3283 29.1524 50.4429 29.1552C50.5659 29.1552 50.6699 29.1922 50.7559 29.2682C50.7961 29.3011 50.8284 29.3427 50.8506 29.3897C50.8727 29.4368 50.8841 29.4882 50.8839 29.5402V29.7242H50.5939V29.5352C50.5941 29.5163 50.5901 29.4976 50.5822 29.4804C50.5742 29.4633 50.5625 29.4482 50.5479 29.4362C50.5162 29.4091 50.4755 29.3948 50.4339 29.3962C50.3925 29.3948 50.3522 29.409 50.3209 29.4362C50.3062 29.4483 50.2945 29.4636 50.2865 29.4809C50.2785 29.4982 50.2746 29.5171 50.2749 29.5362V30.4162C50.2749 30.4562 50.2899 30.4882 50.3209 30.5162C50.3524 30.5428 50.3926 30.557 50.4339 30.5562C50.4755 30.5572 50.5161 30.543 50.5479 30.5162C50.5629 30.5042 50.5749 30.489 50.583 30.4716C50.5912 30.4543 50.5952 30.4353 50.5949 30.4162V30.1942H50.8849V30.4192C50.8852 30.4715 50.8737 30.5233 50.8512 30.5706C50.8287 30.6178 50.7957 30.6594 50.7549 30.6922C50.6683 30.7668 50.5572 30.8067 50.4429 30.8042ZM52.0169 30.7832H51.7379V29.1732H52.0179V30.7832H52.0169ZM53.2309 30.4132L53.1629 30.7832H52.8729L53.1879 29.1732H53.5709L53.8809 30.7832H53.5879L53.5229 30.4132H53.2309ZM53.3779 29.5412L53.2749 30.1762H53.4809L53.3779 29.5412ZM54.7769 29.4172H54.4799V29.1732H55.3519V29.4172H55.0559V30.7832H54.7769V29.4172ZM56.4779 30.7832H56.1989V29.1732H56.4789L56.4779 30.7832ZM58.2569 30.3822C58.2615 30.4874 58.2257 30.5904 58.1569 30.6702C58.1061 30.7274 58.0386 30.7673 57.9639 30.7842C57.9132 30.7969 57.8611 30.803 57.8089 30.8022C57.7136 30.8061 57.6193 30.7817 57.5379 30.7322C57.4771 30.6931 57.4278 30.6385 57.3949 30.5742C57.3588 30.5033 57.338 30.4256 57.3339 30.3462L57.5999 30.3292C57.6109 30.4232 57.6399 30.4912 57.6849 30.5342C57.6999 30.5492 57.7178 30.561 57.7376 30.5688C57.7574 30.5765 57.7786 30.5801 57.7999 30.5792C57.829 30.579 57.8576 30.5717 57.8832 30.558C57.9088 30.5442 57.9307 30.5243 57.9469 30.5002C57.9675 30.4685 57.9774 30.4309 57.9749 30.3932C57.9749 30.3272 57.9399 30.2602 57.8699 30.1932L57.6219 29.9892C57.5464 29.9294 57.4803 29.8586 57.4259 29.7792C57.3849 29.7109 57.3635 29.6328 57.3639 29.5532C57.3639 29.4072 57.4199 29.2952 57.5339 29.2202C57.612 29.1726 57.7024 29.1489 57.7939 29.1522C57.8929 29.1522 57.9779 29.1722 58.0489 29.2102C58.1039 29.2402 58.1489 29.2822 58.1819 29.3362C58.2169 29.3924 58.2382 29.4561 58.2439 29.5222L57.9759 29.5652C57.972 29.5077 57.9491 29.4532 57.9109 29.4102C57.8859 29.3842 57.8489 29.3702 57.8009 29.3702C57.7499 29.3702 57.7109 29.3902 57.6839 29.4302C57.6615 29.4653 57.6503 29.5065 57.6519 29.5482C57.6519 29.6222 57.6879 29.6972 57.7609 29.7732C57.7991 29.8108 57.8406 29.8449 57.8849 29.8752C57.9499 29.9232 57.9929 29.9552 58.0139 29.9752C58.097 30.0456 58.1656 30.1315 58.2159 30.2282C58.2419 30.2852 58.2569 30.3372 58.2569 30.3822Z" fill="#142F45"/>
</g>
<defs>
<linearGradient id="paint0_linear_1082_16867" x1="79.8689" y1="36.578" x2="74.0719" y2="39.526" gradientUnits="userSpaceOnUse">
<stop stop-color="white"/>
<stop offset="0.78" stop-color="#C9C9C9"/>
</linearGradient>
<linearGradient id="paint1_linear_1082_16867" x1="12.289" y1="39.526" x2="18.086" y2="36.578" gradientUnits="userSpaceOnUse">
<stop stop-color="white"/>
<stop offset="0.78" stop-color="#C9C9C9"/>
</linearGradient>
<linearGradient id="paint2_linear_1082_16867" x1="44.373" y1="69.0758" x2="44.373" y2="36.3828" gradientUnits="userSpaceOnUse">
<stop stop-color="#E0E0E0"/>
<stop offset="1" stop-color="#DFDFDF"/>
</linearGradient>
<linearGradient id="paint3_linear_1082_16867" x1="44.367" y1="2.92188" x2="44.367" y2="36.3839" gradientUnits="userSpaceOnUse">
<stop stop-color="white"/>
<stop offset="1" stop-color="#DDDDDD"/>
</linearGradient>
<clipPath id="clip0_1082_16867">
<rect width="88" height="72" fill="white" transform="translate(0.25)"/>
</clipPath>
</defs>
</svg>
