<svg width="198" height="32" viewBox="0 0 198 32" fill="none" xmlns="http://www.w3.org/2000/svg">
<g clip-path="url(#clip0_451_32322)">
<mask id="mask0_451_32322" style="mask-type:luminance" maskUnits="userSpaceOnUse" x="0" y="0" width="197" height="32">
<path d="M196.905 0H0.460938V32H196.905V0Z" fill="white"/>
</mask>
<g mask="url(#mask0_451_32322)">
<path fill-rule="evenodd" clip-rule="evenodd" d="M20.2625 0.795044C17.1379 0.795044 14.6049 3.32803 14.6049 6.45264C14.6049 9.57719 17.1379 12.1103 20.2625 12.1103C23.3872 12.1103 25.92 9.57719 25.92 6.45264C25.92 3.32803 23.3872 0.795044 20.2625 0.795044ZM9.20064 11.8015C15.0899 11.8015 19.864 16.5757 19.864 22.4648V31.2046H14.56V22.4648C14.56 21.8378 14.4523 21.2357 14.2544 20.6764L6.46354 28.4672L2.71304 24.7165L10.2262 17.2036C9.89427 17.1392 9.55134 17.1054 9.20064 17.1054H0.460938V11.8015H9.20064ZM31.4564 11.8015C25.5672 11.8015 20.7929 16.5757 20.7929 22.4648V31.2046H26.0968V22.4648C26.0968 21.9737 26.1629 21.4977 26.2868 21.0458L34.4365 29.1956L38.1872 25.4449L30.0373 17.2953C30.4893 17.1716 30.9652 17.1054 31.4564 17.1054H40.196V11.8015H31.4564Z" fill="#C6C9D5"/>
<path d="M48.6826 31.5101V1.02356H57.3168L66.5739 27.1485H67.2417V1.02356H72.1817V31.5101H63.7258L54.2458 5.34065H53.6228V31.5101H48.6826Z" fill="#C6C9D5"/>
<path d="M91.973 27.5048L93.2192 27.3714L93.3081 30.9764C89.9259 31.6588 86.9287 32 84.3177 32C81.0244 32 78.6507 31.0948 77.1969 29.285C75.7727 27.475 75.0605 24.5822 75.0605 20.6064C75.0605 12.7139 78.2797 8.7677 84.7184 8.7677C90.9489 8.7677 94.0645 12.165 94.0645 18.9597L93.7535 22.4313H79.9561C79.9859 24.2706 80.3865 25.6208 81.158 26.481C81.9292 27.3417 83.3684 27.7717 85.4751 27.7717C87.5815 27.7717 89.7472 27.6829 91.973 27.5048ZM89.3026 18.6926C89.3026 16.4969 88.9464 14.9689 88.2343 14.1085C87.5522 13.2183 86.38 12.7732 84.7184 12.7732C83.0568 12.7732 81.8404 13.2331 81.0689 14.153C80.3271 15.0728 79.9412 16.586 79.9119 18.6926H89.3026Z" fill="#C6C9D5"/>
<path d="M108.476 13.3962H102.335V23.1874C102.335 24.9976 102.468 26.1992 102.735 26.7925C103.002 27.3861 103.684 27.6829 104.783 27.6829L108.432 27.5492L108.654 31.421C106.666 31.8069 105.153 32 104.114 32C101.592 32 99.8574 31.421 98.9072 30.2641C97.9872 29.1068 97.5277 26.9261 97.5277 23.7218V13.3962H94.6797V9.25717H97.5277V2.80383H102.335V9.25717H108.476V13.3962Z" fill="#C6C9D5"/>
<path d="M108.494 9.25732H113.257L116.772 27.3715H117.662L121.891 9.70239H126.875L131.104 27.3715H131.994L135.465 9.25732H140.272L135.553 31.5103H127.855L124.383 16.2448L120.912 31.5103H113.212L108.494 9.25732Z" fill="#C6C9D5"/>
<path d="M143.369 11.6606C144.911 9.73199 147.463 8.7677 151.024 8.7677C154.584 8.7677 157.121 9.73199 158.633 11.6606C160.177 13.5893 160.948 16.4821 160.948 20.3394C160.948 24.1965 160.207 27.1041 158.723 29.0626C157.239 31.0209 154.673 32 151.024 32C147.375 32 144.807 31.0209 143.324 29.0626C141.84 27.1041 141.099 24.1965 141.099 20.3394C141.099 16.4821 141.855 13.5893 143.369 11.6606ZM147.017 26.125C147.7 27.312 149.036 27.9053 151.024 27.9053C153.012 27.9053 154.347 27.312 155.029 26.125C155.712 24.9384 156.052 22.9949 156.052 20.2949C156.052 17.5948 155.681 15.681 154.94 14.5536C154.228 13.4261 152.923 12.8622 151.024 12.8622C149.124 12.8622 147.804 13.4261 147.063 14.5536C146.351 15.681 145.995 17.5948 145.995 20.2949C145.995 22.9949 146.336 24.9384 147.017 26.125Z" fill="#C6C9D5"/>
<path d="M163.541 31.5102V9.25723H168.348V11.9276C170.87 10.2957 173.393 9.24247 175.914 8.7677V13.6189C173.362 14.1233 171.182 14.776 169.372 15.5772L168.393 15.9777V31.5102H163.541Z" fill="#C6C9D5"/>
<path d="M182.249 31.5103H177.398V0H182.249V18.2029L185.008 17.9359L190.26 9.25724H195.689L189.281 19.6717L196.046 31.5103H190.572L185.142 22.1193L182.249 22.4313V31.5103Z" fill="#C6C9D5"/>
</g>
</g>
<defs>
<clipPath id="clip0_451_32322">
<rect width="197.333" height="32" fill="white" transform="translate(0.460938)"/>
</clipPath>
</defs>
</svg>
