<svg width="119" height="32" viewBox="0 0 119 32" fill="none" xmlns="http://www.w3.org/2000/svg">
<g clip-path="url(#clip0_451_32175)">
<path d="M104.746 24.383C103.645 23.722 102.763 22.8407 102.102 21.739C101.441 20.6373 101.138 19.4254 101.138 18.1034C101.138 16.8089 101.441 15.597 102.102 14.4953C102.763 13.3936 103.645 12.5122 104.746 11.8512C105.848 11.1902 107.06 10.8597 108.382 10.8597C109.677 10.8597 110.888 11.1902 111.99 11.8512C113.092 12.5122 113.973 13.3936 114.634 14.4953C115.295 15.597 115.626 16.8089 115.626 18.1034C115.626 19.4254 115.295 20.6373 114.634 21.739C113.973 22.8407 113.092 23.722 111.99 24.383C110.888 25.044 109.677 25.347 108.382 25.347C107.06 25.347 105.848 25.044 104.746 24.383ZM110.282 21.436C110.861 21.1055 111.329 20.6373 111.687 20.0313C112.018 19.4529 112.21 18.8195 112.21 18.1034C112.21 17.4148 112.018 16.7813 111.687 16.1754C111.329 15.597 110.861 15.1288 110.282 14.7707C109.677 14.4402 109.043 14.2474 108.354 14.2474C107.638 14.2474 107.005 14.4402 106.427 14.7707C105.821 15.1288 105.352 15.597 105.022 16.1754C104.691 16.7813 104.526 17.4148 104.526 18.1034C104.526 18.8195 104.691 19.4529 105.022 20.0313C105.352 20.6373 105.821 21.1055 106.427 21.436C107.005 21.7665 107.638 21.9318 108.354 21.9318C109.043 21.9318 109.677 21.7665 110.282 21.436Z" fill="#C6C9D5"/>
<path d="M96.1115 8.38084C95.7259 8.05033 95.5605 7.55457 95.5605 6.94864C95.5605 6.3427 95.7259 5.84694 96.1115 5.48889C96.4695 5.15838 96.9653 4.96558 97.6263 4.96558C98.2598 4.96558 98.7556 5.15838 99.1412 5.48889C99.4992 5.84694 99.6919 6.3427 99.6919 6.94864C99.6919 7.55457 99.4991 8.02279 99.1135 8.38084C98.7279 8.73889 98.2323 8.90415 97.6263 8.90415C96.9653 8.90415 96.4695 8.73889 96.1115 8.38084ZM95.8911 24.9614V11.1902H99.3064V24.9614H95.8911Z" fill="#C6C9D5"/>
<path d="M89.2092 5.68176H92.6245V24.9614H89.2092V23.6394C88.5757 24.1902 87.8872 24.6309 87.116 24.9064C86.3448 25.2093 85.5461 25.347 84.7198 25.347C83.3151 25.347 82.1032 25.0441 81.0566 24.4106C80.01 23.8047 79.1837 22.9233 78.6329 21.8216C78.0821 20.7199 77.8066 19.4805 77.8066 18.1034C77.8066 16.7262 78.0821 15.4868 78.6329 14.3851C79.1837 13.2834 80.01 12.4296 81.0566 11.7962C82.1032 11.1627 83.3151 10.8322 84.7198 10.8322C85.5461 10.8322 86.3172 10.9974 87.0884 11.3004C87.8596 11.6034 88.5482 12.0165 89.2092 12.5398V5.68176ZM87.1986 21.5737C87.8045 21.2432 88.3003 20.7474 88.6583 20.1415C89.0164 19.5356 89.2092 18.847 89.2092 18.0758C89.2092 16.919 88.7961 15.9826 88.0249 15.239C87.2537 14.5229 86.2897 14.1373 85.1605 14.1373C84.0037 14.1373 83.0397 14.5229 82.296 15.2665C81.5524 16.0101 81.1943 16.9466 81.1943 18.1034C81.1943 19.2602 81.5524 20.2241 82.296 20.9678C83.0397 21.7114 84.0037 22.0695 85.1605 22.0695C85.9041 22.0695 86.5927 21.9042 87.1986 21.5737Z" fill="#C6C9D5"/>
<path d="M72.3029 11.1902H75.7181V24.9614H72.3029V23.8046C71.8071 24.2729 71.2562 24.6309 70.6503 24.9063C70.0444 25.1818 69.3834 25.3195 68.7223 25.3195C67.8961 25.3195 67.0698 25.1542 66.2435 24.8237C65.4172 24.4932 64.7011 23.8597 64.0952 22.9784C63.4893 22.097 63.2139 20.9127 63.2139 19.4254V11.1902H66.6291V19.4254C66.6291 20.472 66.9045 21.2157 67.4829 21.6563C68.0613 22.097 68.7499 22.3174 69.5211 22.3174C70.2923 22.3174 70.9257 22.0695 71.4766 21.5186C72.0274 20.9678 72.3029 20.114 72.3029 18.9021V11.1902Z" fill="#C6C9D5"/>
<path d="M58.6451 21.5462C58.9205 21.794 59.3888 21.9042 60.0498 21.9042C60.4354 21.9042 60.8485 21.8767 61.3167 21.8216V24.9614C60.4354 25.0716 59.7193 25.0991 59.1684 25.0991C57.6811 25.0991 56.5794 24.7686 55.8633 24.1076C55.1472 23.4466 54.7892 22.2347 54.7892 20.472V14.2474H52.2002V11.1902H54.7892V7.80253L58.2044 6.64575V11.1902H61.2616V14.2474H58.2044V20.2517C58.2044 20.8851 58.3421 21.3258 58.6451 21.5462Z" fill="#C6C9D5"/>
<path d="M44.2244 15.9275C44.6651 16.1203 45.3536 16.3131 46.2901 16.5059C47.3367 16.7262 48.2456 16.9741 48.9617 17.2495C49.6778 17.525 50.2837 17.9656 50.807 18.5716C51.3303 19.1775 51.6057 19.9762 51.6057 20.9678C51.6057 21.8767 51.3303 22.6479 50.7795 23.3089C50.2286 23.9699 49.5125 24.4932 48.6312 24.8237C47.7223 25.1542 46.7307 25.3195 45.6841 25.3195C44.2244 25.3195 42.985 25.044 41.9384 24.4932C40.8917 23.9423 40.1481 23.1712 39.6523 22.1245L42.4617 20.6648C42.9574 21.9318 44.0316 22.5652 45.6841 22.5652C46.4002 22.5652 47.0062 22.4275 47.5295 22.1521C48.0252 21.8767 48.3007 21.4911 48.3007 20.9678C48.3007 20.5271 48.0528 20.2241 47.5846 20.0038C47.1163 19.7834 46.3727 19.5631 45.3261 19.2877C44.2244 19.0398 43.343 18.7919 42.682 18.5165C41.9934 18.2686 41.415 17.883 40.9193 17.3322C40.4235 16.7813 40.1756 16.0652 40.1756 15.1563C40.1756 14.275 40.4235 13.5313 40.9193 12.8703C41.415 12.2093 42.0761 11.7135 42.9299 11.3555C43.7562 11.0249 44.6926 10.8322 45.7117 10.8322C46.896 10.8322 47.9701 11.08 48.9066 11.5758C49.843 12.0716 50.5867 12.7877 51.11 13.6966L48.3282 15.1012C47.8324 14.0822 46.9786 13.5589 45.7117 13.5589C45.0506 13.5589 44.5549 13.6966 44.1693 13.972C43.7837 14.2474 43.5909 14.6055 43.5909 15.0461C43.5909 15.4317 43.7837 15.7347 44.2244 15.9275Z" fill="#C6C9D5"/>
<mask id="mask0_451_32175" style="mask-type:alpha" maskUnits="userSpaceOnUse" x="0" y="0" width="32" height="31">
<path d="M15.9546 30.7138C24.4053 30.7138 31.2559 23.8632 31.2559 15.4125C31.2559 6.96183 24.4053 0.111206 15.9546 0.111206C7.50395 0.111206 0.65332 6.96183 0.65332 15.4125C0.65332 23.8632 7.50395 30.7138 15.9546 30.7138Z" fill="#D9D9D9"/>
</mask>
<g mask="url(#mask0_451_32175)">
<path d="M10.3907 15.6511L-1.79645 18.9167C-2.69361 19.1571 -3.22602 20.0792 -2.98563 20.9764L0.279916 33.1636C0.520308 34.0607 1.44247 34.5931 2.33963 34.3527L14.5268 31.0872C15.424 30.8468 15.9564 29.9246 15.716 29.0275L12.4504 16.8403C12.2101 15.9431 11.2879 15.4107 10.3907 15.6511Z" fill="#C6C9D5"/>
<path d="M29.5694 15.6511L17.3823 18.9167C16.4851 19.1571 15.9527 20.0792 16.1931 20.9764L19.4586 33.1636C19.699 34.0607 20.6212 34.5931 21.5183 34.3527L33.7055 31.0872C34.6027 30.8468 35.1351 29.9246 34.8947 29.0275L31.6292 16.8403C31.3888 15.9431 30.4666 15.4107 29.5694 15.6511Z" fill="#C6C9D5"/>
<path d="M29.5694 -3.52796L17.3823 -0.262417C16.4851 -0.0220248 15.9527 0.900141 16.1931 1.7973L19.4586 13.9845C19.699 14.8816 20.6212 15.414 21.5183 15.1737L33.7055 11.9081C34.6027 11.6677 35.1351 10.7456 34.8947 9.8484L31.6292 -2.33879C31.3888 -3.23594 30.4666 -3.76836 29.5694 -3.52796Z" fill="#C6C9D5"/>
<path d="M10.3907 -3.52796L-1.79645 -0.262417C-2.69361 -0.022025 -3.22602 0.900141 -2.98563 1.7973L0.279916 13.9845C0.520309 14.8816 1.44247 15.414 2.33963 15.1737L14.5268 11.9081C15.424 11.6677 15.9564 10.7456 15.716 9.8484L12.4504 -2.33879C12.2101 -3.23594 11.2879 -3.76836 10.3907 -3.52796Z" fill="#C6C9D5"/>
</g>
</g>
<defs>
<clipPath id="clip0_451_32175">
<rect width="118" height="32" fill="white" transform="translate(0.0703125)"/>
</clipPath>
</defs>
</svg>
