<svg width="36" height="33" viewBox="0 0 36 33" fill="none" xmlns="http://www.w3.org/2000/svg">
<path d="M12.6977 32.616C10.3803 32.616 8.32701 32.2053 6.53767 31.384C4.74834 30.5627 3.34034 29.36 2.31367 27.776C1.31634 26.1627 0.817672 24.212 0.817672 21.924V20.824H5.52567V21.924C5.52567 24.0947 6.17101 25.7227 7.46167 26.808C8.78167 27.8933 10.527 28.436 12.6977 28.436C14.8977 28.436 16.555 27.9813 17.6697 27.072C18.7843 26.1333 19.3417 24.9307 19.3417 23.464C19.3417 22.496 19.0777 21.704 18.5497 21.088C18.0217 20.472 17.2737 19.988 16.3057 19.636C15.3377 19.2547 14.179 18.9027 12.8297 18.58L11.2017 18.184C9.23634 17.7147 7.52034 17.1427 6.05367 16.468C4.61634 15.764 3.50167 14.84 2.70967 13.696C1.91767 12.552 1.52167 11.0853 1.52167 9.296C1.52167 7.47733 1.96167 5.92267 2.84167 4.632C3.75101 3.34133 4.99767 2.344 6.58167 1.64C8.16567 0.935998 10.0283 0.583998 12.1697 0.583998C14.311 0.583998 16.2177 0.950665 17.8897 1.684C19.591 2.41733 20.9257 3.50267 21.8937 4.94C22.8617 6.37733 23.3457 8.18133 23.3457 10.352V11.936H18.6377V10.352C18.6377 9.032 18.359 7.96133 17.8017 7.14C17.2737 6.31867 16.5257 5.71733 15.5577 5.336C14.5897 4.95467 13.4603 4.764 12.1697 4.764C10.2923 4.764 8.82567 5.16 7.76967 5.952C6.74301 6.71467 6.22967 7.78533 6.22967 9.164C6.22967 10.1027 6.44967 10.88 6.88967 11.496C7.35901 12.0827 8.03367 12.5667 8.91367 12.948C9.79367 13.3293 10.8937 13.6667 12.2137 13.96L13.8417 14.356C15.8363 14.796 17.5963 15.368 19.1217 16.072C20.647 16.7467 21.8497 17.6707 22.7297 18.844C23.6097 20.0173 24.0497 21.528 24.0497 23.376C24.0497 25.224 23.5803 26.8373 22.6417 28.216C21.7323 29.5947 20.427 30.68 18.7257 31.472C17.0243 32.2347 15.015 32.616 12.6977 32.616ZM31.8982 32.616C30.8715 32.616 30.0062 32.2787 29.3022 31.604C28.6275 30.9293 28.2902 30.064 28.2902 29.008C28.2902 27.952 28.6275 27.1013 29.3022 26.456C30.0062 25.7813 30.8715 25.444 31.8982 25.444C32.9248 25.444 33.7755 25.7813 34.4502 26.456C35.1542 27.1307 35.5062 27.9813 35.5062 29.008C35.5062 30.064 35.1542 30.9293 34.4502 31.604C33.7755 32.2787 32.9248 32.616 31.8982 32.616Z" fill="url(#paint0_linear_240_2591)"/>
<defs>
<linearGradient id="paint0_linear_240_2591" x1="-1" y1="16.5" x2="38" y2="16.5" gradientUnits="userSpaceOnUse">
<stop stop-color="#AB33F5"/>
<stop offset="1" stop-color="#FF6914"/>
</linearGradient>
</defs>
</svg>
