<svg width="50" height="50" viewBox="0 0 50 50" fill="none" xmlns="http://www.w3.org/2000/svg">
<path d="M11.8375 42.5086C13.7532 42.9297 15.7203 41.7929 16.3664 39.9562L18.5375 33.4523L15.2461 31.5984C14.8774 31.3906 14.461 31.2453 14.0305 31.1703C12.8508 30.964 11.5602 31.2797 10.8211 32.2617C10.7727 32.3265 10.7055 32.3648 10.6344 32.3898L8.9969 37.3445C8.22893 39.5289 9.56175 42.0094 11.8383 42.5094L11.8375 42.5086Z" fill="url(#paint0_linear_242_2703)"/>
<path d="M15.4102 26.6679C17.1742 25.9203 19.1469 25.7023 21.0406 25.9555L25.9656 11.2117C26.1492 10.6711 26.3711 10.2109 26.6453 9.80467C27.0727 9.18201 27.5242 8.77967 28.1133 8.49842C28.4289 8.34373 28.868 8.30936 29.3336 8.34529C27.1453 7.42342 24.732 7.06717 22.4391 7.79451C20.4508 8.42498 18.7398 9.7867 17.6945 11.5929C17.4234 12.0617 17.1977 12.5562 17.0188 13.0679L11.4102 30.0406C11.6211 29.7601 11.8352 29.4898 12.0555 29.2312C12.9844 28.139 14.0219 27.257 15.4117 26.6679H15.4102Z" fill="url(#paint1_linear_242_2703)"/>
<path d="M40.8289 36.5602C40.7922 36.6 40.7593 36.6438 40.7156 36.6727C40.1594 37.043 39.314 36.3133 38.8187 36.0266C35.0679 33.8586 31.3281 31.6727 27.5539 29.5469C25.5094 28.3953 23.5969 27.1867 21.257 26.7609C17.8523 26.2344 14.5101 27.3938 12.7172 29.7391L12.1781 30.4563C12.3219 30.4203 12.4664 30.3852 12.6172 30.3633C12.8531 30.3266 13.0914 30.3086 13.3289 30.3086C13.5398 30.3086 13.75 30.325 13.9586 30.3531C14.5789 30.425 15.1828 30.6172 15.7273 30.9289L35.2797 41.9437C37.0883 42.9445 39.3867 42.7617 40.6179 40.975L40.7336 40.7961C41.3601 39.7898 41.5 38.5469 41.1086 37.3992L40.8304 36.5602H40.8289Z" fill="url(#paint2_linear_242_2703)"/>
<path d="M28.3609 9.39845C27.0914 10.0133 26.846 11.3336 26.4414 12.5461C26.1601 13.3875 25.8796 14.2281 25.5984 15.0695L30.6531 30.3555L40.2062 35.8828C40.2398 35.7063 40.2671 35.3469 40.1867 34.6188C40.182 34.5984 40.1789 34.5766 40.1773 34.5555C39.6304 32.8945 33.0843 12.4945 32.4445 11.1594C32.1351 10.5141 31.6882 9.91642 31.0796 9.53985C30.3429 9.0836 29.3914 8.99923 28.582 9.3047C28.507 9.33282 28.4335 9.36485 28.3609 9.39923V9.39845Z" fill="url(#paint3_linear_242_2703)"/>
<defs>
<linearGradient id="paint0_linear_242_2703" x1="8.77869" y1="31.1102" x2="18.3956" y2="35.4209" gradientUnits="userSpaceOnUse">
<stop offset="0.18" stop-color="#6D30FB"/>
<stop offset="1" stop-color="#C13DFF"/>
</linearGradient>
<linearGradient id="paint1_linear_242_2703" x1="11.4102" y1="7.40594" x2="29.4698" y2="14.9505" gradientUnits="userSpaceOnUse">
<stop offset="0.18" stop-color="#6D30FB"/>
<stop offset="1" stop-color="#C13DFF"/>
</linearGradient>
<linearGradient id="paint2_linear_242_2703" x1="12.1781" y1="26.6356" x2="30.0171" y2="43.8737" gradientUnits="userSpaceOnUse">
<stop offset="0.18" stop-color="#6D30FB"/>
<stop offset="1" stop-color="#C13DFF"/>
</linearGradient>
<linearGradient id="paint3_linear_242_2703" x1="25.5984" y1="9.12408" x2="41.5924" y2="13.7408" gradientUnits="userSpaceOnUse">
<stop offset="0.18" stop-color="#6D30FB"/>
<stop offset="1" stop-color="#C13DFF"/>
</linearGradient>
</defs>
</svg>
