<svg width="50" height="50" viewBox="0 0 50 50" fill="none" xmlns="http://www.w3.org/2000/svg">
<path d="M31.0059 17.3828H18.9941C16.5979 17.3828 14.6484 19.3322 14.6484 21.7285C14.6484 24.1248 16.5979 26.0742 18.9941 26.0742H31.0059C33.4021 26.0742 35.3516 24.1248 35.3516 21.7285C35.3516 19.3322 33.4021 17.3828 31.0059 17.3828ZM20.7848 22.2655C20.7848 23.0745 20.1289 23.7304 19.3199 23.7304C18.5109 23.7304 17.8551 23.0745 17.8551 22.2655V21.1913C17.8551 20.3823 18.5109 19.7265 19.3199 19.7265C20.1289 19.7265 20.7848 20.3823 20.7848 21.1913V22.2655ZM32.1448 22.2655C32.1448 23.0745 31.489 23.7304 30.68 23.7304C29.871 23.7304 29.2151 23.0745 29.2151 22.2655V21.1913C29.2151 20.3823 29.871 19.7265 30.68 19.7265C31.489 19.7265 32.1448 20.3823 32.1448 21.1913V22.2655Z" fill="url(#paint0_linear_242_2670)"/>
<path d="M42.6758 25.195V22.3636C42.6758 12.5711 34.7414 4.88281 25 4.88281C15.2481 4.88281 7.32422 12.5723 7.32422 22.3636V25.195C7.32422 29.7133 11.0099 33.3984 15.5276 33.3984H34.4724C38.9901 33.3984 42.6758 29.7128 42.6758 25.195ZM18.9941 29.0038C14.9825 29.0038 11.7188 25.7401 11.7188 21.7284C11.7188 17.7167 14.9824 14.453 18.9941 14.453H31.0059C35.0175 14.453 38.2812 17.7167 38.2812 21.7284C38.2812 25.7401 35.0175 29.0038 31.0059 29.0038H18.9941Z" fill="url(#paint1_linear_242_2670)"/>
<path d="M32.6172 39.2578H29.3945C27.7832 39.2578 26.4648 40.5762 26.4648 42.1875C26.4648 43.7988 27.7832 45.1172 29.3945 45.1172H32.6172C34.2285 45.1172 35.5469 43.7988 35.5469 42.1875C35.5469 40.5762 34.2285 39.2578 32.6172 39.2578Z" fill="url(#paint2_linear_242_2670)"/>
<path d="M47.0704 34.8142C47.0704 38.0698 44.2524 40.8203 40.9167 40.8203H38.3139C38.4193 41.2593 38.4766 41.7167 38.4766 42.1875C38.4766 42.7286 38.4013 43.2521 38.2634 43.75H40.9167C45.8404 43.75 50.0001 39.6579 50.0001 34.8142V31.9512C49.148 32.5923 48.1522 33.0521 47.0704 33.2727V34.8142Z" fill="url(#paint3_linear_242_2670)"/>
<path d="M45.6055 15.7442H45.4788V7.27313C45.4788 6.46415 44.8229 5.80829 44.0139 5.80829C43.2049 5.80829 42.5491 6.46415 42.5491 7.27313V11.604C44.5398 14.7927 45.6055 18.4887 45.6055 22.3636V25.195C45.6055 27.1105 45.1192 28.9146 44.2635 30.4903H45.6055C48.0287 30.4903 50 28.5189 50 26.0958V20.1388C50 17.7156 48.0287 15.7442 45.6055 15.7442Z" fill="url(#paint4_linear_242_2670)"/>
<path d="M4.39453 22.3636C4.39453 18.4869 5.46025 14.7897 7.45088 11.6007V7.27313C7.45088 6.46415 6.79502 5.80829 5.98604 5.80829C5.17705 5.80829 4.52119 6.46415 4.52119 7.27313V15.7442H4.39453C1.97139 15.7442 0 17.7156 0 20.1388V26.0958C0 28.5189 1.97139 30.4903 4.39453 30.4903H5.73652C4.88086 28.9146 4.39453 27.1106 4.39453 25.195V22.3636Z" fill="url(#paint5_linear_242_2670)"/>
<defs>
<linearGradient id="paint0_linear_242_2670" x1="25" y1="17.3828" x2="25" y2="26.0742" gradientUnits="userSpaceOnUse">
<stop stop-color="#36E0F7"/>
<stop offset="1" stop-color="#1DFFD2"/>
</linearGradient>
<linearGradient id="paint1_linear_242_2670" x1="25" y1="4.88281" x2="25" y2="33.3984" gradientUnits="userSpaceOnUse">
<stop stop-color="#36E0F7"/>
<stop offset="1" stop-color="#1DFFD2"/>
</linearGradient>
<linearGradient id="paint2_linear_242_2670" x1="31.0059" y1="39.2578" x2="31.0059" y2="45.1172" gradientUnits="userSpaceOnUse">
<stop stop-color="#36E0F7"/>
<stop offset="1" stop-color="#1DFFD2"/>
</linearGradient>
<linearGradient id="paint3_linear_242_2670" x1="44.1317" y1="31.9512" x2="44.1317" y2="43.75" gradientUnits="userSpaceOnUse">
<stop stop-color="#36E0F7"/>
<stop offset="1" stop-color="#1DFFD2"/>
</linearGradient>
<linearGradient id="paint4_linear_242_2670" x1="46.2746" y1="5.80829" x2="46.2746" y2="30.4903" gradientUnits="userSpaceOnUse">
<stop stop-color="#36E0F7"/>
<stop offset="1" stop-color="#1DFFD2"/>
</linearGradient>
<linearGradient id="paint5_linear_242_2670" x1="3.72544" y1="5.80829" x2="3.72544" y2="30.4903" gradientUnits="userSpaceOnUse">
<stop stop-color="#36E0F7"/>
<stop offset="1" stop-color="#1DFFD2"/>
</linearGradient>
</defs>
</svg>
