<svg width="40" height="40" viewBox="0 0 40 40" fill="none" xmlns="http://www.w3.org/2000/svg">
<path d="M28.2055 27.533C26.871 27.533 25.5547 27.533 24.2202 27.533C23.7652 27.5666 23.308 27.5058 22.8774 27.3541C22.4467 27.2025 22.052 26.9633 21.7175 26.6515C21.3832 26.3396 21.1165 25.9618 20.9342 25.5418C20.7519 25.1218 20.6577 24.6685 20.6577 24.2103C20.6577 23.7521 20.7519 23.2988 20.9342 22.8788C21.1165 22.4588 21.3832 22.0811 21.7175 21.7693C22.052 21.4575 22.4467 21.2181 22.8774 21.0665C23.308 20.9148 23.7652 20.854 24.2202 20.8878H32.317C33.0952 20.8791 33.8514 21.1471 34.4519 21.6441C35.0526 22.141 35.4587 22.8351 35.599 23.6038C35.7447 24.3361 35.634 25.0965 35.2857 25.7563C34.9375 26.4161 34.3729 26.935 33.6875 27.2251C33.2252 27.4201 32.7284 27.5188 32.2269 27.5148C30.8924 27.551 29.558 27.533 28.2055 27.533Z" fill="#E5B445"/>
<path d="M12.4804 28.3658C12.4804 26.9898 12.4804 25.6137 12.4804 24.2375C12.4754 23.3663 12.8105 22.5277 13.4139 21.9015C14.0172 21.2753 14.8409 20.9115 15.7083 20.8878C16.5663 20.8583 17.4009 21.1715 18.0296 21.7587C18.6583 22.3457 19.0296 23.1588 19.0624 24.0203C19.1346 26.9173 19.1346 29.8145 19.0624 32.7115C19.0489 33.1445 18.9486 33.5703 18.7674 33.9633C18.5864 34.3565 18.3283 34.709 18.0084 34.9997C17.6886 35.2905 17.3136 35.5135 16.9061 35.6553C16.4985 35.7973 16.0666 35.8553 15.6362 35.8258C14.7768 35.7975 13.9633 35.4298 13.3724 34.8025C12.7815 34.1753 12.461 33.3393 12.4804 32.4762C12.4624 31.1182 12.4804 29.742 12.4804 28.3658Z" fill="#D03D5B"/>
<path d="M27.3759 11.7619C27.3759 13.1199 27.3759 14.4598 27.3759 15.8178C27.4094 16.2723 27.3493 16.7288 27.1991 17.159C27.0489 17.5892 26.8119 17.9835 26.5031 18.3173C26.1943 18.6513 25.8201 18.9178 25.4039 19.1C24.9879 19.2822 24.5389 19.3762 24.0849 19.3762C23.6311 19.3762 23.1821 19.2822 22.7659 19.1C22.3499 18.9178 21.9758 18.6513 21.6668 18.3173C21.3579 17.9835 21.1209 17.5892 20.9708 17.159C20.8206 16.7288 20.7604 16.2723 20.7939 15.8178C20.7939 13.0112 20.7939 10.2228 20.7939 7.43433C20.8009 7.00161 20.8936 6.57463 21.0666 6.17826C21.2396 5.78191 21.4896 5.42413 21.8018 5.12579C22.1141 4.82744 22.4823 4.59454 22.8851 4.44064C23.2879 4.28674 23.7173 4.21494 24.1481 4.22943C24.5791 4.23649 25.0044 4.32876 25.3999 4.50094C25.7954 4.67313 26.1533 4.92184 26.4531 5.23291C26.7528 5.54398 26.9886 5.91129 27.1469 6.31388C27.3053 6.71644 27.3831 7.14641 27.3759 7.57918C27.3941 8.97341 27.3759 10.3676 27.3759 11.7619Z" fill="#59B280"/>
<path d="M11.6153 19.1857H7.57595C7.14495 19.1857 6.71818 19.1005 6.31998 18.9348C5.9218 18.7692 5.55998 18.5265 5.25521 18.2205C4.95046 17.9145 4.70871 17.5512 4.54376 17.1513C4.37883 16.7515 4.29395 16.323 4.29395 15.8902C4.29395 15.4575 4.37883 15.029 4.54376 14.6291C4.70871 14.2293 4.95046 13.866 5.25521 13.56C5.55998 13.254 5.9218 13.0113 6.31998 12.8457C6.71818 12.68 7.14495 12.5948 7.57595 12.5948C10.2989 12.5948 12.9859 12.5948 15.781 12.5948C16.212 12.5948 16.6388 12.68 17.0369 12.8457C17.4351 13.0113 17.7969 13.254 18.1017 13.56C18.4064 13.866 18.6482 14.2293 18.8132 14.6291C18.9781 15.029 19.0629 15.4575 19.0629 15.8902C19.0629 16.323 18.9781 16.7515 18.8132 17.1513C18.6482 17.5512 18.4064 17.9145 18.1017 18.2205C17.7969 18.5265 17.4351 18.7692 17.0369 18.9348C16.6388 19.1005 16.212 19.1857 15.781 19.1857H11.6153Z" fill="#5FC1ED"/>
<path d="M19.0804 8.90104C19.0804 9.52195 19.0804 9.76309 19.0804 10.4039C19.0804 10.7035 18.9787 10.8385 18.7199 10.8385C17.3872 10.8385 16.8407 10.8385 15.2755 10.8385C14.4435 10.7341 13.6859 10.3053 13.1662 9.64459C12.6466 8.9839 12.4067 8.14445 12.4984 7.30764C12.5367 6.48799 12.8782 5.71217 13.4561 5.13194C14.0339 4.5517 14.8066 4.2088 15.6229 4.17032C16.4392 4.13182 17.2404 4.4005 17.8699 4.9238C18.4994 5.4471 18.9117 6.18739 19.0264 6.99982C19.0804 7.63022 19.0804 7.80997 19.0804 8.38544V8.74232V8.90104Z" fill="#5FC1ED"/>
<path d="M10.7315 20.9058C10.8313 22.262 10.8313 23.6238 10.7315 24.98C10.5777 25.773 10.128 26.477 9.47435 26.9482C8.82074 27.4193 8.01254 27.6222 7.21502 27.5148C6.39197 27.4473 5.62357 27.074 5.05999 26.468C4.4964 25.862 4.17817 25.0667 4.16744 24.2375C4.15049 23.4118 4.44642 22.6103 4.99542 21.9952C5.5444 21.3802 6.3055 20.9972 7.12485 20.924C8.3511 20.8153 9.57735 20.9058 10.7315 20.9058Z" fill="#D03D5B"/>
<path d="M29.071 19.1677C29.071 17.9002 29.071 16.687 29.071 15.5463C29.1579 14.6991 29.5697 13.9192 30.2194 13.3717C30.869 12.8241 31.7054 12.552 32.5514 12.613C33.4219 12.613 34.2565 12.9602 34.872 13.5782C35.4875 14.1962 35.8334 15.0344 35.8334 15.9084C35.8334 16.7824 35.4875 17.6207 34.872 18.2387C34.2565 18.8567 33.4219 19.2039 32.5514 19.2039C31.4334 19.2039 30.2792 19.1677 29.071 19.1677Z" fill="#59B280"/>
<path d="M20.7939 29.2893C22.1269 29.1983 23.4644 29.1983 24.7972 29.2893C25.6094 29.4398 26.3312 29.9022 26.8094 30.5783C27.2874 31.2545 27.4842 32.0912 27.3579 32.9107C27.2595 33.7282 26.8615 34.4797 26.2415 35.0187C25.6214 35.5575 24.8237 35.8453 24.0037 35.8258C23.1889 35.8228 22.4055 35.5087 21.8129 34.9472C21.2202 34.3857 20.8622 33.6188 20.8119 32.802C20.7399 31.6432 20.7939 30.4663 20.7939 29.2893Z" fill="#E5B445"/>
</svg>
