<svg width="50" height="50" viewBox="0 0 50 50" fill="none" xmlns="http://www.w3.org/2000/svg">
<g clip-path="url(#clip0_360_2394)">
<path d="M13.0199 38.6066C9.68459 38.6066 6.71783 36.4711 5.64053 33.2919L5.56767 33.0523C5.3136 32.2104 5.20717 31.5023 5.20717 30.7939V16.5892L0.152955 33.4605C-0.497085 35.942 0.984197 38.5147 3.46953 39.2002L35.685 47.8277C36.0871 47.9319 36.4892 47.9818 36.8852 47.9818C38.96 47.9818 40.856 46.6047 41.3874 44.5752L43.2643 38.6066H13.0199Z" fill="#ECEFF1"/>
<path d="M50.0001 6.83471V30.7939C50.0001 33.3773 47.8958 35.4815 45.3125 35.4815H13.0199C12.8116 35.4815 12.6033 35.4605 12.4156 35.4395C10.2282 35.1691 8.51996 33.3773 8.35326 31.1689C8.33228 31.0438 8.33228 30.9186 8.33228 30.7939V6.83471C8.33228 4.25133 10.4365 2.14709 13.0199 2.14709H45.3125C47.8958 2.14709 50.0001 4.25133 50.0001 6.83471Z" fill="#ECEFF1"/>
<path d="M22.9159 12.5642C22.9159 14.8653 21.0505 16.7311 18.7494 16.7311C16.448 16.7311 14.5825 14.8653 14.5825 12.5642C14.5825 10.2631 16.448 8.39728 18.7494 8.39728C21.0505 8.39728 22.9159 10.2631 22.9159 12.5642Z" fill="#FFC107"/>
<path d="M50 24.9394V30.7939C50 33.3773 47.8958 35.4816 45.3124 35.4816H13.0198C12.8115 35.4816 12.6032 35.4606 12.4155 35.4396L33.8745 13.981C35.2913 12.5642 37.6244 12.5642 39.0412 13.981L50 24.9394Z" fill="#388E3C"/>
<path d="M37.6246 35.4815H13.0199C12.8116 35.4815 12.6033 35.4606 12.4156 35.4396C10.2282 35.1691 8.51998 33.3773 8.35327 31.1689L18.2492 21.2726C19.666 19.8562 21.9992 19.8562 23.416 21.2726L37.6246 35.4815Z" fill="#4CAF50"/>
</g>
<defs>
<clipPath id="clip0_360_2394">
<rect width="50" height="50" fill="white"/>
</clipPath>
</defs>
</svg>
