<svg width="35" height="35" viewBox="0 0 35 35" fill="none" xmlns="http://www.w3.org/2000/svg">
<path d="M8.44809 19.2932C8.4684 19.2729 8.46976 19.2713 8.44809 19.2932Z" fill="#0052DA"/>
<path d="M34.2241 14.4549L32.4837 14.0364C32.1053 12.3841 31.4534 10.814 30.5424 9.35404L31.4244 7.87305C31.6647 7.46954 31.5996 6.9548 31.2682 6.62335L28.3776 3.73241C28.0462 3.40199 27.5326 3.33588 27.1281 3.57619L25.6473 4.45834C24.1875 3.54714 22.6176 2.89525 20.9656 2.51676L20.5471 0.776113C20.4329 0.320509 20.0234 0 19.5529 0H15.4518C14.9813 0 14.5718 0.320441 14.4576 0.776113L14.0391 2.51676C12.3871 2.89525 10.8172 3.54714 9.35741 4.45834L7.87661 3.57619C7.47315 3.33581 6.95848 3.40097 6.62707 3.73241L3.73636 6.62329C3.40496 6.95473 3.33988 7.46941 3.58016 7.87298L4.4622 9.35397C3.55111 10.8139 2.8993 12.384 2.52086 14.0363L0.780438 14.4548C0.324891 14.569 0.00442316 14.9785 0.00442316 15.4492V19.5507C0.00442316 20.0214 0.324823 20.4319 0.781395 20.5451L2.52182 20.9636C2.77414 22.0585 3.15387 23.1103 3.64155 24.1191C4.39452 23.363 8.1763 19.5647 8.44809 19.2932C8.43469 19.2241 8.2882 17.9106 8.2843 17.6547C8.19708 12.4296 12.4052 8.27239 17.5062 8.27239C22.6422 8.27239 26.7377 12.4143 26.7183 17.5319C26.6963 22.2649 23.1643 26.2941 18.2312 26.6626C18.0178 26.679 17.053 26.8213 15.7081 26.5562L10.8962 31.3687C11.9011 31.8535 12.9489 32.2308 14.0391 32.4822L14.4576 34.2239C14.5717 34.6795 14.9812 35 15.4518 35H19.5528C20.0234 35 20.4328 34.6795 20.547 34.2239L20.9655 32.4832C22.6175 32.1047 24.1875 31.4528 25.6472 30.5416L27.128 31.4238C27.5295 31.6642 28.0451 31.598 28.3776 31.2676L31.2681 28.3766C31.5995 28.0452 31.6646 27.5305 31.4243 27.1269L30.5423 25.6459C31.4544 24.186 32.1052 22.6159 32.4836 20.9626L34.223 20.5451C34.6796 20.4319 35 20.0214 35 19.5507V15.4492C35 14.9786 34.6797 14.569 34.2241 14.4549Z" fill="#0052DA"/>
<path d="M24.4397 15.6254C24.3497 15.2724 24.0771 14.9947 23.7257 14.8984C23.3744 14.802 22.999 14.9024 22.7414 15.1601L20.4018 17.5001C19.6021 18.2999 18.302 18.2999 17.5022 17.5001C16.7032 16.701 16.7032 15.3993 17.5022 14.6001L19.8428 12.2592C20.1004 12.0016 20.1999 11.6256 20.1036 11.2744C20.0072 10.9232 19.7298 10.6502 19.3769 10.5605C15.0507 9.4609 11.1575 12.2792 10.4435 16.1712C10.2142 17.453 10.3164 18.7297 10.7358 19.9053C10.1524 20.4888 1.14172 29.5005 0.89952 29.7429C-0.302989 30.9455 -0.302989 32.9022 0.918523 34.1238C2.12862 35.271 3.98191 35.3193 5.26084 34.1048L15.0972 24.2672C16.6724 24.8295 18.4292 24.8181 20.1483 24.2114C23.246 23.1182 25.414 19.4493 24.4397 15.6254Z" fill="#0052DA"/>
</svg>
