<svg width="34" height="35" viewBox="0 0 34 35" fill="none" xmlns="http://www.w3.org/2000/svg">
<path d="M16.0039 18.6828C14.8445 18.2595 14.0117 17.1198 14.0117 15.783C14.0117 14.0868 15.3523 12.7068 17 12.7068C18.6477 12.7068 19.9883 14.0868 19.9883 15.783C19.9883 17.1198 19.1555 18.2595 17.9961 18.6828V20.3727H24.2486L23.0255 10.8957C22.8726 9.71141 21.8821 8.81836 20.7215 8.81836H13.2773C12.1165 8.81836 11.126 9.71154 10.9733 10.8961L9.75109 20.3726H16.0039V18.6828Z" fill="#0052DA"/>
<path d="M17 16.8084C17.5501 16.8084 17.9961 16.3493 17.9961 15.783C17.9961 15.2167 17.5501 14.7576 17 14.7576C16.4499 14.7576 16.0039 15.2167 16.0039 15.783C16.0039 16.3493 16.4499 16.8084 17 16.8084Z" fill="#0052DA"/>
<path d="M17 5.05853C17.5501 5.05853 17.9961 4.59942 17.9961 4.03313V1.02539C17.9961 0.459102 17.5501 0 17 0C16.4499 0 16.0039 0.459102 16.0039 1.02539V4.03313C16.0039 4.59942 16.4499 5.05853 17 5.05853Z" fill="#0052DA"/>
<path d="M1.74316 17.7393H4.66503C5.21514 17.7393 5.66113 17.2802 5.66113 16.7139C5.66113 16.1476 5.21514 15.6885 4.66503 15.6885H1.74316C1.19305 15.6885 0.747063 16.1476 0.747063 16.7139C0.747063 17.2802 1.19305 17.7393 1.74316 17.7393Z" fill="#0052DA"/>
<path d="M28.3389 16.7139C28.3389 17.2802 28.7849 17.7393 29.335 17.7393H32.2568C32.807 17.7393 33.2529 17.2802 33.2529 16.7139C33.2529 16.1476 32.807 15.6885 32.2568 15.6885H29.335C28.7849 15.6885 28.3389 16.1476 28.3389 16.7139Z" fill="#0052DA"/>
<path d="M7.57356 8.46023C7.76807 8.66045 8.023 8.7606 8.27787 8.7606C8.53273 8.7606 8.78773 8.66045 8.98217 8.46023C9.37118 8.05978 9.37111 7.41057 8.98217 7.01012L6.91614 4.88339C6.5272 4.48301 5.89647 4.48301 5.50746 4.88339C5.11845 5.28384 5.11845 5.93305 5.50746 6.3335L7.57356 8.46023Z" fill="#0052DA"/>
<path d="M25.7222 8.76053C25.9771 8.76053 26.2321 8.66038 26.4265 8.46016L28.4925 6.33343C28.8815 5.93305 28.8815 5.28384 28.4925 4.88332C28.1037 4.48287 27.4729 4.48287 27.0839 4.88332L25.0178 7.01005C24.6288 7.41043 24.6288 8.05964 25.0178 8.46016C25.2123 8.66045 25.4673 8.76053 25.7222 8.76053Z" fill="#0052DA"/>
<path d="M8.30078 23.4488V25.0199C8.49482 25.1866 8.68049 25.3648 8.85607 25.5549H25.1439C25.3194 25.3648 25.5051 25.1866 25.6992 25.0199V23.4488C25.6992 22.8825 25.2532 22.4234 24.7031 22.4234H9.29687C8.74676 22.4234 8.30078 22.8825 8.30078 23.4488Z" fill="#0052DA"/>
<path d="M33.4869 31.831H31.3689L30.3445 30.2465L31.3689 28.662H33.4869C33.6704 28.662 33.8398 28.5612 33.9314 28.3977C34.023 28.2342 34.0229 28.0327 33.9311 27.8694C33.1073 26.4036 31.5749 25.4931 29.9316 25.4931C28.3892 25.4931 26.9444 26.2952 26.0918 27.6057H7.90825C7.05559 26.2952 5.61079 25.4931 4.06844 25.4931C2.42515 25.4931 0.892625 26.4037 0.0689215 27.8694C-0.022852 28.0327 -0.0229848 28.2342 0.0685895 28.3977C0.16023 28.5612 0.329699 28.662 0.513047 28.662H2.63107L3.65552 30.2465L2.63107 31.831H0.513047C0.329633 31.831 0.16023 31.9318 0.0685895 32.0953C-0.0229848 32.2588 -0.022852 32.4602 0.0689215 32.6236C0.892691 34.0894 2.42515 35 4.06844 35C5.61079 35 7.05559 34.1979 7.90825 32.8874H26.0917C26.9444 34.1979 28.3891 35 29.9316 35C31.5749 35 33.1074 34.0894 33.9311 32.6236C34.0229 32.4602 34.023 32.2588 33.9314 32.0953C33.8398 31.9318 33.6703 31.831 33.4869 31.831Z" fill="#0052DA"/>
</svg>
