<svg width="35" height="35" viewBox="0 0 35 35" fill="none" xmlns="http://www.w3.org/2000/svg">
<path d="M14.4118 13.3824C14.4118 12.8147 13.9501 12.353 13.3824 12.353C12.8147 12.353 12.353 12.8147 12.353 13.3824C12.353 13.9501 12.8147 14.4118 13.3824 14.4118C13.9499 14.4118 14.4118 13.9501 14.4118 13.3824Z" fill="#0052DA"/>
<path d="M32.652 13.631C30.9641 12.0192 30.8787 11.8729 30.9219 9.40983C30.9481 7.91874 30.9777 6.22898 29.8744 5.12562C28.771 4.02225 27.081 4.0519 25.5902 4.07806C23.1287 4.12106 22.9829 4.03828 21.369 2.34798C20.3182 1.24729 19.1273 0 17.5 0C15.8727 0 14.6818 1.24729 13.631 2.34798C12.0192 4.03587 11.8726 4.12132 9.40983 4.07806C7.91901 4.0519 6.22898 4.02225 5.12562 5.12562C4.02225 6.22898 4.0519 7.91874 4.07806 9.40983C4.12132 11.8721 4.03748 12.0179 2.34798 13.631C1.24729 14.6818 0 15.8727 0 17.5C0 19.1273 1.24729 20.3182 2.34798 21.369C4.03587 22.9808 4.12132 23.1271 4.07806 25.5902C4.0519 27.0813 4.02225 28.771 5.12562 29.8744C6.22898 30.9777 7.91901 30.9484 9.40983 30.9219C11.87 30.8789 12.0163 30.9609 13.631 32.652C14.6818 33.7527 15.8727 35 17.5 35C19.1273 35 20.3182 33.7527 21.369 32.652C22.9805 30.9641 23.1274 30.8784 25.5902 30.9219C27.081 30.9481 28.771 30.9777 29.8744 29.8744C30.9777 28.771 30.9481 27.081 30.9219 25.5902C30.8787 23.1279 30.9623 22.9821 32.652 21.369C33.7527 20.3182 35 19.1273 35 17.5C35 15.8727 33.7527 14.6818 32.652 13.631ZM10.2942 13.3824C10.2942 11.6796 11.6796 10.2942 13.3824 10.2942C15.0853 10.2942 16.4706 11.6796 16.4706 13.3824C16.4706 15.0853 15.0853 16.4706 13.3824 16.4706C11.6796 16.4706 10.2942 15.0853 10.2942 13.3824ZM13.0809 23.3749C12.6788 23.7768 12.027 23.777 11.6251 23.3749C11.223 22.973 11.223 22.3212 11.6251 21.9191L21.9191 11.6251C22.3212 11.2232 22.973 11.2232 23.3749 11.6251C23.777 12.027 23.777 12.6788 23.3749 13.0809L13.0809 23.3749ZM21.6176 24.7058C19.9147 24.7058 18.5294 23.3204 18.5294 21.6176C18.5294 19.9147 19.9147 18.5294 21.6176 18.5294C23.3204 18.5294 24.7058 19.9147 24.7058 21.6176C24.7058 23.3204 23.3204 24.7058 21.6176 24.7058Z" fill="#0052DA"/>
<path d="M21.6176 20.5882C21.0501 20.5882 20.5882 21.0499 20.5882 21.6176C20.5882 22.1853 21.0499 22.647 21.6176 22.647C22.1853 22.647 22.647 22.1853 22.647 21.6176C22.647 21.0499 22.1853 20.5882 21.6176 20.5882Z" fill="#0052DA"/>
</svg>
