<svg width="31" height="35" viewBox="0 0 31 35" fill="none" xmlns="http://www.w3.org/2000/svg">
<path d="M0 3.07617C0 4.775 1.388 6.15234 3.1 6.15234H23.793C23.1372 5.29277 22.7333 4.23481 22.7333 3.07617C22.7333 1.91753 23.1372 0.859565 23.793 0H3.1C1.388 0 0 1.37733 0 3.07617Z" fill="#0052DA"/>
<path d="M29.9667 32.9492C30.5374 32.9492 31 32.4902 31 31.9238V3.07617C31 1.37733 29.612 0 27.9 0C26.188 0 24.8 1.37733 24.8 3.07617C24.8 4.775 26.188 6.15234 27.9 6.15234C28.4708 6.15234 28.9333 6.61136 28.9333 7.17773C28.9333 7.7441 28.4708 8.20312 27.9 8.20312H4.13333V31.9238C4.13333 32.4902 4.59591 32.9492 5.16667 32.9492H16.5333C16.5333 32.9492 16.5333 23.9119 16.5333 23.584C16.5333 20.7572 18.8513 18.457 21.7 18.457C24.5487 18.457 26.8667 20.7572 26.8667 23.584C26.8667 23.9119 26.8667 32.9492 26.8667 32.9492H29.9667ZM9.3 10.2539H25.8333C26.4046 10.2539 26.8667 10.7127 26.8667 11.2793C26.8667 11.8459 26.4046 12.3047 25.8333 12.3047H9.3C8.72898 12.3047 8.26667 11.8459 8.26667 11.2793C8.26667 10.7127 8.72898 10.2539 9.3 10.2539ZM13.4333 24.6094H9.3C8.72898 24.6094 8.26667 24.1506 8.26667 23.584C8.26667 23.0173 8.72898 22.5586 9.3 22.5586H13.4333C14.0046 22.5586 14.4667 23.0173 14.4667 23.584C14.4667 24.1506 14.0046 24.6094 13.4333 24.6094ZM13.4333 20.5078H9.3C8.72898 20.5078 8.26667 20.049 8.26667 19.4824C8.26667 18.9158 8.72898 18.457 9.3 18.457H13.4333C14.0046 18.457 14.4667 18.9158 14.4667 19.4824C14.4667 20.049 14.0046 20.5078 13.4333 20.5078ZM25.8333 16.4062H9.3C8.72898 16.4062 8.26667 15.9475 8.26667 15.3808C8.26667 14.8142 8.72898 14.3555 9.3 14.3555H25.8333C26.4046 14.3555 26.8667 14.8142 26.8667 15.3808C26.8667 15.9475 26.4046 16.4062 25.8333 16.4062Z" fill="#0052DA"/>
<path d="M24.8 27.6594C23.9338 28.3101 22.8676 28.7109 21.7 28.7109C20.5324 28.7109 19.4662 28.3101 18.6 27.6594V33.9746C18.6 34.353 18.8099 34.7006 19.146 34.8787C19.481 35.0571 19.8898 35.036 20.2065 34.8277L21.7 33.8395L23.1935 34.8277C23.514 35.0398 23.9227 35.0552 24.254 34.8787C24.5901 34.7006 24.8 34.353 24.8 33.9746V27.6594Z" fill="#0052DA"/>
<path d="M21.7 20.5078C19.9907 20.5078 18.6 21.8878 18.6 23.584C18.6 25.2801 19.9907 26.6601 21.7 26.6601C23.4093 26.6601 24.8 25.2801 24.8 23.584C24.8 21.8878 23.4093 20.5078 21.7 20.5078Z" fill="#0052DA"/>
</svg>
