<svg width="50" height="50" viewBox="0 0 50 50" fill="none" xmlns="http://www.w3.org/2000/svg">
<g clip-path="url(#clip0_1465_9086)">
<path d="M36.1992 0.148609C35.1923 0.513123 34.5413 1.48169 34.5413 2.60647C34.5413 3.96038 35.4466 5.02268 36.7281 5.1789L37.2265 5.24139V9.90717V14.5834H36.901C36.4128 14.5834 35.5991 15.0104 35.1821 15.4894C34.7244 15.9998 34.5413 16.5413 34.5413 17.3016C34.5515 18.5826 35.6805 19.7907 36.8705 19.7907H37.2265V26.2686C37.2265 33.2673 37.2265 33.2465 36.6773 34.3608C36.3925 34.9232 35.6195 35.8606 35.2737 36.048C35.1313 36.1313 35.0702 36.0793 34.9482 35.7877C34.7244 35.2357 34.1243 34.6212 33.5446 34.3713C32.2528 33.8089 30.6458 34.4962 30.1982 35.8085C30.1372 35.9959 30.0457 36.1418 30.005 36.1418C29.8524 36.1418 28.9268 35.1628 28.6522 34.7149C28.4997 34.4754 28.2861 33.9859 28.164 33.6214C27.9504 33.0069 27.9301 32.7778 27.9301 30.2054L27.9199 27.4455L28.4488 27.383C30.1881 27.1643 31.1645 25.0605 30.2694 23.4879C29.8422 22.7485 28.937 22.1861 28.1742 22.1861H27.8894L27.8385 19.9157C27.7978 18.1556 27.747 17.4578 27.5842 16.7704C26.3434 11.3965 22.6716 7.28267 17.647 5.63715C15.745 5.01226 15.45 4.98102 10.1102 4.92895L5.20764 4.87687L5.09576 4.26241C4.68891 2.14823 2.02407 1.4192 0.661127 3.05431C0.0101712 3.83541 0 3.90831 0 10.053C0 16.2497 0.0101712 16.333 0.681469 17.0933C2.13595 18.7388 4.67874 18.0098 5.09576 15.8331L5.21782 15.2082H9.35749C11.7477 15.2082 13.7311 15.2499 14.0464 15.3124C15.2466 15.5415 16.4366 16.3643 17.0774 17.3745C17.6368 18.2702 17.7996 18.9471 17.8708 20.6447L17.9318 22.1861H17.6267C17.4639 22.1861 17.1181 22.259 16.874 22.3423C15.5619 22.8005 14.8601 24.2378 15.2771 25.6438C15.5314 26.5186 16.579 27.383 17.4029 27.3934H17.7691L17.8301 30.5387C17.8911 34.1317 18.003 34.9857 18.6234 36.9229C19.3558 39.1933 20.5051 41.0887 22.1833 42.7967C23.292 43.9424 24.36 44.7547 25.7331 45.4941C26.7807 46.0669 28.3979 46.6814 29.3845 46.8793L30.005 47.0043V47.3896C30.005 48.3478 30.5847 49.2851 31.4493 49.7225C32.385 50.2016 33.4428 50.0558 34.2362 49.3372C34.816 48.8164 35.0092 48.4311 35.0804 47.6604L35.1414 47.0459L36.2094 46.7543C38.8743 46.0461 40.9593 44.8172 42.9326 42.8072C45.0787 40.6201 46.3297 38.2768 47.0112 35.1315C47.2248 34.1421 47.235 33.8714 47.2757 26.9456L47.3062 19.7907H47.6927C48.2012 19.7907 49.0556 19.3429 49.4319 18.8742C50.0524 18.1035 50.1846 16.9267 49.7269 16.031C49.3404 15.2499 48.3436 14.5834 47.5604 14.5834H47.296V9.89676V5.21014H47.6316C48.4453 5.18932 49.2489 4.65816 49.6862 3.83541C50.4287 2.45025 49.7676 0.669342 48.3233 0.148609C47.7842 -0.0492706 36.7281 -0.0492706 36.1992 0.148609ZM47.9063 1.72123C48.2623 1.90869 48.4148 2.16906 48.4148 2.60647C48.4148 3.04389 48.2623 3.30426 47.9063 3.49172C47.652 3.62711 46.8383 3.64794 42.2613 3.64794C36.5451 3.64794 36.4739 3.63753 36.2094 3.13762C36.0772 2.87725 36.0772 2.33569 36.2094 2.08574C36.4739 1.57542 36.5145 1.57542 42.2409 1.56501C46.8383 1.56501 47.652 1.58583 47.9063 1.72123ZM3.26495 4.05412L3.55991 4.35614V10.0321V15.7081L3.29546 16.031C2.93947 16.4684 2.29869 16.4893 1.89184 16.0831L1.62739 15.8019V10.0842V4.35614L1.92235 4.05412C2.14612 3.83541 2.31903 3.75209 2.59365 3.75209C2.86827 3.75209 3.04118 3.83541 3.26495 4.05412ZM45.75 9.91758L45.7703 14.5834H42.2613H38.7522V9.96966C38.7522 7.42847 38.7827 5.31429 38.8234 5.28305C38.8641 5.24139 40.4304 5.22056 42.3019 5.23097L45.7195 5.26222L45.75 9.91758ZM15.4195 6.72027C19.5592 7.4493 23.1293 10.178 24.9703 14.0106C25.9569 16.0622 26.3434 17.9056 26.3434 20.5406V22.1861H22.8852H19.427V20.8009C19.427 19.2283 19.2642 18.2806 18.837 17.3537C18.2064 15.9893 17.1995 14.9375 15.8976 14.2813C14.7177 13.6773 14.4227 13.646 9.59142 13.646H5.1873V10.105V6.56405H9.85588C13.5785 6.56405 14.6974 6.5953 15.4195 6.72027ZM47.8554 16.2914C48.0385 16.3747 48.2419 16.5309 48.3029 16.6455C48.4962 17.0204 48.4352 17.5724 48.1707 17.8848L47.9266 18.1764H42.2613H36.5959L36.3518 17.8848C35.9043 17.3537 36.0975 16.5101 36.718 16.2601C36.8705 16.1976 39.0573 16.156 42.2409 16.156C46.5637 16.1456 47.5706 16.1768 47.8554 16.2914ZM45.7195 26.7165C45.7195 34.2879 45.7195 34.2671 45.0583 36.4021C44.031 39.6723 41.5391 42.6301 38.4674 44.2027C37.5927 44.6506 35.7517 45.3067 35.355 45.3067H35.0906L35.1109 41.6407L35.1414 37.9747L35.6805 37.6519C36.9112 36.9124 37.9589 35.6314 38.4572 34.2567L38.7013 33.5902L38.7217 26.8206C38.742 23.0922 38.7725 19.9886 38.8031 19.9157C38.8336 19.8115 39.5862 19.7907 42.2816 19.8115L45.7195 19.8428V26.7165ZM28.6522 24.0191C29.0591 24.3315 29.1709 24.821 28.9472 25.2584C28.8455 25.4459 28.6522 25.6542 28.52 25.7167C28.3369 25.8 26.6282 25.8312 22.875 25.8312C16.9655 25.8312 17.0367 25.8416 16.7824 25.2168C16.5587 24.6544 16.8028 24.1024 17.3927 23.8628C17.5453 23.8004 19.7321 23.7691 23.0072 23.7795C28.2759 23.8004 28.3674 23.8004 28.6522 24.0191ZM26.3434 29.9971C26.3434 32.9861 26.4451 33.7568 27.0147 34.9753C27.4622 35.923 28.52 37.0999 29.3845 37.5998L29.9948 37.9643L30.005 41.672V45.39L29.2625 45.1921C24.8584 44.0361 21.1459 40.3285 19.9355 35.8918C19.5185 34.3713 19.427 33.4131 19.427 30.3304V27.3934H22.8852H26.3434V29.9971ZM33.0055 35.8501C33.5649 36.1105 33.5649 36.0793 33.5649 42.0781C33.5649 48.1499 33.5751 48.0666 32.9546 48.3269C32.5376 48.504 32.0697 48.3582 31.7951 47.9833C31.5815 47.6916 31.5815 47.5979 31.5612 42.1927C31.5408 37.1832 31.551 36.6729 31.7137 36.35C31.9884 35.7877 32.4766 35.6002 33.0055 35.8501Z" fill="#0052DA"/>
</g>
<defs>
<clipPath id="clip0_1465_9086">
<rect width="50" height="50" fill="white"/>
</clipPath>
</defs>
</svg>
