<svg width="40" height="40" viewBox="0 0 40 40" fill="none" xmlns="http://www.w3.org/2000/svg">
<path d="M32.9688 23.5938V25.9375H27.1094C26.4632 25.9375 25.9375 25.4118 25.9375 24.7656V23.5156H28.2031V16.4844H25.9375V12.8906C25.9375 7.07508 21.2062 2.34375 15.3906 2.34375H7.03125V0H0V16.4062H7.03125V14.0625H13.0469C13.693 14.0625 14.2188 14.5882 14.2188 15.2344V16.4844H11.7969V23.5156H14.2188V27.1094C14.2188 32.9249 18.9501 37.6562 24.7656 37.6562H32.9688V40H40V23.5938H32.9688ZM4.6875 14.0625H2.34375V2.34375H4.6875V14.0625ZM13.0469 11.7188H7.03125V4.6875H15.3906C19.9138 4.6875 23.5938 8.36742 23.5938 12.8906V16.4844H16.5625V15.2344C16.5625 13.2959 14.9854 11.7188 13.0469 11.7188ZM14.1406 18.8281H25.8594V21.1719H14.1406V18.8281ZM24.7656 35.3125C20.2424 35.3125 16.5625 31.6326 16.5625 27.1094V23.5156H23.5938V24.7656C23.5938 26.7041 25.1709 28.2812 27.1094 28.2812H32.9688V35.3125H24.7656ZM37.6562 37.6562H35.3125V25.9375H37.6562V37.6562Z" fill="white"/>
</svg>
