<svg width="100" height="100" viewBox="0 0 100 100" fill="none" xmlns="http://www.w3.org/2000/svg">
<path d="M91.5383 50.8936V43.7684C91.5344 40.357 90.1775 37.0864 87.7653 34.6742C85.3531 32.2619 82.0825 30.9051 78.6711 30.9012H67.4057C66.9401 29.5082 66.236 28.2067 65.3248 27.0547C64.9666 26.6176 64.5155 26.2658 64.0044 26.0246C63.4933 25.7835 62.9349 25.6591 62.3697 25.6605H57.5977V17.2727H60.342C61.4938 17.2711 62.5979 16.8128 63.4123 15.9983C64.2266 15.1838 64.6847 14.0795 64.686 12.9277V6.12461C64.6846 4.97268 64.2264 3.86831 63.4119 3.05377C62.5973 2.23923 61.493 1.78103 60.341 1.77969H39.7449C38.593 1.78103 37.4887 2.23924 36.6742 3.05378C35.8597 3.86833 35.4015 4.97269 35.4002 6.12461V12.9277C35.4015 14.0797 35.8596 15.1841 36.6741 15.9986C37.4886 16.8132 38.593 17.2714 39.7449 17.2727H43.2321V25.6605H37.8199C37.1944 25.6601 36.5783 25.8132 36.0256 26.1063C35.473 26.3994 35.0007 26.8237 34.6502 27.3418C34.0583 28.2358 33.5761 29.1978 33.2141 30.207L28.8363 29.3211C27.827 29.1143 26.944 29.3635 26.4145 30.0047C26.2023 30.2624 26.0613 30.5711 26.0055 30.9002H19.5524L19.5559 8.35039C19.5559 6.43332 18.7943 4.59477 17.4388 3.2392C16.0832 1.88362 14.2446 1.12207 12.3276 1.12207C10.4105 1.12207 8.57194 1.88362 7.21637 3.2392C5.8608 4.59477 5.09924 6.43332 5.09924 8.35039L5.11233 92.0223C5.11233 92.051 5.11331 92.0797 5.11506 92.1082C5.23009 93.9429 6.04002 95.6649 7.37996 96.9234C8.71991 98.182 10.4891 98.8826 12.3275 98.8826C14.1658 98.8826 15.935 98.182 17.275 96.9234C18.6149 95.6649 19.4248 93.9429 19.5399 92.1082C19.5418 92.0797 19.5426 92.051 19.5426 92.0223L19.5477 59.5152C20.5266 60.1066 21.5733 60.5778 22.6651 60.9184C24.1496 61.3789 25.6938 61.6185 27.2481 61.6295C29.2344 68.434 35.8787 91.1676 36.2404 92.041C37.2424 94.4601 39.1643 96.382 41.5834 97.3841C44.0024 98.3861 46.7204 98.3861 49.1395 97.3842C51.5585 96.3822 53.4805 94.4603 54.4825 92.0413C55.4846 89.6222 55.4846 86.9042 54.4826 84.4852C54.1225 83.6152 42.8447 62.6131 39.4922 56.3738C40.5491 55.2735 41.4393 54.0243 42.1342 52.666C42.2975 52.3455 42.4574 52.0008 42.6092 51.634H62.3697C62.9349 51.6354 63.4933 51.511 64.0044 51.2699C64.5155 51.0288 64.9666 50.6769 65.3248 50.2398C65.9576 49.4695 66.8125 48.1592 67.4887 46.1506H73.6488C74.3488 46.1512 75.02 46.4295 75.515 46.9244C76.01 47.4193 76.2884 48.0904 76.2891 48.7904V50.8936C75.2031 51.2218 74.2713 51.9295 73.6636 52.8875C73.0558 53.8455 72.8127 54.99 72.9784 56.1123C73.1442 57.2347 73.7078 58.26 74.5665 59.0015C75.4252 59.7429 76.5218 60.151 77.6563 60.1514H90.1717C91.3062 60.151 92.4028 59.7429 93.2615 59.0015C94.1202 58.26 94.6838 57.2347 94.8495 56.1123C95.0153 54.99 94.7721 53.8455 94.1644 52.8875C93.5567 51.9295 92.6243 51.2218 91.5383 50.8936ZM38.1346 12.9277V6.12461C38.1351 5.69764 38.3049 5.28829 38.6068 4.98636C38.9086 4.68443 39.318 4.51458 39.7449 4.51406H60.341C60.768 4.51458 61.1774 4.68443 61.4793 4.98635C61.7812 5.28828 61.9511 5.69762 61.9516 6.12461V12.9277C61.9511 13.3547 61.7813 13.7641 61.4794 14.066C61.1774 14.368 60.768 14.5378 60.341 14.5383H39.7449C39.318 14.5378 38.9086 14.368 38.6067 14.066C38.3048 13.7641 38.135 13.3547 38.1346 12.9277ZM45.9666 17.2727H54.8633V25.6605H45.9664L45.9666 17.2727ZM26.7752 33.6355C27.6225 35.6459 29.1246 39.2176 29.7686 40.8857C30.1356 41.8363 30.0916 44.2715 27.5715 45.3154C26.3004 45.8428 25.2049 45.8463 24.3155 45.3287C23.6462 44.9137 23.123 44.3003 22.8188 43.574L19.5508 35.6848V33.6355H26.7752ZM15.7266 50.2215L13.4067 44.6217C13.1574 44.0201 13.2471 43.0447 13.4938 42.6711L17.1823 37.1111L20.293 44.6205C20.7626 45.7363 21.5293 46.7018 22.5096 47.4121L15.7266 50.2215ZM12.3272 96.1426C11.1926 96.141 10.1006 95.7109 9.26967 94.9384C8.43877 94.1659 7.93038 93.108 7.84631 91.9766L7.83323 8.35137C7.83323 7.1595 8.3067 6.01645 9.14947 5.17367C9.99225 4.33089 11.1353 3.85742 12.3272 3.85742C13.519 3.85742 14.6621 4.33089 15.5049 5.17367C16.3476 6.01645 16.8211 7.1595 16.8211 8.35137L16.8164 33.7443C16.2128 33.9451 15.6999 34.3534 15.369 34.8967L11.2135 41.1621C10.4428 42.3297 10.2998 44.2676 10.8815 45.6684L13.7272 52.5391C14.4442 54.317 15.4913 55.9431 16.8131 57.3316L16.8076 91.976C16.7238 93.1075 16.2156 94.1655 15.3847 94.9382C14.5539 95.7108 13.4618 96.141 12.3272 96.1426ZM36.9336 55.0391C36.686 55.2394 36.516 55.5199 36.4532 55.8322C36.3903 56.1444 36.4384 56.4689 36.5893 56.7494C42.5326 67.8072 51.5172 84.5748 51.9604 85.5434C52.6759 87.2905 52.6701 89.2499 51.9443 90.9927C51.2184 92.7355 49.8317 94.1199 48.0876 94.8426C46.3435 95.5654 44.3841 95.5678 42.6382 94.8492C40.8924 94.1306 39.5023 92.7497 38.7723 91.0086C38.3948 89.9752 33.0692 71.8207 29.574 59.8396C29.483 59.5303 29.2858 59.2629 29.0171 59.0845C28.7484 58.9061 28.4254 58.8282 28.1049 58.8645C27.7799 58.9006 20.4979 59.6281 16.8324 52.7238L28.6182 47.8422C32.5981 46.1936 33.1799 42.1293 32.3199 39.9016C31.6168 38.0797 29.9371 34.0967 29.1301 32.1824L29.1246 32.1697L35.6533 33.4908C36.0953 33.5814 36.8489 34.2078 37.0987 34.8096L39.9274 41.6395C43.2717 49.7154 37.1897 54.8277 36.9336 55.0391ZM63.2127 48.5057C63.1105 48.6299 62.9819 48.7297 62.8362 48.7981C62.6906 48.8664 62.5316 48.9015 62.3707 48.9008H43.4235C43.8588 46.592 43.7713 43.777 42.4524 40.593L39.6238 33.7635C39.0434 32.3619 37.5731 31.0932 36.1985 30.8115L35.9319 30.7576C36.1933 30.0979 36.5226 29.4671 36.9143 28.8754C37.0145 28.7274 37.1495 28.6063 37.3074 28.5227C37.4652 28.439 37.6413 28.3953 37.8199 28.3955H62.3707C62.5316 28.3947 62.6906 28.4298 62.8363 28.4981C62.9819 28.5665 63.1105 28.6664 63.2127 28.7906C64.199 29.9914 65.8537 32.8689 65.8537 38.648C65.8537 44.4272 64.1981 47.3047 63.2117 48.5051L63.2127 48.5057ZM73.6498 43.4174H68.1836C68.4606 41.8429 68.5955 40.2467 68.5867 38.648C68.5971 36.9669 68.4467 35.2886 68.1375 33.6361H78.6719C81.3583 33.6392 83.9339 34.7078 85.8335 36.6074C87.733 38.507 88.8016 41.0825 88.8047 43.7689V50.6914H79.0235V48.7904C79.0218 47.3656 78.455 45.9996 77.4474 44.9922C76.4398 43.9848 75.0737 43.4182 73.6488 43.4168L73.6498 43.4174ZM90.1719 57.418H77.6563C77.3925 57.4206 77.1309 57.3709 76.8864 57.2718C76.642 57.1726 76.4196 57.026 76.2322 56.8404C76.0448 56.6549 75.896 56.434 75.7944 56.1905C75.6929 55.9471 75.6406 55.6859 75.6406 55.4222C75.6406 55.1584 75.6929 54.8973 75.7944 54.6538C75.896 54.4104 76.0448 54.1895 76.2322 54.0039C76.4196 53.8183 76.642 53.6717 76.8864 53.5726C77.1309 53.4735 77.3925 53.4238 77.6563 53.4264H90.1717C90.4354 53.4238 90.6971 53.4735 90.9415 53.5726C91.186 53.6717 91.4083 53.8183 91.5958 54.0039C91.7832 54.1895 91.932 54.4104 92.0335 54.6538C92.1351 54.8973 92.1873 55.1584 92.1873 55.4222C92.1873 55.6859 92.1351 55.9471 92.0335 56.1905C91.932 56.434 91.7832 56.6549 91.5958 56.8404C91.4083 57.026 91.186 57.1726 90.9415 57.2718C90.6971 57.3709 90.4356 57.4206 90.1719 57.418ZM83.9143 64.0559C83.7016 64.0559 83.4919 64.1054 83.3018 64.2007C83.1117 64.2959 82.9465 64.4342 82.8192 64.6045C81.7395 66.0488 76.3543 73.4406 76.3543 77.1287C76.3493 78.1248 76.5411 79.1121 76.9188 80.0338C77.2964 80.9555 77.8525 81.7935 78.5551 82.4996C79.2576 83.2058 80.0928 83.7661 81.0126 84.1485C81.9324 84.5309 82.9187 84.7277 83.9148 84.7277C84.9109 84.7277 85.8971 84.5309 86.8169 84.1485C87.7367 83.7661 88.5719 83.2058 89.2744 82.4996C89.977 81.7935 90.5331 80.9555 90.9108 80.0338C91.2885 79.1121 91.4803 78.1248 91.4752 77.1287C91.4752 73.4406 86.0895 66.0488 85.0104 64.6045C84.8829 64.4338 84.7174 64.2953 84.5269 64.1999C84.3364 64.1046 84.1263 64.055 83.9133 64.0553L83.9143 64.0559ZM83.9143 81.9549C82.6347 81.9534 81.408 81.4445 80.5033 80.5397C79.5985 79.635 79.0896 78.4082 79.0881 77.1287C79.0881 75.2928 81.7192 70.9145 83.9143 67.7625C86.1092 70.9145 88.7402 75.292 88.7402 77.1287C88.7387 78.4083 88.2296 79.635 87.3247 80.5397C86.4197 81.4444 85.1929 81.9531 83.9133 81.9543L83.9143 81.9549ZM43.2752 93.2188C44.431 93.6974 45.717 93.7605 46.914 93.3972C48.1111 93.034 49.1452 92.2669 49.8401 91.2268C50.535 90.1866 50.8477 88.9376 50.725 87.6927C50.6022 86.4477 50.0516 85.2839 49.167 84.3994C48.2824 83.5149 47.1184 82.9646 45.8734 82.8421C44.6285 82.7196 43.3796 83.0326 42.3395 83.7277C41.2995 84.4228 40.5326 85.4571 40.1696 86.6542C39.8066 87.8513 39.87 89.1373 40.3489 90.293C40.6202 90.9492 41.0183 91.5454 41.5205 92.0474C42.0227 92.5495 42.619 92.9475 43.2752 93.2188ZM44.3215 85.7541C44.9755 85.4873 45.7085 85.4903 46.3603 85.7623C47.0122 86.0344 47.5298 86.5534 47.8001 87.2059C48.0704 87.8585 48.0715 88.5915 47.803 89.2448C47.5345 89.8981 47.0183 90.4185 46.3672 90.6924C45.7123 90.9636 44.9765 90.9636 44.3216 90.6924C43.6668 90.4211 43.1465 89.9008 42.8752 89.2459C42.604 88.591 42.604 87.8552 42.8752 87.2003C43.1465 86.5454 43.6666 86.0254 44.3215 85.7541Z" fill="#0052DA"/>
<path d="M83.9142 64.0558C83.7016 64.0558 83.4919 64.1053 83.3017 64.2006C83.1116 64.2958 82.9464 64.4341 82.8191 64.6044C81.7394 66.0487 76.3542 73.4405 76.3542 77.1286C76.3492 78.1247 76.541 79.112 76.9187 80.0337C77.2963 80.9554 77.8524 81.7934 78.555 82.4995C79.2575 83.2057 80.0927 83.766 81.0125 84.1484C81.9323 84.5308 82.9186 84.7276 83.9147 84.7276C84.9108 84.7276 85.897 84.5308 86.8168 84.1484C87.7366 83.766 88.5718 83.2057 89.2744 82.4995C89.9769 81.7934 90.533 80.9554 90.9107 80.0337C91.2884 79.112 91.4802 78.1247 91.4751 77.1286C91.4751 73.4405 86.0894 66.0487 85.0103 64.6044C84.8828 64.4337 84.7173 64.2952 84.5268 64.1998C84.3363 64.1045 84.1262 64.0549 83.9132 64.0552L83.9142 64.0558ZM83.9142 81.9548C82.6346 81.9533 81.4079 81.4444 80.5032 80.5396C79.5984 79.6349 79.0895 78.4081 79.088 77.1286C79.088 75.2927 81.7191 70.9144 83.9142 67.7624C86.1091 70.9144 88.7402 75.2919 88.7402 77.1286C88.7386 78.4082 88.2295 79.6349 87.3246 80.5396C86.4197 81.4443 85.1928 81.953 83.9132 81.9542L83.9142 81.9548Z" fill="#FDB52A"/>
</svg>
