<svg width="50" height="50" viewBox="0 0 50 50" fill="none" xmlns="http://www.w3.org/2000/svg">
<g clip-path="url(#clip0_1465_9072)">
<path d="M29.2696 0.0748749C28.8105 0.172703 28.007 0.542278 27.5061 0.89011C27.2452 1.0749 25.9304 2.35754 24.5947 3.738L22.1737 6.23806L21.7772 5.84674C20.9319 4.9989 19.5023 4.54237 18.3335 4.75976C17.1022 4.98803 16.6535 5.30325 14.5351 7.49895C12.8551 9.22726 12.542 9.6077 12.2603 10.2273C11.4881 11.9447 11.7072 13.8034 12.8342 15.097L13.2307 15.5535L11.9785 16.8796C10.5176 18.4231 10.2463 18.9014 10.2358 19.8362C10.2358 20.7493 10.6115 21.4232 11.7072 22.5102C12.3959 23.1841 12.6985 23.4015 13.1159 23.5319C13.8047 23.7385 14.0864 23.7385 14.723 23.5102C15.1404 23.3689 15.4952 23.0645 16.6222 21.9123L17.9996 20.4993L18.4692 20.9775C18.7301 21.2384 18.9388 21.5101 18.9388 21.5754C18.9388 21.6297 14.7856 26.0102 9.70364 31.3038C-0.554148 41.9889 0.00935149 41.3149 -0.0010837 42.8258C-0.0010837 44.2498 0.103268 44.4237 2.52423 46.9672C4.99737 49.5651 5.31043 49.7934 6.53134 49.8695C7.10528 49.9021 7.48095 49.8695 7.88792 49.7282C8.43055 49.5543 9.00448 48.9673 21.0049 36.4779C27.9026 29.3038 33.6628 23.2276 33.7985 22.9884C34.5394 21.6732 34.5603 19.8688 33.8402 18.5862C33.715 18.3796 32.108 16.6296 30.2714 14.6948L26.9217 11.1947L28.4452 9.61857C29.8018 8.20549 30.0001 8.04245 30.3131 8.04245C30.6471 8.04245 30.9288 8.30332 33.8611 11.3469C35.8647 13.423 37.2108 14.7383 37.4821 14.8796C38.0143 15.1513 39.0056 15.1839 39.5691 14.9448C40.0805 14.7165 41.7292 13.0099 42.0005 12.4338C42.3032 11.7491 42.2823 10.8469 41.9484 10.1512C41.5936 9.40117 33.5376 1.05316 32.755 0.629234C31.7949 0.0966148 30.3549 -0.131653 29.2696 0.0748749ZM31.7741 2.08579C32.2332 2.32492 33.1411 3.20538 36.449 6.65111C41.2805 11.7056 40.9988 11.1947 39.7361 12.5208C38.4735 13.8361 38.8074 14.01 35.0611 10.0968C31.628 6.5098 31.3775 6.30328 30.3131 6.30328C29.374 6.31415 28.967 6.58589 27.2661 8.3468L25.7217 9.94466L24.5425 8.71637L23.3737 7.49895L25.7217 5.04238C28.7166 1.91187 28.9879 1.72709 30.4175 1.77057C31.0227 1.7923 31.3253 1.85752 31.7741 2.08579ZM20.0553 6.69459C20.5458 6.92286 32.1915 18.9992 32.4524 19.5536C32.5463 19.7601 32.6611 20.2058 32.6819 20.5645C32.7863 21.7384 32.6819 21.9015 29.8122 24.9124L27.2556 27.5972L26.8382 27.2277C26.1182 26.5863 25.5651 26.3689 24.626 26.3581C23.0711 26.3581 23.4259 26.0646 17.3005 32.4234C13.4081 36.467 11.7802 38.2279 11.5715 38.6301C11.3524 39.054 11.2689 39.3692 11.2376 40.0106C11.175 41.0432 11.4046 41.7715 11.9681 42.4454C12.1872 42.7063 12.3646 42.9563 12.3646 43.0106C12.3646 43.1302 7.90879 47.739 7.56443 47.9781C7.25137 48.1955 6.40612 48.2064 6.02002 47.9999C5.59218 47.7607 1.84594 43.7933 1.72072 43.4454C1.57463 43.0106 1.5955 42.5432 1.78333 42.141C1.87725 41.9454 6.23916 37.3148 11.4881 31.8473C20.4206 22.5319 21.0258 21.8797 21.0258 21.521C21.0258 21.184 20.7545 20.8688 17.4361 17.4014C15.4639 15.3361 13.7734 13.4882 13.6899 13.3143C13.4186 12.7382 13.3768 12.1295 13.5647 11.4447C13.7316 10.8686 13.8673 10.6947 15.4743 8.98812C17.3318 7.03156 17.6031 6.78155 18.1979 6.55328C18.657 6.37936 19.5127 6.43372 20.0553 6.69459ZM15.6517 18.0427L16.7996 19.2384L15.4847 20.5971C14.4308 21.6841 14.1177 21.9558 13.8777 21.9558C13.6586 21.9558 13.3977 21.7601 12.7507 21.0971C11.5402 19.8579 11.5402 19.8253 13.1473 18.1514C13.836 17.434 14.4203 16.847 14.4517 16.847C14.483 16.847 15.0256 17.3905 15.6517 18.0427ZM25.2312 28.1951C25.419 28.2712 25.6695 28.456 25.7947 28.6081L26.0243 28.869L19.8258 35.3257L13.6273 41.7823L13.3977 41.5758C12.7925 40.9997 12.709 40.0106 13.189 39.2279C13.6377 38.5105 23.405 28.4125 23.8433 28.2168C24.3025 28.0103 24.7929 27.9994 25.2312 28.1951Z" fill="#0052DA"/>
<path d="M19.3245 10.1186C18.7297 10.2599 18.3749 10.4882 17.9783 10.9773C17.3522 11.7274 17.1957 12.7926 17.5922 13.6948C17.8949 14.4122 22.7577 19.4884 23.4777 19.8471C24.7299 20.4667 26.1282 19.9667 26.7961 18.6406C27.0883 18.0427 27.0883 17.0536 26.7856 16.4014C26.4622 15.7057 21.3176 10.4012 20.8167 10.2382C20.2219 10.0534 19.7419 10.0208 19.3245 10.1186ZM22.8307 14.5426C25.596 17.434 25.6378 17.4884 25.1891 18.0862C25.0325 18.3036 24.8864 18.3688 24.5943 18.3688C24.229 18.3688 24.0621 18.2166 21.6307 15.684C19.4706 13.4339 19.0427 12.9339 19.0427 12.6839C19.0427 12.0643 19.4497 11.6839 19.9819 11.8034C20.1489 11.8361 21.2133 12.8687 22.8307 14.5426Z" fill="#0052DA"/>
<path d="M40.489 22.3037C40.0298 22.5755 40.0298 22.6081 40.0194 26.4669L40.009 30.1626L39.5498 30.4561C38.9759 30.8148 38.5898 31.4235 38.4437 32.1844C38.235 33.2061 38.6106 34.0757 39.5394 34.7823L40.0403 35.1627L39.9985 36.1519C39.9359 37.6845 39.4142 38.6084 38.2141 39.2606C37.828 39.478 37.588 39.5106 36.3149 39.5432L34.854 39.5759L34.5722 39.0867C33.6748 37.5106 31.3478 37.5106 30.4399 39.0758L30.1581 39.5541L26.6832 39.565C23.1353 39.565 22.9161 39.5867 22.6239 39.9889C22.53 40.1193 22.4987 41.1411 22.4883 43.9455V47.7282L22.7492 47.9891L22.9996 48.2608H26.5893H30.1894L30.3147 48.5869C30.6069 49.3261 31.6608 50 32.5061 50C33.3409 50 34.4053 49.3261 34.687 48.5978L34.8227 48.2826L36.7114 48.2391C38.8089 48.1739 39.8211 47.9782 41.3968 47.2825C43.9535 46.1847 46.3744 43.6412 47.4701 40.9237C48.0441 39.478 48.2841 38.3258 48.3571 36.6193L48.4197 35.141L48.8893 34.7605C49.7972 34.0431 50.1415 33.1844 49.9433 32.1844C49.7972 31.4235 49.4111 30.8148 48.8371 30.4561L48.378 30.1626L48.3675 26.5538C48.3675 22.7385 48.3467 22.5102 47.8771 22.2928C47.5223 22.1189 40.7812 22.1298 40.489 22.3037ZM46.6979 26.956V29.9995H44.1935H41.689V26.956V23.9125H44.1935H46.6979V26.956ZM48.0754 32.0648C48.3362 32.3474 48.378 32.4561 48.3258 32.7496C48.1901 33.4888 48.2319 33.4779 44.1726 33.4779H40.5307L40.2803 33.2061C39.9359 32.8474 39.9464 32.4453 40.322 32.0539L40.6246 31.7387H44.1935H47.7623L48.0754 32.0648ZM46.6666 36.6519C46.6249 37.7715 46.5518 38.315 46.3431 39.0541C45.5292 41.9129 43.6613 44.2064 41.1151 45.489C39.6333 46.239 38.7985 46.4347 36.7636 46.4891L35.0105 46.5434V43.9238V41.3042H36.3045C37.3062 41.3042 37.755 41.2498 38.2767 41.0868C39.2055 40.7824 40.1237 40.1193 40.6872 39.3367C41.3551 38.4128 41.5951 37.6736 41.6577 36.3258L41.7203 35.2171H44.2248H46.7292L46.6666 36.6519ZM33.0383 39.8802L33.3409 40.1954V43.9673V47.7282L33.08 47.9891C32.7461 48.3478 32.2661 48.3478 31.9321 47.9891L31.6712 47.7282V43.9673V40.1954L31.9739 39.8802C32.36 39.478 32.6522 39.478 33.0383 39.8802ZM30.0016 43.9129V46.5217H27.0798H24.1579V43.9129V41.3042H27.0798H30.0016V43.9129Z" fill="#0052DA"/>
</g>
<defs>
<clipPath id="clip0_1465_9072">
<rect width="50" height="50" fill="white"/>
</clipPath>
</defs>
</svg>
