<svg width="80" height="80" viewBox="0 0 80 80" fill="none" xmlns="http://www.w3.org/2000/svg">
<g clip-path="url(#clip0_1465_9681)">
<path d="M77.6562 62.109C77.6562 64.0474 76.0791 65.6246 74.1407 65.6246H71.8111V39.1814C71.8111 35.9505 69.1827 33.3221 65.9518 33.3221H47.9553C47.8433 33.3221 47.732 33.3264 47.6209 33.3326C47.7498 31.0494 47.532 28.6949 47.015 26.5317H68.2955C70.2339 26.5317 71.8111 24.9545 71.8111 23.0161V11.0851C71.8111 9.14672 70.2339 7.56956 68.2955 7.56956H45.6116C43.6732 7.56956 42.0961 9.14672 42.0961 11.0851V16.7501C40.4367 14.7699 38.4627 13.0623 36.2509 11.7056V5.86023C36.2509 3.92183 37.828 2.34468 39.7664 2.34468H44.5538V0.000976562H39.7664C36.5356 0.000976562 33.9072 2.62936 33.9072 5.86023V10.4434C18.5025 2.97591 -0.219747 14.84 0.00196667 32.0317C-0.220685 49.2202 18.5056 61.0898 33.9073 53.6195V62.1089C33.9073 64.8347 35.7782 67.1317 38.3035 67.7831V69.5121C38.3035 71.9088 39.973 73.9216 42.2097 74.4522V79.9989H44.5534V74.5902H46.8971V79.9989H49.2408V74.4522C51.4774 73.9216 53.1469 71.9088 53.1469 69.5121V67.968H60.6468V69.5121C60.6468 71.9088 62.3163 73.9216 64.5529 74.4522V79.9989H66.8966V74.5902H69.2403V79.9989H71.584V74.4522C73.8207 73.9216 75.4902 71.9088 75.4902 69.5121V67.8094C78.0725 67.1981 80.0001 64.8751 80.0001 62.1087V55.8588H77.6564V62.109H77.6562ZM44.4399 11.0851C44.4399 10.4389 44.9655 9.91326 45.6118 9.91326H68.2957C68.9419 9.91326 69.4675 10.4389 69.4675 11.0851V23.016C69.4675 23.6622 68.9419 24.1878 68.2957 24.1878H46.3289C45.8275 22.7536 45.1932 21.3815 44.4398 20.0863V11.0851H44.4399ZM2.34535 32.0315C2.34535 20.1854 11.9831 10.5476 23.8293 10.5476C46.1496 10.8112 53.368 40.1807 34.1383 50.8755V42.5749C34.9101 41.6473 36.7084 39.1034 36.7084 35.5365V34.2251H38.6429C40.863 34.2712 42.8245 32.3145 42.7771 30.0908C42.7771 27.8119 40.9225 25.9581 38.6429 25.9581H35.5979C34.6126 24.6728 33.063 23.842 31.3222 23.842H23.5957C22.1968 23.842 20.9998 24.7223 20.5295 25.9581H17.9541C14.9816 21.4388 7.82961 22.4682 5.9034 27.4024C5.9034 27.4023 5.25685 29.0111 5.25685 29.0111H9.90082L10.6506 30.0924L9.90082 31.1736H5.25654L5.9034 32.7826C7.4479 36.8339 12.9558 38.4858 16.4168 35.8352C17.1894 39.2572 19.1819 41.703 20.0133 42.6051V53.1756C9.98097 51.3699 2.34535 42.5757 2.34535 32.0315ZM36.6271 28.3019H38.643C39.6303 28.3019 40.4336 29.1046 40.4336 30.091C40.4539 31.0561 39.6049 31.9009 38.643 31.8815H36.7085C36.6879 31.1912 36.7713 28.9444 36.6271 28.3019ZM16.998 31.8815L16.4266 32.1933C15.127 35.0746 11.4341 35.5943 9.19052 33.5174H11.1277L13.5028 30.0925L11.1277 26.6676H9.17521C11.2244 24.6992 14.9227 25.047 16.2665 27.6887L16.599 28.3019H20.3165L20.3168 31.8819L16.998 31.8815ZM22.357 53.464V42.1307L22.3548 41.6271C21.9013 41.1423 19.1925 38.8286 18.5174 34.2252L22.6605 34.2257L22.6602 27.121C22.6602 26.6053 23.0799 26.1857 23.5957 26.1857H31.3222C32.9999 26.1857 34.3648 27.5505 34.3648 29.2285V35.5365C34.265 39.3314 32.1791 41.2335 31.7947 41.6466V51.9836C28.9182 53.1478 25.5867 53.6972 22.357 53.464ZM36.2509 62.109V52.3575C38.4627 51.0008 40.4367 49.293 42.0961 47.3129V65.6246H39.7664C37.828 65.6246 36.2509 64.0474 36.2509 62.109ZM50.8031 69.5123C50.8031 71.0199 49.5764 72.2466 48.0687 72.2466H43.3813C41.8737 72.2466 40.647 71.0199 40.647 69.5123V67.9681H50.8031V69.5123ZM44.4399 65.6246V43.9766C45.8957 41.4745 46.9091 38.685 47.372 35.7154C47.5633 35.6835 47.758 35.6658 47.9555 35.6658H65.952C67.8904 35.6658 69.4675 37.243 69.4675 39.1814V65.6246H44.4399ZM73.1463 69.5123C73.1463 71.0199 71.9196 72.2466 70.412 72.2466H65.7246C64.217 72.2466 62.9903 71.0199 62.9903 69.5123V67.9681H73.1463V69.5123Z" fill="#0052DA"/>
<path d="M74.1406 0.000976562H46.8975V2.34468H74.1406C76.079 2.34468 77.6562 3.92183 77.6562 5.86023V53.5155H79.9999V5.86023C79.9999 2.62936 77.3715 0.000976562 74.1406 0.000976562Z" fill="#0052DA"/>
<path d="M56.9539 41.6614C52 41.6614 47.9697 45.6916 47.9697 50.6456C48.4632 62.5644 65.4465 62.5608 65.9381 50.6456C65.9381 45.6916 61.9079 41.6614 56.9539 41.6614ZM56.9539 57.286C53.2923 57.286 50.3134 54.3072 50.3134 50.6456C50.2666 45.7743 55.5778 42.4923 59.8981 44.6957L55.9828 50.4929L57.925 51.8046L61.7819 46.0936C65.7534 50.2417 62.7538 57.3035 56.9539 57.286Z" fill="#0052DA"/>
<path d="M53.4385 15.8784H55.7822V18.2221H53.4385V15.8784Z" fill="#0052DA"/>
<path d="M58.126 15.8784H60.4697V18.2221H58.126V15.8784Z" fill="#0052DA"/>
</g>
<defs>
<clipPath id="clip0_1465_9681">
<rect width="80" height="80" fill="white"/>
</clipPath>
</defs>
</svg>
