<svg width="100" height="100" viewBox="0 0 100 100" fill="none" xmlns="http://www.w3.org/2000/svg">
<g clip-path="url(#clip0_658_24271)">
<path d="M35 26.6666H28.3334C25.572 26.6666 23.3334 28.9052 23.3334 31.6666V36.6666H8.33337C5.88672 36.6605 3.797 38.4303 3.40021 40.8446C3.00343 43.2588 4.41679 45.6044 6.73671 46.3816C7.47785 61.4583 19.9051 73.3089 35 73.3333H40V78.3333C40.0088 80.4446 41.3428 82.3229 43.3334 83.0266V93.3333C43.3334 97.0152 46.3181 100 50 100C53.6819 100 56.6667 97.0152 56.6667 93.3333V83.0266C58.6573 82.3229 59.9913 80.4446 60 78.3333V73.3333H65C80.0949 73.3089 92.5222 61.4583 93.2634 46.3816C95.5833 45.6044 96.9967 43.2588 96.5999 40.8446C96.2031 38.4303 94.1134 36.6605 91.6667 36.6666H76.6667V31.6666C76.6667 28.9052 74.4281 26.6666 71.6667 26.6666H65C62.2386 26.6666 60 28.9052 60 31.6666V36.6666H55V13.3333C54.9961 9.49331 53.3386 5.84101 50.4511 3.30962C47.5637 0.778236 43.7259 -0.387007 39.9184 0.111634C33.1863 1.1078 28.2325 6.9353 28.3334 13.74V15C28.3334 16.8409 29.8258 18.3333 31.6667 18.3333H35C36.841 18.3333 38.3334 16.8409 38.3334 15V13.3333C38.3324 12.3297 38.7837 11.3791 39.5619 10.7454C40.3402 10.1117 41.3625 9.8624 42.345 10.0666C43.9328 10.4555 45.0368 11.8957 45 13.53V36.6666H40V31.6666C40 28.9052 37.7615 26.6666 35 26.6666ZM26.6667 31.6666C26.6667 30.7462 27.4129 30 28.3334 30H35C35.9205 30 36.6667 30.7462 36.6667 31.6666V36.6666H26.6667V31.6666ZM53.3334 93.3333C53.3334 95.1743 51.841 96.6666 50 96.6666C48.1591 96.6666 46.6667 95.1743 46.6667 93.3333V83.3333H53.3334V93.3333ZM56.6667 78.3333C56.6667 79.2538 55.9205 80 55 80H45C44.0796 80 43.3334 79.2538 43.3334 78.3333V73.3333H56.6667V78.3333ZM65 70H35C21.8464 69.9831 10.9491 59.7898 10.055 46.6666H89.945C89.051 59.7898 78.1537 69.9831 65 70ZM93.3334 41.6666C93.3334 42.5871 92.5872 43.3333 91.6667 43.3333H8.33337C7.4129 43.3333 6.66671 42.5871 6.66671 41.6666C6.66671 40.7462 7.4129 40 8.33337 40H91.6667C92.5872 40 93.3334 40.7462 93.3334 41.6666ZM63.3334 31.6666C63.3334 30.7462 64.0796 30 65 30H71.6667C72.5872 30 73.3334 30.7462 73.3334 31.6666V36.6666H63.3334V31.6666ZM42.9817 6.79497C41.0219 6.40064 38.9885 6.90662 37.4421 8.17344C35.8956 9.44026 34.9992 11.3342 35 13.3333V15H31.6667V13.74C31.5636 8.61118 35.2732 4.19831 40.3434 3.4183C43.2004 3.04183 46.0812 3.91433 48.2493 5.81275C50.4174 7.71118 51.6626 10.4515 51.6667 13.3333V36.6666H48.3334V13.53C48.3857 10.2954 46.1445 7.47481 42.9817 6.79497Z" fill="#0052DA"/>
<path d="M78 53C78 54.0506 77.2887 55.0909 75.9067 56.0615C74.5247 57.0321 72.499 57.914 69.9454 58.6569C67.3918 59.3997 64.3602 59.989 61.0238 60.391C57.6873 60.7931 54.1113 61 50.5 61C46.8886 61 43.3127 60.7931 39.9762 60.391C36.6398 59.989 33.6082 59.3997 31.0546 58.6569C28.501 57.914 26.4753 57.0321 25.0933 56.0615C23.7113 55.0909 23 54.0506 23 53L28.1562 53C28.1562 53.8536 28.7342 54.6988 29.8571 55.4874C30.9799 56.2761 32.6258 56.9926 34.7006 57.5962C36.7754 58.1998 39.2385 58.6786 41.9494 59.0052C44.6603 59.3319 47.5658 59.5 50.5 59.5C53.4342 59.5 56.3397 59.3319 59.0506 59.0052C61.7615 58.6786 64.2246 58.1998 66.2994 57.5962C68.3742 56.9926 70.0201 56.2761 71.1429 55.4874C72.2658 54.6988 72.8438 53.8536 72.8438 53H78Z" fill="#FDB52A"/>
</g>
<defs>
<clipPath id="clip0_658_24271">
<rect width="100" height="100" fill="white"/>
</clipPath>
</defs>
</svg>
