<svg width="80" height="80" viewBox="0 0 80 80" fill="none" xmlns="http://www.w3.org/2000/svg">
<path d="M75.4138 54.0036V41.5469C75.4141 40.2677 74.9361 39.0346 74.0737 38.0898C73.2112 37.1449 72.0267 36.5567 70.7528 36.4407C69.4788 36.3246 68.2075 36.689 67.1885 37.4624C66.1695 38.2357 65.4765 39.3621 65.2455 40.6203H52.0179C51.6657 40.2352 51.2371 39.9279 50.7593 39.718C50.2815 39.5082 49.7652 39.4004 49.2434 39.4016H44.0502V31.9375H50.3571C51.201 31.9364 52.0101 31.6007 52.6068 31.0039C53.2035 30.4072 53.5393 29.5982 53.5404 28.7543V26.9861C53.5392 26.1422 53.2035 25.3333 52.6067 24.7365C52.01 24.1398 51.201 23.8041 50.3571 23.803H27.1329C26.289 23.8041 25.48 24.1398 24.8833 24.7365C24.2865 25.3333 23.9508 26.1422 23.9496 26.9861V28.7543C23.9507 29.5982 24.2865 30.4072 24.8832 31.0039C25.4799 31.6007 26.289 31.9364 27.1329 31.9375H33.7016V39.4022H27.9299C27.4086 39.4021 26.8929 39.5104 26.4157 39.7202C25.9384 39.93 25.51 40.2368 25.1576 40.621H12.2446C12.0135 39.3629 11.3204 38.2367 10.3014 37.4635C9.28245 36.6903 8.01123 36.3259 6.73738 36.442C5.46353 36.5581 4.2791 37.1462 3.41666 38.0908C2.55422 39.0355 2.0761 40.2684 2.07617 41.5475V64.6921C2.07606 65.9712 2.55416 67.2042 3.41658 68.1489C4.279 69.0935 5.46344 69.6817 6.7373 69.7978C8.01116 69.9139 9.28241 69.5495 10.3014 68.7763C11.3204 68.0031 12.0135 66.8769 12.2446 65.6188H25.1073C25.4601 66.003 25.8889 66.3098 26.3664 66.5196C26.844 66.7294 27.36 66.8376 27.8816 66.8375H45.7929C46.3888 69.1161 47.4705 71.2387 48.9638 73.06C50.4571 74.8812 52.3266 76.358 54.4442 77.3889C56.5617 78.4198 58.8772 78.9805 61.2318 79.0326C63.5864 79.0847 65.9244 78.6269 68.0855 77.6906C70.2465 76.7543 72.1795 75.3617 73.7519 73.6083C75.3242 71.8549 76.4987 69.7821 77.1949 67.5321C77.891 65.2822 78.0922 62.9083 77.7848 60.5733C77.4774 58.2383 76.6686 55.9974 75.4138 54.0043V54.0036ZM10.1426 64.6921C10.1454 65.0799 10.0715 65.4644 9.92501 65.8235C9.77855 66.1827 9.56248 66.5092 9.28925 66.7845C9.01602 67.0597 8.69102 67.2782 8.33298 67.4272C7.97495 67.5763 7.59095 67.653 7.20312 67.653C6.8153 67.653 6.4313 67.5763 6.07327 67.4272C5.71523 67.2782 5.39023 67.0597 5.117 66.7845C4.84377 66.5092 4.6277 66.1827 4.48124 65.8235C4.33479 65.4644 4.26084 65.0799 4.26367 64.6921V41.5469C4.26933 40.771 4.58151 40.0289 5.13215 39.4822C5.68279 38.9356 6.42723 38.6288 7.20312 38.6288C7.97902 38.6288 8.72346 38.9356 9.2741 39.4822C9.82474 40.0289 10.1369 40.771 10.1426 41.5469V64.6921ZM70.2869 38.6077C71.0662 38.6086 71.8133 38.9185 72.3644 39.4695C72.9154 40.0205 73.2254 40.7676 73.2263 41.5469V51.2443C71.5668 49.5563 69.5611 48.2482 67.3474 47.41V41.5469C67.3484 40.7676 67.6584 40.0205 68.2095 39.4695C68.7605 38.9185 69.5077 38.6086 70.2869 38.6077ZM55.1218 47.6999C54.8142 45.9983 54.2608 44.3504 53.4791 42.808H65.1599V46.7557C61.798 46.004 58.2845 46.3345 55.1218 47.6999ZM26.1374 28.7543V26.9861C26.1378 26.7222 26.2428 26.4691 26.4295 26.2824C26.6161 26.0958 26.8692 25.9908 27.1332 25.9905H50.3571C50.6211 25.9908 50.8742 26.0957 51.0609 26.2824C51.2476 26.469 51.3526 26.7221 51.3529 26.9861V28.7543C51.3526 29.0183 51.2476 29.2714 51.0609 29.4581C50.8742 29.6447 50.6211 29.7497 50.3571 29.75H27.1329C26.8689 29.7497 26.6158 29.6447 26.4291 29.458C26.2425 29.2713 26.1374 29.0183 26.1371 28.7543H26.1374ZM35.8891 31.9375H41.8627V39.4022H35.8891V31.9375ZM23.8213 42.808C22.7977 44.9775 21.8838 48.2715 21.8838 53.1205C21.8838 58.0243 22.7659 61.2969 23.7665 63.4321H12.3301V42.808H23.8213ZM27.8816 64.6494C27.6294 64.65 27.3807 64.5899 27.1566 64.4742C26.9325 64.3584 26.7395 64.1904 26.594 63.9844C25.6521 62.6407 24.072 59.4432 24.072 53.1193C24.072 46.9671 25.6698 43.6893 26.6224 42.2827C26.7671 42.069 26.962 41.894 27.1901 41.7731C27.4181 41.6522 27.6723 41.5891 27.9304 41.5893H49.2434C49.476 41.5884 49.7059 41.6393 49.9164 41.7382C50.1269 41.8372 50.3128 41.9818 50.4605 42.1614C51.2026 43.065 52.4888 45.0893 53.0882 48.7552C50.4135 50.3853 48.2643 52.7506 46.897 55.5688C45.5298 58.387 45.0023 61.539 45.3774 64.6488L27.8816 64.6494ZM47.4474 62.6943C47.4473 60.6108 47.9075 58.553 48.7951 56.668C49.6827 54.7831 50.9757 53.1175 52.5817 51.7902C54.1878 50.463 56.0672 49.507 58.0857 48.9905C60.1041 48.474 62.2117 48.4098 64.2579 48.8025C66.304 49.1952 68.2381 50.035 69.922 51.262C71.6059 52.4889 72.9979 54.0728 73.9986 55.9002C74.9992 57.7276 75.5838 59.7536 75.7106 61.8332C75.8373 63.9128 75.5031 65.9948 74.7318 67.9302L71.4255 64.6268L72.512 60.7619C72.8179 59.6193 72.4182 58.1268 71.5818 57.2902L65.889 51.5974C65.0521 50.7608 63.5591 50.3607 62.4168 50.6671L59.6021 51.4219C58.8488 51.6238 58.3173 52.1111 58.1435 52.7591C57.9698 53.4071 58.1866 54.095 58.7373 54.6464L64.6271 60.5363C64.7417 60.6512 64.8241 60.7942 64.866 60.951C64.908 61.1077 64.9081 61.2728 64.8663 61.4296L64.1409 64.1393C64.0986 64.296 64.016 64.4388 63.9013 64.5536C63.7865 64.6683 63.6436 64.7509 63.487 64.7932L60.7763 65.5194C60.6196 65.5612 60.4547 65.5611 60.298 65.5192C60.1413 65.4772 59.9984 65.3949 59.8835 65.2804L53.7429 59.1397C53.5436 58.9261 53.2904 58.7702 53.0099 58.6884C52.7294 58.6067 52.432 58.6021 52.1491 58.6752C51.494 58.8507 50.991 59.4263 50.7693 60.2543L50.0151 63.0694C49.709 64.2122 50.1088 65.7047 50.9454 66.5411L56.6379 72.2344C57.4748 73.071 58.9673 73.4708 60.1079 73.1652L64.1424 72.0911L67.5455 75.5236C65.3904 76.5248 63.0178 76.9667 60.6467 76.8085C58.2757 76.6503 55.9828 75.8971 53.9798 74.6186C51.9767 73.34 50.3282 71.5773 49.1865 69.4933C48.0448 67.4092 47.4467 65.071 47.4474 62.6947V62.6943ZM69.5171 74.4047L65.2502 70.1008C65.1147 69.9641 64.9455 69.8656 64.7597 69.8152C64.5739 69.7649 64.3781 69.7644 64.1921 69.8139L59.5438 71.0514C59.3044 71.0904 59.0593 71.0781 58.825 71.0153C58.5907 70.9525 58.3723 70.8406 58.1845 70.6871L52.4915 64.9943C52.3381 64.8063 52.2264 64.588 52.1636 64.3536C52.1008 64.1193 52.0884 63.8743 52.1273 63.6349L52.7648 61.2555L58.3363 66.8269C58.7232 67.2123 59.2043 67.4895 59.7318 67.6308C60.2593 67.7721 60.8146 67.7725 61.3423 67.6321L64.0527 66.9058C64.5801 66.7637 65.0609 66.4856 65.4471 66.0994C65.8333 65.7132 66.1114 65.2324 66.2535 64.705L66.9798 61.9946C67.1203 61.4668 67.1198 60.9114 66.9785 60.3839C66.8371 59.8563 66.5598 59.3751 66.1743 58.9883L60.6034 53.4175L62.9829 52.78C63.2223 52.7411 63.4673 52.7535 63.7016 52.8162C63.936 52.879 64.1543 52.9907 64.3423 53.1441L70.0352 58.8369C70.3196 59.1214 70.504 59.8074 70.4029 60.183L69.1466 64.6518C69.094 64.8388 69.0923 65.0366 69.1414 65.2246C69.1906 65.4126 69.289 65.5841 69.4265 65.7215L73.7034 69.9946C72.6413 71.7486 71.2134 73.2528 69.5171 74.4047ZM33.6427 11.191C33.2591 11.7072 33.0496 12.3321 33.0443 12.9752C33.0443 14.036 33.6343 15.0171 34.626 15.7061C34.1368 16.4577 33.8757 17.3349 33.8743 18.2318C33.8743 20.9279 36.2223 23.1213 39.1087 23.1213C41.8221 23.1213 44.0599 21.1822 44.3179 18.7093C46.433 18.38 48.017 17.0872 48.2337 15.4522C48.8274 15.5036 49.4368 15.5296 50.0577 15.5296C54.1245 15.5296 58.5012 14.3639 58.5012 11.805C58.5007 11.5179 58.4416 11.2339 58.3273 10.9705C59.8949 10.0918 60.8196 8.77645 60.8196 7.32895C60.8196 4.67348 57.729 2.59332 53.7834 2.59332C52.9363 2.5917 52.0923 2.69345 51.2699 2.89629C50.4184 1.72707 48.7634 0.973633 46.868 0.973633C44.9332 0.973633 43.2621 1.74879 42.4257 2.95004C41.9866 2.86262 41.54 2.81866 41.0923 2.81879C39.2737 2.81879 37.6679 3.50629 36.7852 4.61645C34.0302 4.65973 31.8884 6.27973 31.8884 8.34004C31.888 9.47957 32.5488 10.5049 33.6427 11.191ZM36.8982 6.80301C37.0218 6.80301 37.1465 6.80832 37.2798 6.81863C37.4995 6.83656 37.7196 6.78756 37.911 6.67807C38.1024 6.56858 38.2562 6.40373 38.3521 6.2052C38.6409 5.6091 39.6748 5.00582 41.092 5.00582C41.6141 5.00227 42.1327 5.09223 42.6232 5.27145C42.7671 5.3258 42.9208 5.34919 43.0744 5.34009C43.228 5.33099 43.3779 5.2896 43.5143 5.21863C43.6508 5.14766 43.7708 5.0487 43.8664 4.92822C43.962 4.80773 44.0312 4.66843 44.0693 4.51941C44.2366 3.86566 45.3543 3.16004 46.8682 3.16004C48.3623 3.16004 49.4821 3.85723 49.6629 4.50379C49.7036 4.64933 49.7741 4.78485 49.8699 4.90179C49.9656 5.01873 50.0846 5.11455 50.2192 5.18322C50.3539 5.25188 50.5013 5.29189 50.6522 5.30073C50.803 5.30957 50.9541 5.28704 51.0959 5.23457C51.9583 4.92723 52.8679 4.77349 53.7834 4.78035C56.6409 4.78035 58.6321 6.12316 58.6321 7.32848C58.6321 8.17051 57.6535 9.04957 56.1971 9.51598C56.0008 9.57879 55.8263 9.69578 55.6936 9.85346C55.5609 10.0111 55.4755 10.2031 55.4471 10.4072C55.4188 10.6113 55.4487 10.8193 55.5334 11.0072C55.6181 11.1951 55.7541 11.3552 55.9259 11.4691C56.073 11.5553 56.2011 11.6706 56.3024 11.8079C56.0571 12.2624 53.9143 13.3418 50.0577 13.3418C49.0743 13.3453 48.0923 13.2673 47.1218 13.1086C46.9207 13.0749 46.7142 13.098 46.5256 13.1754C46.337 13.2528 46.1738 13.3814 46.0544 13.5466C45.9349 13.7118 45.8641 13.9071 45.8498 14.1105C45.8354 14.3139 45.8783 14.5172 45.9734 14.6975C46.036 14.8104 46.0697 14.9369 46.0715 15.066C46.0715 15.7916 44.8645 16.603 43.2491 16.603H43.2193H43.2071C43.0495 16.603 42.8937 16.6371 42.7504 16.703C42.6072 16.7688 42.4799 16.8649 42.3772 16.9845C42.2746 17.1041 42.199 17.2446 42.1556 17.3961C42.1123 17.5477 42.1022 17.7069 42.1262 17.8627C42.1451 17.9849 42.1548 18.1084 42.1551 18.2321C42.1551 19.7219 40.7885 20.9341 39.1082 20.9341C37.4279 20.9341 36.0613 19.7219 36.0613 18.2321C36.0678 17.841 36.1629 17.4565 36.3395 17.1076C36.5162 16.7586 36.7698 16.4544 37.0812 16.2177C37.237 16.0942 37.3562 15.9305 37.4259 15.7444C37.4957 15.5582 37.5134 15.3565 37.4771 15.161C37.4408 14.9655 37.3519 14.7836 37.22 14.6349C37.0881 14.4861 36.9181 14.3761 36.7284 14.3168C35.8471 14.0408 35.2313 13.4886 35.2313 12.9755C35.2313 12.5735 35.6112 12.1364 36.2226 11.8349C36.4268 11.7341 36.5945 11.5721 36.7022 11.3715C36.8099 11.1709 36.8524 10.9417 36.8236 10.7158C36.7948 10.4899 36.6963 10.2786 36.5416 10.1115C36.387 9.94426 36.1841 9.8295 35.9612 9.78316C34.8859 9.55957 34.0751 8.93941 34.0751 8.34035C34.0755 7.61457 35.2827 6.80301 36.8982 6.80301Z" fill="#0052DA"/>
</svg>
