<svg width="40" height="39" viewBox="0 0 40 39" fill="none" xmlns="http://www.w3.org/2000/svg">
<path d="M28.2218 21.0532L25.8007 18.6925L32.1992 12.4537L33.0278 13.2616C33.5644 13.7848 34.4674 13.6817 34.8613 13.0416L39.833 4.96216C40.1097 4.51258 40.0369 3.93707 39.6567 3.5664L36.3422 0.334661C35.962 -0.0360842 35.3717 -0.106851 34.9107 0.16281L26.6246 5.01046C25.9707 5.39301 25.8608 6.27345 26.3989 6.79814L27.2275 7.60606L20.829 13.8449L18.4079 11.4842C19.2601 8.37947 18.3909 5.00368 15.9805 2.65336C12.9654 -0.286396 8.45193 -0.751676 4.92218 1.1022C4.59609 1.27352 4.37226 1.585 4.31844 1.94234C4.26469 2.29968 4.38734 2.66075 4.64929 2.91617L9.04709 7.20423C9.50404 7.64978 9.50404 8.37467 9.04709 8.82007C8.59013 9.26562 7.84678 9.26569 7.38983 8.82007L2.99204 4.53193C2.73008 4.27651 2.3597 4.15684 1.99329 4.20932C1.62681 4.26173 1.30736 4.48005 1.13165 4.79801C-0.762477 8.22681 -0.302635 12.6306 2.72266 15.5803C5.12773 17.9254 8.5881 18.7801 11.7795 17.9472L12.5431 18.6917L1.71884 29.2461C-0.572243 31.48 -0.57365 35.0905 1.71884 37.3259C4.00344 39.5534 7.72069 39.5536 10.0054 37.3259L20.8295 26.7715L21.5933 27.5162C20.7411 30.6209 21.6103 33.9967 24.0207 36.347C27.0357 39.2869 31.5492 39.7521 35.079 37.8983C35.4051 37.7269 35.6289 37.4155 35.6827 37.0581C35.7365 36.7008 35.6138 36.3397 35.3519 36.0843L30.9541 31.7962C30.4971 31.3507 30.4971 30.6258 30.9541 30.1804C31.411 29.7349 32.1545 29.7349 32.6113 30.1804L37.0091 34.4685C37.271 34.7239 37.6414 34.8433 38.0079 34.7911C38.3744 34.7387 38.6938 34.5203 38.8695 34.2024C40.7637 30.7736 40.3039 26.3698 37.2786 23.4201C34.8735 21.0751 31.4131 20.2204 28.2218 21.0532ZM35.332 2.58138L37.3524 4.55143L33.6238 10.6109L29.1174 6.21708L35.332 2.58138ZM28.8847 9.22197L30.5419 10.8378L24.1434 17.0766L22.4862 15.4608L28.8847 9.22197ZM8.3481 35.7101C6.97733 37.0467 4.74687 37.0467 3.37602 35.7101C2.00064 34.3691 1.99978 32.204 3.37602 30.8621L14.2002 20.3077L19.1723 25.1557L8.3481 35.7101ZM37.4163 31.6338L34.2686 28.5646C32.898 27.2282 30.6677 27.2282 29.2969 28.5646C27.9263 29.901 27.9263 32.0756 29.2969 33.4122L32.4446 36.4814C30.0531 37.1181 27.4825 36.4907 25.678 34.7313C23.7681 32.869 23.1196 30.0616 24.0259 27.5789C24.1776 27.1633 24.0704 26.6997 23.7505 26.3879L12.9368 15.8439C12.6175 15.5326 12.1424 15.4271 11.7152 15.5754C9.16896 16.4591 6.28976 15.8267 4.37984 13.9645C2.57532 12.205 1.93196 9.69867 2.58493 7.36679L5.73265 10.436C7.10327 11.7724 9.33357 11.7723 10.7043 10.436C12.075 9.09955 12.075 6.9249 10.7043 5.58833L7.55662 2.51914C9.9481 1.88232 12.5187 2.50977 14.3232 4.26927C16.2331 6.13153 16.8817 8.93898 15.9753 11.4216C15.8236 11.8372 15.9308 12.3008 16.2507 12.6127L27.0644 23.1566C27.3843 23.4685 27.8598 23.573 28.286 23.4251C30.8321 22.5414 33.7114 23.1738 35.6213 25.036C37.4259 26.7956 38.0693 29.3019 37.4163 31.6338Z" fill="white"/>
<path d="M15.2367 24.3739C14.779 23.9278 14.0371 23.9278 13.5795 24.3739L6.41874 31.3562C5.96116 31.8025 5.96116 32.5258 6.41874 32.9721C6.87647 33.4183 7.61826 33.4182 8.07592 32.9721L15.2366 25.9898C15.6942 25.5435 15.6942 24.8201 15.2367 24.3739Z" fill="white"/>
</svg>
