<svg width="100" height="100" viewBox="0 0 100 100" fill="none" xmlns="http://www.w3.org/2000/svg">
<g clip-path="url(#clip0_658_24316)">
<path d="M99.9974 39.5762V25.1785H97.0679V28.0471L90.867 30.2307C88.8257 30.9495 87.2529 32.5187 86.4879 34.455H82.5524C79.9254 34.4407 77.9354 36.7543 78.1581 39.3379L73.2632 39.3397C60.4109 39.3442 49.9114 49.6089 49.5239 62.3692C48.3404 63.1575 47.5586 64.5033 47.5586 66.0288V71.6811H49.5116V74.9963C48.9433 88.7281 29.3761 88.7248 28.8095 74.9963V45.7913C29.9862 45.0021 30.7625 43.66 30.7625 42.1395V23.5406C32.4673 22.936 33.6921 21.3079 33.6921 19.3983V13.5095C35.6283 12.7445 37.1976 11.1717 37.9165 9.13041L40.1002 2.92954H42.969V0H0.00231934V2.92954H2.87112L5.05481 9.13041C5.77372 11.1717 7.34298 12.7445 9.27921 13.5095V19.3983C9.27921 21.3077 10.504 22.936 12.2088 23.5406V42.1395C12.2088 43.6598 12.9851 45.0021 14.1618 45.7913V53.9329H17.0913V46.5339H25.88V74.9963C25.88 82.3192 31.8377 88.2769 39.1606 88.2769C46.4834 88.2769 52.4412 82.3192 52.4412 74.9963V71.6811H61.2298V74.9963C61.2298 80.484 59.2391 85.6663 55.601 89.72C54.3178 88.9007 52.5265 87.9025 51.3592 87.9035C48.9677 87.784 45.1843 90.7575 42.8553 91.2213C40.4316 91.4922 33.3608 89.9653 30.4477 89.2626C28.3408 87.5604 26.401 85.5554 26.2292 84.8865C25.6813 82.6329 23.5166 78.9895 22.8791 77.9462L21.9837 72.8951C22.4975 68.9603 20.5345 65.1783 17.0913 63.3172V56.8625H14.1618V74.9963C14.1618 88.7808 25.3763 99.9951 39.1606 99.9951C52.5958 100.274 64.4388 88.4324 64.1591 74.9961C64.1593 74.9963 64.1593 71.6811 64.1593 71.6811H66.1124V66.0288C66.1124 64.5213 65.3491 63.1891 64.189 62.3973C64.549 57.6989 68.4843 53.9852 73.2733 53.9852H78.1581C77.9356 56.5689 79.9254 58.8821 82.5524 58.8678H86.4879C87.2529 60.8041 88.8257 62.3733 90.867 63.0922L97.0679 65.2759V68.1451H99.9974V42.5057H97.0679V62.17L91.84 60.3291C90.0848 59.7109 88.9054 58.0452 88.9054 56.1842V37.1388C88.9054 35.2778 90.0846 33.612 91.84 32.9941L97.0679 31.1532V39.5764H99.9974V39.5762ZM15.1383 42.1395V23.7926H27.833V42.1395C27.833 42.9473 27.176 43.6043 26.3682 43.6043H16.6031C15.7955 43.6043 15.1383 42.9471 15.1383 42.1395ZM30.7625 19.3983C30.7625 20.206 30.1055 20.863 29.2978 20.863H13.6735C12.8658 20.863 12.2088 20.206 12.2088 19.3983V14.0216H30.7625V19.3983ZM7.81815 8.15741L5.97722 2.92954H36.9943L35.1533 8.15741C34.5352 9.9128 32.8697 11.092 31.0084 11.092H11.9631C10.1018 11.092 8.43628 9.9126 7.81815 8.15741ZM17.0913 74.9963V66.9034C18.6881 68.4054 19.4469 70.6825 19.0153 72.9339L20.0929 79.0116C20.9142 80.3349 22.8998 83.6842 23.3824 85.5782C24.0076 87.8613 27.8053 90.8993 29.1269 91.9553L29.4356 92.0312C30.5643 92.2763 39.2311 94.4784 43.1803 94.1325C44.4986 93.9854 45.9942 93.2033 47.5775 92.3752C48.8859 91.691 50.5124 90.8403 51.3481 90.8331C51.6777 90.8717 52.5042 91.2766 53.4335 91.8301C39.301 103.959 17.0156 93.6501 17.0913 74.9963ZM61.7181 64.564C62.5258 64.564 63.1828 65.221 63.1828 66.0288V68.7515H50.4881V66.0288C50.4881 65.221 51.1451 64.564 51.9529 64.564H61.7181ZM73.2733 51.0557C67.1285 51.0557 62.0475 55.6824 61.322 61.6347H52.4935C53.2478 50.8335 62.2749 42.2731 73.2644 42.2694L78.1583 42.2677V51.0557H73.2733ZM81.0876 54.4735V38.8493C81.0876 38.0415 81.7446 37.3845 82.5524 37.3845H85.9758V55.9383H82.5524C81.7446 55.9383 81.0876 55.2813 81.0876 54.4735Z" fill="#0052DA"/>
<path d="M44.0162 12.9639L44.8295 15.0015C47.6889 22.4941 58.3237 24.0778 62.8432 17.2471L79.5116 17.486C82.7973 22.4884 89.8517 24.0032 94.8616 20.6592C101.711 16.2919 101.654 6.0373 94.7577 1.74083C89.5751 -1.67932 82.2181 0.189343 79.1612 5.53713L62.7975 5.30765C58.5267 -1.12173 48.1975 0.0430601 45.1357 6.95971L44.2018 9.00356L50.8059 9.08988L52.0149 11.0894L50.7507 13.0555L44.0162 12.9639ZM52.4711 6.18182L49.2248 6.13944C52.4063 2.89312 58.4601 3.32493 60.7137 7.49152L61.1293 8.21414L80.9451 8.49187C82.8938 3.54562 88.557 1.32308 93.1746 4.20575C98.3099 7.37278 98.3544 14.9906 93.2533 18.2105C90.6968 19.8897 87.3309 19.9673 84.6791 18.408H84.6789C83.3721 17.6397 82.339 16.5973 81.6082 15.3099L81.1941 14.5804L61.2091 14.2941L60.7787 15.0353C58.2845 19.5909 51.895 19.822 48.7637 15.9585L52.3363 16.0069L55.4672 11.137L52.4711 6.18182Z" fill="#FDB52A"/>
<path d="M88.9691 15.5177C92.8529 15.5335 94.8302 10.7576 92.0764 8.0161C89.3152 5.26057 84.5787 7.22317 84.5748 11.1234C84.526 13.4854 86.6069 15.5665 88.9691 15.5177ZM87.9334 10.0875C88.4785 9.51935 89.4597 9.51915 90.0046 10.0875C90.9249 10.9855 90.2538 12.6059 88.9689 12.5881C87.6797 12.601 87.0122 10.99 87.9334 10.0875Z" fill="#FDB52A"/>
<path d="M20.0209 29.304H22.9504V32.2335H20.0209V29.304Z" fill="#0052DA"/>
<path d="M20.0209 35.1631H22.9504V38.0926H20.0209V35.1631Z" fill="#0052DA"/>
</g>
<defs>
<clipPath id="clip0_658_24316">
<rect width="100" height="100" fill="white"/>
</clipPath>
</defs>
</svg>
