<svg width="32" height="32" viewBox="0 0 32 32" fill="none" xmlns="http://www.w3.org/2000/svg">
<path d="M0 2.66669H1.33331V14.6667H9.33331V2.66669H10.6667V0H0V2.66669Z" fill="#17191F"/>
<path d="M29.3333 2.66675V4.00006H26.6666C21.5119 4.00006 17.3333 8.17875 17.3333 13.3334V14.6667H25.3333V13.3334C25.3333 12.597 25.9302 12.0001 26.6666 12.0001H29.3333V13.3334H31.9999V2.66675H29.3333Z" fill="#17191F"/>
<path d="M16 18.6667H17.3333V21.3334C17.3333 22.0698 16.7364 22.6667 16 22.6667V30.6667C21.1547 30.6667 25.3333 26.488 25.3333 21.3334V18.6667H26.6666V16H16V18.6667Z" fill="#17191F"/>
<path d="M14.6667 21.3333H12V31.9999H14.6667V21.3333Z" fill="#FDB52A"/>
<path d="M0 18.6667H1.33331V21.3334C1.33331 26.4881 5.512 30.6667 10.6666 30.6667V22.6667C9.93025 22.6667 9.33331 22.0698 9.33331 21.3334V18.6667H10.6666V16H0V18.6667Z" fill="#17191F"/>
</svg>
