<svg width="40" height="40" viewBox="0 0 40 40" fill="none" xmlns="http://www.w3.org/2000/svg">
<path d="M37.7139 28.9637C35.0899 29.4283 34.8577 31.2143 32.5518 31.2143C31.372 31.2143 30.8447 30.8204 30.1149 30.2754C29.2769 29.6495 28.2339 28.8705 26.2755 28.8705C24.3172 28.8705 23.2742 29.6495 22.4362 30.2754C21.7064 30.8204 21.1791 31.2143 19.9995 31.2143C18.8198 31.2143 18.2926 30.8204 17.5629 30.2754C16.7248 29.6494 15.682 28.8705 13.7237 28.8705C11.7653 28.8705 10.7224 29.6495 9.88437 30.2754C9.15461 30.8204 8.62734 31.2143 7.44773 31.2143C5.14359 31.2143 4.90906 29.4282 2.28617 28.9637C1.09484 28.7527 0 29.6752 0 30.8884V35.7427C0 36.7294 0.733828 37.5656 1.70672 37.6877C2.53273 37.7916 3.0075 38.1462 3.60859 38.5951C4.44664 39.2211 5.48945 40 7.44781 40C9.40617 40 10.4491 39.221 11.2871 38.5951C12.0169 38.05 12.5441 37.6562 13.7238 37.6562C14.9034 37.6562 15.4306 38.05 16.1603 38.5951C16.9984 39.2211 18.0412 40 19.9995 40C21.9579 40 23.0009 39.221 23.8389 38.5951C24.5687 38.05 25.0959 37.6562 26.2755 37.6562C27.4554 37.6562 27.9827 38.05 28.7125 38.5951C29.5505 39.2211 30.5934 40 32.5519 40C35.8442 40 36.3187 37.9359 38.2933 37.6877C39.2662 37.5656 40 36.7293 40 35.7426V30.8884C40 29.6739 38.9037 28.7528 37.7139 28.9637ZM37.6562 35.4162C35.0733 35.9032 34.8435 37.6562 32.5518 37.6562C31.372 37.6562 30.8447 37.2623 30.1149 36.7173C29.2769 36.0914 28.2339 35.3124 26.2755 35.3124C24.3172 35.3124 23.2742 36.0914 22.4362 36.7173C21.7064 37.2623 21.1791 37.6562 19.9995 37.6562C18.8198 37.6562 18.2926 37.2623 17.5629 36.7173C16.7248 36.0913 15.682 35.3124 13.7237 35.3124C11.7653 35.3124 10.7224 36.0914 9.88437 36.7173C9.15461 37.2623 8.62734 37.6562 7.44773 37.6562C5.15398 37.6562 4.92867 35.9036 2.34375 35.4162V31.3934C3.72203 31.8811 4.54117 33.5581 7.44773 33.5581C9.40602 33.5581 10.449 32.7791 11.287 32.1532C12.0168 31.6081 12.5441 31.2143 13.7237 31.2143C14.9033 31.2143 15.4305 31.6081 16.1602 32.1532C16.9983 32.7792 18.0411 33.5581 19.9995 33.5581C21.9578 33.5581 23.0008 32.7791 23.8388 32.1532C24.5686 31.6081 25.0959 31.2143 26.2755 31.2143C27.4553 31.2143 27.9827 31.6081 28.7124 32.1532C29.5505 32.7792 30.5934 33.5581 32.5518 33.5581C35.4584 33.5581 36.2779 31.881 37.6562 31.3934V35.4162Z" fill="white"/>
<path d="M4.34391 18.6483L18.6155 26.0343C19.4824 26.4829 20.5175 26.483 21.3845 26.0343L32.6391 20.2098L32.1107 21.3664C31.8418 21.9551 32.101 22.6504 32.6897 22.9193C33.2784 23.1882 33.9738 22.9288 34.2425 22.3402L36.1756 18.1083C36.5167 17.3861 36.053 16.5554 35.2787 16.4466L30.6557 15.7994C30.0147 15.7094 29.4224 16.1565 29.3327 16.7975C29.2429 17.4384 29.6898 18.0308 30.3308 18.1206L31.3112 18.2578L20.3073 23.9527C20.1148 24.0522 19.8852 24.0522 19.6928 23.9527L5.42117 16.5668C4.84625 16.2693 4.13922 16.4941 3.8418 17.069C3.5443 17.6438 3.76906 18.3509 4.34391 18.6483Z" fill="white"/>
<path d="M25.5673 15.0377C26.7109 13.0543 26.7451 10.6713 25.6589 8.66311L21.4355 0.854457C20.8193 -0.284793 19.1807 -0.284871 18.5645 0.854536L14.3411 8.66311C13.2549 10.6713 13.2891 13.0543 14.4327 15.0377C16.9082 19.3314 23.0904 19.3338 25.5673 15.0377ZM16.4026 9.77822L20 3.12694L23.5974 9.77822C24.2936 11.0654 24.2709 12.5939 23.537 13.867C21.9622 16.5983 18.0368 16.5965 16.4631 13.867C15.7291 12.5939 15.7064 11.0654 16.4026 9.77822Z" fill="white"/>
</svg>
