<svg width="40" height="40" viewBox="0 0 40 40" fill="none" xmlns="http://www.w3.org/2000/svg">
<path d="M40 18.726V16.3823H37.6544V15.4618C37.6544 13.2566 35.8603 11.4628 33.6551 11.4628C32.5522 11.4628 31.5521 11.9117 30.8279 12.6362C30.1035 11.9117 29.1034 11.4628 28.0005 11.4628C26.8976 11.4628 25.8972 11.9117 25.173 12.6362C24.4489 11.9117 23.4488 11.4628 22.3459 11.4628C21.2427 11.4628 20.2426 11.9117 19.5184 12.6362C18.7943 11.9117 17.7942 11.4628 16.691 11.4628C15.5881 11.4628 14.588 11.9117 13.8638 12.6362C13.1396 11.9117 12.1393 11.4628 11.0364 11.4628C8.83118 11.4628 7.03705 13.2569 7.03705 15.4618V16.3823H2.34558V18.7279H0V21.0716H2.34558V23.4172H7.03674V36.0009C7.03674 38.2062 8.83087 40 11.0361 40C12.1393 40 13.1393 39.5514 13.8635 38.8266C14.5877 39.5514 15.5878 40 16.6907 40C17.7939 40 18.7939 39.5514 19.5181 38.8266C20.2423 39.5514 21.2424 40 22.3456 40C23.4485 40 24.4485 39.5514 25.1727 38.8266C25.8969 39.5514 26.8973 40 28.0002 40C29.1031 40 30.1031 39.5514 30.8276 38.8266C31.5518 39.5514 32.5519 40 33.6548 40C35.86 40 37.6541 38.2062 37.6541 36.0009V35.0805H40V32.7368H37.6544V18.726H40ZM4.68933 21.0738V18.726H7.03674V21.0738H4.68933ZM11.0361 37.6562C10.1233 37.6562 9.38049 36.9137 9.38049 36.0009V15.4618C9.38049 14.5491 10.1233 13.8066 11.0361 13.8066C11.9489 13.8066 12.6917 14.5491 12.6917 15.4618V36.0009C12.6917 36.9137 11.9489 37.6562 11.0361 37.6562ZM16.691 37.6562C15.7779 37.6562 15.0354 36.9137 15.0354 36.0009V15.4618C15.0354 14.5491 15.7782 13.8066 16.691 13.8066C17.6038 13.8066 18.3463 14.5491 18.3463 15.4618V36.0009C18.3463 36.9137 17.6038 37.6562 16.691 37.6562ZM22.3456 37.6562C21.4328 37.6562 20.6903 36.9137 20.6903 36.0009V15.4618C20.6903 14.5491 21.4328 13.8066 22.3456 13.8066C23.2584 13.8066 24.0012 14.5491 24.0012 15.4618V36.0009C24.0012 36.9137 23.2584 37.6562 22.3456 37.6562ZM28.0005 37.6562C27.0874 37.6562 26.3449 36.9137 26.3449 36.0009V15.4618C26.3449 14.5491 27.0877 13.8066 28.0005 13.8066C28.9133 13.8066 29.6558 14.5491 29.6558 15.4618V36.0009C29.6558 36.9137 28.9133 37.6562 28.0005 37.6562ZM35.3107 36.0009C35.3107 36.9137 34.5679 37.6562 33.6551 37.6562C32.7423 37.6562 31.9998 36.9137 31.9998 36.0009V15.4618C31.9998 14.5491 32.7423 13.8066 33.6551 13.8066C34.5679 13.8066 35.3107 14.5491 35.3107 15.4618V36.0009Z" fill="white"/>
<path d="M15.322 9.11628H17.6657C17.6657 8.63318 17.7567 8.45099 17.9218 8.12079C18.1342 7.69598 18.425 7.1137 18.425 6.07762C18.425 5.04154 18.1342 4.45957 17.9218 4.03446C17.7567 3.70425 17.6657 3.52206 17.6657 3.03896C17.6657 2.55556 17.7567 2.37368 17.9218 2.04317C18.1342 1.61836 18.425 1.03608 18.425 0H16.0812C16.0812 0.483402 15.9903 0.665288 15.8252 0.995796C15.6128 1.4206 15.322 2.00288 15.322 3.03896C15.322 4.07504 15.6128 4.65702 15.8252 5.08213C15.9903 5.41233 16.0812 5.59453 16.0812 6.07762C16.0812 6.56072 15.9903 6.74291 15.8252 7.07311C15.6128 7.49792 15.322 8.0799 15.322 9.11628Z" fill="white"/>
<path d="M20.7941 9.11628H23.1378C23.1378 8.63318 23.2288 8.45099 23.3939 8.12079C23.6063 7.69598 23.8971 7.1137 23.8971 6.07762C23.8971 5.04154 23.6063 4.45957 23.3939 4.03446C23.2288 3.70425 23.1378 3.52206 23.1378 3.03896C23.1378 2.55556 23.2288 2.37368 23.3939 2.04317C23.6063 1.61836 23.8971 1.03608 23.8971 0H21.5533C21.5533 0.483402 21.4624 0.665288 21.2973 0.995796C21.0849 1.4206 20.7941 2.00288 20.7941 3.03896C20.7941 4.07504 21.0852 4.65702 21.2973 5.08213C21.4624 5.41233 21.5533 5.59453 21.5533 6.07762C21.5533 6.56072 21.4624 6.74291 21.2973 7.07311C21.0849 7.49792 20.7941 8.0799 20.7941 9.11628Z" fill="white"/>
<path d="M26.2665 9.11628H28.6102C28.6102 8.63318 28.7009 8.45099 28.866 8.12079C29.0784 7.69598 29.3692 7.1137 29.3692 6.07762C29.3692 5.04154 29.0784 4.45957 28.866 4.03446C28.7009 3.70425 28.6102 3.52206 28.6102 3.03896C28.6102 2.55556 28.7009 2.37368 28.866 2.04317C29.0784 1.61836 29.3692 1.03608 29.3692 0H27.0255C27.0255 0.483402 26.9345 0.665288 26.7694 0.995796C26.557 1.4206 26.2665 2.00288 26.2665 3.03896C26.2665 4.07504 26.557 4.65702 26.7694 5.08213C26.9345 5.41233 27.0255 5.59453 27.0255 6.07762C27.0255 6.56072 26.9345 6.74291 26.7694 7.07311C26.5573 7.49792 26.2665 8.0799 26.2665 9.11628Z" fill="white"/>
</svg>
