<svg width="80" height="80" viewBox="0 0 80 80" fill="none" xmlns="http://www.w3.org/2000/svg">
<path fill-rule="evenodd" clip-rule="evenodd" d="M33.2934 55.9139C33.2934 60.0931 29.895 63.4925 25.7189 63.4925C21.535 63.4925 18.1365 60.0933 18.1365 55.9139C18.1365 51.7355 21.535 48.3354 25.7189 48.3354C29.8949 48.3354 33.2934 51.7355 33.2934 55.9139ZM16.0989 55.9139C16.0989 61.2162 20.415 65.5291 25.7187 65.5291C31.0147 65.5291 35.3309 61.2162 35.3309 55.9139C35.3309 50.6125 31.0147 46.2987 25.7187 46.2987C20.415 46.2987 16.0989 50.6125 16.0989 55.9139ZM66.5859 61.0008C66.9296 61.8909 67.3899 63.34 67.1691 64.5432C66.9435 65.7843 66.2981 66.9128 65.3493 67.7178C64.9213 68.0773 64.2795 68.0306 63.9105 67.5957C63.5451 67.1656 63.5995 66.5232 64.035 66.1608C64.6561 65.6404 65.107 64.8202 65.1861 63.9989C65.2249 63.4492 65.0694 62.708 64.6883 61.7359C64.4861 61.2117 64.7505 60.6215 65.2715 60.4192C65.7926 60.2154 66.3837 60.4759 66.5859 61.0008ZM62.5574 70.3719C66.2747 70.3719 69.3 67.2192 69.3 63.3448C69.3 60.9216 67.5813 58.4936 65.7616 55.9234C64.6184 54.305 63.4441 52.6477 62.5576 50.8405C61.671 52.6479 60.5045 54.3051 59.3536 55.9234C57.5337 58.4936 55.8152 60.9215 55.8152 63.3448C55.815 67.2191 58.8401 70.3719 62.5574 70.3719ZM67.4257 54.7466C65.8704 52.548 64.2606 50.2757 63.5373 47.7731C63.2565 46.7957 61.8558 46.7995 61.5776 47.7731C59.9601 53.4315 53.7774 57.8554 53.7774 63.3447C53.7774 68.3421 57.7203 72.4085 62.5574 72.4085C67.3945 72.4085 71.3374 68.3421 71.3374 63.3447C71.3374 60.2736 69.4321 57.5891 67.4257 54.7466ZM47.2449 36.934C47.2449 36.9813 47.1982 37.025 47.1517 37.025H43.0067C42.9523 37.025 42.9134 36.9815 42.9134 36.934V27.3256C42.9134 27.2775 42.9523 27.2346 43.0067 27.2346H47.1517C47.1984 27.2346 47.2449 27.2773 47.2449 27.3256V36.934ZM31.0225 28.185L40.8758 28.2394V36.0807H31.0225V28.185ZM32.9123 45.6431C32.3134 45.2224 31.6758 44.853 31.0147 44.545C30.7581 44.4251 30.5637 44.2052 30.4781 43.936L29.5993 41.2375C29.4049 40.6535 28.8683 40.2631 28.2539 40.2631H23.1757C22.5613 40.2631 22.0246 40.6535 21.8381 41.2375L20.9593 43.936C20.8737 44.2052 20.6717 44.4251 20.4227 44.545C19.7617 44.853 19.124 45.2224 18.5253 45.6431C18.292 45.8048 18.0041 45.8647 17.7241 45.8048L14.9478 45.2138C14.3568 45.0893 13.7347 45.3663 13.4313 45.8888L10.8883 50.289C10.5849 50.8186 10.655 51.4827 11.0672 51.9376L12.9646 54.0482C13.1513 54.2575 13.2446 54.5373 13.2213 54.8181C13.159 55.556 13.159 56.2725 13.2213 57.0112C13.2446 57.2919 13.1512 57.5703 12.9646 57.7803L11.0672 59.8917C10.655 60.3466 10.5849 61.0093 10.8883 61.5404L13.4313 65.9405C13.7347 66.4631 14.3568 66.7384 14.9478 66.6155L17.7241 66.0245C17.9987 65.9632 18.2915 66.0253 18.5253 66.1863C19.124 66.6055 19.7617 66.9749 20.4227 67.2843C20.6715 67.4026 20.8737 67.6234 20.9593 67.8917L21.8381 70.5919C22.0248 71.1744 22.5613 71.5663 23.1757 71.5663H28.2539C28.8683 71.5663 29.4048 71.1743 29.5993 70.5919L30.4781 67.8925C30.5637 67.6234 30.7581 67.4042 31.0147 67.2843C31.6757 66.9763 32.3134 66.6071 32.9123 66.1863C33.1456 66.0245 33.4333 65.9647 33.7056 66.0245L36.4897 66.6155C37.0729 66.74 37.7029 66.4631 37.9984 65.9405L40.5414 61.5404C40.8448 61.0092 40.7747 60.3466 40.3704 59.8917L38.4651 57.7803C38.2784 57.5704 38.1851 57.292 38.2085 57.0112C38.2707 56.2736 38.2707 55.5552 38.2085 54.8181C38.1851 54.5373 38.2784 54.2575 38.4651 54.0482L40.3704 51.9376C40.7747 51.4827 40.8448 50.8186 40.5414 50.289L37.9984 45.8888C37.7029 45.3663 37.0729 45.0879 36.4819 45.2138L33.7056 45.8048C33.4333 45.8648 33.1379 45.8048 32.9123 45.6431ZM18.6885 18.684L22.0558 21.3002C22.3048 21.493 22.4446 21.7885 22.4446 22.1035V38.305C22.6857 38.2544 22.9267 38.2264 23.1757 38.2264H28.2539C28.5027 38.2264 28.7438 38.2544 28.9849 38.305V22.1035C28.9849 21.7885 29.1328 21.493 29.3737 21.3002L32.7411 18.684C33.1299 18.3839 33.3243 17.9834 33.3243 17.4941V13.3578C33.3243 12.9136 33.1609 12.5528 32.8344 12.2511L30.1125 9.74067V15.2963C30.1125 15.5771 29.9958 15.8477 29.7936 16.0399L26.4107 19.2066C26.0219 19.5714 25.4152 19.5714 25.0187 19.2066L21.6358 16.0399C21.4336 15.8477 21.3169 15.5771 21.3169 15.2963V9.74067L18.595 12.2511C18.2685 12.5528 18.1129 12.9136 18.1129 13.3578V17.4943C18.1131 17.9834 18.3075 18.3839 18.6885 18.684ZM55.1694 28.1795C55.2161 28.1795 55.2627 28.1779 55.3016 28.1779C61.5753 28.1779 66.6325 33.3728 66.6325 39.6535V43.632H58.7312V39.6535C58.7312 37.6827 57.1291 36.0808 55.1616 36.0808H49.2824V28.2488L55.1694 28.1795ZM55.1617 38.1175C55.9939 38.1175 56.6937 38.8205 56.6937 39.6533V44.6507C56.6937 45.2122 57.1526 45.6687 57.7125 45.6687H67.6512C68.2112 45.6687 68.6699 45.2122 68.6699 44.6507V39.6533C68.6699 32.9807 63.7968 27.272 57.2846 26.2896V18.7282H65.7302C66.2902 18.7282 66.7489 18.2725 66.7489 17.7101C66.7489 17.1479 66.2901 16.6922 65.7302 16.6922H46.8094C46.2417 16.6922 45.7907 17.1479 45.7907 17.7101C45.7907 18.2723 46.2417 18.7282 46.8094 18.7282H55.255V26.141C55.2161 26.1426 55.1849 26.1426 55.1462 26.1426L48.9637 26.2133C48.5904 25.6051 47.9216 25.1976 47.1517 25.1976H43.0067C42.2446 25.1976 41.5758 25.6019 41.2025 26.2047L31.0227 26.1479V22.6016L33.9934 20.2911C34.8721 19.6051 35.3621 18.6112 35.3621 17.4938V13.3578C35.3621 12.3437 34.9654 11.4431 34.2189 10.7549L29.7861 6.66819C29.1392 6.06947 28.0829 6.52547 28.0829 7.41635V14.8549L25.7187 17.0682L23.3545 14.8549V7.41619C23.3545 6.53667 22.2949 6.06547 21.6437 6.66723L17.2109 10.7531C16.4721 11.4413 16.0755 12.3419 16.0755 13.3576V17.4941C16.0755 18.6115 16.5577 19.6055 17.4443 20.2914L20.415 22.6019V39.6136C20.1894 39.9083 20.0184 40.2419 19.8939 40.6075L19.1552 42.8947C18.6653 43.1436 18.183 43.4205 17.7241 43.7237L15.3678 43.2221C13.9057 42.9111 12.4126 43.5728 11.6661 44.8707L9.13087 49.2709C8.37647 50.5674 8.54767 52.1872 9.55087 53.3L11.1606 55.0895V56.7389L9.55071 58.5285C8.54751 59.6421 8.37647 61.2621 9.13071 62.5584L11.6659 66.9586C12.4125 68.2549 13.9056 68.9175 15.3677 68.6064L17.724 68.1056C18.1829 68.409 18.6649 68.6842 19.155 68.9331L19.8937 71.2204C20.3603 72.6458 21.6747 73.6032 23.1755 73.6032H28.2537C29.7547 73.6032 31.0689 72.646 31.5355 71.2204L32.2744 68.9339C32.7721 68.6859 33.2465 68.409 33.7053 68.1058L36.0616 68.6066C37.5313 68.9192 39.0168 68.2551 39.7633 66.9587L42.3064 62.5586C43.0529 61.2623 42.8819 59.6423 41.8787 58.5287L40.2689 56.7392V55.0896L41.8787 53.3002C42.8819 52.1874 43.0529 50.5674 42.3064 49.2711L39.7633 44.8709C39.0168 43.573 37.5313 42.9112 36.0616 43.2223L33.7053 43.7239C33.2464 43.4205 32.772 43.1437 32.2744 42.8949L31.5355 40.6077C31.4189 40.2423 31.24 39.9085 31.0222 39.6138V38.1175H41.2331C41.6219 38.6867 42.2675 39.0608 43.0062 39.0608H47.1512C47.8899 39.0608 48.5355 38.6867 48.9165 38.1175H55.1617Z" fill="#0052DA"/>
</svg>
