<svg width="44" height="50" viewBox="0 0 44 50" fill="none" xmlns="http://www.w3.org/2000/svg">
<g clip-path="url(#clip0_1465_9097)">
<path d="M14.7824 0.0938969C13.8772 0.36987 13.1669 1.01381 12.7544 1.91072C12.5138 2.42817 12.4336 2.50866 12.2273 2.46267C12.0898 2.42817 10.1993 2.0947 8.02236 1.70374C5.10065 1.18629 3.90905 1.02531 3.45075 1.0598C2.22477 1.18629 1.06755 2.02571 0.529038 3.1986C0.162392 4.00352 0.196765 5.36039 0.609242 6.16531C1.23941 7.39569 2.1904 8.03963 3.49658 8.13162C4.52777 8.20061 11.0357 7.52218 11.5399 7.2922C12.1586 7.01623 12.193 6.16531 11.6201 5.78585C11.3451 5.60186 11.1159 5.61336 7.54113 5.99283C3.35908 6.45278 3.19868 6.44128 2.5685 5.80884C1.90396 5.14191 1.90396 4.06101 2.57996 3.38258C3.22159 2.75014 3.40491 2.75014 7.62134 3.48607C9.69518 3.85403 11.643 4.199 11.9523 4.26799L12.4909 4.38298V6.95873V9.54598L12.7773 9.82196C13.2241 10.2819 13.8772 10.1899 14.1522 9.63797C14.2897 9.3735 14.3241 8.68357 14.3241 5.95833V2.61215L14.7136 2.22119C15.0459 1.88772 15.1834 1.83023 15.6303 1.83023C16.2948 1.83023 16.8104 2.24419 16.9593 2.92262C17.0166 3.1756 17.0739 4.78544 17.0739 6.49878C17.0739 9.60348 17.0739 9.61498 17.3374 9.85645C17.6926 10.1899 18.2197 10.1899 18.5405 9.84495C18.7811 9.58048 18.7926 9.48849 18.7926 6.97023V4.35998L19.0561 4.30249C20.5112 3.96902 27.3056 2.85363 27.6494 2.89963C28.5545 3.02611 29.1045 3.69305 29.1045 4.65896C29.1045 5.09591 29.0357 5.33739 28.8524 5.57887C28.1649 6.47578 28.1191 6.47578 23.7652 6.00433C21.7143 5.78585 19.904 5.63636 19.755 5.67086C19.354 5.77435 19.0561 6.44128 19.228 6.82075C19.2967 6.98173 19.4686 7.17721 19.6175 7.2692C19.904 7.45318 26.2057 8.16612 27.5119 8.15462C28.8066 8.15462 29.9638 7.41869 30.6169 6.16531C30.995 5.46388 30.995 3.84253 30.6169 3.08361C30.0784 1.97971 28.9097 1.16329 27.741 1.0598C27.2713 1.02531 26.0224 1.19779 23.2038 1.70374C21.0612 2.0832 19.1821 2.40517 19.0332 2.42817C18.804 2.45117 18.7353 2.38218 18.6092 2.02571C18.2082 0.887321 16.925 -0.0210915 15.7105 0.00190544C15.3553 0.00190544 14.9428 0.0479012 14.7824 0.0938969Z" fill="#0052DA"/>
<path d="M10.2222 10.9144C9.99309 11.1328 9.97017 11.2593 9.97017 12.4782V13.8006L9.54624 14.318L9.12231 14.824H7.02555H4.9288V14.1456C4.9288 13.5821 4.88297 13.3981 4.65381 13.1337C4.37883 12.8117 4.37883 12.8117 2.69455 12.7772C1.76648 12.7542 0.884237 12.7657 0.72383 12.8002C0.0134539 12.9842 -0.250073 13.8581 0.265523 14.341C0.506134 14.571 0.655084 14.594 1.81231 14.594H3.09557V19.941V25.288H2.01855C0.861322 25.288 0.288438 25.426 0.116573 25.7479C-0.0782075 26.1159 -0.00946146 26.6104 0.265523 26.8748C0.517592 27.1163 0.643626 27.1278 2.45394 27.1278C4.333 27.1278 4.36737 27.1278 4.64235 26.8403C4.88297 26.6104 4.9288 26.4494 4.9288 25.8629V25.173H7.00264H9.07648L9.99309 26.0354C11.0587 27.0473 12.4679 27.8062 13.8085 28.1052C15.1147 28.4042 17.051 28.3007 18.277 27.8867C19.4571 27.4843 20.6144 26.7598 21.5081 25.8629L22.207 25.1615L25.2891 25.196L28.3597 25.2305L28.9441 25.541C30.2273 26.2194 30.8461 27.2888 30.9148 28.9791L30.9606 30.083L30.445 30.6005C29.6888 31.3709 29.6201 31.6584 29.6201 34.2341V36.4649L29.9409 36.7409L30.2617 37.0168H36.0478H41.834L42.109 36.7294C42.3954 36.4534 42.3954 36.4419 42.3954 34.2341C42.3954 32.1413 42.3725 31.9803 42.1204 31.4284C41.9715 31.1179 41.6506 30.6695 41.3986 30.451L40.9403 30.06L40.8715 27.5303C40.8257 25.9204 40.7455 24.7245 40.6309 24.2531C40.1841 22.2753 39.1987 20.332 37.8925 18.8141C36.5061 17.2043 34.2261 15.8014 32.0262 15.2035C30.8919 14.9045 30.8231 14.893 26.5265 14.847L22.1841 14.801L21.806 14.387C21.4393 13.9731 21.4393 13.9386 21.4278 12.8002C21.4278 11.5468 21.2904 10.9719 20.9695 10.7994C20.8321 10.7304 18.7468 10.6844 15.6188 10.6844C10.6003 10.6844 10.4629 10.6844 10.2222 10.9144ZM19.5946 13.6166V14.7205L20.2935 15.4909C20.6831 15.9164 21.0727 16.3418 21.1643 16.4338C21.3018 16.5833 22.058 16.6178 26.1026 16.6753C30.1701 16.7328 30.9835 16.7788 31.5679 16.9398C33.298 17.4457 34.6385 18.2047 35.8301 19.3546C37.3082 20.7459 38.2363 22.3098 38.7404 24.1956C38.9466 24.943 39.0039 25.5525 39.0383 27.4268L39.0956 29.738L38.6144 29.807C38.0873 29.876 37.7321 30.152 37.6977 30.52C37.6175 31.3594 37.904 31.6124 38.9581 31.6124C39.806 31.6124 40.3674 31.8078 40.4934 32.1298C40.5278 32.2333 40.5622 32.9692 40.5622 33.7512V35.177H35.9791H31.396V33.7282C31.396 32.2908 31.396 32.2793 31.7283 31.9458L32.0606 31.6124H33.9167C35.727 31.6124 35.7614 31.6009 36.0364 31.3249C36.4145 30.9569 36.4145 30.474 36.0249 30.106C35.7499 29.853 35.6354 29.83 34.2719 29.7955L32.8053 29.7495L32.7366 28.7031C32.5876 26.0929 31.0523 24.1266 28.7035 23.5057C28.165 23.3677 27.3171 23.3332 24.7162 23.3332H21.4164L20.4196 24.3451C18.9301 25.8629 17.6468 26.4379 15.7448 26.4609C14.5876 26.4724 13.82 26.2999 12.72 25.7709C12.0326 25.449 11.6659 25.173 10.8753 24.3451L9.88997 23.3332H7.41511H4.9288V19.9985V16.6638H7.38074C10.165 16.6638 9.82122 16.7788 10.9899 15.4909L11.6888 14.7205V13.6166V12.5242H15.6417H19.5946V13.6166Z" fill="#0052DA"/>
<path d="M19.5954 19.2855C19.4006 19.4465 19.309 19.688 19.2402 20.2169C18.9767 22.1142 17.8195 23.2986 15.9633 23.5631C15.0696 23.6896 14.7832 23.9311 14.7832 24.5405C14.7832 24.828 14.8634 24.989 15.104 25.1729C15.3675 25.3914 15.5165 25.4259 16.1581 25.3684C18.8048 25.1499 20.9818 22.8502 21.0162 20.2514C21.0276 19.619 20.9933 19.4925 20.7527 19.297C20.4204 19.021 19.9277 19.021 19.5954 19.2855Z" fill="#0052DA"/>
<path d="M32.439 39.8456C31.889 40.5586 32.3015 41.7314 33.0921 41.7314C33.6306 41.7314 33.9399 41.398 33.9972 40.7425C34.0431 40.2826 34.0087 40.1216 33.8025 39.8571C33.4587 39.4202 32.7713 39.4202 32.439 39.8456Z" fill="#0052DA"/>
<path d="M37.468 39.7764C37.1243 40.1214 37.1472 41.1448 37.5024 41.4782C37.8346 41.8002 38.3732 41.8002 38.7054 41.5012C38.9002 41.3057 38.9575 41.1333 38.9575 40.6388C38.9575 39.8684 38.7054 39.5464 38.0982 39.5464C37.8461 39.5464 37.6055 39.6384 37.468 39.7764Z" fill="#0052DA"/>
<path d="M31.3264 43.7092C31.0056 43.8587 30.8223 44.2727 30.8223 44.8476C30.8223 45.6985 31.693 46.17 32.3118 45.664C32.4951 45.5146 32.5867 45.2961 32.6326 44.8591C32.6784 44.3187 32.6555 44.2382 32.3347 43.9162C31.968 43.5598 31.7389 43.5023 31.3264 43.7092Z" fill="#0052DA"/>
<path d="M35.4419 43.686C35.0982 43.824 34.9492 44.1575 34.9492 44.7784C34.9492 45.7328 35.7283 46.1698 36.4043 45.5948C36.6793 45.3533 36.7252 45.2269 36.7252 44.7209C36.7252 44.215 36.6793 44.0885 36.4043 43.847C36.0606 43.5595 35.8544 43.525 35.4419 43.686Z" fill="#0052DA"/>
<path d="M38.9246 43.801C38.6496 44.0195 38.6152 44.123 38.6152 44.721C38.6152 45.3074 38.6496 45.4224 38.9131 45.6294C39.085 45.7674 39.3371 45.8708 39.4746 45.8708C39.6121 45.8708 39.8641 45.7674 40.036 45.6294C40.2881 45.4339 40.3339 45.3074 40.3339 44.7785C40.3339 44.0655 40.1047 43.7206 39.5891 43.6171C39.3371 43.5711 39.1537 43.6171 38.9246 43.801Z" fill="#0052DA"/>
<path d="M27.6033 47.8603C27.0533 48.2857 26.996 49.1827 27.4887 49.6771C27.8668 50.0566 28.0616 50.0796 28.5199 49.8381C28.9095 49.6426 28.9897 49.4701 28.9897 48.7917C28.9897 48.4007 28.9209 48.2053 28.7032 47.9983C28.4053 47.6878 27.9012 47.6303 27.6033 47.8603Z" fill="#0052DA"/>
<path d="M32.4837 47.9982C32.2546 48.2167 32.1973 48.3892 32.1973 48.8261C32.2087 49.4126 32.3348 49.6655 32.7358 49.8725C33.1253 50.0795 33.3316 50.0335 33.6982 49.677C34.0763 49.2861 34.1451 48.7226 33.8586 48.1822C33.5836 47.6302 32.9306 47.5382 32.4837 47.9982Z" fill="#0052DA"/>
<path d="M37.5381 47.9521C37.2861 48.1476 37.2402 48.2741 37.2402 48.803C37.2402 49.5849 37.5038 49.9414 38.0766 49.9414C38.7183 49.9414 38.9589 49.6424 38.9589 48.849C38.9589 48.2741 38.9245 48.1591 38.661 47.9521C38.4891 47.8141 38.2371 47.7106 38.0996 47.7106C37.9621 47.7106 37.71 47.8141 37.5381 47.9521Z" fill="#0052DA"/>
<path d="M42.613 47.8603C42.0631 48.2857 42.0058 49.1827 42.4985 49.6771C42.8766 50.0566 43.0713 50.0796 43.5297 49.8381C43.9192 49.6426 43.9994 49.4701 43.9994 48.7917C43.9994 48.4007 43.9307 48.2053 43.713 47.9983C43.4151 47.6878 42.9109 47.6303 42.613 47.8603Z" fill="#0052DA"/>
</g>
<defs>
<clipPath id="clip0_1465_9097">
<rect width="44" height="50" fill="white"/>
</clipPath>
</defs>
</svg>
