<svg width="32" height="32" viewBox="0 0 32 32" fill="none" xmlns="http://www.w3.org/2000/svg">
<path d="M15.9998 13.5644L17.2649 12.2993L18.53 11.0342L17.9308 10.4351L15.4006 12.9652L15.9998 13.5644Z" fill="#FDB52A"/>
<path d="M20.5846 18.7009L21.2461 18.164L19.8618 16.7798V17.9781L20.5846 18.7009Z" fill="#17191F"/>
<path d="M19.6215 14.9789L22.2973 17.6547H23.1723V16.7797L18.7586 12.366L18.4165 12.708C18.9736 13.3717 19.3842 14.1455 19.6215 14.9789Z" fill="#17191F"/>
<path d="M23.9482 12.1394L27.0297 9.0579L27.9047 9.93281L24.8232 13.0143L23.9482 12.1394Z" fill="#FDB52A"/>
<path d="M30.3446 10.7716V4.57909L29.6996 3.61304L20.4512 12.4984L23.9336 15.9803L30.3446 10.7716ZM22.7822 11.7476L26.6442 7.88553C26.7477 7.7821 26.888 7.724 27.0343 7.724C27.1806 7.724 27.3209 7.7821 27.4243 7.88553L29.0795 9.54069C29.1829 9.64415 29.241 9.78446 29.241 9.93075C29.241 10.077 29.1829 10.2174 29.0795 10.3208L25.2175 14.1828C25.114 14.2863 24.9737 14.3444 24.8274 14.3444C24.6811 14.3444 24.5408 14.2863 24.4373 14.1828L22.7822 12.5277C22.6787 12.4242 22.6206 12.2839 22.6206 12.1376C22.6206 11.9913 22.6787 11.851 22.7822 11.7476Z" fill="#17191F"/>
<path d="M23.8895 7.66311L25.3449 6.26506L24.8274 5.74534C24.4742 5.39211 24.2758 4.91303 24.2758 4.41349C24.2758 3.91396 24.4742 3.43488 24.8274 3.08165L26.8533 1.05574C26.9399 0.969246 26.9989 0.859011 27.0227 0.738991C27.0466 0.61897 27.0344 0.494558 26.9876 0.381501C26.9407 0.268444 26.8614 0.171824 26.7596 0.103871C26.6578 0.0359166 26.5382 -0.000316839 26.4158 -0.000244031H24.7331C24.3108 -0.000316492 23.8926 0.082799 23.5024 0.244356C23.1122 0.405913 22.7577 0.642747 22.4591 0.941332C22.1604 1.23992 21.9235 1.59441 21.7619 1.98455C21.6003 2.3747 21.5171 2.79286 21.5171 3.21516C21.5152 3.87275 21.6437 4.52418 21.8954 5.13171C22.147 5.73925 22.5167 6.29081 22.983 6.75443L23.8895 7.66311Z" fill="#17191F"/>
<path d="M18.9201 18.5965C18.8166 18.4931 18.7584 18.3528 18.7584 18.2065V16.6848C18.7618 15.5224 18.3648 14.3944 17.634 13.4904L16.3899 14.7345C16.2864 14.8379 16.1461 14.896 15.9998 14.896C15.8535 14.896 15.7132 14.8379 15.6098 14.7345L12.5753 11.7001C12.4719 11.5966 12.4138 11.4563 12.4138 11.31C12.4138 11.1637 12.4719 11.0234 12.5753 10.9199L15.2473 8.24797C15.4907 8.01049 15.6845 7.72706 15.8175 7.4141C15.9506 7.10115 16.0202 6.7649 16.0223 6.42485C16.0244 6.0848 15.959 5.74772 15.8298 5.43314C15.7007 5.11857 15.5103 4.83276 15.2699 4.59228C15.0295 4.35181 14.7437 4.16146 14.4291 4.03226C14.1146 3.90306 13.7775 3.83759 13.4375 3.83965C13.0974 3.8417 12.7611 3.91124 12.4482 4.04422C12.1352 4.17721 11.8517 4.371 11.6142 4.61436L5.74561 10.4824L26.7379 31.4753C26.9881 31.7256 27.3068 31.8961 27.6539 31.9653C28.001 32.0345 28.3608 31.9991 28.6879 31.8637C29.0149 31.7284 29.2944 31.4991 29.4911 31.2048C29.6877 30.9106 29.7927 30.5646 29.7927 30.2107C29.7935 29.9758 29.7476 29.743 29.6578 29.526C29.5679 29.3089 29.4358 29.1118 29.2692 28.9462L18.9201 18.5965Z" fill="#17191F"/>
<path d="M31.7044 12.6225L30.858 11.7761L29.2834 13.055L30.2765 14.0481C30.4176 14.1893 30.5973 14.2855 30.793 14.3245C30.9887 14.3636 31.1915 14.3437 31.376 14.2675C31.5604 14.1913 31.7181 14.0621 31.829 13.8962C31.94 13.7304 31.9994 13.5354 31.9996 13.3358C31.9988 13.0685 31.8928 12.8122 31.7044 12.6225Z" fill="#17191F"/>
<path d="M2.63177 29.6193C2.43271 29.8104 2.29537 30.0566 2.2374 30.3263C2.17944 30.5961 2.2035 30.877 2.3065 31.133C2.4095 31.3889 2.58672 31.6082 2.81537 31.7626C3.04403 31.917 3.31364 31.9995 3.58955 31.9994C3.99594 31.9989 4.38987 31.8591 4.70567 31.6033L16.071 22.3686L13.1861 19.481L2.63177 29.6193Z" fill="#17191F"/>
<path d="M14.6206 12.1849L17.1508 9.65474L16.2636 8.76758C16.1897 8.85751 16.1114 8.94468 16.0281 9.02799L13.7456 11.3099L14.6206 12.1849Z" fill="#FDB52A"/>
<path d="M3.86184 10.8057L4.57521 10.0923L8.32303 6.34451L7.448 5.46948L2.98682 9.93067L3.86184 10.8057Z" fill="#17191F"/>
<path d="M5.24131 2.75835C5.57632 2.75742 5.90818 2.82297 6.21767 2.9512C6.52717 3.07943 6.80814 3.26779 7.04432 3.50538L9.10333 5.56439L10.8059 3.86179L7.88569 0.941549C7.58773 0.641997 7.2333 0.404519 6.84294 0.242862C6.45258 0.081205 6.03403 -0.00142039 5.61152 -0.000231491C4.12369 0.00152095 2.69731 0.593371 1.64532 1.64547C0.593316 2.69758 0.00160616 4.12401 0 5.61184C0.000570946 5.75804 0.0586368 5.89815 0.161653 6.0019C0.266552 6.10258 0.406319 6.1588 0.551717 6.1588C0.697116 6.1588 0.836882 6.10258 0.941781 6.0019L3.4383 3.50538C3.67448 3.26779 3.95546 3.07943 4.26495 2.9512C4.57445 2.82297 4.90631 2.75742 5.24131 2.75835Z" fill="#17191F"/>
</svg>
