<svg width="30" height="32" viewBox="0 0 30 32" fill="none" xmlns="http://www.w3.org/2000/svg">
<path d="M27.5808 23.5191C26.697 22.3212 25.098 20.5925 25.098 20.5925C25.098 20.5925 23.4989 22.3212 22.6151 23.5191C21.3304 25.2605 20.7058 26.598 20.7058 27.6079C20.7058 30.0297 22.6761 32 25.098 32C27.5198 32 29.4901 30.0297 29.4901 27.6079C29.4901 26.598 28.8656 25.2605 27.5808 23.5191Z" fill="#FDB52A"/>
<path d="M19.7348 9.38196L19.4172 9.38529C19.0081 9.38955 18.6234 9.23369 18.3328 8.94626C18.0422 8.65876 17.8822 8.27533 17.8822 7.8666V4.70588H15.0587V2.82353H19.7646V0.941177H15.0587V0H13.1764V0.941177H8.47048V2.82353H13.1764V4.70588H10.3528V7.63382C10.3528 8.61421 9.55528 9.41177 8.57489 9.41177H6.19409C6.24604 9.68853 6.27441 9.97346 6.27441 10.265V15.1467C6.27441 15.4383 6.24598 15.7232 6.19409 16H19.7646C20.8025 16 21.647 16.8444 21.647 17.8824V18.8235H28.2352V17.8824C28.2352 13.1952 24.4219 9.38196 19.7348 9.38196Z" fill="#17191F"/>
<path d="M1.65653 7.5293H0V17.8822H1.65653C3.16493 17.8822 4.39216 16.655 4.39216 15.1466V10.2649C4.39216 8.75653 3.16493 7.5293 1.65653 7.5293Z" fill="#17191F"/>
</svg>
