<svg width="194" height="50" viewBox="0 0 194 50" fill="none" xmlns="http://www.w3.org/2000/svg">
<path d="M7.20068 29.7934V33.7417V46.583C7.20068 48.465 8.73279 50 10.5948 50H41.3907C43.26 50 44.7848 48.4576 44.7848 46.583V39.6827C44.8288 39.2177 44.9461 38.7749 45.2026 38.4133C45.4739 38.0295 46.0677 37.5793 46.4269 37.1587C47.0573 36.4281 47.6217 35.8377 47.5998 34.7897C47.5851 34.0148 47.1819 32.7454 46.918 32.0222C46.7641 31.6015 45.7891 29.2768 45.188 29.4686C44.9974 29.5277 45.034 29.9631 45.034 30.1255C45.0267 30.5166 45.0194 31.2768 45.0047 32.3912C45.0047 32.8118 44.9974 33.1661 44.9827 33.4539C44.9314 34.2952 44.7188 34.6052 43.9711 35.048C43.4873 35.3358 41.1195 35.3358 40.6357 35.048C39.8879 34.6052 39.6754 34.2952 39.624 33.4539C39.6094 33.1661 39.602 32.8118 39.602 32.3912C39.5874 31.2694 39.5801 30.5166 39.5727 30.1255C39.5727 29.9631 39.6094 29.5277 39.4188 29.4686C38.8177 29.2768 37.8427 31.5941 37.6888 32.0222C37.4249 32.7454 37.0217 34.0148 37.007 34.7897C36.985 35.8377 37.5421 36.4281 38.1799 37.1587C38.5391 37.5793 39.1329 38.0222 39.4041 38.4133C39.6607 38.7749 39.778 39.2177 39.822 39.6827V44.4502C39.822 44.7528 39.5801 44.9963 39.2795 44.9963H12.7206C12.4201 44.9963 12.1782 44.7528 12.1782 44.4502V34.2952C12.1782 33.9926 12.4201 33.7491 12.7206 33.7491H13.4317C18.3066 33.6236 19.1129 34.738 21.3854 34.7011C22.8003 34.679 24.8895 33.6531 25.4026 33.7417C25.8645 33.8229 26.2456 34.1402 26.5462 34.6937C27.0007 35.5424 27.096 36.5019 27.2353 37.4391C29.9843 36.9668 31.3624 36.7306 31.3624 36.7306C31.3258 35.3948 31.0179 34.1107 30.4681 32.9816C30.1162 31.8303 29.4565 30.8118 28.5768 30.0369C26.4216 28.1255 23.5187 29.3727 23.0568 26.9742C23.0568 26.8266 22.9322 26.7011 22.7856 26.7011H22.1405V25.6531C22.6903 25.3875 23.1008 24.8635 23.2181 24.2362C24.1564 24.5019 26.6708 25.0996 27.6091 25.0332C28.005 25.0037 28.3642 24.7823 28.5621 24.4354C28.6574 24.2657 28.7161 24.0738 28.7234 23.8819C28.7161 23.69 28.6648 23.4982 28.5621 23.3284C28.3642 22.9816 28.005 22.7602 27.6091 22.7306C26.6855 22.6642 24.1344 23.262 23.2108 23.5277C23.0422 22.6125 22.2431 21.9188 21.2901 21.9188C20.3298 21.9188 19.5308 22.6125 19.3695 23.5277C18.4532 23.2694 15.8948 22.6642 14.9711 22.7306C14.5753 22.7602 14.2161 22.9816 14.0182 23.3284C13.9229 23.4982 13.8642 23.69 13.8569 23.8819C13.8642 24.0738 13.9155 24.2657 14.0182 24.4354C14.2161 24.7823 14.5753 25.0111 14.9711 25.0332C15.9095 25.0996 18.4312 24.5019 19.3622 24.2362C19.4795 24.8635 19.8827 25.3875 20.4398 25.6531V26.7011H19.7947C19.6481 26.7011 19.5235 26.8266 19.5235 26.9742C19.2962 28.1476 18.3066 28.7602 16.5546 28.8044H16.1001H8.16833C7.64052 28.8044 7.20068 29.2399 7.20068 29.7712V29.7934Z" fill="#17191F"/>
<path d="M25.9963 6.56827L14.0621 18.583L12.8672 19.786L12.6473 20.0074L12.1708 20.4871L6.45289 26.2436L4.79617 27.9115L3.9898 28.7233C2.96351 29.3949 1.61468 29.2546 0.756999 28.3838C-0.108015 27.5129 -0.247299 26.155 0.419787 25.1292L3.98247 21.5424L6.28429 19.2251L14.4286 11.0258L14.5459 10.9078L14.7072 10.7454L15.2276 10.2214L15.279 10.1697L24.9481 0.435426C25.2413 0.140223 25.6225 0 26.0037 0C26.3849 0 26.7661 0.147603 27.0593 0.435426L51.5802 25.1292C52.2473 26.1624 52.108 27.5203 51.243 28.3838C50.378 29.2546 49.0292 29.3949 48.0102 28.7233L45.4152 26.1107C45.4152 26.1107 42.6002 23.2768 36.9776 17.6162L25.9963 6.56827Z" fill="#FDB52A"/>
<path d="M66.8874 16V49.4059H61V16H66.8874ZM74.2926 37.8898H65.4615V32.6801H73.0507C75.0745 32.6801 76.6077 32.1774 77.6502 31.172C78.7235 30.1362 79.2601 28.7043 79.2601 26.8763C79.2601 25.0484 78.7235 23.647 77.6502 22.672C76.6077 21.6971 75.1052 21.2097 73.1427 21.2097H64.9096V16H74.2926C76.5617 16 78.5242 16.457 80.18 17.371C81.8358 18.2849 83.1237 19.5645 84.0436 21.2097C84.9635 22.8244 85.4234 24.7285 85.4234 26.922C85.4234 29.0547 84.9635 30.9588 84.0436 32.6344C83.1237 34.2796 81.8358 35.5744 80.18 36.5188C78.5242 37.4328 76.5617 37.8898 74.2926 37.8898Z" fill="#17191F"/>
<path d="M95.4108 50C93.0191 50 91.118 49.3602 89.7074 48.0806C88.3276 46.7706 87.6377 45.0645 87.6377 42.9624C87.6377 40.8907 88.3582 39.2455 89.7994 38.0269C91.2713 36.7778 93.3564 36.0466 96.0548 35.8333L102.862 35.2849V34.7823C102.862 33.7464 102.663 32.9238 102.264 32.3145C101.896 31.6747 101.36 31.2177 100.654 30.9435C99.949 30.6389 99.1211 30.4866 98.1705 30.4866C96.5147 30.4866 95.2422 30.8217 94.3529 31.4919C93.4637 32.1317 93.0191 33.0457 93.0191 34.2339H88.2356C88.2356 32.5887 88.6496 31.172 89.4775 29.9839C90.336 28.7652 91.5319 27.8208 93.0651 27.1505C94.6289 26.4803 96.4227 26.1452 98.4465 26.1452C100.501 26.1452 102.264 26.5108 103.736 27.2419C105.208 27.9427 106.342 29.009 107.14 30.4409C107.937 31.8423 108.335 33.5941 108.335 35.6962V49.4059H103.414L103 46.0699C102.509 47.2276 101.559 48.172 100.148 48.9032C98.7685 49.6344 97.1893 50 95.4108 50ZM97.2047 45.7957C98.9525 45.7957 100.332 45.3082 101.344 44.3333C102.387 43.3584 102.908 42.0027 102.908 40.2661V39.078L98.1705 39.4435C96.4227 39.5959 95.1809 39.9615 94.4449 40.5403C93.709 41.0887 93.3411 41.8199 93.3411 42.7339C93.3411 43.7392 93.6784 44.5009 94.3529 45.0188C95.0275 45.5367 95.9781 45.7957 97.2047 45.7957Z" fill="#17191F"/>
<path d="M119.459 49.4059H113.848V26.8306H119L119.689 30.8521L119.046 30.3038C119.505 29.207 120.349 28.2473 121.575 27.4247C122.802 26.5717 124.335 26.1452 126.175 26.1452C128.168 26.1452 129.793 26.6631 131.05 27.6989C132.338 28.7348 133.227 30.1057 133.718 31.8118H132.798C133.135 30.1057 133.994 28.7348 135.374 27.6989C136.784 26.6631 138.486 26.1452 140.479 26.1452C143.239 26.1452 145.355 26.922 146.827 28.4758C148.298 29.9991 149.034 32.0556 149.034 34.6452V49.4059H143.469V36.1075C143.469 34.4928 143.055 33.2742 142.227 32.4516C141.43 31.5986 140.357 31.172 139.007 31.172C138.149 31.172 137.352 31.3701 136.616 31.7661C135.91 32.1622 135.343 32.7563 134.914 33.5484C134.485 34.3405 134.27 35.3611 134.27 36.6102V49.4059H128.659V36.0618C128.659 34.4776 128.26 33.2742 127.463 32.4516C126.665 31.629 125.607 31.2177 124.289 31.2177C123.4 31.2177 122.587 31.4158 121.851 31.8118C121.115 32.1774 120.533 32.7715 120.103 33.5941C119.674 34.3862 119.459 35.3916 119.459 36.6102V49.4059Z" fill="#17191F"/>
<path d="M161.304 50C158.913 50 157.011 49.3602 155.601 48.0806C154.221 46.7706 153.531 45.0645 153.531 42.9624C153.531 40.8907 154.252 39.2455 155.693 38.0269C157.165 36.7778 159.25 36.0466 161.948 35.8333L168.755 35.2849V34.7823C168.755 33.7464 168.556 32.9238 168.158 32.3145C167.79 31.6747 167.253 31.2177 166.548 30.9435C165.842 30.6389 165.015 30.4866 164.064 30.4866C162.408 30.4866 161.136 30.8217 160.246 31.4919C159.357 32.1317 158.913 33.0457 158.913 34.2339H154.129C154.129 32.5887 154.543 31.172 155.371 29.9839C156.229 28.7652 157.425 27.8208 158.959 27.1505C160.522 26.4803 162.316 26.1452 164.34 26.1452C166.394 26.1452 168.158 26.5108 169.629 27.2419C171.101 27.9427 172.236 29.009 173.033 30.4409C173.83 31.8423 174.229 33.5941 174.229 35.6962V49.4059H169.307L168.893 46.0699C168.403 47.2276 167.452 48.172 166.042 48.9032C164.662 49.6344 163.083 50 161.304 50ZM163.098 45.7957C164.846 45.7957 166.226 45.3082 167.238 44.3333C168.28 43.3584 168.801 42.0027 168.801 40.2661V39.078L164.064 39.4435C162.316 39.5959 161.074 39.9615 160.338 40.5403C159.602 41.0887 159.234 41.8199 159.234 42.7339C159.234 43.7392 159.572 44.5009 160.246 45.0188C160.921 45.5367 161.872 45.7957 163.098 45.7957Z" fill="#17191F"/>
<path d="M194 26.7392V31.9032H191.93C189.876 31.9032 188.266 32.4516 187.101 33.5484C185.936 34.6147 185.353 36.2446 185.353 38.4382V49.4059H179.742V26.8763H185.031L185.491 31.5376H184.939C185.246 30.0448 185.966 28.8262 187.101 27.8817C188.235 26.9373 189.707 26.4651 191.516 26.4651C191.915 26.4651 192.314 26.4803 192.712 26.5107C193.111 26.5412 193.54 26.6174 194 26.7392Z" fill="#17191F"/>
</svg>
