<svg width="52" height="50" viewBox="0 0 52 50" fill="none" xmlns="http://www.w3.org/2000/svg">
<path d="M7.20068 29.7934V33.7417V46.583C7.20068 48.465 8.73279 50 10.5948 50H41.3907C43.26 50 44.7848 48.4576 44.7848 46.583V39.6827C44.8288 39.2177 44.9461 38.7749 45.2026 38.4133C45.4739 38.0295 46.0677 37.5793 46.4269 37.1587C47.0573 36.4281 47.6217 35.8377 47.5998 34.7897C47.5851 34.0148 47.1819 32.7454 46.918 32.0222C46.7641 31.6015 45.7891 29.2768 45.188 29.4686C44.9974 29.5277 45.034 29.9631 45.034 30.1255C45.0267 30.5166 45.0194 31.2768 45.0047 32.3912C45.0047 32.8118 44.9974 33.1661 44.9827 33.4539C44.9314 34.2952 44.7188 34.6052 43.9711 35.048C43.4873 35.3358 41.1195 35.3358 40.6357 35.048C39.8879 34.6052 39.6754 34.2952 39.624 33.4539C39.6094 33.1661 39.602 32.8118 39.602 32.3912C39.5874 31.2694 39.5801 30.5166 39.5727 30.1255C39.5727 29.9631 39.6094 29.5277 39.4188 29.4686C38.8177 29.2768 37.8427 31.5941 37.6888 32.0222C37.4249 32.7454 37.0217 34.0148 37.007 34.7897C36.985 35.8377 37.5421 36.4281 38.1799 37.1587C38.5391 37.5793 39.1329 38.0222 39.4041 38.4133C39.6607 38.7749 39.778 39.2177 39.822 39.6827V44.4502C39.822 44.7528 39.5801 44.9963 39.2795 44.9963H12.7206C12.4201 44.9963 12.1782 44.7528 12.1782 44.4502V34.2952C12.1782 33.9926 12.4201 33.7491 12.7206 33.7491H13.4317C18.3066 33.6236 19.1129 34.738 21.3854 34.7011C22.8003 34.679 24.8895 33.6531 25.4026 33.7417C25.8645 33.8229 26.2456 34.1402 26.5462 34.6937C27.0007 35.5424 27.096 36.5019 27.2353 37.4391C29.9843 36.9668 31.3624 36.7306 31.3624 36.7306C31.3258 35.3948 31.0179 34.1107 30.4681 32.9816C30.1162 31.8303 29.4565 30.8118 28.5768 30.0369C26.4216 28.1255 23.5187 29.3727 23.0568 26.9742C23.0568 26.8266 22.9322 26.7011 22.7856 26.7011H22.1405V25.6531C22.6903 25.3875 23.1008 24.8635 23.2181 24.2362C24.1564 24.5019 26.6708 25.0996 27.6091 25.0332C28.005 25.0037 28.3642 24.7823 28.5621 24.4354C28.6574 24.2657 28.7161 24.0738 28.7234 23.8819C28.7161 23.69 28.6648 23.4982 28.5621 23.3284C28.3642 22.9816 28.005 22.7602 27.6091 22.7306C26.6855 22.6642 24.1344 23.262 23.2108 23.5277C23.0422 22.6125 22.2431 21.9188 21.2901 21.9188C20.3298 21.9188 19.5308 22.6125 19.3695 23.5277C18.4532 23.2694 15.8948 22.6642 14.9711 22.7306C14.5753 22.7602 14.2161 22.9816 14.0182 23.3284C13.9229 23.4982 13.8642 23.69 13.8569 23.8819C13.8642 24.0738 13.9155 24.2657 14.0182 24.4354C14.2161 24.7823 14.5753 25.0111 14.9711 25.0332C15.9095 25.0996 18.4312 24.5019 19.3622 24.2362C19.4795 24.8635 19.8827 25.3875 20.4398 25.6531V26.7011H19.7947C19.6481 26.7011 19.5235 26.8266 19.5235 26.9742C19.2962 28.1476 18.3066 28.7602 16.5546 28.8044H16.1001H8.16833C7.64052 28.8044 7.20068 29.2399 7.20068 29.7712V29.7934Z" fill="#0052DA"/>
<path d="M25.9963 6.56827L14.0621 18.583L12.8672 19.786L12.6473 20.0074L12.1708 20.4871L6.45289 26.2436L4.79617 27.9115L3.9898 28.7233C2.96351 29.3949 1.61468 29.2546 0.756999 28.3838C-0.108015 27.5129 -0.247299 26.155 0.419787 25.1292L3.98247 21.5424L6.28429 19.2251L14.4286 11.0258L14.5459 10.9078L14.7072 10.7454L15.2276 10.2214L15.279 10.1697L24.9481 0.435426C25.2413 0.140223 25.6225 0 26.0037 0C26.3849 0 26.7661 0.147603 27.0593 0.435426L51.5802 25.1292C52.2473 26.1624 52.108 27.5203 51.243 28.3838C50.378 29.2546 49.0292 29.3949 48.0102 28.7233L45.4152 26.1107C45.4152 26.1107 42.6002 23.2768 36.9776 17.6162L25.9963 6.56827Z" fill="#FDB52A"/>
</svg>
